<svg width="130" height="40" viewBox="0 0 130 40" fill="none" xmlns="http://www.w3.org/2000/svg">
<rect width="130" height="40" fill="white"/>
<path d="M30.2 27H20.6C20.4409 27 20.2883 26.9368 20.1757 26.8243C20.0632 26.7117 20 26.5591 20 26.4V15.6C20 15.4409 20.0632 15.2883 20.1757 15.1757C20.2883 15.0632 20.4409 15 20.6 15H30.2C30.3591 15 30.5117 15.0632 30.6243 15.1757C30.7368 15.2883 30.8 15.4409 30.8 15.6V26.4C30.8 26.5591 30.7368 26.7117 30.6243 26.8243C30.5117 26.9368 30.3591 27 30.2 27ZM23.6 17.4H22.4V18.6C22.4 19.3956 22.7161 20.1587 23.2787 20.7213C23.8413 21.2839 24.6044 21.6 25.4 21.6C26.1956 21.6 26.9587 21.2839 27.5213 20.7213C28.0839 20.1587 28.4 19.3956 28.4 18.6V17.4H27.2V18.6C27.2 19.0774 27.0104 19.5352 26.6728 19.8728C26.3352 20.2104 25.8774 20.4 25.4 20.4C24.9226 20.4 24.4648 20.2104 24.1272 19.8728C23.7896 19.5352 23.6 19.0774 23.6 18.6V17.4Z" fill="#023047"/>
<path d="M44.648 25L43.688 22.84H40.592L39.632 25H38.036L42.14 16.132L46.244 25H44.648ZM42.14 18.976L41 21.64H43.28L42.14 18.976ZM49.9332 25H47.2212V16.6H49.9332C50.7892 16.6 51.5412 16.776 52.1892 17.128C52.8372 17.472 53.3412 17.96 53.7012 18.592C54.0692 19.216 54.2532 19.952 54.2532 20.8C54.2532 21.64 54.0692 22.376 53.7012 23.008C53.3412 23.64 52.8372 24.132 52.1892 24.484C51.5412 24.828 50.7892 25 49.9332 25ZM49.8972 17.932H48.6732V23.668H49.8972C50.4492 23.668 50.9452 23.56 51.3852 23.344C51.8252 23.128 52.1692 22.808 52.4172 22.384C52.6732 21.96 52.8012 21.432 52.8012 20.8C52.8012 20.168 52.6732 19.64 52.4172 19.216C52.1692 18.792 51.8252 18.472 51.3852 18.256C50.9452 18.04 50.4492 17.932 49.8972 17.932ZM58.3472 25H55.6352V16.6H58.3472C59.2032 16.6 59.9552 16.776 60.6032 17.128C61.2512 17.472 61.7552 17.96 62.1152 18.592C62.4832 19.216 62.6672 19.952 62.6672 20.8C62.6672 21.64 62.4832 22.376 62.1152 23.008C61.7552 23.64 61.2512 24.132 60.6032 24.484C59.9552 24.828 59.2032 25 58.3472 25ZM58.3112 17.932H57.0872V23.668H58.3112C58.8632 23.668 59.3592 23.56 59.7992 23.344C60.2392 23.128 60.5832 22.808 60.8312 22.384C61.0872 21.96 61.2152 21.432 61.2152 20.8C61.2152 20.168 61.0872 19.64 60.8312 19.216C60.5832 18.792 60.2392 18.472 59.7992 18.256C59.3592 18.04 58.8632 17.932 58.3112 17.932ZM66.8069 17.908V16.6H72.6629V17.908H70.4429V25H69.0149V17.908H66.8069ZM72.6044 20.8C72.6044 20.176 72.7124 19.6 72.9284 19.072C73.1444 18.536 73.4484 18.076 73.8404 17.692C74.2404 17.3 74.7044 16.996 75.2324 16.78C75.7604 16.564 76.3364 16.456 76.9604 16.456C77.5844 16.456 78.1604 16.564 78.6884 16.78C79.2244 16.996 79.6884 17.3 80.0804 17.692C80.4804 18.076 80.7884 18.536 81.0044 19.072C81.2204 19.6 81.3284 20.176 81.3284 20.8C81.3284 21.424 81.2204 22.004 81.0044 22.54C80.7884 23.068 80.4844 23.532 80.0924 23.932C79.7004 24.324 79.2364 24.632 78.7004 24.856C78.1724 25.072 77.5924 25.18 76.9604 25.18C76.3284 25.18 75.7484 25.072 75.2204 24.856C74.6924 24.632 74.2324 24.324 73.8404 23.932C73.4484 23.532 73.1444 23.068 72.9284 22.54C72.7124 22.004 72.6044 21.424 72.6044 20.8ZM74.1044 20.8C74.1044 21.376 74.2244 21.892 74.4644 22.348C74.7124 22.796 75.0524 23.148 75.4844 23.404C75.9164 23.66 76.4084 23.788 76.9604 23.788C77.5204 23.788 78.0124 23.66 78.4364 23.404C78.8684 23.148 79.2044 22.796 79.4444 22.348C79.6924 21.892 79.8164 21.376 79.8164 20.8C79.8164 20.224 79.6964 19.712 79.4564 19.264C79.2164 18.808 78.8804 18.452 78.4484 18.196C78.0244 17.94 77.5284 17.812 76.9604 17.812C76.4084 17.812 75.9164 17.94 75.4844 18.196C75.0524 18.452 74.7124 18.808 74.4644 19.264C74.2244 19.712 74.1044 20.224 74.1044 20.8ZM92.0032 22.576C92.0032 23.128 91.8712 23.584 91.6072 23.944C91.3512 24.304 90.9952 24.572 90.5392 24.748C90.0912 24.916 89.5712 25 88.9792 25H86.3032V16.6H88.8352C89.6352 16.6 90.2832 16.776 90.7792 17.128C91.2752 17.472 91.5232 18 91.5232 18.712C91.5232 19.136 91.4072 19.496 91.1752 19.792C90.9432 20.08 90.6232 20.3 90.2152 20.452C90.7352 20.588 91.1632 20.832 91.4992 21.184C91.8352 21.528 92.0032 21.992 92.0032 22.576ZM88.7392 17.764H87.7192V19.972H88.7392C89.1312 19.972 89.4512 19.876 89.6992 19.684C89.9472 19.484 90.0712 19.212 90.0712 18.868C90.0712 18.516 89.9472 18.244 89.6992 18.052C89.4512 17.86 89.1312 17.764 88.7392 17.764ZM87.7192 23.836H88.8952C89.3752 23.836 89.7712 23.72 90.0832 23.488C90.3952 23.248 90.5512 22.896 90.5512 22.432C90.5512 21.976 90.3952 21.636 90.0832 21.412C89.7712 21.188 89.3752 21.076 88.8952 21.076H87.7192V23.836ZM99.0347 25L98.0747 22.84H94.9787L94.0187 25H92.4227L96.5267 16.132L100.631 25H99.0347ZM96.5267 18.976L95.3867 21.64H97.6667L96.5267 18.976ZM105.241 21.808V20.608H109.285C109.301 21.224 109.221 21.808 109.045 22.36C108.869 22.904 108.605 23.388 108.253 23.812C107.901 24.236 107.465 24.572 106.945 24.82C106.425 25.06 105.829 25.18 105.157 25.18C104.525 25.18 103.941 25.076 103.405 24.868C102.869 24.652 102.401 24.348 102.001 23.956C101.609 23.564 101.305 23.1 101.089 22.564C100.873 22.028 100.765 21.44 100.765 20.8C100.765 20.16 100.873 19.576 101.089 19.048C101.313 18.512 101.621 18.052 102.013 17.668C102.413 17.284 102.881 16.988 103.417 16.78C103.961 16.564 104.549 16.456 105.181 16.456C106.005 16.456 106.721 16.62 107.329 16.948C107.937 17.276 108.425 17.732 108.793 18.316L107.641 19.096C107.409 18.696 107.085 18.376 106.669 18.136C106.261 17.888 105.765 17.764 105.181 17.764C104.637 17.764 104.141 17.892 103.693 18.148C103.253 18.396 102.901 18.748 102.637 19.204C102.381 19.652 102.253 20.184 102.253 20.8C102.253 21.408 102.381 21.944 102.637 22.408C102.893 22.864 103.241 23.22 103.681 23.476C104.129 23.732 104.629 23.86 105.181 23.86C105.685 23.86 106.117 23.768 106.477 23.584C106.837 23.4 107.129 23.152 107.353 22.84C107.577 22.528 107.733 22.184 107.821 21.808H105.241Z" fill="#023047"/>
</svg>
