<svg width="30" height="120" viewBox="0 0 30 120" fill="none" xmlns="http://www.w3.org/2000/svg">
<rect x="0.5" y="90.5" width="29" height="29" stroke="#023047"/>
<path d="M14.7352 100.993H13.2385V103.238H10.9935V104.735H13.2385V106.98H14.7352V104.735H16.9802V103.238H14.7352V100.993Z" fill="#023047"/>
<path d="M13.9867 98C10.6858 98 8 100.686 8 103.987C8 107.288 10.6858 109.973 13.9867 109.973C15.315 109.973 16.605 109.529 17.6514 108.71L20.9411 112L21.9993 110.942L18.7095 107.652C19.5282 106.606 19.9732 105.315 19.9735 103.987C19.9735 100.686 17.2877 98 13.9867 98ZM13.9867 108.477C11.5105 108.477 9.49669 106.463 9.49669 103.987C9.49669 101.51 11.5105 99.4967 13.9867 99.4967C16.463 99.4967 18.4768 101.51 18.4768 103.987C18.4768 106.463 16.463 108.477 13.9867 108.477Z" fill="#023047"/>
<rect y="45" width="30" height="30" fill="#023047"/>
<path d="M10.0497 59.2012L8.19067 61.0602C7.4283 61.8225 7 62.8565 7 63.9347C7 65.0128 7.4283 66.0468 8.19067 66.8092C8.95304 67.5716 9.98704 67.9999 11.0652 67.9999C12.1434 67.9999 13.1774 67.5716 13.9397 66.8092L16.4166 64.331C16.8763 63.8712 17.219 63.3079 17.416 62.6882C17.6129 62.0685 17.6584 61.4107 17.5485 60.7698C17.4385 60.129 17.1765 59.5239 16.7844 59.0052C16.3922 58.4866 15.8813 58.0696 15.2947 57.7893L14.5007 58.5833C14.4201 58.6641 14.35 58.7547 14.292 58.8529C14.7453 58.9832 15.1567 59.2296 15.4856 59.5676C15.8145 59.9057 16.0494 60.3237 16.1673 60.7803C16.2851 61.237 16.2817 61.7165 16.1574 62.1715C16.0331 62.6264 15.7923 63.0411 15.4586 63.3744L12.9831 65.8513C12.4746 66.3598 11.785 66.6454 11.0659 66.6454C10.3468 66.6454 9.65711 66.3598 9.14862 65.8513C8.64013 65.3428 8.35447 64.6531 8.35447 63.934C8.35447 63.2149 8.64013 62.5252 9.14862 62.0168L10.2231 60.9436C10.0715 60.3755 10.0129 59.7866 10.0497 59.1998V59.2012Z" fill="white"/>
<path d="M12.5847 56.6675C12.125 57.1273 11.7822 57.6907 11.5853 58.3103C11.3883 58.93 11.3429 59.5878 11.4528 60.2287C11.5627 60.8695 11.8248 61.4747 12.2169 61.9933C12.6091 62.5119 13.1199 62.9289 13.7066 63.2092L14.7567 62.1578C14.2973 62.0346 13.8784 61.7926 13.5422 61.4562C13.2059 61.1198 12.9641 60.7008 12.8411 60.2414C12.718 59.7819 12.7181 59.2982 12.8413 58.8388C12.9644 58.3793 13.2063 57.9604 13.5426 57.6241L16.0181 55.1473C16.5266 54.6388 17.2163 54.3531 17.9354 54.3531C18.6545 54.3531 19.3442 54.6388 19.8527 55.1473C20.3611 55.6558 20.6468 56.3454 20.6468 57.0645C20.6468 57.7836 20.3611 58.4733 19.8527 58.9818L18.7782 60.0549C18.9299 60.624 18.9882 61.2134 18.9516 61.7987L20.8106 59.9397C21.573 59.1774 22.0013 58.1434 22.0013 57.0652C22.0013 55.987 21.573 54.953 20.8106 54.1907C20.0482 53.4283 19.0142 53 17.9361 53C16.8579 53 15.8239 53.4283 15.0615 54.1907L12.5847 56.6675Z" fill="white"/>
<rect x="0.5" y="0.5" width="29" height="29" stroke="#023047"/>
<path fill-rule="evenodd" clip-rule="evenodd" d="M8.28926 14.6882C7.45462 12.0824 8.43005 9.10402 11.1657 8.22272C12.6048 7.75834 14.1931 8.03214 15.3895 8.93212C16.5212 8.05703 18.168 7.76145 19.6054 8.22272C22.3411 9.10402 23.3228 12.0824 22.4889 14.6882C21.1899 18.8186 15.3895 22 15.3895 22C15.3895 22 9.63183 18.8668 8.28926 14.6882Z" stroke="#023047" stroke-linecap="round" stroke-linejoin="round"/>
</svg>
