<svg width="45" height="45" viewBox="0 0 45 45" fill="none" xmlns="http://www.w3.org/2000/svg">
<rect width="45" height="45" fill="#E5E5E5"/>
<path d="M15 30C15 28.4845 15.602 27.031 16.6737 25.9594C17.7453 24.8878 19.1988 24.2857 20.7143 24.2857C22.2298 24.2857 23.6833 24.8878 24.7549 25.9594C25.8265 27.031 26.4286 28.4845 26.4286 30H15ZM20.7143 23.5714C18.3464 23.5714 16.4286 21.6536 16.4286 19.2857C16.4286 16.9179 18.3464 15 20.7143 15C23.0821 15 25 16.9179 25 19.2857C25 21.6536 23.0821 23.5714 20.7143 23.5714ZM27.8571 26.4286H30.7143V27.8571H27.8571V26.4286ZM25.7143 22.8571H30.7143V24.2857H25.7143V22.8571ZM27.1429 19.2857H30.7143V20.7143H27.1429V19.2857Z" fill="#666666"/>
</svg>
