<svg width="89" height="102" viewBox="0 0 89 102" fill="none" xmlns="http://www.w3.org/2000/svg">
<circle cx="45" cy="25" r="25"/>
<path d="M16.1676 86.6H17.1876V92.24C17.1876 92.816 17.3436 93.28 17.6556 93.632C17.9676 93.984 18.4236 94.16 19.0236 94.16C19.6236 94.16 20.0796 93.984 20.3916 93.632C20.7036 93.28 20.8596 92.816 20.8596 92.24V86.6H21.8796V92.24C21.8796 92.792 21.7596 93.288 21.5196 93.728C21.2876 94.16 20.9596 94.5 20.5356 94.748C20.1116 94.996 19.6076 95.12 19.0236 95.12C18.4476 95.12 17.9436 94.996 17.5116 94.748C17.0876 94.5 16.7556 94.16 16.5156 93.728C16.2836 93.288 16.1676 92.792 16.1676 92.24V86.6ZM23.7393 86.6H24.7593V95H23.7393V86.6ZM29.7384 92.24C29.7384 91.64 29.8624 91.128 30.1104 90.704C30.3584 90.272 30.6904 89.94 31.1064 89.708C31.5224 89.476 31.9784 89.36 32.4744 89.36C32.8824 89.36 33.2464 89.452 33.5664 89.636C33.8944 89.82 34.1584 90.084 34.3584 90.428V85.64H35.3184V95H34.3584V94.052C34.1584 94.396 33.8944 94.66 33.5664 94.844C33.2464 95.028 32.8824 95.12 32.4744 95.12C31.9784 95.12 31.5224 95.004 31.1064 94.772C30.6904 94.54 30.3584 94.208 30.1104 93.776C29.8624 93.344 29.7384 92.832 29.7384 92.24ZM30.7104 92.24C30.7104 92.664 30.7944 93.024 30.9624 93.32C31.1384 93.616 31.3704 93.84 31.6584 93.992C31.9464 94.144 32.2584 94.22 32.5944 94.22C32.8744 94.22 33.1504 94.144 33.4224 93.992C33.6944 93.84 33.9184 93.616 34.0944 93.32C34.2704 93.024 34.3584 92.664 34.3584 92.24C34.3584 91.816 34.2704 91.456 34.0944 91.16C33.9184 90.864 33.6944 90.64 33.4224 90.488C33.1504 90.336 32.8744 90.26 32.5944 90.26C32.2584 90.26 31.9464 90.336 31.6584 90.488C31.3704 90.64 31.1384 90.864 30.9624 91.16C30.7944 91.456 30.7104 91.816 30.7104 92.24ZM39.1981 95.12C38.6861 95.12 38.2301 95 37.8301 94.76C37.4381 94.512 37.1301 94.172 36.9061 93.74C36.6901 93.308 36.5821 92.808 36.5821 92.24C36.5821 91.664 36.6941 91.16 36.9181 90.728C37.1501 90.296 37.4701 89.96 37.8781 89.72C38.2941 89.48 38.7741 89.36 39.3181 89.36C40.1261 89.36 40.7621 89.612 41.2261 90.116C41.6901 90.62 41.9221 91.312 41.9221 92.192C41.9221 92.248 41.9181 92.308 41.9101 92.372C41.9101 92.428 41.9101 92.464 41.9101 92.48H37.5661C37.6061 93.032 37.7781 93.46 38.0821 93.764C38.3861 94.068 38.7981 94.22 39.3181 94.22C40.0701 94.22 40.6461 93.888 41.0461 93.224L41.8261 93.716C41.2501 94.652 40.3741 95.12 39.1981 95.12ZM39.3181 90.2C38.8461 90.2 38.4621 90.328 38.1661 90.584C37.8701 90.832 37.6821 91.192 37.6021 91.664H40.8781C40.8461 91.224 40.6861 90.872 40.3981 90.608C40.1181 90.336 39.7581 90.2 39.3181 90.2ZM43.4659 93.308C43.6339 93.564 43.8379 93.784 44.0779 93.968C44.3259 94.152 44.6219 94.244 44.9659 94.244C45.2379 94.244 45.4499 94.184 45.6019 94.064C45.7619 93.936 45.8419 93.764 45.8419 93.548C45.8419 93.356 45.7779 93.196 45.6499 93.068C45.5299 92.932 45.3739 92.82 45.1819 92.732C44.9899 92.636 44.7859 92.548 44.5699 92.468C44.3299 92.372 44.0859 92.26 43.8379 92.132C43.5979 91.996 43.3939 91.824 43.2259 91.616C43.0659 91.4 42.9859 91.132 42.9859 90.812C42.9859 90.484 43.0699 90.212 43.2379 89.996C43.4139 89.78 43.6379 89.62 43.9099 89.516C44.1899 89.412 44.4779 89.36 44.7739 89.36C45.2139 89.36 45.6139 89.464 45.9739 89.672C46.3339 89.88 46.5979 90.136 46.7659 90.44L45.9979 90.932C45.8459 90.724 45.6539 90.552 45.4219 90.416C45.1979 90.28 44.9419 90.212 44.6539 90.212C44.4539 90.212 44.2819 90.256 44.1379 90.344C43.9939 90.432 43.9219 90.568 43.9219 90.752C43.9219 90.976 44.0379 91.16 44.2699 91.304C44.5099 91.44 44.7779 91.568 45.0739 91.688C45.3939 91.816 45.6859 91.956 45.9499 92.108C46.2139 92.252 46.4219 92.428 46.5739 92.636C46.7339 92.844 46.8139 93.112 46.8139 93.44C46.8139 93.92 46.6379 94.32 46.2859 94.64C45.9419 94.96 45.4859 95.12 44.9179 95.12C44.5499 95.12 44.2179 95.056 43.9219 94.928C43.6259 94.792 43.3739 94.62 43.1659 94.412C42.9659 94.204 42.8139 93.992 42.7099 93.776L43.4659 93.308ZM48.0777 87.2C48.0777 87.016 48.1417 86.86 48.2697 86.732C48.4057 86.604 48.5617 86.54 48.7377 86.54C48.9217 86.54 49.0777 86.604 49.2057 86.732C49.3337 86.86 49.3977 87.016 49.3977 87.2C49.3977 87.376 49.3337 87.532 49.2057 87.668C49.0777 87.796 48.9217 87.86 48.7377 87.86C48.5617 87.86 48.4057 87.796 48.2697 87.668C48.1417 87.532 48.0777 87.376 48.0777 87.2ZM48.2577 89.48H49.2177V95H48.2577V89.48ZM50.8229 95.36H51.7949C51.7949 95.624 51.8669 95.868 52.0109 96.092C52.1549 96.324 52.3589 96.508 52.6229 96.644C52.8869 96.788 53.1989 96.86 53.5589 96.86C53.8389 96.86 54.1149 96.792 54.3869 96.656C54.6589 96.52 54.8829 96.304 55.0589 96.008C55.2429 95.72 55.3349 95.344 55.3349 94.88V94.052C55.1349 94.396 54.8709 94.66 54.5429 94.844C54.2229 95.028 53.8589 95.12 53.4509 95.12C52.9549 95.12 52.4989 95.004 52.0829 94.772C51.6669 94.54 51.3349 94.208 51.0869 93.776C50.8389 93.344 50.7149 92.832 50.7149 92.24C50.7149 91.64 50.8389 91.128 51.0869 90.704C51.3349 90.272 51.6669 89.94 52.0829 89.708C52.4989 89.476 52.9549 89.36 53.4509 89.36C53.8589 89.36 54.2229 89.452 54.5429 89.636C54.8709 89.82 55.1349 90.084 55.3349 90.428V89.48H56.2949V94.88C56.2949 95.512 56.1629 96.04 55.8989 96.464C55.6349 96.896 55.2949 97.22 54.8789 97.436C54.4629 97.652 54.0229 97.76 53.5589 97.76C53.0229 97.76 52.5469 97.66 52.1309 97.46C51.7229 97.26 51.4029 96.976 51.1709 96.608C50.9389 96.248 50.8229 95.832 50.8229 95.36ZM51.6869 92.24C51.6869 92.664 51.7709 93.024 51.9389 93.32C52.1149 93.616 52.3469 93.84 52.6349 93.992C52.9229 94.144 53.2349 94.22 53.5709 94.22C53.8509 94.22 54.1269 94.144 54.3989 93.992C54.6709 93.84 54.8949 93.616 55.0709 93.32C55.2469 93.024 55.3349 92.664 55.3349 92.24C55.3349 91.816 55.2469 91.456 55.0709 91.16C54.8949 90.864 54.6709 90.64 54.3989 90.488C54.1269 90.336 53.8509 90.26 53.5709 90.26C53.2349 90.26 52.9229 90.336 52.6349 90.488C52.3469 90.64 52.1149 90.864 51.9389 91.16C51.7709 91.456 51.6869 91.816 51.6869 92.24ZM61.5787 91.64C61.5787 90.72 61.1867 90.26 60.4027 90.26C59.9867 90.26 59.6467 90.388 59.3827 90.644C59.1267 90.9 58.9987 91.232 58.9987 91.64V95H58.0387V89.48H58.9987V90.344C59.3587 89.688 59.9067 89.36 60.6427 89.36C61.2267 89.36 61.6867 89.556 62.0227 89.948C62.3667 90.332 62.5387 90.856 62.5387 91.52V95H61.5787V91.64ZM66.4794 95.12C65.9674 95.12 65.5114 95 65.1114 94.76C64.7194 94.512 64.4114 94.172 64.1874 93.74C63.9714 93.308 63.8634 92.808 63.8634 92.24C63.8634 91.664 63.9754 91.16 64.1994 90.728C64.4314 90.296 64.7514 89.96 65.1594 89.72C65.5754 89.48 66.0554 89.36 66.5994 89.36C67.4074 89.36 68.0434 89.612 68.5074 90.116C68.9714 90.62 69.2034 91.312 69.2034 92.192C69.2034 92.248 69.1994 92.308 69.1914 92.372C69.1914 92.428 69.1914 92.464 69.1914 92.48H64.8474C64.8874 93.032 65.0594 93.46 65.3634 93.764C65.6674 94.068 66.0794 94.22 66.5994 94.22C67.3514 94.22 67.9274 93.888 68.3274 93.224L69.1074 93.716C68.5314 94.652 67.6554 95.12 66.4794 95.12ZM66.5994 90.2C66.1274 90.2 65.7434 90.328 65.4474 90.584C65.1514 90.832 64.9634 91.192 64.8834 91.664H68.1594C68.1274 91.224 67.9674 90.872 67.6794 90.608C67.3994 90.336 67.0394 90.2 66.5994 90.2ZM73.1471 90.536C73.0191 90.44 72.9031 90.372 72.7991 90.332C72.6951 90.284 72.5631 90.26 72.4031 90.26C72.0431 90.26 71.7991 90.392 71.6711 90.656C71.5431 90.912 71.4791 91.24 71.4791 91.64V95H70.5191V89.48H71.4791V90.116C71.6311 89.884 71.8111 89.7 72.0191 89.564C72.2271 89.428 72.4351 89.36 72.6431 89.36C72.8431 89.36 73.0271 89.388 73.1951 89.444C73.3711 89.492 73.5311 89.592 73.6751 89.744L73.1471 90.536Z" fill="black"/>
<path d="M13.4631 75.41L16.0111 68.2H17.3411L13.4911 78.49L10.5511 70.874L7.61109 78.49L3.76109 68.2H5.09109L7.69509 75.41L10.5511 67.71L13.4631 75.41ZM17.4758 73.044L16.9298 72.218C17.1725 72.0407 17.5038 71.8633 17.9238 71.686C18.3532 71.5087 18.8665 71.42 19.4638 71.42C20.2105 71.42 20.8172 71.5927 21.2838 71.938C21.7505 72.274 21.9838 72.7547 21.9838 73.38V78H20.8638V77.132C20.6585 77.468 20.3505 77.72 19.9398 77.888C19.5292 78.056 19.1278 78.14 18.7358 78.14C18.3438 78.14 17.9752 78.0607 17.6298 77.902C17.2938 77.734 17.0232 77.496 16.8178 77.188C16.6125 76.88 16.5098 76.5067 16.5098 76.068C16.5098 75.4427 16.7292 74.9433 17.1678 74.57C17.6158 74.1873 18.2365 73.996 19.0298 73.996C19.4592 73.996 19.8232 74.0473 20.1218 74.15C20.4298 74.2433 20.6772 74.3507 20.8638 74.472V73.534C20.8638 73.0953 20.7192 72.7967 20.4298 72.638C20.1498 72.4793 19.8092 72.4 19.4078 72.4C18.9225 72.4 18.5165 72.4793 18.1898 72.638C17.8632 72.7967 17.6252 72.932 17.4758 73.044ZM17.6438 76.012C17.6438 76.3853 17.7698 76.6747 18.0218 76.88C18.2832 77.076 18.6192 77.174 19.0298 77.174C19.5432 77.174 19.9772 77.02 20.3318 76.712C20.6865 76.404 20.8638 75.9933 20.8638 75.48V75.242C20.6025 75.1113 20.3365 75.018 20.0658 74.962C19.7952 74.906 19.5105 74.878 19.2118 74.878C18.6705 74.878 18.2738 74.9807 18.0218 75.186C17.7698 75.382 17.6438 75.6573 17.6438 76.012ZM23.3201 74.78C23.3201 74.08 23.4647 73.4827 23.7541 72.988C24.0434 72.484 24.4307 72.0967 24.9161 71.826C25.4014 71.5553 25.9334 71.42 26.5121 71.42C26.9881 71.42 27.4127 71.5273 27.7861 71.742C28.1687 71.9567 28.4767 72.2647 28.7101 72.666V67.08H29.8301V78H28.7101V76.894C28.4767 77.2953 28.1687 77.6033 27.7861 77.818C27.4127 78.0327 26.9881 78.14 26.5121 78.14C25.9334 78.14 25.4014 78.0047 24.9161 77.734C24.4307 77.4633 24.0434 77.076 23.7541 76.572C23.4647 76.068 23.3201 75.4707 23.3201 74.78ZM24.4541 74.78C24.4541 75.2747 24.5521 75.6947 24.7481 76.04C24.9534 76.3853 25.2241 76.6467 25.5601 76.824C25.8961 77.0013 26.2601 77.09 26.6521 77.09C26.9787 77.09 27.3007 77.0013 27.6181 76.824C27.9354 76.6467 28.1967 76.3853 28.4021 76.04C28.6074 75.6947 28.7101 75.2747 28.7101 74.78C28.7101 74.2853 28.6074 73.8653 28.4021 73.52C28.1967 73.1747 27.9354 72.9133 27.6181 72.736C27.3007 72.5587 26.9787 72.47 26.6521 72.47C26.2601 72.47 25.8961 72.5587 25.5601 72.736C25.2241 72.9133 24.9534 73.1747 24.7481 73.52C24.5521 73.8653 24.4541 74.2853 24.4541 74.78ZM34.3565 78.14C33.7591 78.14 33.2271 78 32.7605 77.72C32.3031 77.4307 31.9438 77.034 31.6825 76.53C31.4305 76.026 31.3045 75.4427 31.3045 74.78C31.3045 74.108 31.4351 73.52 31.6965 73.016C31.9671 72.512 32.3405 72.12 32.8165 71.84C33.3018 71.56 33.8618 71.42 34.4965 71.42C35.4391 71.42 36.1811 71.714 36.7225 72.302C37.2638 72.89 37.5345 73.6973 37.5345 74.724C37.5345 74.7893 37.5298 74.8593 37.5205 74.934C37.5205 74.9993 37.5205 75.0413 37.5205 75.06H32.4525C32.4991 75.704 32.6998 76.2033 33.0545 76.558C33.4091 76.9127 33.8898 77.09 34.4965 77.09C35.3738 77.09 36.0458 76.7027 36.5125 75.928L37.4225 76.502C36.7505 77.594 35.7285 78.14 34.3565 78.14ZM34.4965 72.4C33.9458 72.4 33.4978 72.5493 33.1525 72.848C32.8071 73.1373 32.5878 73.5573 32.4945 74.108H36.3165C36.2791 73.5947 36.0925 73.184 35.7565 72.876C35.4298 72.5587 35.0098 72.4 34.4965 72.4ZM52.0588 75.41L54.6068 68.2H55.9368L52.0868 78.49L49.1468 70.874L46.2068 78.49L42.3568 68.2H43.6868L46.2908 75.41L49.1468 67.71L52.0588 75.41ZM56.0715 73.044L55.5255 72.218C55.7682 72.0407 56.0995 71.8633 56.5195 71.686C56.9489 71.5087 57.4622 71.42 58.0595 71.42C58.8062 71.42 59.4129 71.5927 59.8795 71.938C60.3462 72.274 60.5795 72.7547 60.5795 73.38V78H59.4595V77.132C59.2542 77.468 58.9462 77.72 58.5355 77.888C58.1249 78.056 57.7235 78.14 57.3315 78.14C56.9395 78.14 56.5709 78.0607 56.2255 77.902C55.8895 77.734 55.6189 77.496 55.4135 77.188C55.2082 76.88 55.1055 76.5067 55.1055 76.068C55.1055 75.4427 55.3249 74.9433 55.7635 74.57C56.2115 74.1873 56.8322 73.996 57.6255 73.996C58.0549 73.996 58.4189 74.0473 58.7175 74.15C59.0255 74.2433 59.2729 74.3507 59.4595 74.472V73.534C59.4595 73.0953 59.3149 72.7967 59.0255 72.638C58.7455 72.4793 58.4049 72.4 58.0035 72.4C57.5182 72.4 57.1122 72.4793 56.7855 72.638C56.4589 72.7967 56.2209 72.932 56.0715 73.044ZM56.2395 76.012C56.2395 76.3853 56.3655 76.6747 56.6175 76.88C56.8789 77.076 57.2149 77.174 57.6255 77.174C58.1389 77.174 58.5729 77.02 58.9275 76.712C59.2822 76.404 59.4595 75.9933 59.4595 75.48V75.242C59.1982 75.1113 58.9322 75.018 58.6615 74.962C58.3909 74.906 58.1062 74.878 57.8075 74.878C57.2662 74.878 56.8695 74.9807 56.6175 75.186C56.3655 75.382 56.2395 75.6573 56.2395 76.012ZM65.5418 72.792C65.3924 72.68 65.2571 72.6007 65.1358 72.554C65.0144 72.498 64.8604 72.47 64.6738 72.47C64.2538 72.47 63.9691 72.624 63.8198 72.932C63.6704 73.2307 63.5958 73.6133 63.5958 74.08V78H62.4758V71.56H63.5958V72.302C63.7731 72.0313 63.9831 71.8167 64.2258 71.658C64.4684 71.4993 64.7111 71.42 64.9538 71.42C65.1871 71.42 65.4018 71.4527 65.5978 71.518C65.8031 71.574 65.9898 71.6907 66.1578 71.868L65.5418 72.792ZM70.3406 72.792C70.1913 72.68 70.0559 72.6007 69.9346 72.554C69.8133 72.498 69.6593 72.47 69.4726 72.47C69.0526 72.47 68.7679 72.624 68.6186 72.932C68.4693 73.2307 68.3946 73.6133 68.3946 74.08V78H67.2746V71.56H68.3946V72.302C68.5719 72.0313 68.7819 71.8167 69.0246 71.658C69.2673 71.4993 69.5099 71.42 69.7526 71.42C69.9859 71.42 70.2006 71.4527 70.3966 71.518C70.6019 71.574 70.7886 71.6907 70.9566 71.868L70.3406 72.792ZM74.3604 78.14C73.763 78.14 73.231 78 72.7644 77.72C72.307 77.4307 71.9477 77.034 71.6864 76.53C71.4344 76.026 71.3084 75.4427 71.3084 74.78C71.3084 74.108 71.439 73.52 71.7004 73.016C71.971 72.512 72.3444 72.12 72.8204 71.84C73.3057 71.56 73.8657 71.42 74.5004 71.42C75.443 71.42 76.185 71.714 76.7264 72.302C77.2677 72.89 77.5384 73.6973 77.5384 74.724C77.5384 74.7893 77.5337 74.8593 77.5244 74.934C77.5244 74.9993 77.5244 75.0413 77.5244 75.06H72.4564C72.503 75.704 72.7037 76.2033 73.0584 76.558C73.413 76.9127 73.8937 77.09 74.5004 77.09C75.3777 77.09 76.0497 76.7027 76.5164 75.928L77.4264 76.502C76.7544 77.594 75.7324 78.14 74.3604 78.14ZM74.5004 72.4C73.9497 72.4 73.5017 72.5493 73.1564 72.848C72.811 73.1373 72.5917 73.5573 72.4984 74.108H76.3204C76.283 73.5947 76.0964 73.184 75.7604 72.876C75.4337 72.5587 75.0137 72.4 74.5004 72.4ZM83.2034 74.08C83.2034 73.0067 82.7461 72.47 81.8314 72.47C81.3461 72.47 80.9494 72.6193 80.6414 72.918C80.3428 73.2167 80.1934 73.604 80.1934 74.08V78H79.0734V71.56H80.1934V72.568C80.6134 71.8027 81.2528 71.42 82.1114 71.42C82.7928 71.42 83.3294 71.6487 83.7214 72.106C84.1228 72.554 84.3234 73.1653 84.3234 73.94V78H83.2034V74.08Z" fill="black"/>
</svg>
