<svg width="19" height="20" viewBox="0 0 19 20" fill="none" xmlns="http://www.w3.org/2000/svg">
<path d="M9.94197 12.3274V19.5349H0.639649C0.63936 18.399 0.89911 17.2781 1.399 16.258C1.89888 15.238 2.62564 14.346 3.52357 13.6503C4.42151 12.9545 5.46679 12.4736 6.57933 12.2443C7.69186 12.015 8.84212 12.0435 9.94197 12.3274ZM8.08151 11.1628C4.99779 11.1628 2.50011 8.66512 2.50011 5.5814C2.50011 2.49767 4.99779 0 8.08151 0C11.1652 0 13.6629 2.49767 13.6629 5.5814C13.6629 8.66512 11.1652 11.1628 8.08151 11.1628ZM13.6629 14.8837V11.6279L18.3141 15.814L13.6629 20V16.7442H10.8722V14.8837H13.6629Z" fill="#333333"/>
</svg>
