<svg width="11" height="12" viewBox="0 0 11 12" fill="none" xmlns="http://www.w3.org/2000/svg">
<path d="M10.2 12H0.6C0.44087 12 0.288258 11.9368 0.175736 11.8243C0.0632141 11.7117 0 11.5591 0 11.4V0.6C0 0.44087 0.0632141 0.288258 0.175736 0.175736C0.288258 0.0632141 0.44087 0 0.6 0H10.2C10.3591 0 10.5117 0.0632141 10.6243 0.175736C10.7368 0.288258 10.8 0.44087 10.8 0.6V11.4C10.8 11.5591 10.7368 11.7117 10.6243 11.8243C10.5117 11.9368 10.3591 12 10.2 12ZM3.6 2.4H2.4V3.6C2.4 4.39565 2.71607 5.15871 3.27868 5.72132C3.84129 6.28393 4.60435 6.6 5.4 6.6C6.19565 6.6 6.95871 6.28393 7.52132 5.72132C8.08393 5.15871 8.4 4.39565 8.4 3.6V2.4H7.2V3.6C7.2 4.07739 7.01036 4.53523 6.67279 4.87279C6.33523 5.21036 5.87739 5.4 5.4 5.4C4.92261 5.4 4.46477 5.21036 4.12721 4.87279C3.78964 4.53523 3.6 4.07739 3.6 3.6V2.4Z" fill="#023047"/>
</svg>
