<svg width="200" height="52" viewBox="0 0 200 52" fill="none" xmlns="http://www.w3.org/2000/svg">
<g clip-path="url(#clip0_4_1194)">
<path d="M18.0874 27.9401H10.7754L14.6623 15.2789L18.0874 27.9401ZM7.35039 40.7552L9.65942 33.0199H19.0495L21.3585 40.7552H29.1322L20.8582 11.4306C20.3964 9.50637 19.4728 8.89062 17.4331 8.89062H5.96498V11.546H6.88859C8.274 11.546 8.96671 11.9693 8.96671 13.0469C8.96671 13.7011 8.96671 14.1629 8.274 15.7407L0 40.7552" fill="#004A93"/>
<path d="M38.9452 40.7552V11.2381C38.9452 9.69878 38.0215 8.89062 36.4437 8.89062H29.3242V11.546H29.786C31.1714 11.546 31.8641 12.1233 31.8641 13.3547V40.7552H38.9452ZM51.7602 40.7552V11.2381C51.7602 9.69878 50.8366 8.89062 49.2588 8.89062H42.1393V11.546H42.6011C43.9865 11.546 44.6792 12.1233 44.6792 13.3547V40.7552" fill="#004A93"/>
<path d="M64.845 11.6996C64.845 9.58304 63.2287 8.35156 60.7272 8.35156C57.9949 8.35156 56.6094 9.58304 56.6094 11.6996C56.6094 13.8547 57.9949 15.1247 60.7272 15.1247C63.2287 15.1247 64.845 13.8547 64.845 11.6996ZM64.6141 40.7549V19.2425C64.6141 17.7416 63.6905 16.895 62.305 16.895H55.1855V19.4734H55.6474C57.0328 19.4734 57.4946 20.0506 57.4946 21.3591V40.7549H64.6141ZM81.5469 29.1713V33.9433C80.1615 35.3287 78.5837 36.0983 77.1982 36.0983C75.8128 36.0983 75.1201 35.4441 75.1201 33.6354C75.1201 31.6727 75.5819 30.903 77.1982 30.2873C78.3528 29.8255 79.5073 29.5176 81.5469 29.1713ZM71.4642 23.4757L72.1569 23.2063C74.0041 22.4751 75.1201 22.2057 76.5055 21.9363C77.1982 21.8594 78.1219 21.7439 78.5837 21.7439C80.8927 21.7439 81.5469 22.5136 81.5469 24.5917V25.169C78.3528 25.7077 77.4291 25.8617 75.5819 26.285C74.6583 26.5159 73.7347 26.8238 72.8496 27.2086C69.8863 28.4016 68.5009 30.6721 68.5009 34.2896C68.5009 38.7922 70.3481 40.9473 74.4659 40.9473C76.0822 40.9473 77.6601 40.5625 78.8146 39.8313C79.9691 39.2925 80.4309 39.0231 81.7778 37.7531V38.4843C81.7778 39.9852 82.4705 40.6779 83.8559 40.6779H90.7445V38.215H90.5136C89.1282 38.215 88.4355 37.5992 88.4355 36.3677V24.7072C88.4355 18.6267 86.3574 16.5486 80.4309 16.5486C78.3528 16.5486 76.544 16.7795 74.6968 17.2028C72.8496 17.6261 71.9645 17.9725 69.8863 19.05L71.4642 23.4757ZM101.481 40.7549V24.5917C103.098 23.0908 104.214 22.5136 105.83 22.5136C107.446 22.5136 107.908 23.2063 107.908 25.6308V40.7549H115.028V24.4763C115.028 21.1282 114.566 19.7043 113.642 18.4343C112.488 17.2028 111.141 16.6256 109.063 16.6256C106.33 16.6256 104.252 17.6261 101.058 20.397V19.127C101.058 17.6261 100.365 16.895 98.98 16.895H92.0915V19.4734H92.3224C93.7078 19.4734 94.4005 20.0506 94.4005 21.3591V40.7549" fill="#004A93"/>
<path d="M137.005 36.2716H126.567L136.744 21.919V16.9608H121.609C119.782 16.9608 118.999 17.7437 118.999 19.5704V24.0066H121.609V23.4847C121.609 22.1799 122.392 21.658 123.697 21.658H129.177L118.738 36.0105V40.9688H137.005" fill="#004A93"/>
<path d="M177.453 39.4032V12.5246C177.453 10.437 176.41 9.65419 174.583 9.65419H168.32V12.5246H169.103C170.147 12.5246 170.669 13.0466 170.669 14.3514V39.4032H177.453ZM181.107 39.4032H187.631V19.0485C187.631 16.9609 186.587 16.1781 184.76 16.1781H181.107V39.4032ZM167.015 39.4032V16.1781H163.362C161.274 16.1781 160.491 16.9609 160.491 19.0485V39.4032H167.015ZM195.72 25.8335C195.72 38.3593 186.587 47.7536 174.061 47.7536C161.535 47.7536 152.402 38.6203 152.402 25.8335C152.402 13.3076 161.535 3.91314 174.061 3.91314C186.587 3.91314 195.72 13.3076 195.72 25.8335ZM199.896 25.8335C199.896 10.959 188.936 -0.00119781 174.061 -0.00119781C159.448 -0.00119781 148.227 10.959 148.227 25.8335C148.227 40.7079 159.448 51.668 174.061 51.668C188.936 51.668 199.896 40.7079 199.896 25.8335Z" fill="#004A93"/>
</g>
<defs>
<clipPath id="clip0_4_1194">
<rect width="200" height="51.7606" fill="white"/>
</clipPath>
</defs>
</svg>
