<svg width="210" height="203" viewBox="0 0 210 203" fill="none" xmlns="http://www.w3.org/2000/svg">
<path opacity="0.2" d="M64.8929 0.96174C42.7218 10.1253 24.3572 26.6049 12.8551 47.6579C1.35306 68.711 -2.59278 93.0681 1.67422 116.676C5.94122 140.283 18.1637 161.718 36.3078 177.413C54.4519 193.107 77.4233 202.116 101.399 202.938C125.376 203.761 148.91 196.348 168.088 181.934C187.265 167.52 200.928 146.974 206.803 123.714C212.678 100.454 210.411 75.8841 200.379 54.0921C190.347 32.3001 173.155 14.6006 151.664 3.93895L142.331 22.7512C159.524 31.2805 173.277 45.4401 181.303 62.8737C189.329 80.3072 191.142 99.9634 186.442 118.571C181.742 137.179 170.812 153.616 155.47 165.147C140.128 176.679 121.3 182.609 102.12 181.951C82.9387 181.292 64.5615 174.086 50.0463 161.53C35.531 148.974 25.753 131.827 22.3394 112.941C18.9258 94.0544 22.0824 74.5688 31.2841 57.7264C40.4858 40.8839 55.1775 27.7003 72.9144 20.3694L64.8929 0.96174Z" fill="white"/>
</svg>
