<svg width="99" height="100" viewBox="0 0 99 100" fill="none" xmlns="http://www.w3.org/2000/svg">
<path opacity="0.2" d="M89.9424 19.9233C83.0705 10.7974 73.2808 4.29978 62.2023 1.51182C51.1238 -1.27614 39.4247 -0.186334 29.0517 4.59989C18.6788 9.38611 10.2576 17.5801 5.18959 27.8183C0.12156 38.0565 -1.2877 49.7215 1.19633 60.8721C3.68036 72.0226 9.90787 81.9864 18.8425 89.1052C27.7772 96.224 38.8802 100.069 50.3039 99.9991C61.7276 99.9296 72.7831 95.9504 81.6306 88.7235C90.478 81.4966 96.584 71.4579 98.9322 60.2779L89.1458 58.2223C87.2672 67.1663 82.3824 75.1973 75.3045 80.9788C68.2265 86.7603 59.3821 89.9437 50.2431 89.9993C41.1042 90.0548 32.2218 86.9792 25.074 81.2841C17.9263 75.5891 12.9443 67.6181 10.9571 58.6976C8.96984 49.7772 10.0972 40.4452 14.1517 32.2546C18.2061 24.0641 24.943 17.5089 33.2414 13.6799C41.5397 9.85093 50.899 8.97909 59.7618 11.2095C68.6246 13.4398 76.4564 18.6379 81.9539 25.9387L89.9424 19.9233Z" fill="white"/>
</svg>
