<svg width="211" height="211" viewBox="0 0 211 211" fill="none" xmlns="http://www.w3.org/2000/svg">
<path opacity="0.3" d="M-8.71789e-06 105.5C-3.62411e-06 47.234 47.234 -1.7403e-06 105.5 3.35348e-06C163.766 8.44726e-06 211 47.234 211 105.5C211 163.766 163.766 211 105.5 211C47.2339 211 -1.38117e-05 163.766 -8.71789e-06 105.5ZM179.35 105.5C179.35 64.7138 146.286 31.65 105.5 31.65C64.7138 31.65 31.65 64.7138 31.65 105.5C31.65 146.286 64.7138 179.35 105.5 179.35C146.286 179.35 179.35 146.286 179.35 105.5Z" fill="white"/>
</svg>
