<svg width="208" height="40" viewBox="0 0 208 40" fill="none" xmlns="http://www.w3.org/2000/svg">
<circle opacity="0.5" cx="20" cy="20" r="19.5" stroke="#03B3BA"/>
<path d="M29.6004 14.0429C28.8943 14.3558 28.1358 14.5672 27.3384 14.6627C28.1519 14.1757 28.7759 13.4028 29.0702 12.4828C28.3092 12.9344 27.4661 13.2624 26.569 13.4383C25.8502 12.6739 24.827 12.1953 23.6939 12.1953C21.5191 12.1953 19.7552 13.9592 19.7552 16.1358C19.7553 16.4374 19.7893 16.7381 19.8566 17.0321C16.5817 16.8672 13.6804 15.2986 11.7373 12.9157C11.3991 13.4992 11.2045 14.1757 11.2045 14.8961C11.2045 16.2626 11.9005 17.4693 12.9566 18.1754C12.3311 18.1554 11.7194 17.9864 11.1724 17.6824V17.7331C11.1724 19.6416 12.5296 21.2339 14.3324 21.5958C13.9941 21.6871 13.6452 21.7331 13.2949 21.7328C13.046 21.733 12.7978 21.7098 12.5533 21.6634C13.0547 23.2278 14.5091 24.3676 16.2333 24.3981C14.8846 25.4551 13.1858 26.085 11.3407 26.085C11.0228 26.085 10.709 26.0664 10.4004 26.03C12.144 27.1488 14.214 27.7999 16.4379 27.7999C23.6846 27.7999 27.6462 21.7978 27.6462 16.5924C27.6462 16.4233 27.642 16.2525 27.6344 16.0834C28.4039 15.5269 29.0719 14.8344 29.5987 14.0455L29.6004 14.0429Z" fill="white"/>
<circle opacity="0.5" cx="76" cy="20" r="19.5" stroke="#03B3BA"/>
<path d="M66.4004 12.9525C66.4004 12.3348 66.6166 11.8251 67.049 11.4236C67.4815 11.0221 68.0436 10.8213 68.7355 10.8213C69.4151 10.8213 69.9649 11.019 70.3849 11.4143C70.8174 11.8221 71.0336 12.3533 71.0336 13.0081C71.0336 13.6012 70.8236 14.0954 70.4035 14.4908C69.9711 14.8985 69.4027 15.1023 68.6985 15.1023H68.6799C68.0004 15.1023 67.4506 14.8985 67.0305 14.4908C66.6104 14.083 66.4004 13.5703 66.4004 12.9525ZM66.6413 29.1687V16.7888H70.7556V29.1687H66.6413ZM73.0351 29.1687H77.1494V22.256C77.1494 21.8235 77.1988 21.4899 77.2977 21.2552C77.4707 20.8351 77.7332 20.4799 78.0853 20.1896C78.4375 19.8992 78.8791 19.754 79.4104 19.754C80.7942 19.754 81.4861 20.6869 81.4861 22.5525V29.1687H85.6004V22.0706C85.6004 20.2421 85.168 18.8552 84.3031 17.91C83.4382 16.9649 82.2954 16.4923 80.8745 16.4923C79.2807 16.4923 78.039 17.178 77.1494 18.5494V18.5865H77.1309L77.1494 18.5494V16.7888H73.0351C73.0598 17.1842 73.0722 18.4135 73.0722 20.4768C73.0722 22.5401 73.0598 25.4374 73.0351 29.1687Z" fill="white"/>
<circle opacity="0.5" cx="132" cy="20" r="19.5" stroke="#03B3BA"/>
<path fill-rule="evenodd" clip-rule="evenodd" d="M132.001 16.7992C130.233 16.7992 128.801 18.2322 128.801 19.9994C128.801 21.7667 130.233 23.1997 132.001 23.1997C133.768 23.1997 135.201 21.7667 135.201 19.9994C135.201 18.2322 133.768 16.7992 132.001 16.7992ZM132.001 24.9289C129.278 24.9289 127.071 22.722 127.071 19.9994C127.071 17.2769 129.278 15.0699 132.001 15.0699C134.723 15.0699 136.93 17.2769 136.93 19.9994C136.93 22.722 134.723 24.9289 132.001 24.9289ZM136.167 15.5146C136.041 15.3251 135.973 15.1023 135.974 14.8745C135.974 14.5691 136.095 14.2763 136.311 14.0603C136.527 13.8444 136.82 13.7231 137.126 13.7229H137.126C137.354 13.723 137.577 13.7907 137.766 13.9173C137.955 14.044 138.103 14.224 138.19 14.4345C138.277 14.645 138.3 14.8767 138.255 15.1001C138.211 15.3236 138.101 15.5288 137.94 15.6898C137.779 15.8509 137.573 15.9605 137.35 16.0049C137.126 16.0492 136.895 16.0263 136.684 15.9391C136.474 15.8518 136.294 15.7041 136.167 15.5146ZM126.339 27.4833C126.677 27.6151 127.186 27.771 128.122 27.8136C129.134 27.8601 129.437 27.8694 132.001 27.8694C134.565 27.8694 134.869 27.8601 135.88 27.8136C136.816 27.771 137.325 27.6151 137.663 27.4833C138.112 27.3089 138.432 27.1007 138.768 26.7653C139.103 26.4298 139.311 26.11 139.486 25.6618C139.617 25.3237 139.773 24.815 139.816 23.879C139.862 22.8663 139.872 22.5632 139.872 19.9995C139.872 17.4358 139.862 17.1327 139.816 16.1199C139.773 15.184 139.617 14.6751 139.486 14.3372C139.311 13.889 139.104 13.5687 138.768 13.2329C138.431 12.8972 138.112 12.6886 137.663 12.5149C137.324 12.3843 136.816 12.2273 135.88 12.1846C134.868 12.1389 134.563 12.1288 132.001 12.1288C129.438 12.1288 129.134 12.1381 128.122 12.1846C127.186 12.2272 126.677 12.3831 126.339 12.5149C125.89 12.6886 125.571 12.8967 125.235 13.2329C124.899 13.5692 124.692 13.889 124.517 14.3372C124.386 14.6761 124.229 15.184 124.187 16.1199C124.141 17.1327 124.131 17.4358 124.131 19.9995C124.131 22.5632 124.14 22.8671 124.187 23.879C124.229 24.815 124.385 25.3239 124.517 25.6618C124.691 26.11 124.899 26.4295 125.235 26.7653C125.571 27.101 125.891 27.3089 126.339 27.4833ZM125.712 10.9035C126.322 10.6661 127.021 10.5041 128.043 10.4576C129.067 10.4102 129.394 10.3994 132.002 10.3994C134.609 10.3994 134.936 10.411 135.96 10.4576C136.981 10.5033 137.679 10.6661 138.29 10.9035C138.92 11.1485 139.456 11.4765 139.99 12.0108C140.523 12.5451 140.851 13.0801 141.097 13.7113C141.334 14.3212 141.496 15.0195 141.543 16.0415C141.59 17.0651 141.6 17.3924 141.6 19.9994C141.6 22.6065 141.59 22.9329 141.543 23.9573C141.497 24.9793 141.334 25.6772 141.097 26.2875C140.851 26.9187 140.524 27.4546 139.99 27.9881C139.455 28.5215 138.92 28.8496 138.289 29.0954C137.679 29.3327 136.981 29.4947 135.959 29.5413C134.935 29.5886 134.608 29.5994 132.001 29.5994C129.394 29.5994 129.067 29.5878 128.043 29.5413C127.021 29.4947 126.323 29.3327 125.712 29.0954C125.081 28.8496 124.546 28.5213 124.012 27.9881C123.478 27.4548 123.15 26.9187 122.904 26.2875C122.667 25.6772 122.505 24.9794 122.459 23.9573C122.411 22.9337 122.4 22.6065 122.4 19.9994C122.4 17.3924 122.411 17.0651 122.459 16.0415C122.505 15.0195 122.667 14.3216 122.904 13.7113C123.15 13.0797 123.477 12.5442 124.012 12.0108C124.546 11.4773 125.081 11.1485 125.712 10.9035Z" fill="white"/>
<circle opacity="0.5" cx="188" cy="20" r="19.5" stroke="#03B3BA"/>
<path fill-rule="evenodd" clip-rule="evenodd" d="M200 20.0469C200 13.4195 194.627 8.04688 188 8.04688C181.373 8.04688 176 13.4195 176 20.0469C176 25.8674 180.144 30.7201 185.643 31.8154V22.8626H183.686V19.6H185.643V17.6416C185.643 14.9799 186.748 13.3975 189.887 13.3975H192.501V16.6603H190.867C189.645 16.6603 189.564 17.116 189.564 17.9669L189.56 19.5998H192.519L192.173 22.862H189.56V31.9464C195.45 31.1819 200 26.1457 200 20.0469Z" fill="white"/>
</svg>
