<svg width="24" height="24" viewBox="0 0 24 24" fill="none" xmlns="http://www.w3.org/2000/svg">
<path d="M15.4977 11.438L8.74767 5.43803C8.59849 5.30625 8.40306 5.23913 8.20439 5.25144C8.00572 5.26374 7.82008 5.35447 7.6883 5.50365C7.55652 5.65284 7.4894 5.84826 7.50171 6.04693C7.51401 6.2456 7.60474 6.43125 7.75392 6.56303L13.8758 12.0005L7.75392 17.438C7.63962 17.5388 7.55873 17.6721 7.52205 17.82C7.48537 17.9679 7.49462 18.1235 7.54858 18.2661C7.60254 18.4086 7.69865 18.5313 7.8241 18.6179C7.94955 18.7044 8.09839 18.7507 8.2508 18.7505C8.43359 18.7499 8.61001 18.6833 8.74767 18.563L15.4977 12.563C15.5775 12.4926 15.6414 12.4061 15.6852 12.3091C15.729 12.2121 15.7516 12.1069 15.7516 12.0005C15.7516 11.8941 15.729 11.7889 15.6852 11.692C15.6414 11.595 15.5775 11.5084 15.4977 11.438Z" fill="#1A1A1A"/>
</svg>
