<svg width="292" height="222" viewBox="0 0 292 222" fill="none" xmlns="http://www.w3.org/2000/svg">
<rect x="118" width="56" height="56" rx="16" fill="white"/>
<path d="M157.45 31.778L151.588 29.278C151.285 29.1425 150.953 29.0862 150.623 29.1147C150.293 29.1431 149.975 29.2553 149.7 29.4405L146.563 31.528C144.651 30.5993 143.102 29.0599 142.163 27.153L144.238 23.978C144.422 23.7029 144.534 23.3861 144.565 23.0565C144.595 22.7269 144.543 22.3948 144.413 22.0905L141.9 16.228C141.725 15.8322 141.428 15.5025 141.053 15.2867C140.677 15.0709 140.243 14.9803 139.813 15.028C138.125 15.2492 136.574 16.0758 135.45 17.3541C134.326 18.6325 133.704 20.2756 133.7 21.978C133.7 31.903 141.775 39.978 151.7 39.978C153.403 39.9743 155.046 39.3524 156.324 38.2281C157.602 37.1038 158.429 35.5535 158.65 33.8655C158.698 33.4352 158.607 33.0009 158.392 32.6256C158.176 32.2502 157.846 31.9534 157.45 31.778Z" fill="url(#paint0_linear_2_10101)"/>
<path d="M149.375 17.9385C150.897 18.3544 152.284 19.1599 153.4 20.2757C154.516 21.3915 155.321 22.7789 155.737 24.301C155.792 24.5147 155.917 24.7042 156.091 24.8399C156.265 24.9755 156.479 25.0498 156.7 25.051C156.789 25.0509 156.877 25.0382 156.962 25.0135C157.089 24.9803 157.209 24.922 157.313 24.8421C157.417 24.7621 157.504 24.6622 157.57 24.5481C157.635 24.434 157.677 24.3081 157.693 24.1777C157.708 24.0472 157.698 23.9149 157.662 23.7885C157.162 21.9244 156.181 20.2246 154.816 18.8599C153.451 17.4951 151.751 16.5135 149.887 16.0135C149.757 15.966 149.618 15.9462 149.479 15.9553C149.341 15.9644 149.206 16.0022 149.083 16.0664C148.959 16.1306 148.851 16.2197 148.764 16.3281C148.678 16.4364 148.614 16.5617 148.579 16.6959C148.543 16.83 148.535 16.9701 148.557 17.1073C148.578 17.2445 148.628 17.3757 148.703 17.4926C148.778 17.6095 148.876 17.7095 148.992 17.7863C149.108 17.8631 149.238 17.9149 149.375 17.9385Z" fill="url(#paint1_linear_2_10101)"/>
<path d="M148.338 21.8018C149.184 22.0334 149.955 22.4814 150.575 23.1017C151.195 23.722 151.644 24.4932 151.875 25.3393C151.928 25.5541 152.052 25.7448 152.227 25.8808C152.401 26.0168 152.616 26.0902 152.838 26.0893C152.922 26.0901 153.007 26.0775 153.088 26.0518C153.216 26.0199 153.336 25.9626 153.442 25.8833C153.548 25.804 153.636 25.7042 153.703 25.59C153.769 25.4758 153.812 25.3493 153.829 25.2183C153.846 25.0872 153.836 24.9541 153.8 24.8268C153.484 23.6387 152.86 22.5551 151.991 21.6859C151.122 20.8166 150.038 20.1925 148.85 19.8768C148.72 19.8293 148.581 19.8095 148.442 19.8186C148.304 19.8277 148.169 19.8655 148.045 19.9297C147.922 19.9939 147.814 20.083 147.727 20.1914C147.64 20.2997 147.577 20.425 147.541 20.5591C147.506 20.6933 147.498 20.8334 147.52 20.9706C147.541 21.1078 147.591 21.239 147.666 21.3559C147.741 21.4728 147.839 21.5728 147.955 21.6496C148.07 21.7263 148.201 21.7782 148.338 21.8018Z" fill="url(#paint2_linear_2_10101)"/>
<path d="M80.34 105.6C80.34 103.952 80.708 102.48 81.444 101.184C82.196 99.872 83.212 98.856 84.492 98.136C85.788 97.4 87.236 97.032 88.836 97.032C90.708 97.032 92.348 97.512 93.756 98.472C95.164 99.432 96.148 100.76 96.708 102.456H92.844C92.46 101.656 91.916 101.056 91.212 100.656C90.524 100.256 89.724 100.056 88.812 100.056C87.836 100.056 86.964 100.288 86.196 100.752C85.444 101.2 84.852 101.84 84.42 102.672C84.004 103.504 83.796 104.48 83.796 105.6C83.796 106.704 84.004 107.68 84.42 108.528C84.852 109.36 85.444 110.008 86.196 110.472C86.964 110.92 87.836 111.144 88.812 111.144C89.724 111.144 90.524 110.944 91.212 110.544C91.916 110.128 92.46 109.52 92.844 108.72H96.708C96.148 110.432 95.164 111.768 93.756 112.728C92.364 113.672 90.724 114.144 88.836 114.144C87.236 114.144 85.788 113.784 84.492 113.064C83.212 112.328 82.196 111.312 81.444 110.016C80.708 108.72 80.34 107.248 80.34 105.6ZM105.242 114.216C103.962 114.216 102.81 113.936 101.786 113.376C100.762 112.8 99.9539 111.992 99.3619 110.952C98.7859 109.912 98.4979 108.712 98.4979 107.352C98.4979 105.992 98.7939 104.792 99.3859 103.752C99.9939 102.712 100.818 101.912 101.858 101.352C102.898 100.776 104.058 100.488 105.338 100.488C106.618 100.488 107.778 100.776 108.818 101.352C109.858 101.912 110.674 102.712 111.266 103.752C111.874 104.792 112.178 105.992 112.178 107.352C112.178 108.712 111.866 109.912 111.242 110.952C110.634 111.992 109.802 112.8 108.746 113.376C107.706 113.936 106.538 114.216 105.242 114.216ZM105.242 111.288C105.85 111.288 106.418 111.144 106.946 110.856C107.49 110.552 107.922 110.104 108.242 109.512C108.562 108.92 108.722 108.2 108.722 107.352C108.722 106.088 108.386 105.12 107.714 104.448C107.058 103.76 106.25 103.416 105.29 103.416C104.33 103.416 103.522 103.76 102.866 104.448C102.226 105.12 101.906 106.088 101.906 107.352C101.906 108.616 102.218 109.592 102.842 110.28C103.482 110.952 104.282 111.288 105.242 111.288ZM121.771 100.512C123.355 100.512 124.635 101.016 125.611 102.024C126.587 103.016 127.075 104.408 127.075 106.2V114H123.715V106.656C123.715 105.6 123.451 104.792 122.923 104.232C122.395 103.656 121.675 103.368 120.763 103.368C119.835 103.368 119.099 103.656 118.555 104.232C118.027 104.792 117.763 105.6 117.763 106.656V114H114.403V100.704H117.763V102.36C118.211 101.784 118.779 101.336 119.467 101.016C120.171 100.68 120.939 100.512 121.771 100.512ZM133.942 103.464V109.896C133.942 110.344 134.046 110.672 134.254 110.88C134.478 111.072 134.846 111.168 135.358 111.168H136.918V114H134.806C131.974 114 130.558 112.624 130.558 109.872V103.464H128.974V100.704H130.558V97.416H133.942V100.704H136.918V103.464H133.942ZM138.23 107.304C138.23 105.96 138.494 104.768 139.022 103.728C139.566 102.688 140.294 101.888 141.206 101.328C142.134 100.768 143.166 100.488 144.302 100.488C145.294 100.488 146.158 100.688 146.894 101.088C147.646 101.488 148.246 101.992 148.694 102.6V100.704H152.078V114H148.694V112.056C148.262 112.68 147.662 113.2 146.894 113.616C146.142 114.016 145.27 114.216 144.278 114.216C143.158 114.216 142.134 113.928 141.206 113.352C140.294 112.776 139.566 111.968 139.022 110.928C138.494 109.872 138.23 108.664 138.23 107.304ZM148.694 107.352C148.694 106.536 148.534 105.84 148.214 105.264C147.894 104.672 147.462 104.224 146.918 103.92C146.374 103.6 145.79 103.44 145.166 103.44C144.542 103.44 143.966 103.592 143.438 103.896C142.91 104.2 142.478 104.648 142.142 105.24C141.822 105.816 141.662 106.504 141.662 107.304C141.662 108.104 141.822 108.808 142.142 109.416C142.478 110.008 142.91 110.464 143.438 110.784C143.982 111.104 144.558 111.264 145.166 111.264C145.79 111.264 146.374 111.112 146.918 110.808C147.462 110.488 147.894 110.04 148.214 109.464C148.534 108.872 148.694 108.168 148.694 107.352ZM154.256 107.352C154.256 105.976 154.536 104.776 155.096 103.752C155.656 102.712 156.432 101.912 157.424 101.352C158.416 100.776 159.552 100.488 160.832 100.488C162.48 100.488 163.84 100.904 164.912 101.736C166 102.552 166.728 103.704 167.096 105.192H163.472C163.28 104.616 162.952 104.168 162.488 103.848C162.04 103.512 161.48 103.344 160.808 103.344C159.848 103.344 159.088 103.696 158.528 104.4C157.968 105.088 157.688 106.072 157.688 107.352C157.688 108.616 157.968 109.6 158.528 110.304C159.088 110.992 159.848 111.336 160.808 111.336C162.168 111.336 163.056 110.728 163.472 109.512H167.096C166.728 110.952 166 112.096 164.912 112.944C163.824 113.792 162.464 114.216 160.832 114.216C159.552 114.216 158.416 113.936 157.424 113.376C156.432 112.8 155.656 112 155.096 110.976C154.536 109.936 154.256 108.728 154.256 107.352ZM173.23 103.464V109.896C173.23 110.344 173.334 110.672 173.542 110.88C173.766 111.072 174.134 111.168 174.646 111.168H176.206V114H174.094C171.262 114 169.846 112.624 169.846 109.872V103.464H168.262V100.704H169.846V97.416H173.23V100.704H176.206V103.464H173.23ZM187.173 97.248V107.616C187.173 108.752 187.469 109.624 188.061 110.232C188.653 110.824 189.485 111.12 190.557 111.12C191.645 111.12 192.485 110.824 193.077 110.232C193.669 109.624 193.965 108.752 193.965 107.616V97.248H197.349V107.592C197.349 109.016 197.037 110.224 196.413 111.216C195.805 112.192 194.981 112.928 193.941 113.424C192.917 113.92 191.773 114.168 190.509 114.168C189.261 114.168 188.125 113.92 187.101 113.424C186.093 112.928 185.293 112.192 184.701 111.216C184.109 110.224 183.813 109.016 183.813 107.592V97.248H187.173ZM205.443 114.216C204.355 114.216 203.379 114.024 202.515 113.64C201.651 113.24 200.963 112.704 200.451 112.032C199.955 111.36 199.683 110.616 199.635 109.8H203.019C203.083 110.312 203.331 110.736 203.763 111.072C204.211 111.408 204.763 111.576 205.419 111.576C206.059 111.576 206.555 111.448 206.907 111.192C207.275 110.936 207.459 110.608 207.459 110.208C207.459 109.776 207.235 109.456 206.787 109.248C206.355 109.024 205.659 108.784 204.699 108.528C203.707 108.288 202.891 108.04 202.251 107.784C201.627 107.528 201.083 107.136 200.619 106.608C200.171 106.08 199.947 105.368 199.947 104.472C199.947 103.736 200.155 103.064 200.571 102.456C201.003 101.848 201.611 101.368 202.395 101.016C203.195 100.664 204.131 100.488 205.203 100.488C206.787 100.488 208.051 100.888 208.995 101.688C209.939 102.472 210.459 103.536 210.555 104.88H207.339C207.291 104.352 207.067 103.936 206.667 103.632C206.283 103.312 205.763 103.152 205.107 103.152C204.499 103.152 204.027 103.264 203.691 103.488C203.371 103.712 203.211 104.024 203.211 104.424C203.211 104.872 203.435 105.216 203.883 105.456C204.331 105.68 205.027 105.912 205.971 106.152C206.931 106.392 207.723 106.64 208.347 106.896C208.971 107.152 209.507 107.552 209.955 108.096C210.419 108.624 210.659 109.328 210.675 110.208C210.675 110.976 210.459 111.664 210.027 112.272C209.611 112.88 209.003 113.36 208.203 113.712C207.419 114.048 206.499 114.216 205.443 114.216Z" fill="#1A1A1A"/>
<path d="M13.8311 149.416C13.8311 148.328 14.0765 147.352 14.5671 146.488C15.0578 145.613 15.7245 144.931 16.5671 144.44C17.4205 143.949 18.3645 143.704 19.3991 143.704C20.6151 143.704 21.6765 143.997 22.5831 144.584C23.4898 145.171 24.1511 146.003 24.5671 147.08H22.8231C22.5138 146.408 22.0658 145.891 21.4791 145.528C20.9031 145.165 20.2098 144.984 19.3991 144.984C18.6205 144.984 17.9218 145.165 17.3031 145.528C16.6845 145.891 16.1991 146.408 15.8471 147.08C15.4951 147.741 15.3191 148.52 15.3191 149.416C15.3191 150.301 15.4951 151.08 15.8471 151.752C16.1991 152.413 16.6845 152.925 17.3031 153.288C17.9218 153.651 18.6205 153.832 19.3991 153.832C20.2098 153.832 20.9031 153.656 21.4791 153.304C22.0658 152.941 22.5138 152.424 22.8231 151.752H24.5671C24.1511 152.819 23.4898 153.645 22.5831 154.232C21.6765 154.808 20.6151 155.096 19.3991 155.096C18.3645 155.096 17.4205 154.856 16.5671 154.376C15.7245 153.885 15.0578 153.208 14.5671 152.344C14.0765 151.48 13.8311 150.504 13.8311 149.416ZM30.7185 155.144C29.8972 155.144 29.1505 154.957 28.4785 154.584C27.8172 154.211 27.2945 153.683 26.9105 153C26.5372 152.307 26.3505 151.507 26.3505 150.6C26.3505 149.704 26.5425 148.915 26.9265 148.232C27.3212 147.539 27.8545 147.011 28.5265 146.648C29.1985 146.275 29.9505 146.088 30.7825 146.088C31.6145 146.088 32.3665 146.275 33.0385 146.648C33.7105 147.011 34.2385 147.533 34.6225 148.216C35.0172 148.899 35.2145 149.693 35.2145 150.6C35.2145 151.507 35.0118 152.307 34.6065 153C34.2118 153.683 33.6732 154.211 32.9905 154.584C32.3078 154.957 31.5505 155.144 30.7185 155.144ZM30.7185 153.864C31.2412 153.864 31.7318 153.741 32.1905 153.496C32.6492 153.251 33.0172 152.883 33.2945 152.392C33.5825 151.901 33.7265 151.304 33.7265 150.6C33.7265 149.896 33.5878 149.299 33.3105 148.808C33.0332 148.317 32.6705 147.955 32.2225 147.72C31.7745 147.475 31.2892 147.352 30.7665 147.352C30.2332 147.352 29.7425 147.475 29.2945 147.72C28.8572 147.955 28.5052 148.317 28.2385 148.808C27.9718 149.299 27.8385 149.896 27.8385 150.6C27.8385 151.315 27.9665 151.917 28.2225 152.408C28.4892 152.899 28.8412 153.267 29.2785 153.512C29.7158 153.747 30.1958 153.864 30.7185 153.864ZM41.5609 146.072C42.6275 146.072 43.4915 146.397 44.1529 147.048C44.8142 147.688 45.1449 148.616 45.1449 149.832V155H43.7049V150.04C43.7049 149.165 43.4862 148.499 43.0489 148.04C42.6115 147.571 42.0142 147.336 41.2569 147.336C40.4889 147.336 39.8755 147.576 39.4169 148.056C38.9689 148.536 38.7449 149.235 38.7449 150.152V155H37.2889V146.232H38.7449V147.48C39.0329 147.032 39.4222 146.685 39.9129 146.44C40.4142 146.195 40.9635 146.072 41.5609 146.072ZM49.4593 147.432V152.6C49.4593 153.027 49.5499 153.331 49.7313 153.512C49.9126 153.683 50.2273 153.768 50.6753 153.768H51.7473V155H50.4353C49.6246 155 49.0166 154.813 48.6113 154.44C48.2059 154.067 48.0033 153.453 48.0033 152.6V147.432H46.8673V146.232H48.0033V144.024H49.4593V146.232H51.7473V147.432H49.4593ZM53.1274 150.584C53.1274 149.688 53.3087 148.904 53.6714 148.232C54.034 147.549 54.53 147.021 55.1594 146.648C55.7994 146.275 56.5087 146.088 57.2874 146.088C58.0554 146.088 58.722 146.253 59.2874 146.584C59.8527 146.915 60.274 147.331 60.5514 147.832V146.232H62.0234V155H60.5514V153.368C60.2634 153.88 59.8314 154.307 59.2554 154.648C58.69 154.979 58.0287 155.144 57.2714 155.144C56.4927 155.144 55.7887 154.952 55.1594 154.568C54.53 154.184 54.034 153.645 53.6714 152.952C53.3087 152.259 53.1274 151.469 53.1274 150.584ZM60.5514 150.6C60.5514 149.939 60.418 149.363 60.1514 148.872C59.8847 148.381 59.522 148.008 59.0634 147.752C58.6154 147.485 58.1194 147.352 57.5754 147.352C57.0314 147.352 56.5354 147.48 56.0874 147.736C55.6394 147.992 55.282 148.365 55.0154 148.856C54.7487 149.347 54.6154 149.923 54.6154 150.584C54.6154 151.256 54.7487 151.843 55.0154 152.344C55.282 152.835 55.6394 153.213 56.0874 153.48C56.5354 153.736 57.0314 153.864 57.5754 153.864C58.1194 153.864 58.6154 153.736 59.0634 153.48C59.522 153.213 59.8847 152.835 60.1514 152.344C60.418 151.843 60.5514 151.261 60.5514 150.6ZM64.0999 150.6C64.0999 149.693 64.2812 148.904 64.6439 148.232C65.0065 147.549 65.5079 147.021 66.1479 146.648C66.7985 146.275 67.5399 146.088 68.3719 146.088C69.4492 146.088 70.3345 146.349 71.0279 146.872C71.7319 147.395 72.1959 148.12 72.4199 149.048H70.8519C70.7025 148.515 70.4092 148.093 69.9719 147.784C69.5452 147.475 69.0119 147.32 68.3719 147.32C67.5399 147.32 66.8679 147.608 66.3559 148.184C65.8439 148.749 65.5879 149.555 65.5879 150.6C65.5879 151.656 65.8439 152.472 66.3559 153.048C66.8679 153.624 67.5399 153.912 68.3719 153.912C69.0119 153.912 69.5452 153.763 69.9719 153.464C70.3985 153.165 70.6919 152.739 70.8519 152.184H72.4199C72.1852 153.08 71.7159 153.8 71.0119 154.344C70.3079 154.877 69.4279 155.144 68.3719 155.144C67.5399 155.144 66.7985 154.957 66.1479 154.584C65.5079 154.211 65.0065 153.683 64.6439 153C64.2812 152.317 64.0999 151.517 64.0999 150.6ZM76.2986 147.432V152.6C76.2986 153.027 76.3893 153.331 76.5706 153.512C76.752 153.683 77.0666 153.768 77.5146 153.768H78.5866V155H77.2746C76.464 155 75.856 154.813 75.4506 154.44C75.0453 154.067 74.8426 153.453 74.8426 152.6V147.432H73.7066V146.232H74.8426V144.024H76.2986V146.232H78.5866V147.432H76.2986ZM92.7124 146.232V155H91.2564V153.704C90.979 154.152 90.5897 154.504 90.0884 154.76C89.5977 155.005 89.0537 155.128 88.4564 155.128C87.7737 155.128 87.1604 154.989 86.6164 154.712C86.0724 154.424 85.6404 153.997 85.3204 153.432C85.011 152.867 84.8564 152.179 84.8564 151.368V146.232H86.2964V151.176C86.2964 152.04 86.515 152.707 86.9524 153.176C87.3897 153.635 87.987 153.864 88.7444 153.864C89.523 153.864 90.1364 153.624 90.5844 153.144C91.0324 152.664 91.2564 151.965 91.2564 151.048V146.232H92.7124ZM98.4348 155.144C97.7628 155.144 97.1601 155.032 96.6268 154.808C96.0934 154.573 95.6721 154.253 95.3628 153.848C95.0534 153.432 94.8828 152.957 94.8508 152.424H96.3548C96.3974 152.861 96.6001 153.219 96.9628 153.496C97.3361 153.773 97.8214 153.912 98.4188 153.912C98.9734 153.912 99.4108 153.789 99.7308 153.544C100.051 153.299 100.211 152.989 100.211 152.616C100.211 152.232 100.04 151.949 99.6988 151.768C99.3574 151.576 98.8294 151.389 98.1148 151.208C97.4641 151.037 96.9308 150.867 96.5148 150.696C96.1094 150.515 95.7574 150.253 95.4588 149.912C95.1708 149.56 95.0268 149.101 95.0268 148.536C95.0268 148.088 95.1601 147.677 95.4268 147.304C95.6934 146.931 96.0721 146.637 96.5628 146.424C97.0534 146.2 97.6134 146.088 98.2428 146.088C99.2134 146.088 99.9974 146.333 100.595 146.824C101.192 147.315 101.512 147.987 101.555 148.84H100.099C100.067 148.381 99.8801 148.013 99.5388 147.736C99.2081 147.459 98.7601 147.32 98.1948 147.32C97.6721 147.32 97.2561 147.432 96.9468 147.656C96.6374 147.88 96.4828 148.173 96.4828 148.536C96.4828 148.824 96.5734 149.064 96.7548 149.256C96.9468 149.437 97.1814 149.587 97.4588 149.704C97.7468 149.811 98.1414 149.933 98.6428 150.072C99.2721 150.243 99.7841 150.413 100.179 150.584C100.573 150.744 100.909 150.989 101.187 151.32C101.475 151.651 101.624 152.083 101.635 152.616C101.635 153.096 101.501 153.528 101.235 153.912C100.968 154.296 100.589 154.6 100.099 154.824C99.6188 155.037 99.0641 155.144 98.4348 155.144ZM110.052 147.432V152.6C110.052 153.027 110.142 153.331 110.324 153.512C110.505 153.683 110.82 153.768 111.268 153.768H112.34V155H111.028C110.217 155 109.609 154.813 109.204 154.44C108.798 154.067 108.596 153.453 108.596 152.6V147.432H107.46V146.232H108.596V144.024H110.052V146.232H112.34V147.432H110.052ZM118.088 155.144C117.267 155.144 116.52 154.957 115.848 154.584C115.187 154.211 114.664 153.683 114.28 153C113.907 152.307 113.72 151.507 113.72 150.6C113.72 149.704 113.912 148.915 114.296 148.232C114.691 147.539 115.224 147.011 115.896 146.648C116.568 146.275 117.32 146.088 118.152 146.088C118.984 146.088 119.736 146.275 120.408 146.648C121.08 147.011 121.608 147.533 121.992 148.216C122.387 148.899 122.584 149.693 122.584 150.6C122.584 151.507 122.381 152.307 121.976 153C121.581 153.683 121.043 154.211 120.36 154.584C119.677 154.957 118.92 155.144 118.088 155.144ZM118.088 153.864C118.611 153.864 119.101 153.741 119.56 153.496C120.019 153.251 120.387 152.883 120.664 152.392C120.952 151.901 121.096 151.304 121.096 150.6C121.096 149.896 120.957 149.299 120.68 148.808C120.403 148.317 120.04 147.955 119.592 147.72C119.144 147.475 118.659 147.352 118.136 147.352C117.603 147.352 117.112 147.475 116.664 147.72C116.227 147.955 115.875 148.317 115.608 148.808C115.341 149.299 115.208 149.896 115.208 150.6C115.208 151.315 115.336 151.917 115.592 152.408C115.859 152.899 116.211 153.267 116.648 153.512C117.085 153.747 117.565 153.864 118.088 153.864ZM132.188 155.144C131.516 155.144 130.913 155.032 130.38 154.808C129.847 154.573 129.425 154.253 129.116 153.848C128.807 153.432 128.636 152.957 128.604 152.424H130.108C130.151 152.861 130.353 153.219 130.716 153.496C131.089 153.773 131.575 153.912 132.172 153.912C132.727 153.912 133.164 153.789 133.484 153.544C133.804 153.299 133.964 152.989 133.964 152.616C133.964 152.232 133.793 151.949 133.452 151.768C133.111 151.576 132.583 151.389 131.868 151.208C131.217 151.037 130.684 150.867 130.268 150.696C129.863 150.515 129.511 150.253 129.212 149.912C128.924 149.56 128.78 149.101 128.78 148.536C128.78 148.088 128.913 147.677 129.18 147.304C129.447 146.931 129.825 146.637 130.316 146.424C130.807 146.2 131.367 146.088 131.996 146.088C132.967 146.088 133.751 146.333 134.348 146.824C134.945 147.315 135.265 147.987 135.308 148.84H133.852C133.82 148.381 133.633 148.013 133.292 147.736C132.961 147.459 132.513 147.32 131.948 147.32C131.425 147.32 131.009 147.432 130.7 147.656C130.391 147.88 130.236 148.173 130.236 148.536C130.236 148.824 130.327 149.064 130.508 149.256C130.7 149.437 130.935 149.587 131.212 149.704C131.5 149.811 131.895 149.933 132.396 150.072C133.025 150.243 133.537 150.413 133.932 150.584C134.327 150.744 134.663 150.989 134.94 151.32C135.228 151.651 135.377 152.083 135.388 152.616C135.388 153.096 135.255 153.528 134.988 153.912C134.721 154.296 134.343 154.6 133.852 154.824C133.372 155.037 132.817 155.144 132.188 155.144ZM145.603 150.28C145.603 150.557 145.587 150.851 145.555 151.16H138.547C138.601 152.024 138.894 152.701 139.427 153.192C139.971 153.672 140.627 153.912 141.395 153.912C142.025 153.912 142.547 153.768 142.963 153.48C143.39 153.181 143.689 152.787 143.859 152.296H145.427C145.193 153.139 144.723 153.827 144.019 154.36C143.315 154.883 142.441 155.144 141.395 155.144C140.563 155.144 139.817 154.957 139.155 154.584C138.505 154.211 137.993 153.683 137.619 153C137.246 152.307 137.059 151.507 137.059 150.6C137.059 149.693 137.241 148.899 137.603 148.216C137.966 147.533 138.473 147.011 139.123 146.648C139.785 146.275 140.542 146.088 141.395 146.088C142.227 146.088 142.963 146.269 143.603 146.632C144.243 146.995 144.734 147.496 145.075 148.136C145.427 148.765 145.603 149.48 145.603 150.28ZM144.099 149.976C144.099 149.421 143.977 148.947 143.731 148.552C143.486 148.147 143.15 147.843 142.723 147.64C142.307 147.427 141.843 147.32 141.331 147.32C140.595 147.32 139.966 147.555 139.443 148.024C138.931 148.493 138.638 149.144 138.563 149.976H144.099ZM155.685 150.28C155.685 150.557 155.669 150.851 155.637 151.16H148.629C148.682 152.024 148.976 152.701 149.509 153.192C150.053 153.672 150.709 153.912 151.477 153.912C152.106 153.912 152.629 153.768 153.045 153.48C153.472 153.181 153.77 152.787 153.941 152.296H155.509C155.274 153.139 154.805 153.827 154.101 154.36C153.397 154.883 152.522 155.144 151.477 155.144C150.645 155.144 149.898 154.957 149.237 154.584C148.586 154.211 148.074 153.683 147.701 153C147.328 152.307 147.141 151.507 147.141 150.6C147.141 149.693 147.322 148.899 147.685 148.216C148.048 147.533 148.554 147.011 149.205 146.648C149.866 146.275 150.624 146.088 151.477 146.088C152.309 146.088 153.045 146.269 153.685 146.632C154.325 146.995 154.816 147.496 155.157 148.136C155.509 148.765 155.685 149.48 155.685 150.28ZM154.181 149.976C154.181 149.421 154.058 148.947 153.813 148.552C153.568 148.147 153.232 147.843 152.805 147.64C152.389 147.427 151.925 147.32 151.413 147.32C150.677 147.32 150.048 147.555 149.525 148.024C149.013 148.493 148.72 149.144 148.645 149.976H154.181ZM162.663 155L159.223 151.128V155H157.767V143.16H159.223V150.12L162.599 146.232H164.631L160.503 150.6L164.647 155H162.663ZM174.939 146.072C175.6 146.072 176.198 146.216 176.731 146.504C177.264 146.781 177.68 147.203 177.979 147.768C178.288 148.333 178.443 149.021 178.443 149.832V155H177.003V150.04C177.003 149.165 176.784 148.499 176.347 148.04C175.91 147.571 175.312 147.336 174.555 147.336C173.787 147.336 173.174 147.576 172.715 148.056C172.267 148.536 172.043 149.235 172.043 150.152V155H170.587V143.16H172.043V147.48C172.331 147.032 172.726 146.685 173.227 146.44C173.739 146.195 174.31 146.072 174.939 146.072ZM188.981 150.28C188.981 150.557 188.965 150.851 188.933 151.16H181.925C181.979 152.024 182.272 152.701 182.805 153.192C183.349 153.672 184.005 153.912 184.773 153.912C185.403 153.912 185.925 153.768 186.341 153.48C186.768 153.181 187.067 152.787 187.237 152.296H188.805C188.571 153.139 188.101 153.827 187.397 154.36C186.693 154.883 185.819 155.144 184.773 155.144C183.941 155.144 183.195 154.957 182.533 154.584C181.883 154.211 181.371 153.683 180.997 153C180.624 152.307 180.437 151.507 180.437 150.6C180.437 149.693 180.619 148.899 180.981 148.216C181.344 147.533 181.851 147.011 182.501 146.648C183.163 146.275 183.92 146.088 184.773 146.088C185.605 146.088 186.341 146.269 186.981 146.632C187.621 146.995 188.112 147.496 188.453 148.136C188.805 148.765 188.981 149.48 188.981 150.28ZM187.477 149.976C187.477 149.421 187.355 148.947 187.109 148.552C186.864 148.147 186.528 147.843 186.101 147.64C185.685 147.427 185.221 147.32 184.709 147.32C183.973 147.32 183.344 147.555 182.821 148.024C182.309 148.493 182.016 149.144 181.941 149.976H187.477ZM192.519 143.16V155H191.063V143.16H192.519ZM196.617 147.848C196.905 147.347 197.331 146.931 197.897 146.6C198.473 146.259 199.139 146.088 199.897 146.088C200.675 146.088 201.379 146.275 202.009 146.648C202.649 147.021 203.15 147.549 203.513 148.232C203.875 148.904 204.057 149.688 204.057 150.584C204.057 151.469 203.875 152.259 203.513 152.952C203.15 153.645 202.649 154.184 202.009 154.568C201.379 154.952 200.675 155.144 199.897 155.144C199.15 155.144 198.489 154.979 197.913 154.648C197.347 154.307 196.915 153.885 196.617 153.384V159.16H195.161V146.232H196.617V147.848ZM202.569 150.584C202.569 149.923 202.435 149.347 202.169 148.856C201.902 148.365 201.539 147.992 201.081 147.736C200.633 147.48 200.137 147.352 199.593 147.352C199.059 147.352 198.563 147.485 198.105 147.752C197.657 148.008 197.294 148.387 197.017 148.888C196.75 149.379 196.617 149.949 196.617 150.6C196.617 151.261 196.75 151.843 197.017 152.344C197.294 152.835 197.657 153.213 198.105 153.48C198.563 153.736 199.059 153.864 199.593 153.864C200.137 153.864 200.633 153.736 201.081 153.48C201.539 153.213 201.902 152.835 202.169 152.344C202.435 151.843 202.569 151.256 202.569 150.584ZM214.127 147.432H212.287V155H210.831V147.432H209.695V146.232H210.831V145.608C210.831 144.627 211.082 143.912 211.583 143.464C212.095 143.005 212.911 142.776 214.031 142.776V143.992C213.391 143.992 212.938 144.12 212.671 144.376C212.415 144.621 212.287 145.032 212.287 145.608V146.232H214.127V147.432ZM217.441 147.656C217.697 147.155 218.059 146.765 218.529 146.488C219.009 146.211 219.59 146.072 220.273 146.072V147.576H219.889C218.257 147.576 217.441 148.461 217.441 150.232V155H215.985V146.232H217.441V147.656ZM225.937 155.144C225.116 155.144 224.369 154.957 223.697 154.584C223.036 154.211 222.513 153.683 222.129 153C221.756 152.307 221.569 151.507 221.569 150.6C221.569 149.704 221.761 148.915 222.145 148.232C222.54 147.539 223.073 147.011 223.745 146.648C224.417 146.275 225.169 146.088 226.001 146.088C226.833 146.088 227.585 146.275 228.257 146.648C228.929 147.011 229.457 147.533 229.841 148.216C230.236 148.899 230.433 149.693 230.433 150.6C230.433 151.507 230.231 152.307 229.825 153C229.431 153.683 228.892 154.211 228.209 154.584C227.527 154.957 226.769 155.144 225.937 155.144ZM225.937 153.864C226.46 153.864 226.951 153.741 227.409 153.496C227.868 153.251 228.236 152.883 228.513 152.392C228.801 151.901 228.945 151.304 228.945 150.6C228.945 149.896 228.807 149.299 228.529 148.808C228.252 148.317 227.889 147.955 227.441 147.72C226.993 147.475 226.508 147.352 225.985 147.352C225.452 147.352 224.961 147.475 224.513 147.72C224.076 147.955 223.724 148.317 223.457 148.808C223.191 149.299 223.057 149.896 223.057 150.6C223.057 151.315 223.185 151.917 223.441 152.408C223.708 152.899 224.06 153.267 224.497 153.512C224.935 153.747 225.415 153.864 225.937 153.864ZM243.052 146.072C243.734 146.072 244.342 146.216 244.876 146.504C245.409 146.781 245.83 147.203 246.14 147.768C246.449 148.333 246.604 149.021 246.604 149.832V155H245.164V150.04C245.164 149.165 244.945 148.499 244.508 148.04C244.081 147.571 243.5 147.336 242.764 147.336C242.006 147.336 241.404 147.581 240.956 148.072C240.508 148.552 240.284 149.251 240.284 150.168V155H238.844V150.04C238.844 149.165 238.625 148.499 238.188 148.04C237.761 147.571 237.18 147.336 236.444 147.336C235.686 147.336 235.084 147.581 234.636 148.072C234.188 148.552 233.964 149.251 233.964 150.168V155H232.508V146.232H233.964V147.496C234.252 147.037 234.636 146.685 235.116 146.44C235.606 146.195 236.145 146.072 236.732 146.072C237.468 146.072 238.118 146.237 238.684 146.568C239.249 146.899 239.67 147.384 239.948 148.024C240.193 147.405 240.598 146.925 241.164 146.584C241.729 146.243 242.358 146.072 243.052 146.072ZM261.354 146.232V155H259.898V153.704C259.62 154.152 259.231 154.504 258.73 154.76C258.239 155.005 257.695 155.128 257.098 155.128C256.415 155.128 255.802 154.989 255.258 154.712C254.714 154.424 254.282 153.997 253.962 153.432C253.652 152.867 253.498 152.179 253.498 151.368V146.232H254.938V151.176C254.938 152.04 255.156 152.707 255.594 153.176C256.031 153.635 256.628 153.864 257.386 153.864C258.164 153.864 258.778 153.624 259.226 153.144C259.674 152.664 259.898 151.965 259.898 151.048V146.232H261.354ZM267.076 155.144C266.404 155.144 265.801 155.032 265.268 154.808C264.735 154.573 264.313 154.253 264.004 153.848C263.695 153.432 263.524 152.957 263.492 152.424H264.996C265.039 152.861 265.241 153.219 265.604 153.496C265.977 153.773 266.463 153.912 267.06 153.912C267.615 153.912 268.052 153.789 268.372 153.544C268.692 153.299 268.852 152.989 268.852 152.616C268.852 152.232 268.681 151.949 268.34 151.768C267.999 151.576 267.471 151.389 266.756 151.208C266.105 151.037 265.572 150.867 265.156 150.696C264.751 150.515 264.399 150.253 264.1 149.912C263.812 149.56 263.668 149.101 263.668 148.536C263.668 148.088 263.801 147.677 264.068 147.304C264.335 146.931 264.713 146.637 265.204 146.424C265.695 146.2 266.255 146.088 266.884 146.088C267.855 146.088 268.639 146.333 269.236 146.824C269.833 147.315 270.153 147.987 270.196 148.84H268.74C268.708 148.381 268.521 148.013 268.18 147.736C267.849 147.459 267.401 147.32 266.836 147.32C266.313 147.32 265.897 147.432 265.588 147.656C265.279 147.88 265.124 148.173 265.124 148.536C265.124 148.824 265.215 149.064 265.396 149.256C265.588 149.437 265.823 149.587 266.1 149.704C266.388 149.811 266.783 149.933 267.284 150.072C267.913 150.243 268.425 150.413 268.82 150.584C269.215 150.744 269.551 150.989 269.828 151.32C270.116 151.651 270.265 152.083 270.276 152.616C270.276 153.096 270.143 153.528 269.876 153.912C269.609 154.296 269.231 154.6 268.74 154.824C268.26 155.037 267.705 155.144 267.076 155.144ZM273.995 152.984L272.203 157.288H271.227L272.395 152.984H273.995ZM13.1042 172.232L10.3682 181H8.86419L6.75218 174.04L4.64018 181H3.13618L0.384184 172.232H1.87218L3.88818 179.592L6.06418 172.232H7.55218L9.68019 179.608L11.6642 172.232H13.1042ZM22.7092 176.28C22.7092 176.557 22.6932 176.851 22.6612 177.16H15.6532C15.7065 178.024 15.9999 178.701 16.5332 179.192C17.0772 179.672 17.7332 179.912 18.5012 179.912C19.1305 179.912 19.6532 179.768 20.0692 179.48C20.4959 179.181 20.7945 178.787 20.9652 178.296H22.5332C22.2985 179.139 21.8292 179.827 21.1252 180.36C20.4212 180.883 19.5465 181.144 18.5012 181.144C17.6692 181.144 16.9225 180.957 16.2612 180.584C15.6105 180.211 15.0985 179.683 14.7252 179C14.3519 178.307 14.1652 177.507 14.1652 176.6C14.1652 175.693 14.3465 174.899 14.7092 174.216C15.0719 173.533 15.5785 173.011 16.2292 172.648C16.8905 172.275 17.6479 172.088 18.5012 172.088C19.3332 172.088 20.0692 172.269 20.7092 172.632C21.3492 172.995 21.8399 173.496 22.1812 174.136C22.5332 174.765 22.7092 175.48 22.7092 176.28ZM21.2052 175.976C21.2052 175.421 21.0825 174.947 20.8372 174.552C20.5919 174.147 20.2559 173.843 19.8292 173.64C19.4132 173.427 18.9492 173.32 18.4372 173.32C17.7012 173.32 17.0719 173.555 16.5492 174.024C16.0372 174.493 15.7439 175.144 15.6692 175.976H21.2052ZM40.8967 172.232L38.1607 181H36.6567L34.5447 174.04L32.4327 181H30.9287L28.1767 172.232H29.6647L31.6807 179.592L33.8567 172.232H35.3447L37.4727 179.608L39.4567 172.232H40.8967ZM43.2537 170.808C42.9764 170.808 42.7417 170.712 42.5497 170.52C42.3577 170.328 42.2617 170.093 42.2617 169.816C42.2617 169.539 42.3577 169.304 42.5497 169.112C42.7417 168.92 42.9764 168.824 43.2537 168.824C43.5204 168.824 43.7444 168.92 43.9257 169.112C44.1177 169.304 44.2137 169.539 44.2137 169.816C44.2137 170.093 44.1177 170.328 43.9257 170.52C43.7444 170.712 43.5204 170.808 43.2537 170.808ZM43.9577 172.232V181H42.5017V172.232H43.9577ZM48.0552 169.16V181H46.5992V169.16H48.0552ZM52.1527 169.16V181H50.6967V169.16H52.1527ZM63.5718 172.072C64.2331 172.072 64.8305 172.216 65.3638 172.504C65.8971 172.781 66.3131 173.203 66.6118 173.768C66.9211 174.333 67.0758 175.021 67.0758 175.832V181H65.6358V176.04C65.6358 175.165 65.4171 174.499 64.9798 174.04C64.5425 173.571 63.9451 173.336 63.1878 173.336C62.4198 173.336 61.8065 173.576 61.3478 174.056C60.8998 174.536 60.6758 175.235 60.6758 176.152V181H59.2198V169.16H60.6758V173.48C60.9638 173.032 61.3585 172.685 61.8598 172.44C62.3718 172.195 62.9425 172.072 63.5718 172.072ZM77.6142 176.28C77.6142 176.557 77.5982 176.851 77.5662 177.16H70.5582C70.6115 178.024 70.9049 178.701 71.4382 179.192C71.9822 179.672 72.6382 179.912 73.4062 179.912C74.0355 179.912 74.5582 179.768 74.9742 179.48C75.4009 179.181 75.6995 178.787 75.8702 178.296H77.4382C77.2035 179.139 76.7342 179.827 76.0302 180.36C75.3262 180.883 74.4515 181.144 73.4062 181.144C72.5742 181.144 71.8275 180.957 71.1662 180.584C70.5155 180.211 70.0035 179.683 69.6302 179C69.2569 178.307 69.0702 177.507 69.0702 176.6C69.0702 175.693 69.2515 174.899 69.6142 174.216C69.9769 173.533 70.4835 173.011 71.1342 172.648C71.7955 172.275 72.5529 172.088 73.4062 172.088C74.2382 172.088 74.9742 172.269 75.6142 172.632C76.2542 172.995 76.7449 173.496 77.0862 174.136C77.4382 174.765 77.6142 175.48 77.6142 176.28ZM76.1102 175.976C76.1102 175.421 75.9875 174.947 75.7422 174.552C75.4969 174.147 75.1609 173.843 74.7342 173.64C74.3182 173.427 73.8542 173.32 73.3422 173.32C72.6062 173.32 71.9769 173.555 71.4542 174.024C70.9422 174.493 70.6489 175.144 70.5742 175.976H76.1102ZM81.1521 169.16V181H79.6961V169.16H81.1521ZM85.2496 173.848C85.5376 173.347 85.9642 172.931 86.5296 172.6C87.1056 172.259 87.7722 172.088 88.5296 172.088C89.3082 172.088 90.0122 172.275 90.6416 172.648C91.2816 173.021 91.7829 173.549 92.1456 174.232C92.5082 174.904 92.6896 175.688 92.6896 176.584C92.6896 177.469 92.5082 178.259 92.1456 178.952C91.7829 179.645 91.2816 180.184 90.6416 180.568C90.0122 180.952 89.3082 181.144 88.5296 181.144C87.7829 181.144 87.1216 180.979 86.5456 180.648C85.9802 180.307 85.5482 179.885 85.2496 179.384V185.16H83.7936V172.232H85.2496V173.848ZM91.2016 176.584C91.2016 175.923 91.0682 175.347 90.8016 174.856C90.5349 174.365 90.1722 173.992 89.7136 173.736C89.2656 173.48 88.7696 173.352 88.2256 173.352C87.6922 173.352 87.1962 173.485 86.7376 173.752C86.2896 174.008 85.9269 174.387 85.6496 174.888C85.3829 175.379 85.2496 175.949 85.2496 176.6C85.2496 177.261 85.3829 177.843 85.6496 178.344C85.9269 178.835 86.2896 179.213 86.7376 179.48C87.1962 179.736 87.6922 179.864 88.2256 179.864C88.7696 179.864 89.2656 179.736 89.7136 179.48C90.1722 179.213 90.5349 178.835 90.8016 178.344C91.0682 177.843 91.2016 177.256 91.2016 176.584ZM106.744 172.232L101.464 185.128H99.9597L101.688 180.904L98.1517 172.232H99.7677L102.52 179.336L105.24 172.232H106.744ZM112.191 181.144C111.37 181.144 110.623 180.957 109.951 180.584C109.29 180.211 108.767 179.683 108.383 179C108.01 178.307 107.823 177.507 107.823 176.6C107.823 175.704 108.015 174.915 108.399 174.232C108.794 173.539 109.327 173.011 109.999 172.648C110.671 172.275 111.423 172.088 112.255 172.088C113.087 172.088 113.839 172.275 114.511 172.648C115.183 173.011 115.711 173.533 116.095 174.216C116.49 174.899 116.687 175.693 116.687 176.6C116.687 177.507 116.485 178.307 116.079 179C115.685 179.683 115.146 180.211 114.463 180.584C113.781 180.957 113.023 181.144 112.191 181.144ZM112.191 179.864C112.714 179.864 113.205 179.741 113.663 179.496C114.122 179.251 114.49 178.883 114.767 178.392C115.055 177.901 115.199 177.304 115.199 176.6C115.199 175.896 115.061 175.299 114.783 174.808C114.506 174.317 114.143 173.955 113.695 173.72C113.247 173.475 112.762 173.352 112.239 173.352C111.706 173.352 111.215 173.475 110.767 173.72C110.33 173.955 109.978 174.317 109.711 174.808C109.445 175.299 109.311 175.896 109.311 176.6C109.311 177.315 109.439 177.917 109.695 178.408C109.962 178.899 110.314 179.267 110.751 179.512C111.189 179.747 111.669 179.864 112.191 179.864ZM126.538 172.232V181H125.082V179.704C124.804 180.152 124.415 180.504 123.914 180.76C123.423 181.005 122.879 181.128 122.282 181.128C121.599 181.128 120.986 180.989 120.442 180.712C119.898 180.424 119.466 179.997 119.146 179.432C118.836 178.867 118.682 178.179 118.682 177.368V172.232H120.122V177.176C120.122 178.04 120.34 178.707 120.778 179.176C121.215 179.635 121.812 179.864 122.57 179.864C123.348 179.864 123.962 179.624 124.41 179.144C124.858 178.664 125.082 177.965 125.082 177.048V172.232H126.538ZM133.038 176.584C133.038 175.688 133.219 174.904 133.582 174.232C133.944 173.549 134.44 173.021 135.07 172.648C135.71 172.275 136.419 172.088 137.198 172.088C137.966 172.088 138.632 172.253 139.198 172.584C139.763 172.915 140.184 173.331 140.462 173.832V172.232H141.934V181H140.462V179.368C140.174 179.88 139.742 180.307 139.166 180.648C138.6 180.979 137.939 181.144 137.182 181.144C136.403 181.144 135.699 180.952 135.07 180.568C134.44 180.184 133.944 179.645 133.582 178.952C133.219 178.259 133.038 177.469 133.038 176.584ZM140.462 176.6C140.462 175.939 140.328 175.363 140.062 174.872C139.795 174.381 139.432 174.008 138.974 173.752C138.526 173.485 138.03 173.352 137.486 173.352C136.942 173.352 136.446 173.48 135.998 173.736C135.55 173.992 135.192 174.365 134.926 174.856C134.659 175.347 134.526 175.923 134.526 176.584C134.526 177.256 134.659 177.843 134.926 178.344C135.192 178.835 135.55 179.213 135.998 179.48C136.446 179.736 136.942 179.864 137.486 179.864C138.03 179.864 138.526 179.736 138.974 179.48C139.432 179.213 139.795 178.835 140.062 178.344C140.328 177.843 140.462 177.261 140.462 176.6ZM147.658 181.144C146.986 181.144 146.384 181.032 145.85 180.808C145.317 180.573 144.896 180.253 144.586 179.848C144.277 179.432 144.106 178.957 144.074 178.424H145.578C145.621 178.861 145.824 179.219 146.186 179.496C146.56 179.773 147.045 179.912 147.642 179.912C148.197 179.912 148.634 179.789 148.954 179.544C149.274 179.299 149.434 178.989 149.434 178.616C149.434 178.232 149.264 177.949 148.922 177.768C148.581 177.576 148.053 177.389 147.338 177.208C146.688 177.037 146.154 176.867 145.738 176.696C145.333 176.515 144.981 176.253 144.682 175.912C144.394 175.56 144.25 175.101 144.25 174.536C144.25 174.088 144.384 173.677 144.65 173.304C144.917 172.931 145.296 172.637 145.786 172.424C146.277 172.2 146.837 172.088 147.466 172.088C148.437 172.088 149.221 172.333 149.818 172.824C150.416 173.315 150.736 173.987 150.778 174.84H149.322C149.29 174.381 149.104 174.013 148.762 173.736C148.432 173.459 147.984 173.32 147.418 173.32C146.896 173.32 146.48 173.432 146.17 173.656C145.861 173.88 145.706 174.173 145.706 174.536C145.706 174.824 145.797 175.064 145.978 175.256C146.17 175.437 146.405 175.587 146.682 175.704C146.97 175.811 147.365 175.933 147.866 176.072C148.496 176.243 149.008 176.413 149.402 176.584C149.797 176.744 150.133 176.989 150.41 177.32C150.698 177.651 150.848 178.083 150.858 178.616C150.858 179.096 150.725 179.528 150.458 179.912C150.192 180.296 149.813 180.6 149.322 180.824C148.842 181.037 148.288 181.144 147.658 181.144ZM160.603 181.144C159.931 181.144 159.329 181.032 158.795 180.808C158.262 180.573 157.841 180.253 157.531 179.848C157.222 179.432 157.051 178.957 157.019 178.424H158.523C158.566 178.861 158.769 179.219 159.131 179.496C159.505 179.773 159.99 179.912 160.587 179.912C161.142 179.912 161.579 179.789 161.899 179.544C162.219 179.299 162.379 178.989 162.379 178.616C162.379 178.232 162.209 177.949 161.867 177.768C161.526 177.576 160.998 177.389 160.283 177.208C159.633 177.037 159.099 176.867 158.683 176.696C158.278 176.515 157.926 176.253 157.627 175.912C157.339 175.56 157.195 175.101 157.195 174.536C157.195 174.088 157.329 173.677 157.595 173.304C157.862 172.931 158.241 172.637 158.731 172.424C159.222 172.2 159.782 172.088 160.411 172.088C161.382 172.088 162.166 172.333 162.763 172.824C163.361 173.315 163.681 173.987 163.723 174.84H162.267C162.235 174.381 162.049 174.013 161.707 173.736C161.377 173.459 160.929 173.32 160.363 173.32C159.841 173.32 159.425 173.432 159.115 173.656C158.806 173.88 158.651 174.173 158.651 174.536C158.651 174.824 158.742 175.064 158.923 175.256C159.115 175.437 159.35 175.587 159.627 175.704C159.915 175.811 160.31 175.933 160.811 176.072C161.441 176.243 161.953 176.413 162.347 176.584C162.742 176.744 163.078 176.989 163.355 177.32C163.643 177.651 163.793 178.083 163.803 178.616C163.803 179.096 163.67 179.528 163.403 179.912C163.137 180.296 162.758 180.6 162.267 180.824C161.787 181.037 161.233 181.144 160.603 181.144ZM169.843 181.144C169.021 181.144 168.275 180.957 167.603 180.584C166.941 180.211 166.419 179.683 166.035 179C165.661 178.307 165.475 177.507 165.475 176.6C165.475 175.704 165.667 174.915 166.051 174.232C166.445 173.539 166.979 173.011 167.651 172.648C168.323 172.275 169.075 172.088 169.907 172.088C170.739 172.088 171.491 172.275 172.163 172.648C172.835 173.011 173.363 173.533 173.747 174.216C174.141 174.899 174.339 175.693 174.339 176.6C174.339 177.507 174.136 178.307 173.731 179C173.336 179.683 172.797 180.211 172.115 180.584C171.432 180.957 170.675 181.144 169.843 181.144ZM169.843 179.864C170.365 179.864 170.856 179.741 171.315 179.496C171.773 179.251 172.141 178.883 172.419 178.392C172.707 177.901 172.851 177.304 172.851 176.6C172.851 175.896 172.712 175.299 172.435 174.808C172.157 174.317 171.795 173.955 171.347 173.72C170.899 173.475 170.413 173.352 169.891 173.352C169.357 173.352 168.867 173.475 168.419 173.72C167.981 173.955 167.629 174.317 167.363 174.808C167.096 175.299 166.963 175.896 166.963 176.6C166.963 177.315 167.091 177.917 167.347 178.408C167.613 178.899 167.965 179.267 168.403 179.512C168.84 179.747 169.32 179.864 169.843 179.864ZM180.237 181.144C179.416 181.144 178.669 180.957 177.997 180.584C177.336 180.211 176.813 179.683 176.429 179C176.056 178.307 175.869 177.507 175.869 176.6C175.869 175.704 176.061 174.915 176.445 174.232C176.84 173.539 177.373 173.011 178.045 172.648C178.717 172.275 179.469 172.088 180.301 172.088C181.133 172.088 181.885 172.275 182.557 172.648C183.229 173.011 183.757 173.533 184.141 174.216C184.536 174.899 184.733 175.693 184.733 176.6C184.733 177.507 184.53 178.307 184.125 179C183.73 179.683 183.192 180.211 182.509 180.584C181.826 180.957 181.069 181.144 180.237 181.144ZM180.237 179.864C180.76 179.864 181.25 179.741 181.709 179.496C182.168 179.251 182.536 178.883 182.813 178.392C183.101 177.901 183.245 177.304 183.245 176.6C183.245 175.896 183.106 175.299 182.829 174.808C182.552 174.317 182.189 173.955 181.741 173.72C181.293 173.475 180.808 173.352 180.285 173.352C179.752 173.352 179.261 173.475 178.813 173.72C178.376 173.955 178.024 174.317 177.757 174.808C177.49 175.299 177.357 175.896 177.357 176.6C177.357 177.315 177.485 177.917 177.741 178.408C178.008 178.899 178.36 179.267 178.797 179.512C179.234 179.747 179.714 179.864 180.237 179.864ZM191.079 172.072C192.146 172.072 193.01 172.397 193.671 173.048C194.333 173.688 194.663 174.616 194.663 175.832V181H193.223V176.04C193.223 175.165 193.005 174.499 192.567 174.04C192.13 173.571 191.533 173.336 190.775 173.336C190.007 173.336 189.394 173.576 188.935 174.056C188.487 174.536 188.263 175.235 188.263 176.152V181H186.807V172.232H188.263V173.48C188.551 173.032 188.941 172.685 189.431 172.44C189.933 172.195 190.482 172.072 191.079 172.072ZM201.083 176.584C201.083 175.688 201.265 174.904 201.627 174.232C201.99 173.549 202.486 173.021 203.115 172.648C203.755 172.275 204.465 172.088 205.243 172.088C206.011 172.088 206.678 172.253 207.243 172.584C207.809 172.915 208.23 173.331 208.507 173.832V172.232H209.979V181H208.507V179.368C208.219 179.88 207.787 180.307 207.211 180.648C206.646 180.979 205.985 181.144 205.227 181.144C204.449 181.144 203.745 180.952 203.115 180.568C202.486 180.184 201.99 179.645 201.627 178.952C201.265 178.259 201.083 177.469 201.083 176.584ZM208.507 176.6C208.507 175.939 208.374 175.363 208.107 174.872C207.841 174.381 207.478 174.008 207.019 173.752C206.571 173.485 206.075 173.352 205.531 173.352C204.987 173.352 204.491 173.48 204.043 173.736C203.595 173.992 203.238 174.365 202.971 174.856C202.705 175.347 202.571 175.923 202.571 176.584C202.571 177.256 202.705 177.843 202.971 178.344C203.238 178.835 203.595 179.213 204.043 179.48C204.491 179.736 204.987 179.864 205.531 179.864C206.075 179.864 206.571 179.736 207.019 179.48C207.478 179.213 207.841 178.835 208.107 178.344C208.374 177.843 208.507 177.261 208.507 176.6ZM215.704 181.144C215.032 181.144 214.429 181.032 213.896 180.808C213.362 180.573 212.941 180.253 212.632 179.848C212.322 179.432 212.152 178.957 212.12 178.424H213.624C213.666 178.861 213.869 179.219 214.232 179.496C214.605 179.773 215.09 179.912 215.688 179.912C216.242 179.912 216.68 179.789 217 179.544C217.32 179.299 217.48 178.989 217.48 178.616C217.48 178.232 217.309 177.949 216.968 177.768C216.626 177.576 216.098 177.389 215.384 177.208C214.733 177.037 214.2 176.867 213.784 176.696C213.378 176.515 213.026 176.253 212.728 175.912C212.44 175.56 212.296 175.101 212.296 174.536C212.296 174.088 212.429 173.677 212.696 173.304C212.962 172.931 213.341 172.637 213.832 172.424C214.322 172.2 214.882 172.088 215.512 172.088C216.482 172.088 217.266 172.333 217.864 172.824C218.461 173.315 218.781 173.987 218.824 174.84H217.368C217.336 174.381 217.149 174.013 216.808 173.736C216.477 173.459 216.029 173.32 215.464 173.32C214.941 173.32 214.525 173.432 214.216 173.656C213.906 173.88 213.752 174.173 213.752 174.536C213.752 174.824 213.842 175.064 214.024 175.256C214.216 175.437 214.45 175.587 214.728 175.704C215.016 175.811 215.41 175.933 215.912 176.072C216.541 176.243 217.053 176.413 217.448 176.584C217.842 176.744 218.178 176.989 218.456 177.32C218.744 177.651 218.893 178.083 218.904 178.616C218.904 179.096 218.77 179.528 218.504 179.912C218.237 180.296 217.858 180.6 217.368 180.824C216.888 181.037 216.333 181.144 215.704 181.144ZM227.001 173.848C227.289 173.347 227.715 172.931 228.281 172.6C228.857 172.259 229.523 172.088 230.281 172.088C231.059 172.088 231.763 172.275 232.393 172.648C233.033 173.021 233.534 173.549 233.897 174.232C234.259 174.904 234.441 175.688 234.441 176.584C234.441 177.469 234.259 178.259 233.897 178.952C233.534 179.645 233.033 180.184 232.393 180.568C231.763 180.952 231.059 181.144 230.281 181.144C229.534 181.144 228.873 180.979 228.297 180.648C227.731 180.307 227.299 179.885 227.001 179.384V185.16H225.545V172.232H227.001V173.848ZM232.953 176.584C232.953 175.923 232.819 175.347 232.553 174.856C232.286 174.365 231.923 173.992 231.465 173.736C231.017 173.48 230.521 173.352 229.977 173.352C229.443 173.352 228.947 173.485 228.489 173.752C228.041 174.008 227.678 174.387 227.401 174.888C227.134 175.379 227.001 175.949 227.001 176.6C227.001 177.261 227.134 177.843 227.401 178.344C227.678 178.835 228.041 179.213 228.489 179.48C228.947 179.736 229.443 179.864 229.977 179.864C230.521 179.864 231.017 179.736 231.465 179.48C231.923 179.213 232.286 178.835 232.553 178.344C232.819 177.843 232.953 177.256 232.953 176.584ZM240.341 181.144C239.52 181.144 238.773 180.957 238.101 180.584C237.44 180.211 236.917 179.683 236.533 179C236.16 178.307 235.973 177.507 235.973 176.6C235.973 175.704 236.165 174.915 236.549 174.232C236.944 173.539 237.477 173.011 238.149 172.648C238.821 172.275 239.573 172.088 240.405 172.088C241.237 172.088 241.989 172.275 242.661 172.648C243.333 173.011 243.861 173.533 244.245 174.216C244.64 174.899 244.837 175.693 244.837 176.6C244.837 177.507 244.635 178.307 244.229 179C243.835 179.683 243.296 180.211 242.613 180.584C241.931 180.957 241.173 181.144 240.341 181.144ZM240.341 179.864C240.864 179.864 241.355 179.741 241.813 179.496C242.272 179.251 242.64 178.883 242.917 178.392C243.205 177.901 243.349 177.304 243.349 176.6C243.349 175.896 243.211 175.299 242.933 174.808C242.656 174.317 242.293 173.955 241.845 173.72C241.397 173.475 240.912 173.352 240.389 173.352C239.856 173.352 239.365 173.475 238.917 173.72C238.48 173.955 238.128 174.317 237.861 174.808C237.595 175.299 237.461 175.896 237.461 176.6C237.461 177.315 237.589 177.917 237.845 178.408C238.112 178.899 238.464 179.267 238.901 179.512C239.339 179.747 239.819 179.864 240.341 179.864ZM250.016 181.144C249.344 181.144 248.741 181.032 248.208 180.808C247.674 180.573 247.253 180.253 246.944 179.848C246.634 179.432 246.464 178.957 246.432 178.424H247.936C247.978 178.861 248.181 179.219 248.544 179.496C248.917 179.773 249.402 179.912 250 179.912C250.554 179.912 250.992 179.789 251.312 179.544C251.632 179.299 251.792 178.989 251.792 178.616C251.792 178.232 251.621 177.949 251.28 177.768C250.938 177.576 250.41 177.389 249.696 177.208C249.045 177.037 248.512 176.867 248.096 176.696C247.69 176.515 247.338 176.253 247.04 175.912C246.752 175.56 246.608 175.101 246.608 174.536C246.608 174.088 246.741 173.677 247.008 173.304C247.274 172.931 247.653 172.637 248.144 172.424C248.634 172.2 249.194 172.088 249.824 172.088C250.794 172.088 251.578 172.333 252.176 172.824C252.773 173.315 253.093 173.987 253.136 174.84H251.68C251.648 174.381 251.461 174.013 251.12 173.736C250.789 173.459 250.341 173.32 249.776 173.32C249.253 173.32 248.837 173.432 248.528 173.656C248.218 173.88 248.064 174.173 248.064 174.536C248.064 174.824 248.154 175.064 248.336 175.256C248.528 175.437 248.762 175.587 249.04 175.704C249.328 175.811 249.722 175.933 250.224 176.072C250.853 176.243 251.365 176.413 251.76 176.584C252.154 176.744 252.49 176.989 252.768 177.32C253.056 177.651 253.205 178.083 253.216 178.616C253.216 179.096 253.082 179.528 252.816 179.912C252.549 180.296 252.17 180.6 251.68 180.824C251.2 181.037 250.645 181.144 250.016 181.144ZM258.535 181.144C257.863 181.144 257.26 181.032 256.727 180.808C256.194 180.573 255.772 180.253 255.463 179.848C255.154 179.432 254.983 178.957 254.951 178.424H256.455C256.498 178.861 256.7 179.219 257.063 179.496C257.436 179.773 257.922 179.912 258.519 179.912C259.074 179.912 259.511 179.789 259.831 179.544C260.151 179.299 260.311 178.989 260.311 178.616C260.311 178.232 260.14 177.949 259.799 177.768C259.458 177.576 258.93 177.389 258.215 177.208C257.564 177.037 257.031 176.867 256.615 176.696C256.21 176.515 255.858 176.253 255.559 175.912C255.271 175.56 255.127 175.101 255.127 174.536C255.127 174.088 255.26 173.677 255.527 173.304C255.794 172.931 256.172 172.637 256.663 172.424C257.154 172.2 257.714 172.088 258.343 172.088C259.314 172.088 260.098 172.333 260.695 172.824C261.292 173.315 261.612 173.987 261.655 174.84H260.199C260.167 174.381 259.98 174.013 259.639 173.736C259.308 173.459 258.86 173.32 258.295 173.32C257.772 173.32 257.356 173.432 257.047 173.656C256.738 173.88 256.583 174.173 256.583 174.536C256.583 174.824 256.674 175.064 256.855 175.256C257.047 175.437 257.282 175.587 257.559 175.704C257.847 175.811 258.242 175.933 258.743 176.072C259.372 176.243 259.884 176.413 260.279 176.584C260.674 176.744 261.01 176.989 261.287 177.32C261.575 177.651 261.724 178.083 261.735 178.616C261.735 179.096 261.602 179.528 261.335 179.912C261.068 180.296 260.69 180.6 260.199 180.824C259.719 181.037 259.164 181.144 258.535 181.144ZM264.702 170.808C264.425 170.808 264.19 170.712 263.998 170.52C263.806 170.328 263.71 170.093 263.71 169.816C263.71 169.539 263.806 169.304 263.998 169.112C264.19 168.92 264.425 168.824 264.702 168.824C264.969 168.824 265.193 168.92 265.374 169.112C265.566 169.304 265.662 169.539 265.662 169.816C265.662 170.093 265.566 170.328 265.374 170.52C265.193 170.712 264.969 170.808 264.702 170.808ZM265.406 172.232V181H263.95V172.232H265.406ZM269.504 173.864C269.803 173.341 270.24 172.915 270.816 172.584C271.392 172.253 272.048 172.088 272.784 172.088C273.573 172.088 274.283 172.275 274.912 172.648C275.541 173.021 276.037 173.549 276.4 174.232C276.763 174.904 276.944 175.688 276.944 176.584C276.944 177.469 276.763 178.259 276.4 178.952C276.037 179.645 275.536 180.184 274.896 180.568C274.267 180.952 273.563 181.144 272.784 181.144C272.027 181.144 271.36 180.979 270.784 180.648C270.219 180.317 269.792 179.896 269.504 179.384V181H268.048V169.16H269.504V173.864ZM275.456 176.584C275.456 175.923 275.323 175.347 275.056 174.856C274.789 174.365 274.427 173.992 273.968 173.736C273.52 173.48 273.024 173.352 272.48 173.352C271.947 173.352 271.451 173.485 270.992 173.752C270.544 174.008 270.181 174.387 269.904 174.888C269.637 175.379 269.504 175.949 269.504 176.6C269.504 177.261 269.637 177.843 269.904 178.344C270.181 178.835 270.544 179.213 270.992 179.48C271.451 179.736 271.947 179.864 272.48 179.864C273.024 179.864 273.52 179.736 273.968 179.48C274.427 179.213 274.789 178.835 275.056 178.344C275.323 177.843 275.456 177.256 275.456 176.584ZM280.476 169.16V181H279.02V169.16H280.476ZM291.118 176.28C291.118 176.557 291.102 176.851 291.07 177.16H284.062C284.115 178.024 284.409 178.701 284.942 179.192C285.486 179.672 286.142 179.912 286.91 179.912C287.539 179.912 288.062 179.768 288.478 179.48C288.905 179.181 289.203 178.787 289.374 178.296H290.942C290.707 179.139 290.238 179.827 289.534 180.36C288.83 180.883 287.955 181.144 286.91 181.144C286.078 181.144 285.331 180.957 284.67 180.584C284.019 180.211 283.507 179.683 283.134 179C282.761 178.307 282.574 177.507 282.574 176.6C282.574 175.693 282.755 174.899 283.118 174.216C283.481 173.533 283.987 173.011 284.638 172.648C285.299 172.275 286.057 172.088 286.91 172.088C287.742 172.088 288.478 172.269 289.118 172.632C289.758 172.995 290.249 173.496 290.59 174.136C290.942 174.765 291.118 175.48 291.118 176.28ZM289.614 175.976C289.614 175.421 289.491 174.947 289.246 174.552C289.001 174.147 288.665 173.843 288.238 173.64C287.822 173.427 287.358 173.32 286.846 173.32C286.11 173.32 285.481 173.555 284.958 174.024C284.446 174.493 284.153 175.144 284.078 175.976H289.614Z" fill="#1A1A1A"/>
<path opacity="0.5" d="M96.664 211.076H94.108V213.668H93.088V211.076H90.544V210.152H93.088V207.548H94.108V210.152H96.664V211.076ZM98.5554 210.572C98.5554 209.196 98.7794 208.124 99.2274 207.356C99.6754 206.58 100.459 206.192 101.579 206.192C102.691 206.192 103.471 206.58 103.919 207.356C104.367 208.124 104.591 209.196 104.591 210.572C104.591 211.972 104.367 213.06 103.919 213.836C103.471 214.612 102.691 215 101.579 215C100.459 215 99.6754 214.612 99.2274 213.836C98.7794 213.06 98.5554 211.972 98.5554 210.572ZM103.511 210.572C103.511 209.876 103.463 209.288 103.367 208.808C103.279 208.32 103.091 207.928 102.803 207.632C102.523 207.336 102.115 207.188 101.579 207.188C101.035 207.188 100.619 207.336 100.331 207.632C100.051 207.928 99.8634 208.32 99.7674 208.808C99.6794 209.288 99.6354 209.876 99.6354 210.572C99.6354 211.292 99.6794 211.896 99.7674 212.384C99.8634 212.872 100.051 213.264 100.331 213.56C100.619 213.856 101.035 214.004 101.579 214.004C102.115 214.004 102.523 213.856 102.803 213.56C103.091 213.264 103.279 212.872 103.367 212.384C103.463 211.896 103.511 211.292 103.511 210.572ZM105.923 207.32V206.324H108.179V215H107.075V207.32H105.923ZM113.23 213.068V212.24L117.442 206.408H118.75V212.12H119.95V213.068H118.75V215H117.67V213.068H113.23ZM117.718 207.548L114.49 212.12H117.718V207.548ZM125.996 208.388C125.82 207.5 125.272 207.056 124.352 207.056C123.64 207.056 123.108 207.332 122.756 207.884C122.404 208.428 122.232 209.328 122.24 210.584C122.424 210.168 122.728 209.844 123.152 209.612C123.584 209.372 124.064 209.252 124.592 209.252C125.416 209.252 126.072 209.508 126.56 210.02C127.056 210.532 127.304 211.24 127.304 212.144C127.304 212.688 127.196 213.176 126.98 213.608C126.772 214.04 126.452 214.384 126.02 214.64C125.596 214.896 125.08 215.024 124.472 215.024C123.648 215.024 123.004 214.84 122.54 214.472C122.076 214.104 121.752 213.596 121.568 212.948C121.384 212.3 121.292 211.5 121.292 210.548C121.292 207.612 122.316 206.144 124.364 206.144C125.148 206.144 125.764 206.356 126.212 206.78C126.66 207.204 126.924 207.74 127.004 208.388H125.996ZM124.364 210.176C124.02 210.176 123.696 210.248 123.392 210.392C123.088 210.528 122.84 210.74 122.648 211.028C122.464 211.308 122.372 211.652 122.372 212.06C122.372 212.668 122.548 213.164 122.9 213.548C123.252 213.924 123.756 214.112 124.412 214.112C124.972 214.112 125.416 213.94 125.744 213.596C126.08 213.244 126.248 212.772 126.248 212.18C126.248 211.556 126.088 211.068 125.768 210.716C125.448 210.356 124.98 210.176 124.364 210.176ZM130.302 212.672C130.382 213.128 130.566 213.48 130.854 213.728C131.15 213.976 131.546 214.1 132.042 214.1C132.706 214.1 133.194 213.84 133.506 213.32C133.826 212.8 133.978 211.924 133.962 210.692C133.794 211.052 133.514 211.336 133.122 211.544C132.73 211.744 132.294 211.844 131.814 211.844C131.278 211.844 130.798 211.736 130.374 211.52C129.958 211.296 129.63 210.972 129.39 210.548C129.15 210.124 129.03 209.612 129.03 209.012C129.03 208.156 129.278 207.468 129.774 206.948C130.27 206.42 130.974 206.156 131.886 206.156C133.006 206.156 133.79 206.52 134.238 207.248C134.694 207.976 134.922 209.06 134.922 210.5C134.922 211.508 134.83 212.34 134.646 212.996C134.47 213.652 134.166 214.152 133.734 214.496C133.31 214.84 132.726 215.012 131.982 215.012C131.166 215.012 130.53 214.792 130.074 214.352C129.618 213.912 129.358 213.352 129.294 212.672H130.302ZM131.994 210.92C132.53 210.92 132.97 210.756 133.314 210.428C133.658 210.092 133.83 209.64 133.83 209.072C133.83 208.472 133.662 207.988 133.326 207.62C132.99 207.252 132.518 207.068 131.91 207.068C131.35 207.068 130.902 207.244 130.566 207.596C130.238 207.948 130.074 208.412 130.074 208.988C130.074 209.572 130.238 210.04 130.566 210.392C130.894 210.744 131.37 210.92 131.994 210.92ZM141.316 210.14V211.064H136.528V210.14H141.316ZM148.838 207.272H144.626V210.008C144.81 209.752 145.082 209.544 145.442 209.384C145.802 209.216 146.19 209.132 146.606 209.132C147.27 209.132 147.81 209.272 148.226 209.552C148.642 209.824 148.938 210.18 149.114 210.62C149.298 211.052 149.39 211.512 149.39 212C149.39 212.576 149.282 213.092 149.066 213.548C148.85 214.004 148.518 214.364 148.07 214.628C147.63 214.892 147.082 215.024 146.426 215.024C145.586 215.024 144.906 214.808 144.386 214.376C143.866 213.944 143.55 213.368 143.438 212.648H144.506C144.61 213.104 144.83 213.46 145.166 213.716C145.502 213.972 145.926 214.1 146.438 214.1C147.07 214.1 147.546 213.912 147.866 213.536C148.186 213.152 148.346 212.648 148.346 212.024C148.346 211.4 148.186 210.92 147.866 210.584C147.546 210.24 147.074 210.068 146.45 210.068C146.026 210.068 145.654 210.172 145.334 210.38C145.022 210.58 144.794 210.856 144.65 211.208H143.618V206.312H148.838V207.272ZM150.697 213.068V212.24L154.909 206.408H156.217V212.12H157.417V213.068H156.217V215H155.137V213.068H150.697ZM155.185 207.548L151.957 212.12H155.185V207.548ZM160.032 212.672C160.112 213.128 160.296 213.48 160.584 213.728C160.88 213.976 161.276 214.1 161.772 214.1C162.436 214.1 162.924 213.84 163.236 213.32C163.556 212.8 163.708 211.924 163.692 210.692C163.524 211.052 163.244 211.336 162.852 211.544C162.46 211.744 162.024 211.844 161.544 211.844C161.008 211.844 160.528 211.736 160.104 211.52C159.688 211.296 159.36 210.972 159.12 210.548C158.88 210.124 158.76 209.612 158.76 209.012C158.76 208.156 159.008 207.468 159.504 206.948C160 206.42 160.704 206.156 161.616 206.156C162.736 206.156 163.52 206.52 163.968 207.248C164.424 207.976 164.652 209.06 164.652 210.5C164.652 211.508 164.56 212.34 164.376 212.996C164.2 213.652 163.896 214.152 163.464 214.496C163.04 214.84 162.456 215.012 161.712 215.012C160.896 215.012 160.26 214.792 159.804 214.352C159.348 213.912 159.088 213.352 159.024 212.672H160.032ZM161.724 210.92C162.26 210.92 162.7 210.756 163.044 210.428C163.388 210.092 163.56 209.64 163.56 209.072C163.56 208.472 163.392 207.988 163.056 207.62C162.72 207.252 162.248 207.068 161.64 207.068C161.08 207.068 160.632 207.244 160.296 207.596C159.968 207.948 159.804 208.412 159.804 208.988C159.804 209.572 159.968 210.04 160.296 210.392C160.624 210.744 161.1 210.92 161.724 210.92ZM171.046 210.14V211.064H166.258V210.14H171.046ZM178.568 207.272H174.356V210.008C174.54 209.752 174.812 209.544 175.172 209.384C175.532 209.216 175.92 209.132 176.336 209.132C177 209.132 177.54 209.272 177.956 209.552C178.372 209.824 178.668 210.18 178.844 210.62C179.028 211.052 179.12 211.512 179.12 212C179.12 212.576 179.012 213.092 178.796 213.548C178.58 214.004 178.248 214.364 177.8 214.628C177.36 214.892 176.812 215.024 176.156 215.024C175.316 215.024 174.636 214.808 174.116 214.376C173.596 213.944 173.28 213.368 173.168 212.648H174.236C174.34 213.104 174.56 213.46 174.896 213.716C175.232 213.972 175.656 214.1 176.168 214.1C176.8 214.1 177.276 213.912 177.596 213.536C177.916 213.152 178.076 212.648 178.076 212.024C178.076 211.4 177.916 210.92 177.596 210.584C177.276 210.24 176.804 210.068 176.18 210.068C175.756 210.068 175.384 210.172 175.064 210.38C174.752 210.58 174.524 210.856 174.38 211.208H173.348V206.312H178.568V207.272ZM180.427 213.068V212.24L184.639 206.408H185.947V212.12H187.147V213.068H185.947V215H184.867V213.068H180.427ZM184.915 207.548L181.687 212.12H184.915V207.548ZM189.762 212.672C189.842 213.128 190.026 213.48 190.314 213.728C190.61 213.976 191.006 214.1 191.502 214.1C192.166 214.1 192.654 213.84 192.966 213.32C193.286 212.8 193.438 211.924 193.422 210.692C193.254 211.052 192.974 211.336 192.582 211.544C192.19 211.744 191.754 211.844 191.274 211.844C190.738 211.844 190.258 211.736 189.834 211.52C189.418 211.296 189.09 210.972 188.85 210.548C188.61 210.124 188.49 209.612 188.49 209.012C188.49 208.156 188.738 207.468 189.234 206.948C189.73 206.42 190.434 206.156 191.346 206.156C192.466 206.156 193.25 206.52 193.698 207.248C194.154 207.976 194.382 209.06 194.382 210.5C194.382 211.508 194.29 212.34 194.106 212.996C193.93 213.652 193.626 214.152 193.194 214.496C192.77 214.84 192.186 215.012 191.442 215.012C190.626 215.012 189.99 214.792 189.534 214.352C189.078 213.912 188.818 213.352 188.754 212.672H189.762ZM191.454 210.92C191.99 210.92 192.43 210.756 192.774 210.428C193.118 210.092 193.29 209.64 193.29 209.072C193.29 208.472 193.122 207.988 192.786 207.62C192.45 207.252 191.978 207.068 191.37 207.068C190.81 207.068 190.362 207.244 190.026 207.596C189.698 207.948 189.534 208.412 189.534 208.988C189.534 209.572 189.698 210.04 190.026 210.392C190.354 210.744 190.83 210.92 191.454 210.92ZM195.904 214.124C196.92 213.308 197.716 212.64 198.292 212.12C198.868 211.592 199.352 211.044 199.744 210.476C200.144 209.9 200.344 209.336 200.344 208.784C200.344 208.264 200.216 207.856 199.96 207.56C199.712 207.256 199.308 207.104 198.748 207.104C198.204 207.104 197.78 207.276 197.476 207.62C197.18 207.956 197.02 208.408 196.996 208.976H195.94C195.972 208.08 196.244 207.388 196.756 206.9C197.268 206.412 197.928 206.168 198.736 206.168C199.56 206.168 200.212 206.396 200.692 206.852C201.18 207.308 201.424 207.936 201.424 208.736C201.424 209.4 201.224 210.048 200.824 210.68C200.432 211.304 199.984 211.856 199.48 212.336C198.976 212.808 198.332 213.36 197.548 213.992H201.676V214.904H195.904V214.124Z" fill="#1A1A1A"/>
<defs>
<linearGradient id="paint0_linear_2_10101" x1="132.607" y1="13.7298" x2="166.654" y2="22.1381" gradientUnits="userSpaceOnUse">
<stop stop-color="#018085"/>
<stop offset="1" stop-color="#019298"/>
</linearGradient>
<linearGradient id="paint1_linear_2_10101" x1="148.144" y1="15.4845" x2="160.622" y2="18.5852" gradientUnits="userSpaceOnUse">
<stop stop-color="#018085"/>
<stop offset="1" stop-color="#019298"/>
</linearGradient>
<linearGradient id="paint2_linear_2_10101" x1="147.231" y1="19.4933" x2="155.854" y2="21.642" gradientUnits="userSpaceOnUse">
<stop stop-color="#018085"/>
<stop offset="1" stop-color="#019298"/>
</linearGradient>
</defs>
</svg>
