<svg width="310" height="100" viewBox="0 0 310 100" fill="none" xmlns="http://www.w3.org/2000/svg">
<g clip-path="url(#clip0_4_1187)">
<path d="M237.829 54.4051V52.7526C237.012 52.4741 235.768 52.1027 233.707 52.1027C230.643 52.1027 228.954 53.4581 228.954 55.4634V55.5191C228.954 57.6172 230.94 58.8426 233.15 58.8426C235.898 58.8426 237.829 57.1716 237.829 54.4051ZM227.468 55.6119V55.5562C227.468 52.5483 230.049 50.8587 233.781 50.8587C235.786 50.8587 236.845 51.1929 237.792 51.4714V50.8587C237.792 47.9437 236.009 46.4397 233.038 46.4397C231.813 46.4397 230.606 46.7554 229.269 47.4423L228.768 46.2355C230.365 45.4928 231.609 45.1586 233.113 45.1586C235.062 45.1586 236.622 45.697 237.68 46.7368C238.646 47.7023 239.147 49.0206 239.147 50.8216V59.8081H237.792V57.6172C237.235 58.5641 235.731 60.1423 233.038 60.1423C230.365 60.1609 227.468 58.6198 227.468 55.6119ZM224.33 51.917C224.126 49.002 222.455 46.3097 219.15 46.3097C216.291 46.3097 214.081 48.7235 213.821 51.917H224.33ZM212.354 52.6226V52.5669C212.354 48.3707 215.307 45.0286 219.206 45.0286C223.253 45.0286 225.834 48.315 225.834 52.5855C225.834 52.8454 225.834 52.9197 225.797 53.1611H213.821C214.081 56.7631 216.644 58.8612 219.484 58.8612C221.712 58.8612 223.253 57.8771 224.442 56.596L225.407 57.4501C223.94 59.0469 222.214 60.1609 219.429 60.1609C215.641 60.1423 212.354 57.1159 212.354 52.6226ZM85.1318 39.9783H99.8371V43.0976H88.6225V48.2593H98.5559V51.3786H88.6225V56.7074H99.9856V59.8081H85.1318V39.9783ZM102.325 44.8615H105.741V47.1267C106.707 45.7899 108.007 44.5459 110.309 44.5459C112.463 44.5459 113.967 45.5856 114.765 47.1824C115.991 45.6042 117.569 44.5459 119.834 44.5459C123.083 44.5459 125.07 46.6068 125.07 50.2646V59.8081H121.635V51.3043C121.635 48.9277 120.521 47.6466 118.609 47.6466C116.733 47.6466 115.415 48.9463 115.415 51.36V59.8081H111.98V51.2858C111.98 48.9649 110.847 47.6652 108.954 47.6652C107.06 47.6652 105.76 49.0763 105.76 51.3972V59.8081H102.325V44.8615ZM140.072 52.3627V52.307C140.072 49.4105 138.123 47.5166 135.802 47.5166C133.481 47.5166 131.439 49.4476 131.439 52.307V52.3627C131.439 55.2591 133.481 57.153 135.802 57.153C138.141 57.153 140.072 55.3149 140.072 52.3627ZM131.513 57.4872V59.8081H128.078V39.1428H131.513V47.3495C132.608 45.7899 134.168 44.5459 136.582 44.5459C140.128 44.5459 143.544 47.3495 143.544 52.307V52.3627C143.544 57.3201 140.147 60.1238 136.582 60.1238C134.131 60.1238 132.571 58.8798 131.513 57.4872ZM145.865 59.8081V39.1428H149.3V59.8081H145.865ZM162.873 51.2858C162.65 49.0763 161.35 47.3495 159.085 47.3495C156.987 47.3495 155.52 48.9649 155.205 51.2858H162.873ZM151.807 52.3998V52.3441C151.807 48.0736 154.833 44.5459 159.122 44.5459C163.875 44.5459 166.289 48.2779 166.289 52.5855C166.289 52.9011 166.252 53.1982 166.233 53.551H155.242C155.613 55.9833 157.34 57.3572 159.549 57.3572C161.22 57.3572 162.409 56.726 163.597 55.5748L165.602 57.3572C164.191 59.0469 162.242 60.1609 159.475 60.1609C155.149 60.1609 151.807 57.0045 151.807 52.3998ZM168.61 44.8615H172.026V47.1267C172.992 45.7899 174.292 44.5459 176.594 44.5459C178.748 44.5459 180.252 45.5856 181.032 47.1824C182.257 45.6042 183.835 44.5459 186.1 44.5459C189.368 44.5459 191.355 46.6068 191.355 50.2646V59.8081H187.92V51.3043C187.92 48.9277 186.825 47.6466 184.894 47.6466C183.018 47.6466 181.7 48.9463 181.7 51.36V59.8081H178.284V51.2858C178.284 48.9649 177.151 47.6652 175.257 47.6652C173.363 47.6652 172.064 49.0763 172.064 51.3972V59.8081H168.647L168.61 44.8615ZM194.474 39.9783H195.941V49.1505H208.622V39.9783H210.089V59.8081H208.622V50.5245H195.922V59.8081H194.456V39.9783H194.474ZM242.229 59.8081V39.1428H243.622V59.8081H242.229ZM248.245 56.0947V46.6254H246.147V45.3442H248.245V40.7396H249.637V45.3628H254.706V46.644H249.637V55.9647C249.637 58.0257 250.863 58.7684 252.515 58.7684C253.221 58.7684 253.815 58.6198 254.632 58.267V59.5667C253.889 59.9195 253.091 60.0866 252.274 60.0866C250.065 60.0681 248.245 58.8426 248.245 56.0947ZM257.324 39.1428H258.717V48.0736C259.682 46.3654 261.298 45.0472 263.934 45.0472C267.592 45.0472 269.709 47.5352 269.709 50.9887V59.8081H268.316V51.2301C268.316 48.2593 266.645 46.2912 263.73 46.2912C260.889 46.2912 258.717 48.445 258.717 51.4529V59.8081H257.324V39.1428ZM272.457 40.4425H271.64V41.4266H272.438C272.828 41.4266 273.088 41.2595 273.088 40.9252C273.106 40.6282 272.865 40.4425 272.457 40.4425ZM272.809 41.7422L273.663 42.8562H273.144L272.345 41.8165H271.64V42.8562H271.231V40.0712H272.475C273.088 40.0712 273.515 40.3868 273.515 40.9067C273.533 41.3709 273.236 41.6308 272.809 41.7422ZM272.308 39.0685C270.897 39.0685 269.839 40.1826 269.839 41.538C269.839 42.8934 270.878 43.9888 272.289 43.9888C273.682 43.9888 274.759 42.8748 274.759 41.5194C274.759 40.1826 273.701 39.0685 272.308 39.0685ZM272.308 44.2302C270.823 44.2302 269.616 43.0419 269.616 41.5565V41.538C269.616 40.0526 270.823 38.8271 272.327 38.8271C273.812 38.8271 275.019 40.034 275.019 41.5008C275.019 41.5008 275.019 41.5008 275.019 41.5194C275 43.0233 273.793 44.2302 272.308 44.2302Z" fill="#522380"/>
<path d="M54.3846 42.2996L54.3289 42.3367C49.3529 45.5674 44.6368 49.6336 40.1064 54.6096C45.0453 57.4504 49.7985 60.8668 54.1618 65.0073C58.5251 60.8668 63.2783 57.4504 68.2172 54.6096L73.3232 34C66.6019 35.7268 60.3076 38.4376 54.3846 42.2996Z" fill="#EFAF2D"/>
<path d="M35 34C35.5199 36.0981 35.8912 37.5278 36.4111 39.6073C36.7639 40.9998 37.3395 43.3765 37.6922 44.7876C38.045 46.2172 38.5463 48.3153 38.8991 49.745C39.3819 51.6946 39.6418 52.6601 40.1246 54.6096C41.48 53.1242 42.8725 51.6946 44.3207 50.302C46.0846 48.631 47.9042 47.0528 49.8167 45.5488C50.2623 45.2146 50.6893 44.8804 51.1349 44.5462C51.562 44.2305 52.0076 43.9149 52.4346 43.6178C53.0845 43.1722 53.7529 42.7452 54.4028 42.281C53.0102 41.3712 52.9359 41.3526 51.5063 40.5542C50.5965 40.0529 50.4108 39.8301 45.5833 37.5649C42.1484 35.9496 38.5463 34.8912 35 34Z" fill="#522380"/>
</g>
<defs>
<clipPath id="clip0_4_1187">
<rect width="240" height="31.0073" fill="white" transform="translate(35 34)"/>
</clipPath>
</defs>
</svg>
