<svg width="292" height="222" viewBox="0 0 292 222" fill="none" xmlns="http://www.w3.org/2000/svg">
<rect x="118" width="56" height="56" rx="16" fill="white"/>
<path d="M159.188 28.0003V38.0003C159.184 39.3254 158.656 40.5952 157.719 41.5322C156.782 42.4692 155.513 42.997 154.188 43.0003H147C146.735 43.0003 146.48 42.8949 146.293 42.7074C146.105 42.5199 146 42.2655 146 42.0003C146 41.7351 146.105 41.4807 146.293 41.2932C146.48 41.1056 146.735 41.0003 147 41.0003H154.188C154.982 40.997 155.743 40.6799 156.305 40.118C156.867 39.5561 157.184 38.7949 157.188 38.0003V37.8253C156.867 37.941 156.528 38.0002 156.188 38.0003H154.188C153.392 38.0003 152.629 37.6842 152.066 37.1216C151.504 36.559 151.188 35.7959 151.188 35.0003V30.0003C151.188 29.2046 151.504 28.4416 152.066 27.879C152.629 27.3164 153.392 27.0003 154.188 27.0003H157.138C156.887 24.2531 155.613 21.7003 153.569 19.8481C151.524 17.9959 148.859 16.9795 146.1 17.0003H146.087C143.327 16.9737 140.658 17.9881 138.613 19.8414C136.567 21.6948 135.295 24.2509 135.05 27.0003H138C138.795 27.0036 139.556 27.3207 140.118 27.8826C140.68 28.4445 140.997 29.2057 141 30.0003V35.0003C140.997 35.7949 140.68 36.5561 140.118 37.118C139.556 37.6799 138.795 37.997 138 38.0003H136C135.205 37.997 134.444 37.6799 133.882 37.118C133.32 36.5561 133.003 35.7949 133 35.0003V28.0003C133 26.2857 133.339 24.5881 133.998 23.0051C134.657 21.4222 135.622 19.9851 136.838 18.7768C138.055 17.5685 139.498 16.6128 141.086 15.9646C142.673 15.3165 144.373 14.9888 146.087 15.0003H146.188C149.634 15.0036 152.939 16.3743 155.376 18.8116C157.813 21.2488 159.184 24.5535 159.188 28.0003Z" fill="url(#paint0_linear_2_10115)"/>
<path d="M39.84 105.6C39.84 103.952 40.208 102.48 40.944 101.184C41.696 99.872 42.712 98.856 43.992 98.136C45.288 97.4 46.736 97.032 48.336 97.032C50.208 97.032 51.848 97.512 53.256 98.472C54.664 99.432 55.648 100.76 56.208 102.456H52.344C51.96 101.656 51.416 101.056 50.712 100.656C50.024 100.256 49.224 100.056 48.312 100.056C47.336 100.056 46.464 100.288 45.696 100.752C44.944 101.2 44.352 101.84 43.92 102.672C43.504 103.504 43.296 104.48 43.296 105.6C43.296 106.704 43.504 107.68 43.92 108.528C44.352 109.36 44.944 110.008 45.696 110.472C46.464 110.92 47.336 111.144 48.312 111.144C49.224 111.144 50.024 110.944 50.712 110.544C51.416 110.128 51.96 109.52 52.344 108.72H56.208C55.648 110.432 54.664 111.768 53.256 112.728C51.864 113.672 50.224 114.144 48.336 114.144C46.736 114.144 45.288 113.784 43.992 113.064C42.712 112.328 41.696 111.312 40.944 110.016C40.208 108.72 39.84 107.248 39.84 105.6ZM71.3899 100.704V114H68.0059V112.32C67.5739 112.896 67.0059 113.352 66.3019 113.688C65.6139 114.008 64.8619 114.168 64.0459 114.168C63.0059 114.168 62.0859 113.952 61.2859 113.52C60.4859 113.072 59.8539 112.424 59.3899 111.576C58.9419 110.712 58.7179 109.688 58.7179 108.504V100.704H62.0779V108.024C62.0779 109.08 62.3419 109.896 62.8699 110.472C63.3979 111.032 64.1179 111.312 65.0299 111.312C65.9579 111.312 66.6859 111.032 67.2139 110.472C67.7419 109.896 68.0059 109.08 68.0059 108.024V100.704H71.3899ZM79.5531 114.216C78.4651 114.216 77.4891 114.024 76.6251 113.64C75.7611 113.24 75.0731 112.704 74.5611 112.032C74.0651 111.36 73.7931 110.616 73.7451 109.8H77.1291C77.1931 110.312 77.4411 110.736 77.8731 111.072C78.3211 111.408 78.8731 111.576 79.5291 111.576C80.1691 111.576 80.6651 111.448 81.0171 111.192C81.3851 110.936 81.5691 110.608 81.5691 110.208C81.5691 109.776 81.3451 109.456 80.8971 109.248C80.4651 109.024 79.7691 108.784 78.8091 108.528C77.8171 108.288 77.0011 108.04 76.3611 107.784C75.7371 107.528 75.1931 107.136 74.7291 106.608C74.2811 106.08 74.0571 105.368 74.0571 104.472C74.0571 103.736 74.2651 103.064 74.6811 102.456C75.1131 101.848 75.7211 101.368 76.5051 101.016C77.3051 100.664 78.2411 100.488 79.3131 100.488C80.8971 100.488 82.1611 100.888 83.1051 101.688C84.0491 102.472 84.5691 103.536 84.6651 104.88H81.4491C81.4011 104.352 81.1771 103.936 80.7771 103.632C80.3931 103.312 79.8731 103.152 79.2171 103.152C78.6091 103.152 78.1371 103.264 77.8011 103.488C77.4811 103.712 77.3211 104.024 77.3211 104.424C77.3211 104.872 77.5451 105.216 77.9931 105.456C78.4411 105.68 79.1371 105.912 80.0811 106.152C81.0411 106.392 81.8331 106.64 82.4571 106.896C83.0811 107.152 83.6171 107.552 84.0651 108.096C84.5291 108.624 84.7691 109.328 84.7851 110.208C84.7851 110.976 84.5691 111.664 84.1371 112.272C83.7211 112.88 83.1131 113.36 82.3131 113.712C81.5291 114.048 80.6091 114.216 79.5531 114.216ZM91.2152 103.464V109.896C91.2152 110.344 91.3192 110.672 91.5272 110.88C91.7512 111.072 92.1192 111.168 92.6312 111.168H94.1912V114H92.0792C89.2472 114 87.8312 112.624 87.8312 109.872V103.464H86.2472V100.704H87.8312V97.416H91.2152V100.704H94.1912V103.464H91.2152ZM102.272 114.216C100.992 114.216 99.8399 113.936 98.8159 113.376C97.7919 112.8 96.9839 111.992 96.3919 110.952C95.8159 109.912 95.5279 108.712 95.5279 107.352C95.5279 105.992 95.8239 104.792 96.4159 103.752C97.0239 102.712 97.8479 101.912 98.8879 101.352C99.9279 100.776 101.088 100.488 102.368 100.488C103.648 100.488 104.808 100.776 105.848 101.352C106.888 101.912 107.704 102.712 108.296 103.752C108.904 104.792 109.208 105.992 109.208 107.352C109.208 108.712 108.896 109.912 108.272 110.952C107.664 111.992 106.832 112.8 105.776 113.376C104.736 113.936 103.568 114.216 102.272 114.216ZM102.272 111.288C102.88 111.288 103.448 111.144 103.976 110.856C104.52 110.552 104.952 110.104 105.272 109.512C105.592 108.92 105.752 108.2 105.752 107.352C105.752 106.088 105.416 105.12 104.744 104.448C104.088 103.76 103.28 103.416 102.32 103.416C101.36 103.416 100.552 103.76 99.8959 104.448C99.2559 105.12 98.9359 106.088 98.9359 107.352C98.9359 108.616 99.2479 109.592 99.8719 110.28C100.512 110.952 101.312 111.288 102.272 111.288ZM127.945 100.512C129.577 100.512 130.889 101.016 131.881 102.024C132.889 103.016 133.393 104.408 133.393 106.2V114H130.033V106.656C130.033 105.616 129.769 104.824 129.241 104.28C128.713 103.72 127.993 103.44 127.081 103.44C126.169 103.44 125.441 103.72 124.897 104.28C124.369 104.824 124.105 105.616 124.105 106.656V114H120.745V106.656C120.745 105.616 120.481 104.824 119.953 104.28C119.425 103.72 118.705 103.44 117.793 103.44C116.865 103.44 116.129 103.72 115.585 104.28C115.057 104.824 114.793 105.616 114.793 106.656V114H111.433V100.704H114.793V102.312C115.225 101.752 115.777 101.312 116.449 100.992C117.137 100.672 117.889 100.512 118.705 100.512C119.745 100.512 120.673 100.736 121.489 101.184C122.305 101.616 122.937 102.24 123.385 103.056C123.817 102.288 124.441 101.672 125.257 101.208C126.089 100.744 126.985 100.512 127.945 100.512ZM148.701 107.064C148.701 107.544 148.669 107.976 148.605 108.36H138.885C138.965 109.32 139.301 110.072 139.893 110.616C140.485 111.16 141.213 111.432 142.077 111.432C143.325 111.432 144.213 110.896 144.741 109.824H148.365C147.981 111.104 147.245 112.16 146.157 112.992C145.069 113.808 143.733 114.216 142.149 114.216C140.869 114.216 139.717 113.936 138.693 113.376C137.685 112.8 136.893 111.992 136.317 110.952C135.757 109.912 135.477 108.712 135.477 107.352C135.477 105.976 135.757 104.768 136.317 103.728C136.877 102.688 137.661 101.888 138.669 101.328C139.677 100.768 140.837 100.488 142.149 100.488C143.413 100.488 144.541 100.76 145.533 101.304C146.541 101.848 147.317 102.624 147.861 103.632C148.421 104.624 148.701 105.768 148.701 107.064ZM145.221 106.104C145.205 105.24 144.893 104.552 144.285 104.04C143.677 103.512 142.933 103.248 142.053 103.248C141.221 103.248 140.517 103.504 139.941 104.016C139.381 104.512 139.037 105.208 138.909 106.104H145.221ZM154.273 102.768C154.706 102.064 155.266 101.512 155.954 101.112C156.658 100.712 157.457 100.512 158.353 100.512V104.04H157.465C156.41 104.04 155.61 104.288 155.066 104.784C154.537 105.28 154.273 106.144 154.273 107.376V114H150.913V100.704H154.273V102.768ZM171.639 114.168C170.471 114.168 169.415 113.968 168.471 113.568C167.543 113.168 166.807 112.592 166.263 111.84C165.719 111.088 165.439 110.2 165.423 109.176H169.023C169.071 109.864 169.311 110.408 169.743 110.808C170.191 111.208 170.799 111.408 171.567 111.408C172.351 111.408 172.967 111.224 173.415 110.856C173.863 110.472 174.087 109.976 174.087 109.368C174.087 108.872 173.935 108.464 173.631 108.144C173.327 107.824 172.943 107.576 172.479 107.4C172.031 107.208 171.407 107 170.607 106.776C169.519 106.456 168.631 106.144 167.943 105.84C167.271 105.52 166.687 105.048 166.191 104.424C165.711 103.784 165.471 102.936 165.471 101.88C165.471 100.888 165.719 100.024 166.215 99.288C166.711 98.552 167.407 97.992 168.303 97.608C169.199 97.208 170.223 97.008 171.375 97.008C173.103 97.008 174.503 97.432 175.575 98.28C176.663 99.112 177.263 100.28 177.375 101.784H173.679C173.647 101.208 173.399 100.736 172.935 100.368C172.487 99.984 171.887 99.792 171.135 99.792C170.479 99.792 169.951 99.96 169.551 100.296C169.167 100.632 168.975 101.12 168.975 101.76C168.975 102.208 169.119 102.584 169.407 102.888C169.711 103.176 170.079 103.416 170.511 103.608C170.959 103.784 171.583 103.992 172.383 104.232C173.471 104.552 174.359 104.872 175.047 105.192C175.735 105.512 176.327 105.992 176.823 106.632C177.319 107.272 177.567 108.112 177.567 109.152C177.567 110.048 177.335 110.88 176.871 111.648C176.407 112.416 175.727 113.032 174.831 113.496C173.935 113.944 172.871 114.168 171.639 114.168ZM192.6 107.064C192.6 107.544 192.568 107.976 192.504 108.36H182.784C182.864 109.32 183.2 110.072 183.792 110.616C184.384 111.16 185.112 111.432 185.976 111.432C187.224 111.432 188.112 110.896 188.64 109.824H192.264C191.88 111.104 191.144 112.16 190.056 112.992C188.968 113.808 187.632 114.216 186.048 114.216C184.768 114.216 183.616 113.936 182.592 113.376C181.584 112.8 180.792 111.992 180.216 110.952C179.656 109.912 179.376 108.712 179.376 107.352C179.376 105.976 179.656 104.768 180.216 103.728C180.776 102.688 181.56 101.888 182.568 101.328C183.576 100.768 184.736 100.488 186.048 100.488C187.312 100.488 188.44 100.76 189.432 101.304C190.44 101.848 191.216 102.624 191.76 103.632C192.32 104.624 192.6 105.768 192.6 107.064ZM189.12 106.104C189.104 105.24 188.792 104.552 188.184 104.04C187.576 103.512 186.832 103.248 185.952 103.248C185.12 103.248 184.416 103.504 183.84 104.016C183.28 104.512 182.936 105.208 182.808 106.104H189.12ZM198.173 102.768C198.605 102.064 199.165 101.512 199.853 101.112C200.557 100.712 201.357 100.512 202.253 100.512V104.04H201.365C200.309 104.04 199.509 104.288 198.965 104.784C198.437 105.28 198.173 106.144 198.173 107.376V114H194.813V100.704H198.173V102.768ZM209.82 110.904L213.18 100.704H216.756L211.836 114H207.756L202.86 100.704H206.46L209.82 110.904ZM220.107 99.12C219.515 99.12 219.019 98.936 218.619 98.568C218.235 98.184 218.043 97.712 218.043 97.152C218.043 96.592 218.235 96.128 218.619 95.76C219.019 95.376 219.515 95.184 220.107 95.184C220.699 95.184 221.187 95.376 221.571 95.76C221.971 96.128 222.171 96.592 222.171 97.152C222.171 97.712 221.971 98.184 221.571 98.568C221.187 98.936 220.699 99.12 220.107 99.12ZM221.763 100.704V114H218.403V100.704H221.763ZM223.979 107.352C223.979 105.976 224.259 104.776 224.819 103.752C225.379 102.712 226.155 101.912 227.147 101.352C228.139 100.776 229.275 100.488 230.555 100.488C232.203 100.488 233.563 100.904 234.635 101.736C235.723 102.552 236.451 103.704 236.819 105.192H233.195C233.003 104.616 232.675 104.168 232.211 103.848C231.763 103.512 231.203 103.344 230.531 103.344C229.571 103.344 228.811 103.696 228.251 104.4C227.691 105.088 227.411 106.072 227.411 107.352C227.411 108.616 227.691 109.6 228.251 110.304C228.811 110.992 229.571 111.336 230.531 111.336C231.891 111.336 232.779 110.728 233.195 109.512H236.819C236.451 110.952 235.723 112.096 234.635 112.944C233.547 113.792 232.187 114.216 230.555 114.216C229.275 114.216 228.139 113.936 227.147 113.376C226.155 112.8 225.379 112 224.819 110.976C224.259 109.936 223.979 108.728 223.979 107.352ZM251.4 107.064C251.4 107.544 251.368 107.976 251.304 108.36H241.584C241.664 109.32 242 110.072 242.592 110.616C243.184 111.16 243.912 111.432 244.776 111.432C246.024 111.432 246.912 110.896 247.44 109.824H251.064C250.68 111.104 249.944 112.16 248.856 112.992C247.768 113.808 246.432 114.216 244.848 114.216C243.568 114.216 242.416 113.936 241.392 113.376C240.384 112.8 239.592 111.992 239.016 110.952C238.456 109.912 238.176 108.712 238.176 107.352C238.176 105.976 238.456 104.768 239.016 103.728C239.576 102.688 240.36 101.888 241.368 101.328C242.376 100.768 243.536 100.488 244.848 100.488C246.112 100.488 247.24 100.76 248.232 101.304C249.24 101.848 250.016 102.624 250.56 103.632C251.12 104.624 251.4 105.768 251.4 107.064ZM247.92 106.104C247.904 105.24 247.592 104.552 246.984 104.04C246.376 103.512 245.632 103.248 244.752 103.248C243.92 103.248 243.216 103.504 242.64 104.016C242.08 104.512 241.736 105.208 241.608 106.104H247.92Z" fill="#1A1A1A"/>
<path d="M13.8311 149.416C13.8311 148.328 14.0765 147.352 14.5671 146.488C15.0578 145.613 15.7245 144.931 16.5671 144.44C17.4205 143.949 18.3645 143.704 19.3991 143.704C20.6151 143.704 21.6765 143.997 22.5831 144.584C23.4898 145.171 24.1511 146.003 24.5671 147.08H22.8231C22.5138 146.408 22.0658 145.891 21.4791 145.528C20.9031 145.165 20.2098 144.984 19.3991 144.984C18.6205 144.984 17.9218 145.165 17.3031 145.528C16.6845 145.891 16.1991 146.408 15.8471 147.08C15.4951 147.741 15.3191 148.52 15.3191 149.416C15.3191 150.301 15.4951 151.08 15.8471 151.752C16.1991 152.413 16.6845 152.925 17.3031 153.288C17.9218 153.651 18.6205 153.832 19.3991 153.832C20.2098 153.832 20.9031 153.656 21.4791 153.304C22.0658 152.941 22.5138 152.424 22.8231 151.752H24.5671C24.1511 152.819 23.4898 153.645 22.5831 154.232C21.6765 154.808 20.6151 155.096 19.3991 155.096C18.3645 155.096 17.4205 154.856 16.5671 154.376C15.7245 153.885 15.0578 153.208 14.5671 152.344C14.0765 151.48 13.8311 150.504 13.8311 149.416ZM30.7185 155.144C29.8972 155.144 29.1505 154.957 28.4785 154.584C27.8172 154.211 27.2945 153.683 26.9105 153C26.5372 152.307 26.3505 151.507 26.3505 150.6C26.3505 149.704 26.5425 148.915 26.9265 148.232C27.3212 147.539 27.8545 147.011 28.5265 146.648C29.1985 146.275 29.9505 146.088 30.7825 146.088C31.6145 146.088 32.3665 146.275 33.0385 146.648C33.7105 147.011 34.2385 147.533 34.6225 148.216C35.0172 148.899 35.2145 149.693 35.2145 150.6C35.2145 151.507 35.0118 152.307 34.6065 153C34.2118 153.683 33.6732 154.211 32.9905 154.584C32.3078 154.957 31.5505 155.144 30.7185 155.144ZM30.7185 153.864C31.2412 153.864 31.7318 153.741 32.1905 153.496C32.6492 153.251 33.0172 152.883 33.2945 152.392C33.5825 151.901 33.7265 151.304 33.7265 150.6C33.7265 149.896 33.5878 149.299 33.3105 148.808C33.0332 148.317 32.6705 147.955 32.2225 147.72C31.7745 147.475 31.2892 147.352 30.7665 147.352C30.2332 147.352 29.7425 147.475 29.2945 147.72C28.8572 147.955 28.5052 148.317 28.2385 148.808C27.9718 149.299 27.8385 149.896 27.8385 150.6C27.8385 151.315 27.9665 151.917 28.2225 152.408C28.4892 152.899 28.8412 153.267 29.2785 153.512C29.7158 153.747 30.1958 153.864 30.7185 153.864ZM41.5609 146.072C42.6275 146.072 43.4915 146.397 44.1529 147.048C44.8142 147.688 45.1449 148.616 45.1449 149.832V155H43.7049V150.04C43.7049 149.165 43.4862 148.499 43.0489 148.04C42.6115 147.571 42.0142 147.336 41.2569 147.336C40.4889 147.336 39.8755 147.576 39.4169 148.056C38.9689 148.536 38.7449 149.235 38.7449 150.152V155H37.2889V146.232H38.7449V147.48C39.0329 147.032 39.4222 146.685 39.9129 146.44C40.4142 146.195 40.9635 146.072 41.5609 146.072ZM49.4593 147.432V152.6C49.4593 153.027 49.5499 153.331 49.7313 153.512C49.9126 153.683 50.2273 153.768 50.6753 153.768H51.7473V155H50.4353C49.6246 155 49.0166 154.813 48.6113 154.44C48.2059 154.067 48.0033 153.453 48.0033 152.6V147.432H46.8673V146.232H48.0033V144.024H49.4593V146.232H51.7473V147.432H49.4593ZM53.1274 150.584C53.1274 149.688 53.3087 148.904 53.6714 148.232C54.034 147.549 54.53 147.021 55.1594 146.648C55.7994 146.275 56.5087 146.088 57.2874 146.088C58.0554 146.088 58.722 146.253 59.2874 146.584C59.8527 146.915 60.274 147.331 60.5514 147.832V146.232H62.0234V155H60.5514V153.368C60.2634 153.88 59.8314 154.307 59.2554 154.648C58.69 154.979 58.0287 155.144 57.2714 155.144C56.4927 155.144 55.7887 154.952 55.1594 154.568C54.53 154.184 54.034 153.645 53.6714 152.952C53.3087 152.259 53.1274 151.469 53.1274 150.584ZM60.5514 150.6C60.5514 149.939 60.418 149.363 60.1514 148.872C59.8847 148.381 59.522 148.008 59.0634 147.752C58.6154 147.485 58.1194 147.352 57.5754 147.352C57.0314 147.352 56.5354 147.48 56.0874 147.736C55.6394 147.992 55.282 148.365 55.0154 148.856C54.7487 149.347 54.6154 149.923 54.6154 150.584C54.6154 151.256 54.7487 151.843 55.0154 152.344C55.282 152.835 55.6394 153.213 56.0874 153.48C56.5354 153.736 57.0314 153.864 57.5754 153.864C58.1194 153.864 58.6154 153.736 59.0634 153.48C59.522 153.213 59.8847 152.835 60.1514 152.344C60.418 151.843 60.5514 151.261 60.5514 150.6ZM64.0999 150.6C64.0999 149.693 64.2812 148.904 64.6439 148.232C65.0065 147.549 65.5079 147.021 66.1479 146.648C66.7985 146.275 67.5399 146.088 68.3719 146.088C69.4492 146.088 70.3345 146.349 71.0279 146.872C71.7319 147.395 72.1959 148.12 72.4199 149.048H70.8519C70.7025 148.515 70.4092 148.093 69.9719 147.784C69.5452 147.475 69.0119 147.32 68.3719 147.32C67.5399 147.32 66.8679 147.608 66.3559 148.184C65.8439 148.749 65.5879 149.555 65.5879 150.6C65.5879 151.656 65.8439 152.472 66.3559 153.048C66.8679 153.624 67.5399 153.912 68.3719 153.912C69.0119 153.912 69.5452 153.763 69.9719 153.464C70.3985 153.165 70.6919 152.739 70.8519 152.184H72.4199C72.1852 153.08 71.7159 153.8 71.0119 154.344C70.3079 154.877 69.4279 155.144 68.3719 155.144C67.5399 155.144 66.7985 154.957 66.1479 154.584C65.5079 154.211 65.0065 153.683 64.6439 153C64.2812 152.317 64.0999 151.517 64.0999 150.6ZM76.2986 147.432V152.6C76.2986 153.027 76.3893 153.331 76.5706 153.512C76.752 153.683 77.0666 153.768 77.5146 153.768H78.5866V155H77.2746C76.464 155 75.856 154.813 75.4506 154.44C75.0453 154.067 74.8426 153.453 74.8426 152.6V147.432H73.7066V146.232H74.8426V144.024H76.2986V146.232H78.5866V147.432H76.2986ZM92.7124 146.232V155H91.2564V153.704C90.979 154.152 90.5897 154.504 90.0884 154.76C89.5977 155.005 89.0537 155.128 88.4564 155.128C87.7737 155.128 87.1604 154.989 86.6164 154.712C86.0724 154.424 85.6404 153.997 85.3204 153.432C85.011 152.867 84.8564 152.179 84.8564 151.368V146.232H86.2964V151.176C86.2964 152.04 86.515 152.707 86.9524 153.176C87.3897 153.635 87.987 153.864 88.7444 153.864C89.523 153.864 90.1364 153.624 90.5844 153.144C91.0324 152.664 91.2564 151.965 91.2564 151.048V146.232H92.7124ZM98.4348 155.144C97.7628 155.144 97.1601 155.032 96.6268 154.808C96.0934 154.573 95.6721 154.253 95.3628 153.848C95.0534 153.432 94.8828 152.957 94.8508 152.424H96.3548C96.3974 152.861 96.6001 153.219 96.9628 153.496C97.3361 153.773 97.8214 153.912 98.4188 153.912C98.9734 153.912 99.4108 153.789 99.7308 153.544C100.051 153.299 100.211 152.989 100.211 152.616C100.211 152.232 100.04 151.949 99.6988 151.768C99.3574 151.576 98.8294 151.389 98.1148 151.208C97.4641 151.037 96.9308 150.867 96.5148 150.696C96.1094 150.515 95.7574 150.253 95.4588 149.912C95.1708 149.56 95.0268 149.101 95.0268 148.536C95.0268 148.088 95.1601 147.677 95.4268 147.304C95.6934 146.931 96.0721 146.637 96.5628 146.424C97.0534 146.2 97.6134 146.088 98.2428 146.088C99.2134 146.088 99.9974 146.333 100.595 146.824C101.192 147.315 101.512 147.987 101.555 148.84H100.099C100.067 148.381 99.8801 148.013 99.5388 147.736C99.2081 147.459 98.7601 147.32 98.1948 147.32C97.6721 147.32 97.2561 147.432 96.9468 147.656C96.6374 147.88 96.4828 148.173 96.4828 148.536C96.4828 148.824 96.5734 149.064 96.7548 149.256C96.9468 149.437 97.1814 149.587 97.4588 149.704C97.7468 149.811 98.1414 149.933 98.6428 150.072C99.2721 150.243 99.7841 150.413 100.179 150.584C100.573 150.744 100.909 150.989 101.187 151.32C101.475 151.651 101.624 152.083 101.635 152.616C101.635 153.096 101.501 153.528 101.235 153.912C100.968 154.296 100.589 154.6 100.099 154.824C99.6188 155.037 99.0641 155.144 98.4348 155.144ZM110.052 147.432V152.6C110.052 153.027 110.142 153.331 110.324 153.512C110.505 153.683 110.82 153.768 111.268 153.768H112.34V155H111.028C110.217 155 109.609 154.813 109.204 154.44C108.798 154.067 108.596 153.453 108.596 152.6V147.432H107.46V146.232H108.596V144.024H110.052V146.232H112.34V147.432H110.052ZM118.088 155.144C117.267 155.144 116.52 154.957 115.848 154.584C115.187 154.211 114.664 153.683 114.28 153C113.907 152.307 113.72 151.507 113.72 150.6C113.72 149.704 113.912 148.915 114.296 148.232C114.691 147.539 115.224 147.011 115.896 146.648C116.568 146.275 117.32 146.088 118.152 146.088C118.984 146.088 119.736 146.275 120.408 146.648C121.08 147.011 121.608 147.533 121.992 148.216C122.387 148.899 122.584 149.693 122.584 150.6C122.584 151.507 122.381 152.307 121.976 153C121.581 153.683 121.043 154.211 120.36 154.584C119.677 154.957 118.92 155.144 118.088 155.144ZM118.088 153.864C118.611 153.864 119.101 153.741 119.56 153.496C120.019 153.251 120.387 152.883 120.664 152.392C120.952 151.901 121.096 151.304 121.096 150.6C121.096 149.896 120.957 149.299 120.68 148.808C120.403 148.317 120.04 147.955 119.592 147.72C119.144 147.475 118.659 147.352 118.136 147.352C117.603 147.352 117.112 147.475 116.664 147.72C116.227 147.955 115.875 148.317 115.608 148.808C115.341 149.299 115.208 149.896 115.208 150.6C115.208 151.315 115.336 151.917 115.592 152.408C115.859 152.899 116.211 153.267 116.648 153.512C117.085 153.747 117.565 153.864 118.088 153.864ZM132.188 155.144C131.516 155.144 130.913 155.032 130.38 154.808C129.847 154.573 129.425 154.253 129.116 153.848C128.807 153.432 128.636 152.957 128.604 152.424H130.108C130.151 152.861 130.353 153.219 130.716 153.496C131.089 153.773 131.575 153.912 132.172 153.912C132.727 153.912 133.164 153.789 133.484 153.544C133.804 153.299 133.964 152.989 133.964 152.616C133.964 152.232 133.793 151.949 133.452 151.768C133.111 151.576 132.583 151.389 131.868 151.208C131.217 151.037 130.684 150.867 130.268 150.696C129.863 150.515 129.511 150.253 129.212 149.912C128.924 149.56 128.78 149.101 128.78 148.536C128.78 148.088 128.913 147.677 129.18 147.304C129.447 146.931 129.825 146.637 130.316 146.424C130.807 146.2 131.367 146.088 131.996 146.088C132.967 146.088 133.751 146.333 134.348 146.824C134.945 147.315 135.265 147.987 135.308 148.84H133.852C133.82 148.381 133.633 148.013 133.292 147.736C132.961 147.459 132.513 147.32 131.948 147.32C131.425 147.32 131.009 147.432 130.7 147.656C130.391 147.88 130.236 148.173 130.236 148.536C130.236 148.824 130.327 149.064 130.508 149.256C130.7 149.437 130.935 149.587 131.212 149.704C131.5 149.811 131.895 149.933 132.396 150.072C133.025 150.243 133.537 150.413 133.932 150.584C134.327 150.744 134.663 150.989 134.94 151.32C135.228 151.651 135.377 152.083 135.388 152.616C135.388 153.096 135.255 153.528 134.988 153.912C134.721 154.296 134.343 154.6 133.852 154.824C133.372 155.037 132.817 155.144 132.188 155.144ZM145.603 150.28C145.603 150.557 145.587 150.851 145.555 151.16H138.547C138.601 152.024 138.894 152.701 139.427 153.192C139.971 153.672 140.627 153.912 141.395 153.912C142.025 153.912 142.547 153.768 142.963 153.48C143.39 153.181 143.689 152.787 143.859 152.296H145.427C145.193 153.139 144.723 153.827 144.019 154.36C143.315 154.883 142.441 155.144 141.395 155.144C140.563 155.144 139.817 154.957 139.155 154.584C138.505 154.211 137.993 153.683 137.619 153C137.246 152.307 137.059 151.507 137.059 150.6C137.059 149.693 137.241 148.899 137.603 148.216C137.966 147.533 138.473 147.011 139.123 146.648C139.785 146.275 140.542 146.088 141.395 146.088C142.227 146.088 142.963 146.269 143.603 146.632C144.243 146.995 144.734 147.496 145.075 148.136C145.427 148.765 145.603 149.48 145.603 150.28ZM144.099 149.976C144.099 149.421 143.977 148.947 143.731 148.552C143.486 148.147 143.15 147.843 142.723 147.64C142.307 147.427 141.843 147.32 141.331 147.32C140.595 147.32 139.966 147.555 139.443 148.024C138.931 148.493 138.638 149.144 138.563 149.976H144.099ZM155.685 150.28C155.685 150.557 155.669 150.851 155.637 151.16H148.629C148.682 152.024 148.976 152.701 149.509 153.192C150.053 153.672 150.709 153.912 151.477 153.912C152.106 153.912 152.629 153.768 153.045 153.48C153.472 153.181 153.77 152.787 153.941 152.296H155.509C155.274 153.139 154.805 153.827 154.101 154.36C153.397 154.883 152.522 155.144 151.477 155.144C150.645 155.144 149.898 154.957 149.237 154.584C148.586 154.211 148.074 153.683 147.701 153C147.328 152.307 147.141 151.507 147.141 150.6C147.141 149.693 147.322 148.899 147.685 148.216C148.048 147.533 148.554 147.011 149.205 146.648C149.866 146.275 150.624 146.088 151.477 146.088C152.309 146.088 153.045 146.269 153.685 146.632C154.325 146.995 154.816 147.496 155.157 148.136C155.509 148.765 155.685 149.48 155.685 150.28ZM154.181 149.976C154.181 149.421 154.058 148.947 153.813 148.552C153.568 148.147 153.232 147.843 152.805 147.64C152.389 147.427 151.925 147.32 151.413 147.32C150.677 147.32 150.048 147.555 149.525 148.024C149.013 148.493 148.72 149.144 148.645 149.976H154.181ZM162.663 155L159.223 151.128V155H157.767V143.16H159.223V150.12L162.599 146.232H164.631L160.503 150.6L164.647 155H162.663ZM174.939 146.072C175.6 146.072 176.198 146.216 176.731 146.504C177.264 146.781 177.68 147.203 177.979 147.768C178.288 148.333 178.443 149.021 178.443 149.832V155H177.003V150.04C177.003 149.165 176.784 148.499 176.347 148.04C175.91 147.571 175.312 147.336 174.555 147.336C173.787 147.336 173.174 147.576 172.715 148.056C172.267 148.536 172.043 149.235 172.043 150.152V155H170.587V143.16H172.043V147.48C172.331 147.032 172.726 146.685 173.227 146.44C173.739 146.195 174.31 146.072 174.939 146.072ZM188.981 150.28C188.981 150.557 188.965 150.851 188.933 151.16H181.925C181.979 152.024 182.272 152.701 182.805 153.192C183.349 153.672 184.005 153.912 184.773 153.912C185.403 153.912 185.925 153.768 186.341 153.48C186.768 153.181 187.067 152.787 187.237 152.296H188.805C188.571 153.139 188.101 153.827 187.397 154.36C186.693 154.883 185.819 155.144 184.773 155.144C183.941 155.144 183.195 154.957 182.533 154.584C181.883 154.211 181.371 153.683 180.997 153C180.624 152.307 180.437 151.507 180.437 150.6C180.437 149.693 180.619 148.899 180.981 148.216C181.344 147.533 181.851 147.011 182.501 146.648C183.163 146.275 183.92 146.088 184.773 146.088C185.605 146.088 186.341 146.269 186.981 146.632C187.621 146.995 188.112 147.496 188.453 148.136C188.805 148.765 188.981 149.48 188.981 150.28ZM187.477 149.976C187.477 149.421 187.355 148.947 187.109 148.552C186.864 148.147 186.528 147.843 186.101 147.64C185.685 147.427 185.221 147.32 184.709 147.32C183.973 147.32 183.344 147.555 182.821 148.024C182.309 148.493 182.016 149.144 181.941 149.976H187.477ZM192.519 143.16V155H191.063V143.16H192.519ZM196.617 147.848C196.905 147.347 197.331 146.931 197.897 146.6C198.473 146.259 199.139 146.088 199.897 146.088C200.675 146.088 201.379 146.275 202.009 146.648C202.649 147.021 203.15 147.549 203.513 148.232C203.875 148.904 204.057 149.688 204.057 150.584C204.057 151.469 203.875 152.259 203.513 152.952C203.15 153.645 202.649 154.184 202.009 154.568C201.379 154.952 200.675 155.144 199.897 155.144C199.15 155.144 198.489 154.979 197.913 154.648C197.347 154.307 196.915 153.885 196.617 153.384V159.16H195.161V146.232H196.617V147.848ZM202.569 150.584C202.569 149.923 202.435 149.347 202.169 148.856C201.902 148.365 201.539 147.992 201.081 147.736C200.633 147.48 200.137 147.352 199.593 147.352C199.059 147.352 198.563 147.485 198.105 147.752C197.657 148.008 197.294 148.387 197.017 148.888C196.75 149.379 196.617 149.949 196.617 150.6C196.617 151.261 196.75 151.843 197.017 152.344C197.294 152.835 197.657 153.213 198.105 153.48C198.563 153.736 199.059 153.864 199.593 153.864C200.137 153.864 200.633 153.736 201.081 153.48C201.539 153.213 201.902 152.835 202.169 152.344C202.435 151.843 202.569 151.256 202.569 150.584ZM214.127 147.432H212.287V155H210.831V147.432H209.695V146.232H210.831V145.608C210.831 144.627 211.082 143.912 211.583 143.464C212.095 143.005 212.911 142.776 214.031 142.776V143.992C213.391 143.992 212.938 144.12 212.671 144.376C212.415 144.621 212.287 145.032 212.287 145.608V146.232H214.127V147.432ZM217.441 147.656C217.697 147.155 218.059 146.765 218.529 146.488C219.009 146.211 219.59 146.072 220.273 146.072V147.576H219.889C218.257 147.576 217.441 148.461 217.441 150.232V155H215.985V146.232H217.441V147.656ZM225.937 155.144C225.116 155.144 224.369 154.957 223.697 154.584C223.036 154.211 222.513 153.683 222.129 153C221.756 152.307 221.569 151.507 221.569 150.6C221.569 149.704 221.761 148.915 222.145 148.232C222.54 147.539 223.073 147.011 223.745 146.648C224.417 146.275 225.169 146.088 226.001 146.088C226.833 146.088 227.585 146.275 228.257 146.648C228.929 147.011 229.457 147.533 229.841 148.216C230.236 148.899 230.433 149.693 230.433 150.6C230.433 151.507 230.231 152.307 229.825 153C229.431 153.683 228.892 154.211 228.209 154.584C227.527 154.957 226.769 155.144 225.937 155.144ZM225.937 153.864C226.46 153.864 226.951 153.741 227.409 153.496C227.868 153.251 228.236 152.883 228.513 152.392C228.801 151.901 228.945 151.304 228.945 150.6C228.945 149.896 228.807 149.299 228.529 148.808C228.252 148.317 227.889 147.955 227.441 147.72C226.993 147.475 226.508 147.352 225.985 147.352C225.452 147.352 224.961 147.475 224.513 147.72C224.076 147.955 223.724 148.317 223.457 148.808C223.191 149.299 223.057 149.896 223.057 150.6C223.057 151.315 223.185 151.917 223.441 152.408C223.708 152.899 224.06 153.267 224.497 153.512C224.935 153.747 225.415 153.864 225.937 153.864ZM243.052 146.072C243.734 146.072 244.342 146.216 244.876 146.504C245.409 146.781 245.83 147.203 246.14 147.768C246.449 148.333 246.604 149.021 246.604 149.832V155H245.164V150.04C245.164 149.165 244.945 148.499 244.508 148.04C244.081 147.571 243.5 147.336 242.764 147.336C242.006 147.336 241.404 147.581 240.956 148.072C240.508 148.552 240.284 149.251 240.284 150.168V155H238.844V150.04C238.844 149.165 238.625 148.499 238.188 148.04C237.761 147.571 237.18 147.336 236.444 147.336C235.686 147.336 235.084 147.581 234.636 148.072C234.188 148.552 233.964 149.251 233.964 150.168V155H232.508V146.232H233.964V147.496C234.252 147.037 234.636 146.685 235.116 146.44C235.606 146.195 236.145 146.072 236.732 146.072C237.468 146.072 238.118 146.237 238.684 146.568C239.249 146.899 239.67 147.384 239.948 148.024C240.193 147.405 240.598 146.925 241.164 146.584C241.729 146.243 242.358 146.072 243.052 146.072ZM261.354 146.232V155H259.898V153.704C259.62 154.152 259.231 154.504 258.73 154.76C258.239 155.005 257.695 155.128 257.098 155.128C256.415 155.128 255.802 154.989 255.258 154.712C254.714 154.424 254.282 153.997 253.962 153.432C253.652 152.867 253.498 152.179 253.498 151.368V146.232H254.938V151.176C254.938 152.04 255.156 152.707 255.594 153.176C256.031 153.635 256.628 153.864 257.386 153.864C258.164 153.864 258.778 153.624 259.226 153.144C259.674 152.664 259.898 151.965 259.898 151.048V146.232H261.354ZM267.076 155.144C266.404 155.144 265.801 155.032 265.268 154.808C264.735 154.573 264.313 154.253 264.004 153.848C263.695 153.432 263.524 152.957 263.492 152.424H264.996C265.039 152.861 265.241 153.219 265.604 153.496C265.977 153.773 266.463 153.912 267.06 153.912C267.615 153.912 268.052 153.789 268.372 153.544C268.692 153.299 268.852 152.989 268.852 152.616C268.852 152.232 268.681 151.949 268.34 151.768C267.999 151.576 267.471 151.389 266.756 151.208C266.105 151.037 265.572 150.867 265.156 150.696C264.751 150.515 264.399 150.253 264.1 149.912C263.812 149.56 263.668 149.101 263.668 148.536C263.668 148.088 263.801 147.677 264.068 147.304C264.335 146.931 264.713 146.637 265.204 146.424C265.695 146.2 266.255 146.088 266.884 146.088C267.855 146.088 268.639 146.333 269.236 146.824C269.833 147.315 270.153 147.987 270.196 148.84H268.74C268.708 148.381 268.521 148.013 268.18 147.736C267.849 147.459 267.401 147.32 266.836 147.32C266.313 147.32 265.897 147.432 265.588 147.656C265.279 147.88 265.124 148.173 265.124 148.536C265.124 148.824 265.215 149.064 265.396 149.256C265.588 149.437 265.823 149.587 266.1 149.704C266.388 149.811 266.783 149.933 267.284 150.072C267.913 150.243 268.425 150.413 268.82 150.584C269.215 150.744 269.551 150.989 269.828 151.32C270.116 151.651 270.265 152.083 270.276 152.616C270.276 153.096 270.143 153.528 269.876 153.912C269.609 154.296 269.231 154.6 268.74 154.824C268.26 155.037 267.705 155.144 267.076 155.144ZM273.995 152.984L272.203 157.288H271.227L272.395 152.984H273.995ZM13.1042 172.232L10.3682 181H8.86419L6.75218 174.04L4.64018 181H3.13618L0.384184 172.232H1.87218L3.88818 179.592L6.06418 172.232H7.55218L9.68019 179.608L11.6642 172.232H13.1042ZM22.7092 176.28C22.7092 176.557 22.6932 176.851 22.6612 177.16H15.6532C15.7065 178.024 15.9999 178.701 16.5332 179.192C17.0772 179.672 17.7332 179.912 18.5012 179.912C19.1305 179.912 19.6532 179.768 20.0692 179.48C20.4959 179.181 20.7945 178.787 20.9652 178.296H22.5332C22.2985 179.139 21.8292 179.827 21.1252 180.36C20.4212 180.883 19.5465 181.144 18.5012 181.144C17.6692 181.144 16.9225 180.957 16.2612 180.584C15.6105 180.211 15.0985 179.683 14.7252 179C14.3519 178.307 14.1652 177.507 14.1652 176.6C14.1652 175.693 14.3465 174.899 14.7092 174.216C15.0719 173.533 15.5785 173.011 16.2292 172.648C16.8905 172.275 17.6479 172.088 18.5012 172.088C19.3332 172.088 20.0692 172.269 20.7092 172.632C21.3492 172.995 21.8399 173.496 22.1812 174.136C22.5332 174.765 22.7092 175.48 22.7092 176.28ZM21.2052 175.976C21.2052 175.421 21.0825 174.947 20.8372 174.552C20.5919 174.147 20.2559 173.843 19.8292 173.64C19.4132 173.427 18.9492 173.32 18.4372 173.32C17.7012 173.32 17.0719 173.555 16.5492 174.024C16.0372 174.493 15.7439 175.144 15.6692 175.976H21.2052ZM40.8967 172.232L38.1607 181H36.6567L34.5447 174.04L32.4327 181H30.9287L28.1767 172.232H29.6647L31.6807 179.592L33.8567 172.232H35.3447L37.4727 179.608L39.4567 172.232H40.8967ZM43.2537 170.808C42.9764 170.808 42.7417 170.712 42.5497 170.52C42.3577 170.328 42.2617 170.093 42.2617 169.816C42.2617 169.539 42.3577 169.304 42.5497 169.112C42.7417 168.92 42.9764 168.824 43.2537 168.824C43.5204 168.824 43.7444 168.92 43.9257 169.112C44.1177 169.304 44.2137 169.539 44.2137 169.816C44.2137 170.093 44.1177 170.328 43.9257 170.52C43.7444 170.712 43.5204 170.808 43.2537 170.808ZM43.9577 172.232V181H42.5017V172.232H43.9577ZM48.0552 169.16V181H46.5992V169.16H48.0552ZM52.1527 169.16V181H50.6967V169.16H52.1527ZM63.5718 172.072C64.2331 172.072 64.8305 172.216 65.3638 172.504C65.8971 172.781 66.3131 173.203 66.6118 173.768C66.9211 174.333 67.0758 175.021 67.0758 175.832V181H65.6358V176.04C65.6358 175.165 65.4171 174.499 64.9798 174.04C64.5425 173.571 63.9451 173.336 63.1878 173.336C62.4198 173.336 61.8065 173.576 61.3478 174.056C60.8998 174.536 60.6758 175.235 60.6758 176.152V181H59.2198V169.16H60.6758V173.48C60.9638 173.032 61.3585 172.685 61.8598 172.44C62.3718 172.195 62.9425 172.072 63.5718 172.072ZM77.6142 176.28C77.6142 176.557 77.5982 176.851 77.5662 177.16H70.5582C70.6115 178.024 70.9049 178.701 71.4382 179.192C71.9822 179.672 72.6382 179.912 73.4062 179.912C74.0355 179.912 74.5582 179.768 74.9742 179.48C75.4009 179.181 75.6995 178.787 75.8702 178.296H77.4382C77.2035 179.139 76.7342 179.827 76.0302 180.36C75.3262 180.883 74.4515 181.144 73.4062 181.144C72.5742 181.144 71.8275 180.957 71.1662 180.584C70.5155 180.211 70.0035 179.683 69.6302 179C69.2569 178.307 69.0702 177.507 69.0702 176.6C69.0702 175.693 69.2515 174.899 69.6142 174.216C69.9769 173.533 70.4835 173.011 71.1342 172.648C71.7955 172.275 72.5529 172.088 73.4062 172.088C74.2382 172.088 74.9742 172.269 75.6142 172.632C76.2542 172.995 76.7449 173.496 77.0862 174.136C77.4382 174.765 77.6142 175.48 77.6142 176.28ZM76.1102 175.976C76.1102 175.421 75.9875 174.947 75.7422 174.552C75.4969 174.147 75.1609 173.843 74.7342 173.64C74.3182 173.427 73.8542 173.32 73.3422 173.32C72.6062 173.32 71.9769 173.555 71.4542 174.024C70.9422 174.493 70.6489 175.144 70.5742 175.976H76.1102ZM81.1521 169.16V181H79.6961V169.16H81.1521ZM85.2496 173.848C85.5376 173.347 85.9642 172.931 86.5296 172.6C87.1056 172.259 87.7722 172.088 88.5296 172.088C89.3082 172.088 90.0122 172.275 90.6416 172.648C91.2816 173.021 91.7829 173.549 92.1456 174.232C92.5082 174.904 92.6896 175.688 92.6896 176.584C92.6896 177.469 92.5082 178.259 92.1456 178.952C91.7829 179.645 91.2816 180.184 90.6416 180.568C90.0122 180.952 89.3082 181.144 88.5296 181.144C87.7829 181.144 87.1216 180.979 86.5456 180.648C85.9802 180.307 85.5482 179.885 85.2496 179.384V185.16H83.7936V172.232H85.2496V173.848ZM91.2016 176.584C91.2016 175.923 91.0682 175.347 90.8016 174.856C90.5349 174.365 90.1722 173.992 89.7136 173.736C89.2656 173.48 88.7696 173.352 88.2256 173.352C87.6922 173.352 87.1962 173.485 86.7376 173.752C86.2896 174.008 85.9269 174.387 85.6496 174.888C85.3829 175.379 85.2496 175.949 85.2496 176.6C85.2496 177.261 85.3829 177.843 85.6496 178.344C85.9269 178.835 86.2896 179.213 86.7376 179.48C87.1962 179.736 87.6922 179.864 88.2256 179.864C88.7696 179.864 89.2656 179.736 89.7136 179.48C90.1722 179.213 90.5349 178.835 90.8016 178.344C91.0682 177.843 91.2016 177.256 91.2016 176.584ZM106.744 172.232L101.464 185.128H99.9597L101.688 180.904L98.1517 172.232H99.7677L102.52 179.336L105.24 172.232H106.744ZM112.191 181.144C111.37 181.144 110.623 180.957 109.951 180.584C109.29 180.211 108.767 179.683 108.383 179C108.01 178.307 107.823 177.507 107.823 176.6C107.823 175.704 108.015 174.915 108.399 174.232C108.794 173.539 109.327 173.011 109.999 172.648C110.671 172.275 111.423 172.088 112.255 172.088C113.087 172.088 113.839 172.275 114.511 172.648C115.183 173.011 115.711 173.533 116.095 174.216C116.49 174.899 116.687 175.693 116.687 176.6C116.687 177.507 116.485 178.307 116.079 179C115.685 179.683 115.146 180.211 114.463 180.584C113.781 180.957 113.023 181.144 112.191 181.144ZM112.191 179.864C112.714 179.864 113.205 179.741 113.663 179.496C114.122 179.251 114.49 178.883 114.767 178.392C115.055 177.901 115.199 177.304 115.199 176.6C115.199 175.896 115.061 175.299 114.783 174.808C114.506 174.317 114.143 173.955 113.695 173.72C113.247 173.475 112.762 173.352 112.239 173.352C111.706 173.352 111.215 173.475 110.767 173.72C110.33 173.955 109.978 174.317 109.711 174.808C109.445 175.299 109.311 175.896 109.311 176.6C109.311 177.315 109.439 177.917 109.695 178.408C109.962 178.899 110.314 179.267 110.751 179.512C111.189 179.747 111.669 179.864 112.191 179.864ZM126.538 172.232V181H125.082V179.704C124.804 180.152 124.415 180.504 123.914 180.76C123.423 181.005 122.879 181.128 122.282 181.128C121.599 181.128 120.986 180.989 120.442 180.712C119.898 180.424 119.466 179.997 119.146 179.432C118.836 178.867 118.682 178.179 118.682 177.368V172.232H120.122V177.176C120.122 178.04 120.34 178.707 120.778 179.176C121.215 179.635 121.812 179.864 122.57 179.864C123.348 179.864 123.962 179.624 124.41 179.144C124.858 178.664 125.082 177.965 125.082 177.048V172.232H126.538ZM133.038 176.584C133.038 175.688 133.219 174.904 133.582 174.232C133.944 173.549 134.44 173.021 135.07 172.648C135.71 172.275 136.419 172.088 137.198 172.088C137.966 172.088 138.632 172.253 139.198 172.584C139.763 172.915 140.184 173.331 140.462 173.832V172.232H141.934V181H140.462V179.368C140.174 179.88 139.742 180.307 139.166 180.648C138.6 180.979 137.939 181.144 137.182 181.144C136.403 181.144 135.699 180.952 135.07 180.568C134.44 180.184 133.944 179.645 133.582 178.952C133.219 178.259 133.038 177.469 133.038 176.584ZM140.462 176.6C140.462 175.939 140.328 175.363 140.062 174.872C139.795 174.381 139.432 174.008 138.974 173.752C138.526 173.485 138.03 173.352 137.486 173.352C136.942 173.352 136.446 173.48 135.998 173.736C135.55 173.992 135.192 174.365 134.926 174.856C134.659 175.347 134.526 175.923 134.526 176.584C134.526 177.256 134.659 177.843 134.926 178.344C135.192 178.835 135.55 179.213 135.998 179.48C136.446 179.736 136.942 179.864 137.486 179.864C138.03 179.864 138.526 179.736 138.974 179.48C139.432 179.213 139.795 178.835 140.062 178.344C140.328 177.843 140.462 177.261 140.462 176.6ZM147.658 181.144C146.986 181.144 146.384 181.032 145.85 180.808C145.317 180.573 144.896 180.253 144.586 179.848C144.277 179.432 144.106 178.957 144.074 178.424H145.578C145.621 178.861 145.824 179.219 146.186 179.496C146.56 179.773 147.045 179.912 147.642 179.912C148.197 179.912 148.634 179.789 148.954 179.544C149.274 179.299 149.434 178.989 149.434 178.616C149.434 178.232 149.264 177.949 148.922 177.768C148.581 177.576 148.053 177.389 147.338 177.208C146.688 177.037 146.154 176.867 145.738 176.696C145.333 176.515 144.981 176.253 144.682 175.912C144.394 175.56 144.25 175.101 144.25 174.536C144.25 174.088 144.384 173.677 144.65 173.304C144.917 172.931 145.296 172.637 145.786 172.424C146.277 172.2 146.837 172.088 147.466 172.088C148.437 172.088 149.221 172.333 149.818 172.824C150.416 173.315 150.736 173.987 150.778 174.84H149.322C149.29 174.381 149.104 174.013 148.762 173.736C148.432 173.459 147.984 173.32 147.418 173.32C146.896 173.32 146.48 173.432 146.17 173.656C145.861 173.88 145.706 174.173 145.706 174.536C145.706 174.824 145.797 175.064 145.978 175.256C146.17 175.437 146.405 175.587 146.682 175.704C146.97 175.811 147.365 175.933 147.866 176.072C148.496 176.243 149.008 176.413 149.402 176.584C149.797 176.744 150.133 176.989 150.41 177.32C150.698 177.651 150.848 178.083 150.858 178.616C150.858 179.096 150.725 179.528 150.458 179.912C150.192 180.296 149.813 180.6 149.322 180.824C148.842 181.037 148.288 181.144 147.658 181.144ZM160.603 181.144C159.931 181.144 159.329 181.032 158.795 180.808C158.262 180.573 157.841 180.253 157.531 179.848C157.222 179.432 157.051 178.957 157.019 178.424H158.523C158.566 178.861 158.769 179.219 159.131 179.496C159.505 179.773 159.99 179.912 160.587 179.912C161.142 179.912 161.579 179.789 161.899 179.544C162.219 179.299 162.379 178.989 162.379 178.616C162.379 178.232 162.209 177.949 161.867 177.768C161.526 177.576 160.998 177.389 160.283 177.208C159.633 177.037 159.099 176.867 158.683 176.696C158.278 176.515 157.926 176.253 157.627 175.912C157.339 175.56 157.195 175.101 157.195 174.536C157.195 174.088 157.329 173.677 157.595 173.304C157.862 172.931 158.241 172.637 158.731 172.424C159.222 172.2 159.782 172.088 160.411 172.088C161.382 172.088 162.166 172.333 162.763 172.824C163.361 173.315 163.681 173.987 163.723 174.84H162.267C162.235 174.381 162.049 174.013 161.707 173.736C161.377 173.459 160.929 173.32 160.363 173.32C159.841 173.32 159.425 173.432 159.115 173.656C158.806 173.88 158.651 174.173 158.651 174.536C158.651 174.824 158.742 175.064 158.923 175.256C159.115 175.437 159.35 175.587 159.627 175.704C159.915 175.811 160.31 175.933 160.811 176.072C161.441 176.243 161.953 176.413 162.347 176.584C162.742 176.744 163.078 176.989 163.355 177.32C163.643 177.651 163.793 178.083 163.803 178.616C163.803 179.096 163.67 179.528 163.403 179.912C163.137 180.296 162.758 180.6 162.267 180.824C161.787 181.037 161.233 181.144 160.603 181.144ZM169.843 181.144C169.021 181.144 168.275 180.957 167.603 180.584C166.941 180.211 166.419 179.683 166.035 179C165.661 178.307 165.475 177.507 165.475 176.6C165.475 175.704 165.667 174.915 166.051 174.232C166.445 173.539 166.979 173.011 167.651 172.648C168.323 172.275 169.075 172.088 169.907 172.088C170.739 172.088 171.491 172.275 172.163 172.648C172.835 173.011 173.363 173.533 173.747 174.216C174.141 174.899 174.339 175.693 174.339 176.6C174.339 177.507 174.136 178.307 173.731 179C173.336 179.683 172.797 180.211 172.115 180.584C171.432 180.957 170.675 181.144 169.843 181.144ZM169.843 179.864C170.365 179.864 170.856 179.741 171.315 179.496C171.773 179.251 172.141 178.883 172.419 178.392C172.707 177.901 172.851 177.304 172.851 176.6C172.851 175.896 172.712 175.299 172.435 174.808C172.157 174.317 171.795 173.955 171.347 173.72C170.899 173.475 170.413 173.352 169.891 173.352C169.357 173.352 168.867 173.475 168.419 173.72C167.981 173.955 167.629 174.317 167.363 174.808C167.096 175.299 166.963 175.896 166.963 176.6C166.963 177.315 167.091 177.917 167.347 178.408C167.613 178.899 167.965 179.267 168.403 179.512C168.84 179.747 169.32 179.864 169.843 179.864ZM180.237 181.144C179.416 181.144 178.669 180.957 177.997 180.584C177.336 180.211 176.813 179.683 176.429 179C176.056 178.307 175.869 177.507 175.869 176.6C175.869 175.704 176.061 174.915 176.445 174.232C176.84 173.539 177.373 173.011 178.045 172.648C178.717 172.275 179.469 172.088 180.301 172.088C181.133 172.088 181.885 172.275 182.557 172.648C183.229 173.011 183.757 173.533 184.141 174.216C184.536 174.899 184.733 175.693 184.733 176.6C184.733 177.507 184.53 178.307 184.125 179C183.73 179.683 183.192 180.211 182.509 180.584C181.826 180.957 181.069 181.144 180.237 181.144ZM180.237 179.864C180.76 179.864 181.25 179.741 181.709 179.496C182.168 179.251 182.536 178.883 182.813 178.392C183.101 177.901 183.245 177.304 183.245 176.6C183.245 175.896 183.106 175.299 182.829 174.808C182.552 174.317 182.189 173.955 181.741 173.72C181.293 173.475 180.808 173.352 180.285 173.352C179.752 173.352 179.261 173.475 178.813 173.72C178.376 173.955 178.024 174.317 177.757 174.808C177.49 175.299 177.357 175.896 177.357 176.6C177.357 177.315 177.485 177.917 177.741 178.408C178.008 178.899 178.36 179.267 178.797 179.512C179.234 179.747 179.714 179.864 180.237 179.864ZM191.079 172.072C192.146 172.072 193.01 172.397 193.671 173.048C194.333 173.688 194.663 174.616 194.663 175.832V181H193.223V176.04C193.223 175.165 193.005 174.499 192.567 174.04C192.13 173.571 191.533 173.336 190.775 173.336C190.007 173.336 189.394 173.576 188.935 174.056C188.487 174.536 188.263 175.235 188.263 176.152V181H186.807V172.232H188.263V173.48C188.551 173.032 188.941 172.685 189.431 172.44C189.933 172.195 190.482 172.072 191.079 172.072ZM201.083 176.584C201.083 175.688 201.265 174.904 201.627 174.232C201.99 173.549 202.486 173.021 203.115 172.648C203.755 172.275 204.465 172.088 205.243 172.088C206.011 172.088 206.678 172.253 207.243 172.584C207.809 172.915 208.23 173.331 208.507 173.832V172.232H209.979V181H208.507V179.368C208.219 179.88 207.787 180.307 207.211 180.648C206.646 180.979 205.985 181.144 205.227 181.144C204.449 181.144 203.745 180.952 203.115 180.568C202.486 180.184 201.99 179.645 201.627 178.952C201.265 178.259 201.083 177.469 201.083 176.584ZM208.507 176.6C208.507 175.939 208.374 175.363 208.107 174.872C207.841 174.381 207.478 174.008 207.019 173.752C206.571 173.485 206.075 173.352 205.531 173.352C204.987 173.352 204.491 173.48 204.043 173.736C203.595 173.992 203.238 174.365 202.971 174.856C202.705 175.347 202.571 175.923 202.571 176.584C202.571 177.256 202.705 177.843 202.971 178.344C203.238 178.835 203.595 179.213 204.043 179.48C204.491 179.736 204.987 179.864 205.531 179.864C206.075 179.864 206.571 179.736 207.019 179.48C207.478 179.213 207.841 178.835 208.107 178.344C208.374 177.843 208.507 177.261 208.507 176.6ZM215.704 181.144C215.032 181.144 214.429 181.032 213.896 180.808C213.362 180.573 212.941 180.253 212.632 179.848C212.322 179.432 212.152 178.957 212.12 178.424H213.624C213.666 178.861 213.869 179.219 214.232 179.496C214.605 179.773 215.09 179.912 215.688 179.912C216.242 179.912 216.68 179.789 217 179.544C217.32 179.299 217.48 178.989 217.48 178.616C217.48 178.232 217.309 177.949 216.968 177.768C216.626 177.576 216.098 177.389 215.384 177.208C214.733 177.037 214.2 176.867 213.784 176.696C213.378 176.515 213.026 176.253 212.728 175.912C212.44 175.56 212.296 175.101 212.296 174.536C212.296 174.088 212.429 173.677 212.696 173.304C212.962 172.931 213.341 172.637 213.832 172.424C214.322 172.2 214.882 172.088 215.512 172.088C216.482 172.088 217.266 172.333 217.864 172.824C218.461 173.315 218.781 173.987 218.824 174.84H217.368C217.336 174.381 217.149 174.013 216.808 173.736C216.477 173.459 216.029 173.32 215.464 173.32C214.941 173.32 214.525 173.432 214.216 173.656C213.906 173.88 213.752 174.173 213.752 174.536C213.752 174.824 213.842 175.064 214.024 175.256C214.216 175.437 214.45 175.587 214.728 175.704C215.016 175.811 215.41 175.933 215.912 176.072C216.541 176.243 217.053 176.413 217.448 176.584C217.842 176.744 218.178 176.989 218.456 177.32C218.744 177.651 218.893 178.083 218.904 178.616C218.904 179.096 218.77 179.528 218.504 179.912C218.237 180.296 217.858 180.6 217.368 180.824C216.888 181.037 216.333 181.144 215.704 181.144ZM227.001 173.848C227.289 173.347 227.715 172.931 228.281 172.6C228.857 172.259 229.523 172.088 230.281 172.088C231.059 172.088 231.763 172.275 232.393 172.648C233.033 173.021 233.534 173.549 233.897 174.232C234.259 174.904 234.441 175.688 234.441 176.584C234.441 177.469 234.259 178.259 233.897 178.952C233.534 179.645 233.033 180.184 232.393 180.568C231.763 180.952 231.059 181.144 230.281 181.144C229.534 181.144 228.873 180.979 228.297 180.648C227.731 180.307 227.299 179.885 227.001 179.384V185.16H225.545V172.232H227.001V173.848ZM232.953 176.584C232.953 175.923 232.819 175.347 232.553 174.856C232.286 174.365 231.923 173.992 231.465 173.736C231.017 173.48 230.521 173.352 229.977 173.352C229.443 173.352 228.947 173.485 228.489 173.752C228.041 174.008 227.678 174.387 227.401 174.888C227.134 175.379 227.001 175.949 227.001 176.6C227.001 177.261 227.134 177.843 227.401 178.344C227.678 178.835 228.041 179.213 228.489 179.48C228.947 179.736 229.443 179.864 229.977 179.864C230.521 179.864 231.017 179.736 231.465 179.48C231.923 179.213 232.286 178.835 232.553 178.344C232.819 177.843 232.953 177.256 232.953 176.584ZM240.341 181.144C239.52 181.144 238.773 180.957 238.101 180.584C237.44 180.211 236.917 179.683 236.533 179C236.16 178.307 235.973 177.507 235.973 176.6C235.973 175.704 236.165 174.915 236.549 174.232C236.944 173.539 237.477 173.011 238.149 172.648C238.821 172.275 239.573 172.088 240.405 172.088C241.237 172.088 241.989 172.275 242.661 172.648C243.333 173.011 243.861 173.533 244.245 174.216C244.64 174.899 244.837 175.693 244.837 176.6C244.837 177.507 244.635 178.307 244.229 179C243.835 179.683 243.296 180.211 242.613 180.584C241.931 180.957 241.173 181.144 240.341 181.144ZM240.341 179.864C240.864 179.864 241.355 179.741 241.813 179.496C242.272 179.251 242.64 178.883 242.917 178.392C243.205 177.901 243.349 177.304 243.349 176.6C243.349 175.896 243.211 175.299 242.933 174.808C242.656 174.317 242.293 173.955 241.845 173.72C241.397 173.475 240.912 173.352 240.389 173.352C239.856 173.352 239.365 173.475 238.917 173.72C238.48 173.955 238.128 174.317 237.861 174.808C237.595 175.299 237.461 175.896 237.461 176.6C237.461 177.315 237.589 177.917 237.845 178.408C238.112 178.899 238.464 179.267 238.901 179.512C239.339 179.747 239.819 179.864 240.341 179.864ZM250.016 181.144C249.344 181.144 248.741 181.032 248.208 180.808C247.674 180.573 247.253 180.253 246.944 179.848C246.634 179.432 246.464 178.957 246.432 178.424H247.936C247.978 178.861 248.181 179.219 248.544 179.496C248.917 179.773 249.402 179.912 250 179.912C250.554 179.912 250.992 179.789 251.312 179.544C251.632 179.299 251.792 178.989 251.792 178.616C251.792 178.232 251.621 177.949 251.28 177.768C250.938 177.576 250.41 177.389 249.696 177.208C249.045 177.037 248.512 176.867 248.096 176.696C247.69 176.515 247.338 176.253 247.04 175.912C246.752 175.56 246.608 175.101 246.608 174.536C246.608 174.088 246.741 173.677 247.008 173.304C247.274 172.931 247.653 172.637 248.144 172.424C248.634 172.2 249.194 172.088 249.824 172.088C250.794 172.088 251.578 172.333 252.176 172.824C252.773 173.315 253.093 173.987 253.136 174.84H251.68C251.648 174.381 251.461 174.013 251.12 173.736C250.789 173.459 250.341 173.32 249.776 173.32C249.253 173.32 248.837 173.432 248.528 173.656C248.218 173.88 248.064 174.173 248.064 174.536C248.064 174.824 248.154 175.064 248.336 175.256C248.528 175.437 248.762 175.587 249.04 175.704C249.328 175.811 249.722 175.933 250.224 176.072C250.853 176.243 251.365 176.413 251.76 176.584C252.154 176.744 252.49 176.989 252.768 177.32C253.056 177.651 253.205 178.083 253.216 178.616C253.216 179.096 253.082 179.528 252.816 179.912C252.549 180.296 252.17 180.6 251.68 180.824C251.2 181.037 250.645 181.144 250.016 181.144ZM258.535 181.144C257.863 181.144 257.26 181.032 256.727 180.808C256.194 180.573 255.772 180.253 255.463 179.848C255.154 179.432 254.983 178.957 254.951 178.424H256.455C256.498 178.861 256.7 179.219 257.063 179.496C257.436 179.773 257.922 179.912 258.519 179.912C259.074 179.912 259.511 179.789 259.831 179.544C260.151 179.299 260.311 178.989 260.311 178.616C260.311 178.232 260.14 177.949 259.799 177.768C259.458 177.576 258.93 177.389 258.215 177.208C257.564 177.037 257.031 176.867 256.615 176.696C256.21 176.515 255.858 176.253 255.559 175.912C255.271 175.56 255.127 175.101 255.127 174.536C255.127 174.088 255.26 173.677 255.527 173.304C255.794 172.931 256.172 172.637 256.663 172.424C257.154 172.2 257.714 172.088 258.343 172.088C259.314 172.088 260.098 172.333 260.695 172.824C261.292 173.315 261.612 173.987 261.655 174.84H260.199C260.167 174.381 259.98 174.013 259.639 173.736C259.308 173.459 258.86 173.32 258.295 173.32C257.772 173.32 257.356 173.432 257.047 173.656C256.738 173.88 256.583 174.173 256.583 174.536C256.583 174.824 256.674 175.064 256.855 175.256C257.047 175.437 257.282 175.587 257.559 175.704C257.847 175.811 258.242 175.933 258.743 176.072C259.372 176.243 259.884 176.413 260.279 176.584C260.674 176.744 261.01 176.989 261.287 177.32C261.575 177.651 261.724 178.083 261.735 178.616C261.735 179.096 261.602 179.528 261.335 179.912C261.068 180.296 260.69 180.6 260.199 180.824C259.719 181.037 259.164 181.144 258.535 181.144ZM264.702 170.808C264.425 170.808 264.19 170.712 263.998 170.52C263.806 170.328 263.71 170.093 263.71 169.816C263.71 169.539 263.806 169.304 263.998 169.112C264.19 168.92 264.425 168.824 264.702 168.824C264.969 168.824 265.193 168.92 265.374 169.112C265.566 169.304 265.662 169.539 265.662 169.816C265.662 170.093 265.566 170.328 265.374 170.52C265.193 170.712 264.969 170.808 264.702 170.808ZM265.406 172.232V181H263.95V172.232H265.406ZM269.504 173.864C269.803 173.341 270.24 172.915 270.816 172.584C271.392 172.253 272.048 172.088 272.784 172.088C273.573 172.088 274.283 172.275 274.912 172.648C275.541 173.021 276.037 173.549 276.4 174.232C276.763 174.904 276.944 175.688 276.944 176.584C276.944 177.469 276.763 178.259 276.4 178.952C276.037 179.645 275.536 180.184 274.896 180.568C274.267 180.952 273.563 181.144 272.784 181.144C272.027 181.144 271.36 180.979 270.784 180.648C270.219 180.317 269.792 179.896 269.504 179.384V181H268.048V169.16H269.504V173.864ZM275.456 176.584C275.456 175.923 275.323 175.347 275.056 174.856C274.789 174.365 274.427 173.992 273.968 173.736C273.52 173.48 273.024 173.352 272.48 173.352C271.947 173.352 271.451 173.485 270.992 173.752C270.544 174.008 270.181 174.387 269.904 174.888C269.637 175.379 269.504 175.949 269.504 176.6C269.504 177.261 269.637 177.843 269.904 178.344C270.181 178.835 270.544 179.213 270.992 179.48C271.451 179.736 271.947 179.864 272.48 179.864C273.024 179.864 273.52 179.736 273.968 179.48C274.427 179.213 274.789 178.835 275.056 178.344C275.323 177.843 275.456 177.256 275.456 176.584ZM280.476 169.16V181H279.02V169.16H280.476ZM291.118 176.28C291.118 176.557 291.102 176.851 291.07 177.16H284.062C284.115 178.024 284.409 178.701 284.942 179.192C285.486 179.672 286.142 179.912 286.91 179.912C287.539 179.912 288.062 179.768 288.478 179.48C288.905 179.181 289.203 178.787 289.374 178.296H290.942C290.707 179.139 290.238 179.827 289.534 180.36C288.83 180.883 287.955 181.144 286.91 181.144C286.078 181.144 285.331 180.957 284.67 180.584C284.019 180.211 283.507 179.683 283.134 179C282.761 178.307 282.574 177.507 282.574 176.6C282.574 175.693 282.755 174.899 283.118 174.216C283.481 173.533 283.987 173.011 284.638 172.648C285.299 172.275 286.057 172.088 286.91 172.088C287.742 172.088 288.478 172.269 289.118 172.632C289.758 172.995 290.249 173.496 290.59 174.136C290.942 174.765 291.118 175.48 291.118 176.28ZM289.614 175.976C289.614 175.421 289.491 174.947 289.246 174.552C289.001 174.147 288.665 173.843 288.238 173.64C287.822 173.427 287.358 173.32 286.846 173.32C286.11 173.32 285.481 173.555 284.958 174.024C284.446 174.493 284.153 175.144 284.078 175.976H289.614Z" fill="#1A1A1A"/>
<path opacity="0.5" d="M64.188 208.304C64.684 208.304 65.132 208.412 65.532 208.628C65.932 208.836 66.244 209.152 66.468 209.576C66.7 210 66.816 210.516 66.816 211.124V215H65.736V211.28C65.736 210.624 65.572 210.124 65.244 209.78C64.916 209.428 64.468 209.252 63.9 209.252C63.324 209.252 62.864 209.432 62.52 209.792C62.184 210.152 62.016 210.676 62.016 211.364V215H60.924V206.12H62.016V209.36C62.232 209.024 62.528 208.764 62.904 208.58C63.288 208.396 63.716 208.304 64.188 208.304ZM74.7198 211.46C74.7198 211.668 74.7078 211.888 74.6838 212.12H69.4278C69.4678 212.768 69.6878 213.276 70.0878 213.644C70.4958 214.004 70.9878 214.184 71.5638 214.184C72.0358 214.184 72.4278 214.076 72.7398 213.86C73.0598 213.636 73.2838 213.34 73.4118 212.972H74.5878C74.4118 213.604 74.0598 214.12 73.5318 214.52C73.0038 214.912 72.3478 215.108 71.5638 215.108C70.9398 215.108 70.3798 214.968 69.8838 214.688C69.3958 214.408 69.0118 214.012 68.7318 213.5C68.4518 212.98 68.3118 212.38 68.3118 211.7C68.3118 211.02 68.4478 210.424 68.7198 209.912C68.9918 209.4 69.3718 209.008 69.8598 208.736C70.3558 208.456 70.9238 208.316 71.5638 208.316C72.1878 208.316 72.7398 208.452 73.2198 208.724C73.6998 208.996 74.0678 209.372 74.3238 209.852C74.5878 210.324 74.7198 210.86 74.7198 211.46ZM73.5918 211.232C73.5918 210.816 73.4998 210.46 73.3158 210.164C73.1318 209.86 72.8798 209.632 72.5598 209.48C72.2478 209.32 71.8998 209.24 71.5158 209.24C70.9638 209.24 70.4918 209.416 70.0998 209.768C69.7158 210.12 69.4958 210.608 69.4398 211.232H73.5918ZM77.3732 206.12V215H76.2812V206.12H77.3732ZM80.4463 206.12V215H79.3543V206.12H80.4463ZM85.2954 215.108C84.6794 215.108 84.1194 214.968 83.6154 214.688C83.1194 214.408 82.7274 214.012 82.4394 213.5C82.1594 212.98 82.0194 212.38 82.0194 211.7C82.0194 211.028 82.1634 210.436 82.4514 209.924C82.7474 209.404 83.1474 209.008 83.6514 208.736C84.1554 208.456 84.7194 208.316 85.3434 208.316C85.9674 208.316 86.5314 208.456 87.0354 208.736C87.5394 209.008 87.9354 209.4 88.2234 209.912C88.5194 210.424 88.6674 211.02 88.6674 211.7C88.6674 212.38 88.5154 212.98 88.2114 213.5C87.9154 214.012 87.5114 214.408 86.9994 214.688C86.4874 214.968 85.9194 215.108 85.2954 215.108ZM85.2954 214.148C85.6874 214.148 86.0554 214.056 86.3994 213.872C86.7434 213.688 87.0194 213.412 87.2274 213.044C87.4434 212.676 87.5514 212.228 87.5514 211.7C87.5514 211.172 87.4474 210.724 87.2394 210.356C87.0314 209.988 86.7594 209.716 86.4234 209.54C86.0874 209.356 85.7234 209.264 85.3314 209.264C84.9314 209.264 84.5634 209.356 84.2274 209.54C83.8994 209.716 83.6354 209.988 83.4354 210.356C83.2354 210.724 83.1354 211.172 83.1354 211.7C83.1354 212.236 83.2314 212.688 83.4234 213.056C83.6234 213.424 83.8874 213.7 84.2154 213.884C84.5434 214.06 84.9034 214.148 85.2954 214.148ZM90.5712 215.072C90.3632 215.072 90.1872 215 90.0432 214.856C89.8992 214.712 89.8272 214.536 89.8272 214.328C89.8272 214.12 89.8992 213.944 90.0432 213.8C90.1872 213.656 90.3632 213.584 90.5712 213.584C90.7712 213.584 90.9392 213.656 91.0752 213.8C91.2192 213.944 91.2912 214.12 91.2912 214.328C91.2912 214.536 91.2192 214.712 91.0752 214.856C90.9392 215 90.7712 215.072 90.5712 215.072ZM92.3947 207.32V206.324H94.6507V215H93.5467V207.32H92.3947ZM100.031 208.304C100.831 208.304 101.479 208.548 101.975 209.036C102.471 209.516 102.719 210.212 102.719 211.124V215H101.639V211.28C101.639 210.624 101.475 210.124 101.147 209.78C100.819 209.428 100.371 209.252 99.8025 209.252C99.2265 209.252 98.7665 209.432 98.4225 209.792C98.0865 210.152 97.9185 210.676 97.9185 211.364V215H96.8265V208.424H97.9185V209.36C98.1345 209.024 98.4265 208.764 98.7945 208.58C99.1705 208.396 99.5825 208.304 100.031 208.304ZM106.95 215.108C106.446 215.108 105.994 215.024 105.594 214.856C105.194 214.68 104.878 214.44 104.646 214.136C104.414 213.824 104.286 213.468 104.262 213.068H105.39C105.422 213.396 105.574 213.664 105.846 213.872C106.126 214.08 106.49 214.184 106.938 214.184C107.354 214.184 107.682 214.092 107.922 213.908C108.162 213.724 108.282 213.492 108.282 213.212C108.282 212.924 108.154 212.712 107.898 212.576C107.642 212.432 107.246 212.292 106.71 212.156C106.222 212.028 105.822 211.9 105.51 211.772C105.206 211.636 104.942 211.44 104.718 211.184C104.502 210.92 104.394 210.576 104.394 210.152C104.394 209.816 104.494 209.508 104.694 209.228C104.894 208.948 105.178 208.728 105.546 208.568C105.914 208.4 106.334 208.316 106.806 208.316C107.534 208.316 108.122 208.5 108.57 208.868C109.018 209.236 109.258 209.74 109.29 210.38H108.198C108.174 210.036 108.034 209.76 107.778 209.552C107.53 209.344 107.194 209.24 106.77 209.24C106.378 209.24 106.066 209.324 105.834 209.492C105.602 209.66 105.486 209.88 105.486 210.152C105.486 210.368 105.554 210.548 105.69 210.692C105.834 210.828 106.01 210.94 106.218 211.028C106.434 211.108 106.73 211.2 107.106 211.304C107.578 211.432 107.962 211.56 108.258 211.688C108.554 211.808 108.806 211.992 109.014 212.24C109.23 212.488 109.342 212.812 109.35 213.212C109.35 213.572 109.25 213.896 109.05 214.184C108.85 214.472 108.566 214.7 108.198 214.868C107.838 215.028 107.422 215.108 106.95 215.108ZM116.844 208.424V215H115.752V214.028C115.544 214.364 115.252 214.628 114.876 214.82C114.508 215.004 114.1 215.096 113.652 215.096C113.14 215.096 112.68 214.992 112.272 214.784C111.864 214.568 111.54 214.248 111.3 213.824C111.068 213.4 110.952 212.884 110.952 212.276V208.424H112.032V212.132C112.032 212.78 112.196 213.28 112.524 213.632C112.852 213.976 113.3 214.148 113.868 214.148C114.452 214.148 114.912 213.968 115.248 213.608C115.584 213.248 115.752 212.724 115.752 212.036V208.424H116.844ZM119.9 209.492C120.092 209.116 120.364 208.824 120.716 208.616C121.076 208.408 121.512 208.304 122.024 208.304V209.432H121.736C120.512 209.432 119.9 210.096 119.9 211.424V215H118.808V208.424H119.9V209.492ZM122.996 211.688C122.996 211.016 123.132 210.428 123.404 209.924C123.676 209.412 124.048 209.016 124.52 208.736C125 208.456 125.532 208.316 126.116 208.316C126.692 208.316 127.192 208.44 127.616 208.688C128.04 208.936 128.356 209.248 128.564 209.624V208.424H129.668V215H128.564V213.776C128.348 214.16 128.024 214.48 127.592 214.736C127.168 214.984 126.672 215.108 126.104 215.108C125.52 215.108 124.992 214.964 124.52 214.676C124.048 214.388 123.676 213.984 123.404 213.464C123.132 212.944 122.996 212.352 122.996 211.688ZM128.564 211.7C128.564 211.204 128.464 210.772 128.264 210.404C128.064 210.036 127.792 209.756 127.448 209.564C127.112 209.364 126.74 209.264 126.332 209.264C125.924 209.264 125.552 209.36 125.216 209.552C124.88 209.744 124.612 210.024 124.412 210.392C124.212 210.76 124.112 211.192 124.112 211.688C124.112 212.192 124.212 212.632 124.412 213.008C124.612 213.376 124.88 213.66 125.216 213.86C125.552 214.052 125.924 214.148 126.332 214.148C126.74 214.148 127.112 214.052 127.448 213.86C127.792 213.66 128.064 213.376 128.264 213.008C128.464 212.632 128.564 212.196 128.564 211.7ZM134.838 208.304C135.638 208.304 136.286 208.548 136.782 209.036C137.278 209.516 137.526 210.212 137.526 211.124V215H136.446V211.28C136.446 210.624 136.282 210.124 135.954 209.78C135.626 209.428 135.178 209.252 134.61 209.252C134.034 209.252 133.574 209.432 133.23 209.792C132.894 210.152 132.726 210.676 132.726 211.364V215H131.634V208.424H132.726V209.36C132.942 209.024 133.234 208.764 133.602 208.58C133.978 208.396 134.39 208.304 134.838 208.304ZM139.021 211.7C139.021 211.02 139.157 210.428 139.429 209.924C139.701 209.412 140.077 209.016 140.557 208.736C141.045 208.456 141.601 208.316 142.225 208.316C143.033 208.316 143.697 208.512 144.217 208.904C144.745 209.296 145.093 209.84 145.261 210.536H144.085C143.973 210.136 143.753 209.82 143.425 209.588C143.105 209.356 142.705 209.24 142.225 209.24C141.601 209.24 141.097 209.456 140.713 209.888C140.329 210.312 140.137 210.916 140.137 211.7C140.137 212.492 140.329 213.104 140.713 213.536C141.097 213.968 141.601 214.184 142.225 214.184C142.705 214.184 143.105 214.072 143.425 213.848C143.745 213.624 143.965 213.304 144.085 212.888H145.261C145.085 213.56 144.733 214.1 144.205 214.508C143.677 214.908 143.017 215.108 142.225 215.108C141.601 215.108 141.045 214.968 140.557 214.688C140.077 214.408 139.701 214.012 139.429 213.5C139.157 212.988 139.021 212.388 139.021 211.7ZM152.838 211.46C152.838 211.668 152.826 211.888 152.802 212.12H147.546C147.586 212.768 147.806 213.276 148.206 213.644C148.614 214.004 149.106 214.184 149.682 214.184C150.154 214.184 150.546 214.076 150.858 213.86C151.178 213.636 151.402 213.34 151.53 212.972H152.706C152.53 213.604 152.178 214.12 151.65 214.52C151.122 214.912 150.466 215.108 149.682 215.108C149.058 215.108 148.498 214.968 148.002 214.688C147.514 214.408 147.13 214.012 146.85 213.5C146.57 212.98 146.43 212.38 146.43 211.7C146.43 211.02 146.566 210.424 146.838 209.912C147.11 209.4 147.49 209.008 147.978 208.736C148.474 208.456 149.042 208.316 149.682 208.316C150.306 208.316 150.858 208.452 151.338 208.724C151.818 208.996 152.186 209.372 152.442 209.852C152.706 210.324 152.838 210.86 152.838 211.46ZM151.71 211.232C151.71 210.816 151.618 210.46 151.434 210.164C151.25 209.86 150.998 209.632 150.678 209.48C150.366 209.32 150.018 209.24 149.634 209.24C149.082 209.24 148.61 209.416 148.218 209.768C147.834 210.12 147.614 210.608 147.558 211.232H151.71ZM160.4 207.308C161.288 207.308 162.06 207.476 162.716 207.812C163.372 208.148 163.876 208.62 164.228 209.228C164.58 209.828 164.756 210.524 164.756 211.316C164.756 211.948 164.652 212.556 164.444 213.14C164.236 213.716 163.932 214.184 163.532 214.544C163.14 214.904 162.68 215.084 162.152 215.084C161.752 215.084 161.444 214.984 161.228 214.784C161.012 214.584 160.888 214.312 160.856 213.968C160.608 214.312 160.292 214.584 159.908 214.784C159.532 214.984 159.132 215.084 158.708 215.084C158.1 215.084 157.62 214.9 157.268 214.532C156.924 214.156 156.752 213.652 156.752 213.02C156.752 212.42 156.876 211.86 157.124 211.34C157.38 210.82 157.732 210.404 158.18 210.092C158.628 209.772 159.136 209.612 159.704 209.612C160.464 209.612 160.976 209.9 161.24 210.476L161.372 209.732H162.32L161.72 213.2C161.696 213.352 161.684 213.492 161.684 213.62C161.684 214.1 161.896 214.34 162.32 214.34C162.64 214.34 162.916 214.188 163.148 213.884C163.388 213.58 163.568 213.2 163.688 212.744C163.808 212.28 163.868 211.824 163.868 211.376C163.868 210.328 163.552 209.516 162.92 208.94C162.296 208.364 161.412 208.076 160.268 208.076C159.316 208.076 158.456 208.308 157.688 208.772C156.928 209.228 156.332 209.856 155.9 210.656C155.468 211.456 155.252 212.34 155.252 213.308C155.244 214.364 155.56 215.176 156.2 215.744C156.84 216.32 157.728 216.608 158.864 216.608C159.616 216.608 160.28 216.472 160.856 216.2L161 216.944C160.288 217.24 159.504 217.388 158.648 217.388C157.792 217.388 157.036 217.224 156.38 216.896C155.732 216.576 155.228 216.112 154.868 215.504C154.516 214.904 154.34 214.204 154.34 213.404C154.34 212.276 154.6 211.248 155.12 210.32C155.64 209.384 156.36 208.648 157.28 208.112C158.208 207.576 159.248 207.308 160.4 207.308ZM159.032 214.232C159.392 214.232 159.724 214.128 160.028 213.92C160.332 213.704 160.572 213.416 160.748 213.056C160.924 212.688 161.012 212.288 161.012 211.856C161.012 211.44 160.896 211.104 160.664 210.848C160.44 210.584 160.12 210.452 159.704 210.452C159.32 210.452 158.98 210.568 158.684 210.8C158.396 211.024 158.172 211.324 158.012 211.7C157.852 212.068 157.772 212.452 157.772 212.852C157.772 213.276 157.88 213.612 158.096 213.86C158.312 214.108 158.624 214.232 159.032 214.232ZM169.384 208.316C169.952 208.316 170.448 208.44 170.872 208.688C171.304 208.936 171.624 209.248 171.832 209.624V208.424H172.936V215.144C172.936 215.744 172.808 216.276 172.552 216.74C172.296 217.212 171.928 217.58 171.448 217.844C170.976 218.108 170.424 218.24 169.792 218.24C168.928 218.24 168.208 218.036 167.632 217.628C167.056 217.22 166.716 216.664 166.612 215.96H167.692C167.812 216.36 168.06 216.68 168.436 216.92C168.812 217.168 169.264 217.292 169.792 217.292C170.392 217.292 170.88 217.104 171.256 216.728C171.64 216.352 171.832 215.824 171.832 215.144V213.764C171.616 214.148 171.296 214.468 170.872 214.724C170.448 214.98 169.952 215.108 169.384 215.108C168.8 215.108 168.268 214.964 167.788 214.676C167.316 214.388 166.944 213.984 166.672 213.464C166.4 212.944 166.264 212.352 166.264 211.688C166.264 211.016 166.4 210.428 166.672 209.924C166.944 209.412 167.316 209.016 167.788 208.736C168.268 208.456 168.8 208.316 169.384 208.316ZM171.832 211.7C171.832 211.204 171.732 210.772 171.532 210.404C171.332 210.036 171.06 209.756 170.716 209.564C170.38 209.364 170.008 209.264 169.6 209.264C169.192 209.264 168.82 209.36 168.484 209.552C168.148 209.744 167.88 210.024 167.68 210.392C167.48 210.76 167.38 211.192 167.38 211.688C167.38 212.192 167.48 212.632 167.68 213.008C167.88 213.376 168.148 213.66 168.484 213.86C168.82 214.052 169.192 214.148 169.6 214.148C170.008 214.148 170.38 214.052 170.716 213.86C171.06 213.66 171.332 213.376 171.532 213.008C171.732 212.632 171.832 212.196 171.832 211.7ZM182.81 208.304C183.322 208.304 183.778 208.412 184.178 208.628C184.578 208.836 184.894 209.152 185.126 209.576C185.358 210 185.474 210.516 185.474 211.124V215H184.394V211.28C184.394 210.624 184.23 210.124 183.902 209.78C183.582 209.428 183.146 209.252 182.594 209.252C182.026 209.252 181.574 209.436 181.238 209.804C180.902 210.164 180.734 210.688 180.734 211.376V215H179.654V211.28C179.654 210.624 179.49 210.124 179.162 209.78C178.842 209.428 178.406 209.252 177.854 209.252C177.286 209.252 176.834 209.436 176.498 209.804C176.162 210.164 175.994 210.688 175.994 211.376V215H174.902V208.424H175.994V209.372C176.21 209.028 176.498 208.764 176.858 208.58C177.226 208.396 177.63 208.304 178.07 208.304C178.622 208.304 179.11 208.428 179.534 208.676C179.958 208.924 180.274 209.288 180.482 209.768C180.666 209.304 180.97 208.944 181.394 208.688C181.818 208.432 182.29 208.304 182.81 208.304ZM186.977 211.688C186.977 211.016 187.113 210.428 187.385 209.924C187.657 209.412 188.029 209.016 188.501 208.736C188.981 208.456 189.513 208.316 190.097 208.316C190.673 208.316 191.173 208.44 191.597 208.688C192.021 208.936 192.337 209.248 192.545 209.624V208.424H193.649V215H192.545V213.776C192.329 214.16 192.005 214.48 191.573 214.736C191.149 214.984 190.653 215.108 190.085 215.108C189.501 215.108 188.973 214.964 188.501 214.676C188.029 214.388 187.657 213.984 187.385 213.464C187.113 212.944 186.977 212.352 186.977 211.688ZM192.545 211.7C192.545 211.204 192.445 210.772 192.245 210.404C192.045 210.036 191.773 209.756 191.429 209.564C191.093 209.364 190.721 209.264 190.313 209.264C189.905 209.264 189.533 209.36 189.197 209.552C188.861 209.744 188.593 210.024 188.393 210.392C188.193 210.76 188.093 211.192 188.093 211.688C188.093 212.192 188.193 212.632 188.393 213.008C188.593 213.376 188.861 213.66 189.197 213.86C189.533 214.052 189.905 214.148 190.313 214.148C190.721 214.148 191.093 214.052 191.429 213.86C191.773 213.66 192.045 213.376 192.245 213.008C192.445 212.632 192.545 212.196 192.545 211.7ZM196.178 207.356C195.97 207.356 195.794 207.284 195.65 207.14C195.506 206.996 195.434 206.82 195.434 206.612C195.434 206.404 195.506 206.228 195.65 206.084C195.794 205.94 195.97 205.868 196.178 205.868C196.378 205.868 196.546 205.94 196.682 206.084C196.826 206.228 196.898 206.404 196.898 206.612C196.898 206.82 196.826 206.996 196.682 207.14C196.546 207.284 196.378 207.356 196.178 207.356ZM196.706 208.424V215H195.614V208.424H196.706ZM199.779 206.12V215H198.687V206.12H199.779ZM202.108 215.072C201.9 215.072 201.724 215 201.58 214.856C201.436 214.712 201.364 214.536 201.364 214.328C201.364 214.12 201.436 213.944 201.58 213.8C201.724 213.656 201.9 213.584 202.108 213.584C202.308 213.584 202.476 213.656 202.612 213.8C202.756 213.944 202.828 214.12 202.828 214.328C202.828 214.536 202.756 214.712 202.612 214.856C202.476 215 202.308 215.072 202.108 215.072ZM203.992 211.7C203.992 211.02 204.128 210.428 204.4 209.924C204.672 209.412 205.048 209.016 205.528 208.736C206.016 208.456 206.572 208.316 207.196 208.316C208.004 208.316 208.668 208.512 209.188 208.904C209.716 209.296 210.064 209.84 210.232 210.536H209.056C208.944 210.136 208.724 209.82 208.396 209.588C208.076 209.356 207.676 209.24 207.196 209.24C206.572 209.24 206.068 209.456 205.684 209.888C205.3 210.312 205.108 210.916 205.108 211.7C205.108 212.492 205.3 213.104 205.684 213.536C206.068 213.968 206.572 214.184 207.196 214.184C207.676 214.184 208.076 214.072 208.396 213.848C208.716 213.624 208.936 213.304 209.056 212.888H210.232C210.056 213.56 209.704 214.1 209.176 214.508C208.648 214.908 207.988 215.108 207.196 215.108C206.572 215.108 206.016 214.968 205.528 214.688C205.048 214.408 204.672 214.012 204.4 213.5C204.128 212.988 203.992 212.388 203.992 211.7ZM214.677 215.108C214.061 215.108 213.501 214.968 212.997 214.688C212.501 214.408 212.109 214.012 211.821 213.5C211.541 212.98 211.401 212.38 211.401 211.7C211.401 211.028 211.545 210.436 211.833 209.924C212.129 209.404 212.529 209.008 213.033 208.736C213.537 208.456 214.101 208.316 214.725 208.316C215.349 208.316 215.913 208.456 216.417 208.736C216.921 209.008 217.317 209.4 217.605 209.912C217.901 210.424 218.049 211.02 218.049 211.7C218.049 212.38 217.897 212.98 217.593 213.5C217.297 214.012 216.893 214.408 216.381 214.688C215.869 214.968 215.301 215.108 214.677 215.108ZM214.677 214.148C215.069 214.148 215.437 214.056 215.781 213.872C216.125 213.688 216.401 213.412 216.609 213.044C216.825 212.676 216.933 212.228 216.933 211.7C216.933 211.172 216.829 210.724 216.621 210.356C216.413 209.988 216.141 209.716 215.805 209.54C215.469 209.356 215.105 209.264 214.713 209.264C214.313 209.264 213.945 209.356 213.609 209.54C213.281 209.716 213.017 209.988 212.817 210.356C212.617 210.724 212.517 211.172 212.517 211.7C212.517 212.236 212.613 212.688 212.805 213.056C213.005 213.424 213.269 213.7 213.597 213.884C213.925 214.06 214.285 214.148 214.677 214.148ZM227.513 208.304C228.025 208.304 228.481 208.412 228.881 208.628C229.281 208.836 229.597 209.152 229.829 209.576C230.061 210 230.177 210.516 230.177 211.124V215H229.097V211.28C229.097 210.624 228.933 210.124 228.605 209.78C228.285 209.428 227.849 209.252 227.297 209.252C226.729 209.252 226.277 209.436 225.941 209.804C225.605 210.164 225.437 210.688 225.437 211.376V215H224.357V211.28C224.357 210.624 224.193 210.124 223.865 209.78C223.545 209.428 223.109 209.252 222.557 209.252C221.989 209.252 221.537 209.436 221.201 209.804C220.865 210.164 220.697 210.688 220.697 211.376V215H219.605V208.424H220.697V209.372C220.913 209.028 221.201 208.764 221.561 208.58C221.929 208.396 222.333 208.304 222.773 208.304C223.325 208.304 223.813 208.428 224.237 208.676C224.661 208.924 224.977 209.288 225.185 209.768C225.369 209.304 225.673 208.944 226.097 208.688C226.521 208.432 226.993 208.304 227.513 208.304Z" fill="#1A1A1A"/>
<defs>
<linearGradient id="paint0_linear_2_10115" x1="131.853" y1="13.5577" x2="167.831" y2="21.8674" gradientUnits="userSpaceOnUse">
<stop stop-color="#018085"/>
<stop offset="1" stop-color="#019298"/>
</linearGradient>
</defs>
</svg>
