<svg width="48" height="49" viewBox="0 0 48 49" fill="none" xmlns="http://www.w3.org/2000/svg">
<circle cx="24" cy="24.6426" r="24" fill="url(#paint0_linear_2_9948)"/>
<path d="M24 32.1309C23.6765 32.3392 23.3428 32.5311 23 32.7059V37.6434C23 37.9086 23.1054 38.1629 23.2929 38.3505C23.4804 38.538 23.7348 38.6434 24 38.6434C24.2652 38.6434 24.5196 38.538 24.7071 38.3505C24.8946 38.1629 25 37.9086 25 37.6434V32.7059C24.6572 32.5311 24.3235 32.3392 24 32.1309Z" fill="white"/>
<path d="M32.7625 16.4687C32.0391 14.7415 30.8214 13.2666 29.2624 12.2294C27.7034 11.1921 25.8726 10.6387 24 10.6387C22.1275 10.6387 20.2967 11.1921 18.7376 12.2294C17.1786 13.2666 15.9609 14.7415 15.2375 16.4687C13.681 17.19 12.3619 18.3394 11.4345 19.7826C10.507 21.2258 10.0095 22.9032 10 24.6187C9.98753 29.4687 13.925 33.5187 18.7625 33.6437C20.2304 33.6821 21.6853 33.3602 23 32.7062V28.2562L17.55 25.5437C17.3113 25.4244 17.1298 25.2151 17.0454 24.9619C17.0036 24.8366 16.987 24.7042 16.9963 24.5724C17.0057 24.4406 17.0409 24.3119 17.1 24.1937C17.1591 24.0755 17.2409 23.9701 17.3407 23.8836C17.4406 23.797 17.5565 23.7309 17.6818 23.6891C17.935 23.6047 18.2113 23.6244 18.45 23.7437L23 26.0312V19.6437C23 19.3785 23.1054 19.1241 23.2929 18.9366C23.4805 18.7491 23.7348 18.6437 24 18.6437C24.2652 18.6437 24.5196 18.7491 24.7071 18.9366C24.8947 19.1241 25 19.3785 25 19.6437V23.0312L29.55 20.7437C29.7887 20.6244 30.0651 20.6047 30.3182 20.6891C30.5714 20.7735 30.7807 20.955 30.9 21.1937C31.0194 21.4324 31.039 21.7087 30.9546 21.9619C30.8702 22.2151 30.6887 22.4244 30.45 22.5437L25 25.2562V32.7062C26.2432 33.3229 27.6122 33.6438 29 33.6437H29.2375C34.075 33.5187 38.0125 29.4687 38 24.6187C37.9906 22.9032 37.493 21.2258 36.5656 19.7826C35.6381 18.3394 34.319 17.19 32.7625 16.4687Z" fill="white"/>
<defs>
<linearGradient id="paint0_linear_2_9948" x1="6.70594e-07" y1="-18.2665" x2="52.3926" y2="-15.4179" gradientUnits="userSpaceOnUse">
<stop stop-color="#2FB668"/>
<stop offset="1" stop-color="#E0DB58"/>
</linearGradient>
</defs>
</svg>
