<svg width="56" height="56" viewBox="0 0 56 56" fill="none" xmlns="http://www.w3.org/2000/svg">
<circle cx="28" cy="28" r="28" fill="url(#paint0_linear_2_9840)"/>
<path d="M39 20H34V19C33.9967 18.2054 33.6796 17.4442 33.1177 16.8823C32.5558 16.3204 31.7946 16.0033 31 16H25C24.2054 16.0033 23.4442 16.3204 22.8823 16.8823C22.3204 17.4442 22.0033 18.2054 22 19V20H17C16.4696 20 15.9609 20.2107 15.5858 20.5858C15.2107 20.9609 15 21.4696 15 22V38C15 38.5304 15.2107 39.0391 15.5858 39.4142C15.9609 39.7893 16.4696 40 17 40H39C39.5304 40 40.0391 39.7893 40.4142 39.4142C40.7893 39.0391 41 38.5304 41 38V22C41 21.4696 40.7893 20.9609 40.4142 20.5858C40.0391 20.2107 39.5304 20 39 20ZM24 19C24 18.7348 24.1054 18.4804 24.2929 18.2929C24.4804 18.1054 24.7348 18 25 18H31C31.2652 18 31.5196 18.1054 31.7071 18.2929C31.8946 18.4804 32 18.7348 32 19V20H24V19ZM31.5 31H29V33.5C29 33.7652 28.8946 34.0196 28.7071 34.2071C28.5196 34.3946 28.2652 34.5 28 34.5C27.7348 34.5 27.4804 34.3946 27.2929 34.2071C27.1054 34.0196 27 33.7652 27 33.5V31H24.5C24.2348 31 23.9804 30.8946 23.7929 30.7071C23.6054 30.5196 23.5 30.2652 23.5 30C23.5 29.7348 23.6054 29.4804 23.7929 29.2929C23.9804 29.1054 24.2348 29 24.5 29H27V26.5C27 26.2348 27.1054 25.9804 27.2929 25.7929C27.4804 25.6054 27.7348 25.5 28 25.5C28.2652 25.5 28.5196 25.6054 28.7071 25.7929C28.8946 25.9804 29 26.2348 29 26.5V29H31.5C31.7652 29 32.0196 29.1054 32.2071 29.2929C32.3946 29.4804 32.5 29.7348 32.5 30C32.5 30.2652 32.3946 30.5196 32.2071 30.7071C32.0196 30.8946 31.7652 31 31.5 31Z" fill="white"/>
<defs>
<linearGradient id="paint0_linear_2_9840" x1="-2.45341" y1="-2.88462" x2="73.9286" y2="15.9783" gradientUnits="userSpaceOnUse">
<stop stop-color="#018085"/>
<stop offset="1" stop-color="#019298"/>
</linearGradient>
</defs>
</svg>
