<svg width="48" height="49" viewBox="0 0 48 49" fill="none" xmlns="http://www.w3.org/2000/svg">
<circle cx="24" cy="24.6426" r="24" fill="url(#paint0_linear_2_9939)"/>
<path d="M24.0003 13.498C21.7964 13.498 19.6421 14.1516 17.8096 15.376C15.9772 16.6003 14.549 18.3406 13.7056 20.3767C12.8622 22.4128 12.6416 24.6533 13.0715 26.8148C13.5015 28.9763 14.5627 30.9617 16.1211 32.5201C17.6795 34.0785 19.6649 35.1397 21.8264 35.5697C23.9879 35.9996 26.2284 35.7789 28.2645 34.9356C30.3006 34.0922 32.0408 32.664 33.2652 30.8315C34.4896 28.9991 35.1431 26.8448 35.1431 24.6409C35.1375 21.6874 33.9617 18.8564 31.8732 16.768C29.7848 14.6795 26.9538 13.5037 24.0003 13.498ZM25.286 29.7838H24.8574V30.6409C24.8574 30.8682 24.7671 31.0863 24.6064 31.247C24.4456 31.4077 24.2276 31.498 24.0003 31.498C23.773 31.498 23.5549 31.4077 23.3942 31.247C23.2334 31.0863 23.1431 30.8682 23.1431 30.6409V29.7838H21.4289C21.2015 29.7838 20.9835 29.6935 20.8228 29.5327C20.662 29.372 20.5717 29.1539 20.5717 28.9266C20.5717 28.6993 20.662 28.4813 20.8228 28.3205C20.9835 28.1598 21.2015 28.0695 21.4289 28.0695H25.286C25.627 28.0695 25.954 27.934 26.1951 27.6929C26.4363 27.4518 26.5717 27.1248 26.5717 26.7838C26.5717 26.4428 26.4363 26.1157 26.1951 25.8746C25.954 25.6335 25.627 25.498 25.286 25.498H22.7146C21.9189 25.498 21.1559 25.182 20.5932 24.6194C20.0306 24.0568 19.7146 23.2937 19.7146 22.498C19.7146 21.7024 20.0306 20.9393 20.5932 20.3767C21.1559 19.8141 21.9189 19.498 22.7146 19.498H23.1431V18.6409C23.1431 18.4136 23.2334 18.1956 23.3942 18.0348C23.5549 17.8741 23.773 17.7838 24.0003 17.7838C24.2276 17.7838 24.4456 17.8741 24.6064 18.0348C24.7671 18.1956 24.8574 18.4136 24.8574 18.6409V19.498H26.5717C26.799 19.498 27.0171 19.5884 27.1778 19.7491C27.3386 19.9098 27.4289 20.1279 27.4289 20.3552C27.4289 20.5825 27.3386 20.8005 27.1778 20.9613C27.0171 21.122 26.799 21.2123 26.5717 21.2123H22.7146C22.3736 21.2123 22.0466 21.3478 21.8054 21.5889C21.5643 21.83 21.4289 22.1571 21.4289 22.498C21.4289 22.839 21.5643 23.1661 21.8054 23.4072C22.0466 23.6483 22.3736 23.7838 22.7146 23.7838H25.286C26.0816 23.7838 26.8447 24.0998 27.4073 24.6624C27.9699 25.225 28.286 25.9881 28.286 26.7838C28.286 27.5794 27.9699 28.3425 27.4073 28.9051C26.8447 29.4677 26.0816 29.7838 25.286 29.7838Z" fill="white"/>
<defs>
<linearGradient id="paint0_linear_2_9939" x1="-7.48952" y1="2.24985" x2="54.3566" y2="46.5575" gradientUnits="userSpaceOnUse">
<stop stop-color="#FFC24A"/>
<stop offset="1" stop-color="#FF814A"/>
</linearGradient>
</defs>
</svg>
