<svg width="80" height="80" viewBox="0 0 80 80" fill="none" xmlns="http://www.w3.org/2000/svg">
<circle cx="40" cy="40" r="40" fill="url(#paint0_linear_2_9912)"/>
<path d="M56.6665 21.668H23.3333C22.4493 21.668 21.6014 22.0192 20.9763 22.6443C20.3512 23.2694 20 24.1173 20 25.0013V37.2305C20 55.8555 35.7916 62.043 38.9582 63.0847C39.6348 63.3073 40.365 63.3073 41.0416 63.0847C44.2082 62.043 59.9998 55.8555 59.9998 37.2305V25.0013C59.9998 24.1173 59.6486 23.2694 59.0235 22.6443C58.3984 22.0192 57.5505 21.668 56.6665 21.668ZM50.3123 36.2097L38.1041 47.8763C37.7885 48.1732 37.3707 48.3373 36.9374 48.3347C36.5105 48.3363 36.0996 48.1719 35.7916 47.8763L29.6875 42.043C29.5181 41.8953 29.3805 41.7149 29.2827 41.5126C29.1849 41.3103 29.129 41.0903 29.1183 40.8659C29.1077 40.6414 29.1426 40.4172 29.2209 40.2066C29.2991 39.9959 29.4192 39.8033 29.5738 39.6403C29.7284 39.4773 29.9144 39.3472 30.1205 39.2578C30.3267 39.1685 30.5488 39.1218 30.7735 39.1205C30.9981 39.1192 31.2208 39.1633 31.428 39.2502C31.6351 39.3372 31.8226 39.4651 31.9791 39.6263L36.9374 44.3555L48.0207 33.793C48.3448 33.5103 48.7656 33.3637 49.1951 33.3841C49.6247 33.4044 50.0298 33.59 50.3258 33.902C50.6217 34.2141 50.7855 34.6285 50.783 35.0585C50.7805 35.4886 50.6119 35.901 50.3123 36.2097Z" fill="white"/>
<defs>
<linearGradient id="paint0_linear_2_9912" x1="-19.2908" y1="-8.33334" x2="106.251" y2="2.47855" gradientUnits="userSpaceOnUse">
<stop stop-color="#4072F2"/>
<stop offset="1" stop-color="#60CDEF"/>
</linearGradient>
</defs>
</svg>
