<svg width="56" height="56" viewBox="0 0 56 56" fill="none" xmlns="http://www.w3.org/2000/svg">
<circle cx="28" cy="28" r="28" fill="url(#paint0_linear_2_9859)"/>
<path d="M40.312 19.0509L28.312 15.0509C28.1084 14.9882 27.8907 14.9882 27.687 15.0509L15.6995 19.0509H15.6745L15.5495 19.1134H15.537L15.412 19.1884C15.412 19.2009 15.3995 19.2009 15.387 19.2134L15.287 19.3009L15.1995 19.4009C15.1995 19.4134 15.187 19.4134 15.187 19.4259L15.112 19.5384C15.112 19.5509 15.112 19.5509 15.0995 19.5634L15.0495 19.6759L15.012 19.8134V19.8509C14.9997 19.8999 14.9955 19.9506 14.9995 20.0009V30.0009C14.9995 30.2661 15.1049 30.5205 15.2924 30.708C15.48 30.8955 15.7343 31.0009 15.9995 31.0009C16.2648 31.0009 16.5191 30.8955 16.7066 30.708C16.8942 30.5205 16.9995 30.2661 16.9995 30.0009V21.3884L21.1995 22.7884C20.4105 24.0514 19.9945 25.5117 19.9995 27.0009C20 28.3553 20.3443 29.6874 21.0002 30.8724C21.6561 32.0573 22.6021 33.0564 23.7495 33.7759C21.365 34.678 19.3294 36.3153 17.937 38.4509C17.7951 38.6753 17.747 38.9465 17.8032 39.206C17.8593 39.4656 18.0151 39.6927 18.237 39.8384C18.346 39.9106 18.4681 39.9604 18.5964 39.985C18.7248 40.0096 18.8567 40.0085 18.9846 39.9818C19.1125 39.9551 19.2338 39.9032 19.3415 39.8292C19.4492 39.7553 19.5412 39.6607 19.612 39.5509C20.5197 38.1528 21.7625 37.0037 23.2273 36.2082C24.6922 35.4128 26.3326 34.9961 27.9995 34.9961C29.6664 34.9961 31.3069 35.4128 32.7718 36.2082C34.2366 37.0037 35.4794 38.1528 36.387 39.5509C36.4783 39.6895 36.6027 39.8032 36.7489 39.8818C36.8951 39.9604 37.0586 40.0013 37.2245 40.0009C37.4161 40.0029 37.6037 39.9462 37.762 39.8384C37.984 39.6927 38.1398 39.4656 38.1959 39.206C38.252 38.9465 38.204 38.6753 38.062 38.4509C36.6697 36.3153 34.634 34.678 32.2495 33.7759C33.397 33.0564 34.343 32.0573 34.9989 30.8724C35.6548 29.6874 35.9991 28.3553 35.9995 27.0009C36.0046 25.5117 35.5886 24.0514 34.7995 22.7884L40.312 20.9509C40.5121 20.8851 40.6863 20.7579 40.8098 20.5873C40.9333 20.4167 40.9998 20.2115 40.9998 20.0009C40.9998 19.7903 40.9333 19.5851 40.8098 19.4145C40.6863 19.2439 40.5121 19.1167 40.312 19.0509ZM27.9995 33.0009C26.4082 33.0009 24.8821 32.3688 23.7569 31.2435C22.6317 30.1183 21.9995 28.5922 21.9995 27.0009C22.0019 25.7206 22.4088 24.4737 23.162 23.4384L27.687 24.9509C27.89 25.0177 28.1091 25.0177 28.312 24.9509L32.837 23.4384C33.5903 24.4737 33.9971 25.7206 33.9995 27.0009C33.9995 28.5922 33.3674 30.1183 32.2422 31.2435C31.117 32.3688 29.5908 33.0009 27.9995 33.0009Z" fill="white"/>
<defs>
<linearGradient id="paint0_linear_2_9859" x1="-13.1511" y1="3.0439" x2="69.5918" y2="57.1452" gradientUnits="userSpaceOnUse">
<stop stop-color="#5A7EE6"/>
<stop offset="1" stop-color="#B95AE6"/>
</linearGradient>
</defs>
</svg>
