<svg width="56" height="56" viewBox="0 0 56 56" fill="none" xmlns="http://www.w3.org/2000/svg">
<circle cx="28" cy="28" r="28" fill="url(#paint0_linear_2_9868)"/>
<path d="M28 15C25.4288 15 22.9154 15.7624 20.7776 17.1909C18.6398 18.6194 16.9735 20.6497 15.9896 23.0251C15.0056 25.4006 14.7482 28.0144 15.2498 30.5362C15.7514 33.0579 16.9895 35.3743 18.8076 37.1924C20.6257 39.0105 22.9421 40.2486 25.4638 40.7502C27.9856 41.2518 30.5995 40.9944 32.9749 40.0104C35.3503 39.0265 37.3807 37.3603 38.8091 35.2224C40.2376 33.0846 41 30.5712 41 28C40.9934 24.5542 39.6216 21.2515 37.1851 18.8149C34.7486 16.3784 31.4458 15.0066 28 15ZM29.5 34H29V35C29 35.2652 28.8946 35.5196 28.7071 35.7071C28.5196 35.8946 28.2652 36 28 36C27.7348 36 27.4804 35.8946 27.2929 35.7071C27.1054 35.5196 27 35.2652 27 35V34H25C24.7348 34 24.4804 33.8946 24.2929 33.7071C24.1054 33.5196 24 33.2652 24 33C24 32.7348 24.1054 32.4804 24.2929 32.2929C24.4804 32.1054 24.7348 32 25 32H29.5C29.8978 32 30.2794 31.842 30.5607 31.5607C30.842 31.2794 31 30.8978 31 30.5C31 30.1022 30.842 29.7206 30.5607 29.4393C30.2794 29.158 29.8978 29 29.5 29H26.5C25.5717 29 24.6815 28.6313 24.0251 27.9749C23.3688 27.3185 23 26.4283 23 25.5C23 24.5717 23.3688 23.6815 24.0251 23.0251C24.6815 22.3687 25.5717 22 26.5 22H27V21C27 20.7348 27.1054 20.4804 27.2929 20.2929C27.4804 20.1054 27.7348 20 28 20C28.2652 20 28.5196 20.1054 28.7071 20.2929C28.8946 20.4804 29 20.7348 29 21V22H31C31.2652 22 31.5196 22.1054 31.7071 22.2929C31.8946 22.4804 32 22.7348 32 23C32 23.2652 31.8946 23.5196 31.7071 23.7071C31.5196 23.8946 31.2652 24 31 24H26.5C26.1022 24 25.7206 24.158 25.4393 24.4393C25.158 24.7206 25 25.1022 25 25.5C25 25.8978 25.158 26.2794 25.4393 26.5607C25.7206 26.842 26.1022 27 26.5 27H29.5C30.4283 27 31.3185 27.3687 31.9749 28.0251C32.6313 28.6815 33 29.5717 33 30.5C33 31.4283 32.6313 32.3185 31.9749 32.9749C31.3185 33.6313 30.4283 34 29.5 34Z" fill="white"/>
<defs>
<linearGradient id="paint0_linear_2_9868" x1="-8.73778" y1="1.87515" x2="63.4161" y2="53.5675" gradientUnits="userSpaceOnUse">
<stop stop-color="#FFC24A"/>
<stop offset="1" stop-color="#FF814A"/>
</linearGradient>
</defs>
</svg>
