<svg width="60" height="60" viewBox="0 0 60 60" fill="none" xmlns="http://www.w3.org/2000/svg">
<circle cx="30" cy="30.3574" r="29.5" fill="url(#paint0_linear_2_9930)"/>
<path d="M43.5205 20.528H37.3747V19.2988C37.3706 18.3221 36.9808 17.3865 36.2902 16.6958C35.5995 16.0052 34.6639 15.6154 33.6872 15.6113H26.3122C25.3354 15.6154 24.3999 16.0052 23.7092 16.6958C23.0185 17.3865 22.6287 18.3221 22.6247 19.2988V20.528H16.4788C15.8269 20.528 15.2016 20.787 14.7405 21.248C14.2795 21.7091 14.0205 22.3343 14.0205 22.9863V42.653C14.0205 43.305 14.2795 43.9303 14.7405 44.3913C15.2016 44.8523 15.8269 45.1113 16.4788 45.1113H43.5205C44.1725 45.1113 44.7978 44.8523 45.2588 44.3913C45.7198 43.9303 45.9788 43.305 45.9788 42.653V22.9863C45.9788 22.3343 45.7198 21.7091 45.2588 21.248C44.7978 20.787 44.1725 20.528 43.5205 20.528ZM25.083 19.2988C25.083 18.9728 25.2125 18.6602 25.443 18.4297C25.6735 18.1992 25.9862 18.0697 26.3122 18.0697H33.6872C34.0132 18.0697 34.3258 18.1992 34.5563 18.4297C34.7868 18.6602 34.9163 18.9728 34.9163 19.2988V20.528H25.083V19.2988ZM34.3018 34.0488H31.2288V37.1217C31.2288 37.4477 31.0993 37.7604 30.8688 37.9909C30.6383 38.2214 30.3257 38.3509 29.9997 38.3509C29.6737 38.3509 29.361 38.2214 29.1305 37.9909C28.9 37.7604 28.7705 37.4477 28.7705 37.1217V34.0488H25.6976C25.3716 34.0488 25.059 33.9193 24.8284 33.6888C24.5979 33.4583 24.4684 33.1457 24.4684 32.8197C24.4684 32.4937 24.5979 32.181 24.8284 31.9505C25.059 31.72 25.3716 31.5905 25.6976 31.5905H28.7705V28.5176C28.7705 28.1916 28.9 27.8789 29.1305 27.6484C29.361 27.4179 29.6737 27.2884 29.9997 27.2884C30.3257 27.2884 30.6383 27.4179 30.8688 27.6484C31.0993 27.8789 31.2288 28.1916 31.2288 28.5176V31.5905H34.3018C34.6278 31.5905 34.9404 31.72 35.1709 31.9505C35.4014 32.181 35.5309 32.4937 35.5309 32.8197C35.5309 33.1457 35.4014 33.4583 35.1709 33.6888C34.9404 33.9193 34.6278 34.0488 34.3018 34.0488Z" fill="white"/>
<defs>
<linearGradient id="paint0_linear_2_9930" x1="-8.09714" y1="0.857429" x2="73.7537" y2="7.12364" gradientUnits="userSpaceOnUse">
<stop stop-color="#41DBAD"/>
<stop offset="1" stop-color="#34A853"/>
</linearGradient>
</defs>
</svg>
