<svg width="60" height="60" viewBox="0 0 60 60" fill="none" xmlns="http://www.w3.org/2000/svg">
<circle cx="30" cy="29.8574" r="29.5" fill="url(#paint0_linear_2_9921)"/>
<path d="M45.9632 22.4991C45.6143 22.1105 45.1881 21.799 44.7118 21.5847C44.2356 21.3704 43.7198 21.2579 43.1976 21.2546H34.916V18.7962C34.912 17.1675 34.2632 15.6066 33.1115 14.4549C31.9598 13.3033 30.3989 12.6544 28.7702 12.6504C28.5418 12.6522 28.3183 12.7161 28.1234 12.8352C27.9286 12.9543 27.7698 13.1241 27.6639 13.3264L21.8561 24.9421H15.2494C14.5974 24.9421 13.9721 25.2011 13.511 25.6621C13.05 26.1231 12.791 26.7484 12.791 27.4004V40.9212C12.791 41.5732 13.05 42.1985 13.511 42.6595C13.9721 43.1206 14.5974 43.3796 15.2494 43.3796H41.3538C42.2507 43.3758 43.1158 43.0467 43.7884 42.4533C44.4609 41.8598 44.8952 41.0425 45.0106 40.153L46.8543 25.403C46.9157 24.8836 46.8681 24.3571 46.7147 23.8572C46.5612 23.3572 46.3053 22.8947 45.9632 22.4991ZM15.2494 27.4004H21.3952V40.9212H15.2494V27.4004Z" fill="white"/>
<defs>
<linearGradient id="paint0_linear_2_9921" x1="-2.08484" y1="-2.68173" x2="78.3891" y2="17.1917" gradientUnits="userSpaceOnUse">
<stop stop-color="#018085"/>
<stop offset="1" stop-color="#019298"/>
</linearGradient>
</defs>
</svg>
