<svg width="56" height="56" viewBox="0 0 56 56" fill="none" xmlns="http://www.w3.org/2000/svg">
<circle cx="28" cy="28" r="28" fill="url(#paint0_linear_2_9849)"/>
<path fill-rule="evenodd" clip-rule="evenodd" d="M40.65 26H42C42.2652 26 42.5196 26.1054 42.7071 26.2929C42.8946 26.4804 43 26.7348 43 27C43 27.2652 42.8946 27.5196 42.7071 27.7071C42.5196 27.8947 42.2652 28 42 28H41V38C41 38.5304 40.7893 39.0391 40.4142 39.4142C40.0391 39.7893 39.5304 40 39 40H36C35.4696 40 34.9609 39.7893 34.5858 39.4142C34.2107 39.0391 34 38.5304 34 38V36H22V38C22 38.5304 21.7893 39.0391 21.4142 39.4142C21.0391 39.7893 20.5304 40 20 40H17C16.4696 40 15.9609 39.7893 15.5858 39.4142C15.2107 39.0391 15 38.5304 15 38V28H14C13.7348 28 13.4804 27.8947 13.2929 27.7071C13.1054 27.5196 13 27.2652 13 27C13 26.7348 13.1054 26.4804 13.2929 26.2929C13.4804 26.1054 13.7348 26 14 26H15.35L18.825 18.1875C18.9807 17.8335 19.2363 17.5325 19.5604 17.3216C19.8846 17.1107 20.2633 16.9989 20.65 17H35.35C35.7367 16.9989 36.1154 17.1107 36.4396 17.3216C36.7637 17.5325 37.0193 17.8335 37.175 18.1875L40.65 26ZM20 32H22C22.2652 32 22.5196 31.8947 22.7071 31.7071C22.8946 31.5196 23 31.2652 23 31C23 30.7348 22.8946 30.4804 22.7071 30.2929C22.5196 30.1054 22.2652 30 22 30H20C19.7348 30 19.4804 30.1054 19.2929 30.2929C19.1054 30.4804 19 30.7348 19 31C19 31.2652 19.1054 31.5196 19.2929 31.7071C19.4804 31.8947 19.7348 32 20 32ZM33.2929 31.7071C33.4804 31.8947 33.7348 32 34 32H36C36.2652 32 36.5196 31.8947 36.7071 31.7071C36.8946 31.5196 37 31.2652 37 31C37 30.7348 36.8946 30.4804 36.7071 30.2929C36.5196 30.1054 36.2652 30 36 30H34C33.7348 30 33.4804 30.1054 33.2929 30.2929C33.1054 30.4804 33 30.7348 33 31C33 31.2652 33.1054 31.5196 33.2929 31.7071ZM18.9115 24.4846L21.9191 19.4846C22.0999 19.1839 22.4251 19 22.776 19H33.7121C34.0833 19 34.4241 19.2057 34.597 19.5343L37.2286 24.5343C37.579 25.2002 37.0961 26 36.3436 26H19.7685C18.9907 26 18.5106 25.1511 18.9115 24.4846Z" fill="white"/>
<defs>
<linearGradient id="paint0_linear_2_9849" x1="-25.2" y1="-0.748983" x2="83.5117" y2="43.2827" gradientUnits="userSpaceOnUse">
<stop stop-color="#F68F3A"/>
<stop offset="1" stop-color="#F57653"/>
</linearGradient>
</defs>
</svg>
