<svg width="24" height="24" viewBox="0 0 24 24" fill="none" xmlns="http://www.w3.org/2000/svg">
<path d="M12 1.5C9.81273 1.50248 7.71575 2.37247 6.16911 3.91911C4.62247 5.46575 3.75248 7.56273 3.75 9.75C3.75 16.8094 11.25 22.1437 11.5688 22.3687C11.6965 22.4538 11.8465 22.4992 12 22.4992C12.1535 22.4992 12.3035 22.4538 12.4313 22.3687C12.75 22.1437 20.25 16.8094 20.25 9.75C20.2475 7.56273 19.3775 5.46575 17.8309 3.91911C16.2843 2.37247 14.1873 1.50248 12 1.5ZM12 6.75C12.5933 6.75 13.1734 6.92595 13.6667 7.25559C14.1601 7.58524 14.5446 8.05377 14.7716 8.60195C14.9987 9.15013 15.0581 9.75333 14.9424 10.3353C14.8266 10.9172 14.5409 11.4518 14.1213 11.8713C13.7018 12.2909 13.1672 12.5766 12.5853 12.6924C12.0033 12.8081 11.4001 12.7487 10.8519 12.5216C10.3038 12.2946 9.83524 11.9101 9.50559 11.4167C9.17595 10.9234 9 10.3433 9 9.75C9 8.95435 9.31607 8.19129 9.87868 7.62868C10.4413 7.06607 11.2044 6.75 12 6.75Z" fill="white"/>
</svg>
