<svg width="208" height="374" viewBox="0 0 208 374" fill="none" xmlns="http://www.w3.org/2000/svg">
<g opacity="0.1">
<path d="M194.645 86.9803C195.68 88.7742 196.689 90.5857 197.67 92.4142C195.888 91.2487 194.698 89.2552 194.645 86.9803Z" fill="#1A1A1A"/>
<path d="M158.076 40.8722C161.188 43.7928 164.207 46.8116 167.128 49.9237C165.998 52.0109 163.79 53.4286 161.25 53.4286C157.562 53.4286 154.571 50.4385 154.571 46.75C154.571 44.2102 155.989 42.0016 158.076 40.8722Z" fill="#1A1A1A"/>
<path d="M115.586 10.3302C117.414 11.3112 119.226 12.3197 121.02 13.3553C118.745 13.3022 116.751 12.1116 115.586 10.3302Z" fill="#1A1A1A"/>
<path d="M-79.0197 13.3553C-77.2258 12.3197 -75.4143 11.3112 -73.5858 10.3302C-74.7513 12.1116 -76.7448 13.3022 -79.0197 13.3553Z" fill="#1A1A1A"/>
<path d="M-125.128 49.9237C-122.207 46.8116 -119.188 43.7928 -116.076 40.8722C-113.989 42.0016 -112.571 44.2102 -112.571 46.75C-112.571 50.4385 -115.562 53.4286 -119.25 53.4286C-121.79 53.4286 -123.998 52.0109 -125.128 49.9237Z" fill="#1A1A1A"/>
<path d="M-155.67 92.4142C-154.689 90.5857 -153.68 88.7742 -152.645 86.9803C-152.698 89.2552 -153.888 91.2487 -155.67 92.4142Z" fill="#1A1A1A"/>
<path d="M197.67 281.586C196.689 283.414 195.68 285.226 194.645 287.02C194.698 284.745 195.888 282.751 197.67 281.586Z" fill="#1A1A1A"/>
<path d="M167.128 324.076C165.998 321.989 163.79 320.571 161.25 320.571C157.562 320.571 154.571 323.562 154.571 327.25C154.571 329.79 155.989 331.998 158.076 333.128C161.188 330.207 164.207 327.188 167.128 324.076Z" fill="#1A1A1A"/>
<path d="M121.02 360.645C118.745 360.698 116.751 361.888 115.586 363.67C117.414 362.689 119.226 361.68 121.02 360.645Z" fill="#1A1A1A"/>
<path d="M-73.5858 363.67C-74.7513 361.888 -76.7448 360.698 -79.0197 360.645C-77.2258 361.68 -75.4143 362.689 -73.5858 363.67Z" fill="#1A1A1A"/>
<path d="M-116.076 333.128C-113.989 331.998 -112.571 329.79 -112.571 327.25C-112.571 323.562 -115.562 320.571 -119.25 320.571C-121.79 320.571 -123.998 321.989 -125.128 324.076C-122.207 327.188 -119.188 330.207 -116.076 333.128Z" fill="#1A1A1A"/>
<path d="M-152.645 287.02C-152.698 284.745 -153.888 282.751 -155.67 281.586C-154.689 283.414 -153.68 285.226 -152.645 287.02Z" fill="#1A1A1A"/>
<path d="M-32.4286 6.67857C-32.4286 10.367 -35.4187 13.3571 -39.1071 13.3571C-42.7956 13.3571 -45.7857 10.367 -45.7857 6.67857C-45.7857 2.9901 -42.7956 0 -39.1071 0C-35.4187 0 -32.4286 2.9901 -32.4286 6.67857Z" fill="#1A1A1A"/>
<path d="M7.64285 6.67857C7.64285 10.367 4.65276 13.3571 0.964279 13.3571C-2.7242 13.3571 -5.71429 10.367 -5.71429 6.67857C-5.71429 2.9901 -2.7242 0 0.964279 0C4.65276 0 7.64285 2.9901 7.64285 6.67857Z" fill="#1A1A1A"/>
<path d="M47.7143 6.67857C47.7143 10.367 44.7242 13.3571 41.0357 13.3571C37.3472 13.3571 34.3571 10.367 34.3571 6.67857C34.3571 2.9901 37.3472 0 41.0357 0C44.7242 0 47.7143 2.9901 47.7143 6.67857Z" fill="#1A1A1A"/>
<path d="M87.7857 6.67857C87.7857 10.367 84.7956 13.3571 81.1071 13.3571C77.4187 13.3571 74.4286 10.367 74.4286 6.67857C74.4286 2.9901 77.4187 0 81.1071 0C84.7956 0 87.7857 2.9901 87.7857 6.67857Z" fill="#1A1A1A"/>
<path d="M-72.5 46.75C-72.5 50.4385 -75.4901 53.4286 -79.1786 53.4286C-82.8671 53.4286 -85.8571 50.4385 -85.8571 46.75C-85.8571 43.0615 -82.8671 40.0714 -79.1786 40.0714C-75.4901 40.0714 -72.5 43.0615 -72.5 46.75Z" fill="#1A1A1A"/>
<path d="M-32.4286 46.75C-32.4286 50.4385 -35.4187 53.4286 -39.1071 53.4286C-42.7956 53.4286 -45.7857 50.4385 -45.7857 46.75C-45.7857 43.0615 -42.7956 40.0714 -39.1071 40.0714C-35.4187 40.0714 -32.4286 43.0615 -32.4286 46.75Z" fill="#1A1A1A"/>
<path d="M7.64285 46.75C7.64285 50.4385 4.65276 53.4286 0.964279 53.4286C-2.7242 53.4286 -5.71429 50.4385 -5.71429 46.75C-5.71429 43.0615 -2.7242 40.0714 0.964279 40.0714C4.65276 40.0714 7.64285 43.0615 7.64285 46.75Z" fill="#1A1A1A"/>
<path d="M47.7143 46.75C47.7143 50.4385 44.7242 53.4286 41.0357 53.4286C37.3472 53.4286 34.3571 50.4385 34.3571 46.75C34.3571 43.0615 37.3472 40.0714 41.0357 40.0714C44.7242 40.0714 47.7143 43.0615 47.7143 46.75Z" fill="#1A1A1A"/>
<path d="M87.7857 46.75C87.7857 50.4385 84.7956 53.4286 81.1071 53.4286C77.4187 53.4286 74.4286 50.4385 74.4286 46.75C74.4286 43.0615 77.4187 40.0714 81.1071 40.0714C84.7956 40.0714 87.7857 43.0615 87.7857 46.75Z" fill="#1A1A1A"/>
<path d="M127.857 46.75C127.857 50.4385 124.867 53.4286 121.179 53.4286C117.49 53.4286 114.5 50.4385 114.5 46.75C114.5 43.0615 117.49 40.0714 121.179 40.0714C124.867 40.0714 127.857 43.0615 127.857 46.75Z" fill="#1A1A1A"/>
<path d="M-112.571 86.8214C-112.571 90.5099 -115.562 93.5 -119.25 93.5C-122.938 93.5 -125.929 90.5099 -125.929 86.8214C-125.929 83.1329 -122.938 80.1429 -119.25 80.1429C-115.562 80.1429 -112.571 83.1329 -112.571 86.8214Z" fill="#1A1A1A"/>
<path d="M-72.5 86.8214C-72.5 90.5099 -75.4901 93.5 -79.1786 93.5C-82.8671 93.5 -85.8571 90.5099 -85.8571 86.8214C-85.8571 83.1329 -82.8671 80.1429 -79.1786 80.1429C-75.4901 80.1429 -72.5 83.1329 -72.5 86.8214Z" fill="#1A1A1A"/>
<path d="M-32.4286 86.8214C-32.4286 90.5099 -35.4187 93.5 -39.1071 93.5C-42.7956 93.5 -45.7857 90.5099 -45.7857 86.8214C-45.7857 83.1329 -42.7956 80.1429 -39.1071 80.1429C-35.4187 80.1429 -32.4286 83.1329 -32.4286 86.8214Z" fill="#1A1A1A"/>
<path d="M7.64285 86.8214C7.64285 90.5099 4.65276 93.5 0.964279 93.5C-2.7242 93.5 -5.71429 90.5099 -5.71429 86.8214C-5.71429 83.1329 -2.7242 80.1429 0.964279 80.1429C4.65276 80.1429 7.64285 83.1329 7.64285 86.8214Z" fill="#1A1A1A"/>
<path d="M47.7143 86.8214C47.7143 90.5099 44.7242 93.5 41.0357 93.5C37.3472 93.5 34.3571 90.5099 34.3571 86.8214C34.3571 83.1329 37.3472 80.1429 41.0357 80.1429C44.7242 80.1429 47.7143 83.1329 47.7143 86.8214Z" fill="#1A1A1A"/>
<path d="M87.7857 86.8214C87.7857 90.5099 84.7956 93.5 81.1071 93.5C77.4187 93.5 74.4286 90.5099 74.4286 86.8214C74.4286 83.1329 77.4187 80.1429 81.1071 80.1429C84.7956 80.1429 87.7857 83.1329 87.7857 86.8214Z" fill="#1A1A1A"/>
<path d="M127.857 86.8214C127.857 90.5099 124.867 93.5 121.179 93.5C117.49 93.5 114.5 90.5099 114.5 86.8214C114.5 83.1329 117.49 80.1429 121.179 80.1429C124.867 80.1429 127.857 83.1329 127.857 86.8214Z" fill="#1A1A1A"/>
<path d="M167.929 86.8214C167.929 90.5099 164.938 93.5 161.25 93.5C157.562 93.5 154.571 90.5099 154.571 86.8214C154.571 83.1329 157.562 80.1429 161.25 80.1429C164.938 80.1429 167.929 83.1329 167.929 86.8214Z" fill="#1A1A1A"/>
<path d="M-152.643 126.893C-152.643 130.581 -155.633 133.571 -159.321 133.571C-163.01 133.571 -166 130.581 -166 126.893C-166 123.204 -163.01 120.214 -159.321 120.214C-155.633 120.214 -152.643 123.204 -152.643 126.893Z" fill="#1A1A1A"/>
<path d="M-112.571 126.893C-112.571 130.581 -115.562 133.571 -119.25 133.571C-122.938 133.571 -125.929 130.581 -125.929 126.893C-125.929 123.204 -122.938 120.214 -119.25 120.214C-115.562 120.214 -112.571 123.204 -112.571 126.893Z" fill="#1A1A1A"/>
<path d="M-72.5 126.893C-72.5 130.581 -75.4901 133.571 -79.1786 133.571C-82.8671 133.571 -85.8571 130.581 -85.8571 126.893C-85.8571 123.204 -82.8671 120.214 -79.1786 120.214C-75.4901 120.214 -72.5 123.204 -72.5 126.893Z" fill="#1A1A1A"/>
<path d="M-32.4286 126.893C-32.4286 130.581 -35.4187 133.571 -39.1071 133.571C-42.7956 133.571 -45.7857 130.581 -45.7857 126.893C-45.7857 123.204 -42.7956 120.214 -39.1071 120.214C-35.4187 120.214 -32.4286 123.204 -32.4286 126.893Z" fill="#1A1A1A"/>
<path d="M7.64285 126.893C7.64285 130.581 4.65276 133.571 0.964279 133.571C-2.7242 133.571 -5.71429 130.581 -5.71429 126.893C-5.71429 123.204 -2.7242 120.214 0.964279 120.214C4.65276 120.214 7.64285 123.204 7.64285 126.893Z" fill="#1A1A1A"/>
<path d="M47.7143 126.893C47.7143 130.581 44.7242 133.571 41.0357 133.571C37.3472 133.571 34.3571 130.581 34.3571 126.893C34.3571 123.204 37.3472 120.214 41.0357 120.214C44.7242 120.214 47.7143 123.204 47.7143 126.893Z" fill="#1A1A1A"/>
<path d="M87.7857 126.893C87.7857 130.581 84.7956 133.571 81.1071 133.571C77.4187 133.571 74.4286 130.581 74.4286 126.893C74.4286 123.204 77.4187 120.214 81.1071 120.214C84.7956 120.214 87.7857 123.204 87.7857 126.893Z" fill="#1A1A1A"/>
<path d="M127.857 126.893C127.857 130.581 124.867 133.571 121.179 133.571C117.49 133.571 114.5 130.581 114.5 126.893C114.5 123.204 117.49 120.214 121.179 120.214C124.867 120.214 127.857 123.204 127.857 126.893Z" fill="#1A1A1A"/>
<path d="M167.929 126.893C167.929 130.581 164.938 133.571 161.25 133.571C157.562 133.571 154.571 130.581 154.571 126.893C154.571 123.204 157.562 120.214 161.25 120.214C164.938 120.214 167.929 123.204 167.929 126.893Z" fill="#1A1A1A"/>
<path d="M208 126.893C208 130.581 205.01 133.571 201.321 133.571C197.633 133.571 194.643 130.581 194.643 126.893C194.643 123.204 197.633 120.214 201.321 120.214C205.01 120.214 208 123.204 208 126.893Z" fill="#1A1A1A"/>
<path d="M-152.643 166.964C-152.643 170.653 -155.633 173.643 -159.321 173.643C-163.01 173.643 -166 170.653 -166 166.964C-166 163.276 -163.01 160.286 -159.321 160.286C-155.633 160.286 -152.643 163.276 -152.643 166.964Z" fill="#1A1A1A"/>
<path d="M-112.571 166.964C-112.571 170.653 -115.562 173.643 -119.25 173.643C-122.938 173.643 -125.929 170.653 -125.929 166.964C-125.929 163.276 -122.938 160.286 -119.25 160.286C-115.562 160.286 -112.571 163.276 -112.571 166.964Z" fill="#1A1A1A"/>
<path d="M-72.5 166.964C-72.5 170.653 -75.4901 173.643 -79.1786 173.643C-82.8671 173.643 -85.8571 170.653 -85.8571 166.964C-85.8571 163.276 -82.8671 160.286 -79.1786 160.286C-75.4901 160.286 -72.5 163.276 -72.5 166.964Z" fill="#1A1A1A"/>
<path d="M-32.4286 166.964C-32.4286 170.653 -35.4187 173.643 -39.1071 173.643C-42.7956 173.643 -45.7857 170.653 -45.7857 166.964C-45.7857 163.276 -42.7956 160.286 -39.1071 160.286C-35.4187 160.286 -32.4286 163.276 -32.4286 166.964Z" fill="#1A1A1A"/>
<path d="M7.64285 166.964C7.64285 170.653 4.65276 173.643 0.964279 173.643C-2.7242 173.643 -5.71429 170.653 -5.71429 166.964C-5.71429 163.276 -2.7242 160.286 0.964279 160.286C4.65276 160.286 7.64285 163.276 7.64285 166.964Z" fill="#1A1A1A"/>
<path d="M47.7143 166.964C47.7143 170.653 44.7242 173.643 41.0357 173.643C37.3472 173.643 34.3571 170.653 34.3571 166.964C34.3571 163.276 37.3472 160.286 41.0357 160.286C44.7242 160.286 47.7143 163.276 47.7143 166.964Z" fill="#1A1A1A"/>
<path d="M87.7857 166.964C87.7857 170.653 84.7956 173.643 81.1071 173.643C77.4187 173.643 74.4286 170.653 74.4286 166.964C74.4286 163.276 77.4187 160.286 81.1071 160.286C84.7956 160.286 87.7857 163.276 87.7857 166.964Z" fill="#1A1A1A"/>
<path d="M127.857 166.964C127.857 170.653 124.867 173.643 121.179 173.643C117.49 173.643 114.5 170.653 114.5 166.964C114.5 163.276 117.49 160.286 121.179 160.286C124.867 160.286 127.857 163.276 127.857 166.964Z" fill="#1A1A1A"/>
<path d="M167.929 166.964C167.929 170.653 164.938 173.643 161.25 173.643C157.562 173.643 154.571 170.653 154.571 166.964C154.571 163.276 157.562 160.286 161.25 160.286C164.938 160.286 167.929 163.276 167.929 166.964Z" fill="#1A1A1A"/>
<path d="M208 166.964C208 170.653 205.01 173.643 201.321 173.643C197.633 173.643 194.643 170.653 194.643 166.964C194.643 163.276 197.633 160.286 201.321 160.286C205.01 160.286 208 163.276 208 166.964Z" fill="#1A1A1A"/>
<path d="M-152.643 207.036C-152.643 210.724 -155.633 213.714 -159.321 213.714C-163.01 213.714 -166 210.724 -166 207.036C-166 203.347 -163.01 200.357 -159.321 200.357C-155.633 200.357 -152.643 203.347 -152.643 207.036Z" fill="#1A1A1A"/>
<path d="M-112.571 207.036C-112.571 210.724 -115.562 213.714 -119.25 213.714C-122.938 213.714 -125.929 210.724 -125.929 207.036C-125.929 203.347 -122.938 200.357 -119.25 200.357C-115.562 200.357 -112.571 203.347 -112.571 207.036Z" fill="#1A1A1A"/>
<path d="M-72.5 207.036C-72.5 210.724 -75.4901 213.714 -79.1786 213.714C-82.8671 213.714 -85.8571 210.724 -85.8571 207.036C-85.8571 203.347 -82.8671 200.357 -79.1786 200.357C-75.4901 200.357 -72.5 203.347 -72.5 207.036Z" fill="#1A1A1A"/>
<path d="M-32.4286 207.036C-32.4286 210.724 -35.4187 213.714 -39.1071 213.714C-42.7956 213.714 -45.7857 210.724 -45.7857 207.036C-45.7857 203.347 -42.7956 200.357 -39.1071 200.357C-35.4187 200.357 -32.4286 203.347 -32.4286 207.036Z" fill="#1A1A1A"/>
<path d="M7.64285 207.036C7.64285 210.724 4.65276 213.714 0.964279 213.714C-2.7242 213.714 -5.71429 210.724 -5.71429 207.036C-5.71429 203.347 -2.7242 200.357 0.964279 200.357C4.65276 200.357 7.64285 203.347 7.64285 207.036Z" fill="#1A1A1A"/>
<path d="M47.7143 207.036C47.7143 210.724 44.7242 213.714 41.0357 213.714C37.3472 213.714 34.3571 210.724 34.3571 207.036C34.3571 203.347 37.3472 200.357 41.0357 200.357C44.7242 200.357 47.7143 203.347 47.7143 207.036Z" fill="#1A1A1A"/>
<path d="M87.7857 207.036C87.7857 210.724 84.7956 213.714 81.1071 213.714C77.4187 213.714 74.4286 210.724 74.4286 207.036C74.4286 203.347 77.4187 200.357 81.1071 200.357C84.7956 200.357 87.7857 203.347 87.7857 207.036Z" fill="#1A1A1A"/>
<path d="M127.857 207.036C127.857 210.724 124.867 213.714 121.179 213.714C117.49 213.714 114.5 210.724 114.5 207.036C114.5 203.347 117.49 200.357 121.179 200.357C124.867 200.357 127.857 203.347 127.857 207.036Z" fill="#1A1A1A"/>
<path d="M167.929 207.036C167.929 210.724 164.938 213.714 161.25 213.714C157.562 213.714 154.571 210.724 154.571 207.036C154.571 203.347 157.562 200.357 161.25 200.357C164.938 200.357 167.929 203.347 167.929 207.036Z" fill="#1A1A1A"/>
<path d="M208 207.036C208 210.724 205.01 213.714 201.321 213.714C197.633 213.714 194.643 210.724 194.643 207.036C194.643 203.347 197.633 200.357 201.321 200.357C205.01 200.357 208 203.347 208 207.036Z" fill="#1A1A1A"/>
<path d="M-152.643 247.107C-152.643 250.796 -155.633 253.786 -159.321 253.786C-163.01 253.786 -166 250.796 -166 247.107C-166 243.419 -163.01 240.429 -159.321 240.429C-155.633 240.429 -152.643 243.419 -152.643 247.107Z" fill="#1A1A1A"/>
<path d="M-112.571 247.107C-112.571 250.796 -115.562 253.786 -119.25 253.786C-122.938 253.786 -125.929 250.796 -125.929 247.107C-125.929 243.419 -122.938 240.429 -119.25 240.429C-115.562 240.429 -112.571 243.419 -112.571 247.107Z" fill="#1A1A1A"/>
<path d="M-72.5 247.107C-72.5 250.796 -75.4901 253.786 -79.1786 253.786C-82.8671 253.786 -85.8571 250.796 -85.8571 247.107C-85.8571 243.419 -82.8671 240.429 -79.1786 240.429C-75.4901 240.429 -72.5 243.419 -72.5 247.107Z" fill="#1A1A1A"/>
<path d="M-32.4286 247.107C-32.4286 250.796 -35.4187 253.786 -39.1071 253.786C-42.7956 253.786 -45.7857 250.796 -45.7857 247.107C-45.7857 243.419 -42.7956 240.429 -39.1071 240.429C-35.4187 240.429 -32.4286 243.419 -32.4286 247.107Z" fill="#1A1A1A"/>
<path d="M7.64285 247.107C7.64285 250.796 4.65276 253.786 0.964279 253.786C-2.7242 253.786 -5.71429 250.796 -5.71429 247.107C-5.71429 243.419 -2.7242 240.429 0.964279 240.429C4.65276 240.429 7.64285 243.419 7.64285 247.107Z" fill="#1A1A1A"/>
<path d="M47.7143 247.107C47.7143 250.796 44.7242 253.786 41.0357 253.786C37.3472 253.786 34.3571 250.796 34.3571 247.107C34.3571 243.419 37.3472 240.429 41.0357 240.429C44.7242 240.429 47.7143 243.419 47.7143 247.107Z" fill="#1A1A1A"/>
<path d="M87.7857 247.107C87.7857 250.796 84.7956 253.786 81.1071 253.786C77.4187 253.786 74.4286 250.796 74.4286 247.107C74.4286 243.419 77.4187 240.429 81.1071 240.429C84.7956 240.429 87.7857 243.419 87.7857 247.107Z" fill="#1A1A1A"/>
<path d="M127.857 247.107C127.857 250.796 124.867 253.786 121.179 253.786C117.49 253.786 114.5 250.796 114.5 247.107C114.5 243.419 117.49 240.429 121.179 240.429C124.867 240.429 127.857 243.419 127.857 247.107Z" fill="#1A1A1A"/>
<path d="M167.929 247.107C167.929 250.796 164.938 253.786 161.25 253.786C157.562 253.786 154.571 250.796 154.571 247.107C154.571 243.419 157.562 240.429 161.25 240.429C164.938 240.429 167.929 243.419 167.929 247.107Z" fill="#1A1A1A"/>
<path d="M208 247.107C208 250.796 205.01 253.786 201.321 253.786C197.633 253.786 194.643 250.796 194.643 247.107C194.643 243.419 197.633 240.429 201.321 240.429C205.01 240.429 208 243.419 208 247.107Z" fill="#1A1A1A"/>
<path d="M-112.571 287.179C-112.571 290.867 -115.562 293.857 -119.25 293.857C-122.938 293.857 -125.929 290.867 -125.929 287.179C-125.929 283.49 -122.938 280.5 -119.25 280.5C-115.562 280.5 -112.571 283.49 -112.571 287.179Z" fill="#1A1A1A"/>
<path d="M-72.5 287.179C-72.5 290.867 -75.4901 293.857 -79.1786 293.857C-82.8671 293.857 -85.8571 290.867 -85.8571 287.179C-85.8571 283.49 -82.8671 280.5 -79.1786 280.5C-75.4901 280.5 -72.5 283.49 -72.5 287.179Z" fill="#1A1A1A"/>
<path d="M-32.4286 287.179C-32.4286 290.867 -35.4187 293.857 -39.1071 293.857C-42.7956 293.857 -45.7857 290.867 -45.7857 287.179C-45.7857 283.49 -42.7956 280.5 -39.1071 280.5C-35.4187 280.5 -32.4286 283.49 -32.4286 287.179Z" fill="#1A1A1A"/>
<path d="M7.64285 287.179C7.64285 290.867 4.65276 293.857 0.964279 293.857C-2.7242 293.857 -5.71429 290.867 -5.71429 287.179C-5.71429 283.49 -2.7242 280.5 0.964279 280.5C4.65276 280.5 7.64285 283.49 7.64285 287.179Z" fill="#1A1A1A"/>
<path d="M47.7143 287.179C47.7143 290.867 44.7242 293.857 41.0357 293.857C37.3472 293.857 34.3571 290.867 34.3571 287.179C34.3571 283.49 37.3472 280.5 41.0357 280.5C44.7242 280.5 47.7143 283.49 47.7143 287.179Z" fill="#1A1A1A"/>
<path d="M87.7857 287.179C87.7857 290.867 84.7956 293.857 81.1071 293.857C77.4187 293.857 74.4286 290.867 74.4286 287.179C74.4286 283.49 77.4187 280.5 81.1071 280.5C84.7956 280.5 87.7857 283.49 87.7857 287.179Z" fill="#1A1A1A"/>
<path d="M127.857 287.179C127.857 290.867 124.867 293.857 121.179 293.857C117.49 293.857 114.5 290.867 114.5 287.179C114.5 283.49 117.49 280.5 121.179 280.5C124.867 280.5 127.857 283.49 127.857 287.179Z" fill="#1A1A1A"/>
<path d="M167.929 287.179C167.929 290.867 164.938 293.857 161.25 293.857C157.562 293.857 154.571 290.867 154.571 287.179C154.571 283.49 157.562 280.5 161.25 280.5C164.938 280.5 167.929 283.49 167.929 287.179Z" fill="#1A1A1A"/>
<path d="M-72.5 327.25C-72.5 330.938 -75.4901 333.929 -79.1786 333.929C-82.8671 333.929 -85.8571 330.938 -85.8571 327.25C-85.8571 323.562 -82.8671 320.571 -79.1786 320.571C-75.4901 320.571 -72.5 323.562 -72.5 327.25Z" fill="#1A1A1A"/>
<path d="M-32.4286 327.25C-32.4286 330.938 -35.4187 333.929 -39.1071 333.929C-42.7956 333.929 -45.7857 330.938 -45.7857 327.25C-45.7857 323.562 -42.7956 320.571 -39.1071 320.571C-35.4187 320.571 -32.4286 323.562 -32.4286 327.25Z" fill="#1A1A1A"/>
<path d="M7.64285 327.25C7.64285 330.938 4.65276 333.929 0.964279 333.929C-2.7242 333.929 -5.71429 330.938 -5.71429 327.25C-5.71429 323.562 -2.7242 320.571 0.964279 320.571C4.65276 320.571 7.64285 323.562 7.64285 327.25Z" fill="#1A1A1A"/>
<path d="M47.7143 327.25C47.7143 330.938 44.7242 333.929 41.0357 333.929C37.3472 333.929 34.3571 330.938 34.3571 327.25C34.3571 323.562 37.3472 320.571 41.0357 320.571C44.7242 320.571 47.7143 323.562 47.7143 327.25Z" fill="#1A1A1A"/>
<path d="M87.7857 327.25C87.7857 330.938 84.7956 333.929 81.1071 333.929C77.4187 333.929 74.4286 330.938 74.4286 327.25C74.4286 323.562 77.4187 320.571 81.1071 320.571C84.7956 320.571 87.7857 323.562 87.7857 327.25Z" fill="#1A1A1A"/>
<path d="M127.857 327.25C127.857 330.938 124.867 333.929 121.179 333.929C117.49 333.929 114.5 330.938 114.5 327.25C114.5 323.562 117.49 320.571 121.179 320.571C124.867 320.571 127.857 323.562 127.857 327.25Z" fill="#1A1A1A"/>
<path d="M-32.4286 367.321C-32.4286 371.01 -35.4187 374 -39.1071 374C-42.7956 374 -45.7857 371.01 -45.7857 367.321C-45.7857 363.633 -42.7956 360.643 -39.1071 360.643C-35.4187 360.643 -32.4286 363.633 -32.4286 367.321Z" fill="#1A1A1A"/>
<path d="M7.64285 367.321C7.64285 371.01 4.65276 374 0.964279 374C-2.7242 374 -5.71429 371.01 -5.71429 367.321C-5.71429 363.633 -2.7242 360.643 0.964279 360.643C4.65276 360.643 7.64285 363.633 7.64285 367.321Z" fill="#1A1A1A"/>
<path d="M47.7143 367.321C47.7143 371.01 44.7242 374 41.0357 374C37.3472 374 34.3571 371.01 34.3571 367.321C34.3571 363.633 37.3472 360.643 41.0357 360.643C44.7242 360.643 47.7143 363.633 47.7143 367.321Z" fill="#1A1A1A"/>
<path d="M87.7857 367.321C87.7857 371.01 84.7956 374 81.1071 374C77.4187 374 74.4286 371.01 74.4286 367.321C74.4286 363.633 77.4187 360.643 81.1071 360.643C84.7956 360.643 87.7857 363.633 87.7857 367.321Z" fill="#1A1A1A"/>
</g>
</svg>
