<svg width="207" height="374" viewBox="0 0 207 374" fill="none" xmlns="http://www.w3.org/2000/svg">
<g opacity="0.1">
<path d="M288.242 358.791C286.472 359.842 284.684 360.866 282.879 361.862C284.016 360.078 285.983 358.871 288.242 358.791Z" fill="#1A1A1A"/>
<path d="M333.621 321.904C330.757 325.031 327.793 328.067 324.735 331.006C322.648 329.909 321.213 327.731 321.183 325.208C321.138 321.543 324.074 318.536 327.739 318.492C330.263 318.461 332.474 319.844 333.621 321.904Z" fill="#1A1A1A"/>
<path d="M363.462 279.318C362.509 281.147 361.529 282.959 360.521 284.754C360.547 282.493 361.706 280.497 363.462 279.318Z" fill="#1A1A1A"/>
<path d="M94.9071 364.122C93.0785 363.169 91.2664 362.188 89.4715 361.181C91.7326 361.206 93.7278 362.366 94.9071 364.122Z" fill="#1A1A1A"/>
<path d="M52.3212 334.281C54.3816 333.134 55.7639 330.922 55.7336 328.399C55.6895 324.734 52.6827 321.798 49.0176 321.842C46.4939 321.873 44.3163 323.308 43.219 325.395C46.1582 328.453 49.1939 331.416 52.3212 334.281Z" fill="#1A1A1A"/>
<path d="M15.4339 288.902C15.354 286.642 14.1471 284.676 12.3631 283.539C13.3597 285.344 14.3835 287.132 15.4339 288.902Z" fill="#1A1A1A"/>
<path d="M10.1034 95.5668C11.8596 94.3875 13.0188 92.3923 13.0444 90.1312C12.0368 91.9262 11.0563 93.7382 10.1034 95.5668Z" fill="#1A1A1A"/>
<path d="M39.9442 52.9809C41.0913 55.0414 43.3029 56.4237 45.8266 56.3934C49.4916 56.3493 52.4271 53.3424 52.383 49.6774C52.3527 47.1537 50.9176 44.976 48.8301 43.8787C45.7726 46.8179 42.809 49.8536 39.9442 52.9809Z" fill="#1A1A1A"/>
<path d="M85.3231 16.0936C87.5829 16.0137 89.5496 14.8068 90.6864 13.0228C88.8812 14.0194 87.0933 15.0432 85.3231 16.0936Z" fill="#1A1A1A"/>
<path d="M365.323 132.199C361.658 132.243 358.651 129.307 358.607 125.642C358.563 121.977 361.498 118.97 365.163 118.926C368.828 118.882 371.835 121.818 371.879 125.483C371.923 129.148 368.988 132.155 365.323 132.199Z" fill="#1A1A1A"/>
<path d="M365.801 172.016C362.136 172.06 359.129 169.125 359.085 165.46C359.041 161.795 361.977 158.788 365.642 158.744C369.307 158.7 372.314 161.635 372.358 165.3C372.402 168.965 369.466 171.972 365.801 172.016Z" fill="#1A1A1A"/>
<path d="M366.28 211.833C362.615 211.877 359.608 208.942 359.564 205.277C359.52 201.612 362.455 198.605 366.12 198.561C369.785 198.517 372.792 201.452 372.836 205.117C372.88 208.782 369.945 211.789 366.28 211.833Z" fill="#1A1A1A"/>
<path d="M366.759 251.651C363.093 251.695 360.087 248.759 360.043 245.094C359.999 241.429 362.934 238.422 366.599 238.378C370.264 238.334 373.271 241.27 373.315 244.935C373.359 248.6 370.424 251.607 366.759 251.651Z" fill="#1A1A1A"/>
<path d="M325.027 92.8601C321.362 92.9041 318.355 89.9687 318.311 86.3036C318.267 82.6386 321.202 79.6317 324.867 79.5876C328.532 79.5436 331.539 82.479 331.583 86.1441C331.627 89.8092 328.692 92.816 325.027 92.8601Z" fill="#1A1A1A"/>
<path d="M325.505 132.677C321.84 132.721 318.833 129.786 318.789 126.121C318.745 122.456 321.681 119.449 325.346 119.405C329.011 119.361 332.018 122.296 332.062 125.961C332.106 129.626 329.17 132.633 325.505 132.677Z" fill="#1A1A1A"/>
<path d="M325.984 172.495C322.319 172.539 319.312 169.603 319.268 165.938C319.224 162.273 322.159 159.266 325.824 159.222C329.489 159.178 332.496 162.114 332.54 165.779C332.584 169.444 329.649 172.451 325.984 172.495Z" fill="#1A1A1A"/>
<path d="M326.463 212.312C322.797 212.356 319.791 209.421 319.747 205.756C319.703 202.091 322.638 199.084 326.303 199.04C329.968 198.996 332.975 201.931 333.019 205.596C333.063 209.261 330.128 212.268 326.463 212.312Z" fill="#1A1A1A"/>
<path d="M326.941 252.129C323.276 252.173 320.269 249.238 320.225 245.573C320.181 241.908 323.117 238.901 326.782 238.857C330.447 238.813 333.454 241.748 333.498 245.413C333.542 249.078 330.606 252.085 326.941 252.129Z" fill="#1A1A1A"/>
<path d="M327.42 291.947C323.755 291.991 320.748 289.055 320.704 285.39C320.66 281.725 323.595 278.718 327.26 278.674C330.925 278.63 333.932 281.566 333.976 285.231C334.02 288.896 331.085 291.903 327.42 291.947Z" fill="#1A1A1A"/>
<path d="M284.731 53.5214C281.066 53.5655 278.059 50.63 278.015 46.965C277.971 43.2999 280.906 40.293 284.571 40.249C288.236 40.2049 291.243 43.1403 291.287 46.8054C291.331 50.4705 288.396 53.4773 284.731 53.5214Z" fill="#1A1A1A"/>
<path d="M285.209 93.3387C281.544 93.3828 278.537 90.4474 278.493 86.7823C278.449 83.1172 281.385 80.1104 285.05 80.0663C288.715 80.0222 291.722 82.9577 291.766 86.6227C291.81 90.2878 288.874 93.2947 285.209 93.3387Z" fill="#1A1A1A"/>
<path d="M285.688 133.156C282.023 133.2 279.016 130.265 278.972 126.6C278.928 122.935 281.863 119.928 285.528 119.884C289.193 119.84 292.2 122.775 292.244 126.44C292.288 130.105 289.353 133.112 285.688 133.156Z" fill="#1A1A1A"/>
<path d="M286.167 172.973C282.501 173.017 279.495 170.082 279.451 166.417C279.407 162.752 282.342 159.745 286.007 159.701C289.672 159.657 292.679 162.592 292.723 166.257C292.767 169.922 289.832 172.929 286.167 172.973Z" fill="#1A1A1A"/>
<path d="M286.645 212.791C282.98 212.835 279.973 209.899 279.929 206.234C279.885 202.569 282.821 199.562 286.486 199.518C290.151 199.474 293.158 202.41 293.202 206.075C293.246 209.74 290.31 212.747 286.645 212.791Z" fill="#1A1A1A"/>
<path d="M287.124 252.608C283.459 252.652 280.452 249.717 280.408 246.052C280.364 242.386 283.299 239.38 286.964 239.336C290.629 239.292 293.636 242.227 293.68 245.892C293.724 249.557 290.789 252.564 287.124 252.608Z" fill="#1A1A1A"/>
<path d="M287.603 292.425C283.937 292.469 280.931 289.534 280.887 285.869C280.842 282.204 283.778 279.197 287.443 279.153C291.108 279.109 294.115 282.044 294.159 285.709C294.203 289.374 291.268 292.381 287.603 292.425Z" fill="#1A1A1A"/>
<path d="M288.081 332.243C284.416 332.287 281.409 329.351 281.365 325.686C281.321 322.021 284.257 319.014 287.922 318.97C291.587 318.926 294.594 321.862 294.638 325.527C294.682 329.192 291.746 332.199 288.081 332.243Z" fill="#1A1A1A"/>
<path d="M244.435 14.1827C240.77 14.2268 237.763 11.2914 237.719 7.62628C237.675 3.9612 240.61 0.954345 244.275 0.910285C247.94 0.866226 250.947 3.80165 250.991 7.46673C251.035 11.1318 248.1 14.1387 244.435 14.1827Z" fill="#1A1A1A"/>
<path d="M244.913 54.0001C241.248 54.0441 238.241 51.1087 238.197 47.4436C238.153 43.7785 241.089 40.7717 244.754 40.7276C248.419 40.6836 251.426 43.619 251.47 47.2841C251.514 50.9492 248.578 53.956 244.913 54.0001Z" fill="#1A1A1A"/>
<path d="M245.392 93.8174C241.727 93.8615 238.72 90.926 238.676 87.261C238.632 83.5959 241.567 80.589 245.232 80.545C248.897 80.5009 251.904 83.4363 251.948 87.1014C251.992 90.7665 249.057 93.7733 245.392 93.8174Z" fill="#1A1A1A"/>
<path d="M245.871 133.635C242.205 133.679 239.199 130.743 239.155 127.078C239.111 123.413 242.046 120.406 245.711 120.362C249.376 120.318 252.383 123.254 252.427 126.919C252.471 130.584 249.536 133.591 245.871 133.635Z" fill="#1A1A1A"/>
<path d="M246.349 173.452C242.684 173.496 239.677 170.561 239.633 166.896C239.589 163.231 242.525 160.224 246.19 160.18C249.855 160.136 252.862 163.071 252.906 166.736C252.95 170.401 250.014 173.408 246.349 173.452Z" fill="#1A1A1A"/>
<path d="M246.828 213.269C243.163 213.313 240.156 210.378 240.112 206.713C240.068 203.048 243.003 200.041 246.668 199.997C250.333 199.953 253.34 202.888 253.384 206.553C253.428 210.218 250.493 213.225 246.828 213.269Z" fill="#1A1A1A"/>
<path d="M247.307 253.087C243.641 253.131 240.635 250.195 240.591 246.53C240.547 242.865 243.482 239.858 247.147 239.814C250.812 239.77 253.819 242.706 253.863 246.371C253.907 250.036 250.972 253.043 247.307 253.087Z" fill="#1A1A1A"/>
<path d="M247.785 292.904C244.12 292.948 241.113 290.013 241.069 286.348C241.025 282.682 243.961 279.676 247.626 279.632C251.291 279.588 254.298 282.523 254.342 286.188C254.386 289.853 251.45 292.86 247.785 292.904Z" fill="#1A1A1A"/>
<path d="M248.264 332.721C244.599 332.765 241.592 329.83 241.548 326.165C241.504 322.5 244.439 319.493 248.104 319.449C251.769 319.405 254.776 322.34 254.82 326.005C254.864 329.67 251.929 332.677 248.264 332.721Z" fill="#1A1A1A"/>
<path d="M248.743 372.539C245.077 372.583 242.071 369.647 242.027 365.982C241.982 362.317 244.918 359.31 248.583 359.266C252.248 359.222 255.255 362.158 255.299 365.823C255.343 369.488 252.408 372.495 248.743 372.539Z" fill="#1A1A1A"/>
<path d="M204.617 14.6614C200.952 14.7054 197.945 11.77 197.901 8.10494C197.857 4.43986 200.793 1.433 204.458 1.38894C208.123 1.34488 211.13 4.28031 211.174 7.94539C211.218 11.6105 208.282 14.6173 204.617 14.6614Z" fill="#1A1A1A"/>
<path d="M205.096 54.4787C201.431 54.5228 198.424 51.5874 198.38 47.9223C198.336 44.2572 201.271 41.2503 204.936 41.2063C208.601 41.1622 211.608 44.0976 211.652 47.7627C211.696 51.4278 208.761 54.4347 205.096 54.4787Z" fill="#1A1A1A"/>
<path d="M205.575 94.2961C201.91 94.3401 198.903 91.4047 198.859 87.7396C198.815 84.0745 201.75 81.0677 205.415 81.0236C209.08 80.9796 212.087 83.915 212.131 87.5801C212.175 91.2452 209.24 94.252 205.575 94.2961Z" fill="#1A1A1A"/>
<path d="M206.053 134.113C202.388 134.157 199.381 131.222 199.337 127.557C199.293 123.892 202.229 120.885 205.894 120.841C209.559 120.797 212.566 123.732 212.61 127.397C212.654 131.062 209.718 134.069 206.053 134.113Z" fill="#1A1A1A"/>
<path d="M206.532 173.931C202.867 173.975 199.86 171.039 199.816 167.374C199.772 163.709 202.707 160.702 206.372 160.658C210.037 160.614 213.044 163.55 213.088 167.215C213.132 170.88 210.197 173.887 206.532 173.931Z" fill="#1A1A1A"/>
<path d="M207.011 213.748C203.345 213.792 200.339 210.857 200.295 207.192C200.25 203.527 203.186 200.52 206.851 200.476C210.516 200.432 213.523 203.367 213.567 207.032C213.611 210.697 210.676 213.704 207.011 213.748Z" fill="#1A1A1A"/>
<path d="M207.489 253.565C203.824 253.609 200.817 250.674 200.773 247.009C200.729 243.344 203.665 240.337 207.33 240.293C210.995 240.249 214.002 243.184 214.046 246.849C214.09 250.514 211.154 253.521 207.489 253.565Z" fill="#1A1A1A"/>
<path d="M207.968 293.383C204.303 293.427 201.296 290.491 201.252 286.826C201.208 283.161 204.143 280.154 207.808 280.11C211.473 280.066 214.48 283.002 214.524 286.667C214.568 290.332 211.633 293.339 207.968 293.383Z" fill="#1A1A1A"/>
<path d="M208.447 333.2C204.781 333.244 201.775 330.309 201.731 326.644C201.686 322.978 204.622 319.972 208.287 319.928C211.952 319.884 214.959 322.819 215.003 326.484C215.047 330.149 212.112 333.156 208.447 333.2Z" fill="#1A1A1A"/>
<path d="M208.925 373.017C205.26 373.061 202.253 370.126 202.209 366.461C202.165 362.796 205.101 359.789 208.766 359.745C212.431 359.701 215.438 362.636 215.482 366.301C215.526 369.966 212.59 372.973 208.925 373.017Z" fill="#1A1A1A"/>
<path d="M164.8 15.14C161.135 15.1841 158.128 12.2487 158.084 8.5836C158.04 4.91852 160.975 1.91166 164.64 1.8676C168.305 1.82354 171.312 4.75897 171.356 8.42405C171.4 12.0891 168.465 15.096 164.8 15.14Z" fill="#1A1A1A"/>
<path d="M165.279 54.9574C161.613 55.0014 158.607 52.066 158.563 48.4009C158.519 44.7359 161.454 41.729 165.119 41.6849C168.784 41.6409 171.791 44.5763 171.835 48.2414C171.879 51.9065 168.944 54.9133 165.279 54.9574Z" fill="#1A1A1A"/>
<path d="M165.757 94.7747C162.092 94.8188 159.085 91.8834 159.041 88.2183C158.997 84.5532 161.933 81.5463 165.598 81.5023C169.263 81.4582 172.27 84.3936 172.314 88.0587C172.358 91.7238 169.422 94.7307 165.757 94.7747Z" fill="#1A1A1A"/>
<path d="M166.236 134.592C162.571 134.636 159.564 131.701 159.52 128.036C159.476 124.371 162.411 121.364 166.076 121.32C169.741 121.276 172.748 124.211 172.792 127.876C172.836 131.541 169.901 134.548 166.236 134.592Z" fill="#1A1A1A"/>
<path d="M166.715 174.409C163.049 174.453 160.043 171.518 159.999 167.853C159.954 164.188 162.89 161.181 166.555 161.137C170.22 161.093 173.227 164.028 173.271 167.693C173.315 171.358 170.38 174.365 166.715 174.409Z" fill="#1A1A1A"/>
<path d="M167.193 214.227C163.528 214.271 160.521 211.335 160.477 207.67C160.433 204.005 163.369 200.998 167.034 200.954C170.699 200.91 173.706 203.846 173.75 207.511C173.794 211.176 170.858 214.183 167.193 214.227Z" fill="#1A1A1A"/>
<path d="M167.672 254.044C164.007 254.088 161 251.153 160.956 247.488C160.912 243.822 163.847 240.816 167.512 240.772C171.177 240.728 174.184 243.663 174.228 247.328C174.272 250.993 171.337 254 167.672 254.044Z" fill="#1A1A1A"/>
<path d="M168.151 293.861C164.485 293.905 161.479 290.97 161.435 287.305C161.39 283.64 164.326 280.633 167.991 280.589C171.656 280.545 174.663 283.48 174.707 287.145C174.751 290.81 171.816 293.817 168.151 293.861Z" fill="#1A1A1A"/>
<path d="M168.629 333.679C164.964 333.723 161.957 330.787 161.913 327.122C161.869 323.457 164.805 320.45 168.47 320.406C172.135 320.362 175.142 323.298 175.186 326.963C175.23 330.628 172.294 333.635 168.629 333.679Z" fill="#1A1A1A"/>
<path d="M169.108 373.496C165.443 373.54 162.436 370.605 162.392 366.94C162.348 363.274 165.283 360.268 168.948 360.224C172.613 360.18 175.62 363.115 175.664 366.78C175.708 370.445 172.773 373.452 169.108 373.496Z" fill="#1A1A1A"/>
<path d="M124.983 15.6187C121.318 15.6628 118.311 12.7273 118.267 9.06226C118.223 5.39718 121.158 2.39032 124.823 2.34626C128.488 2.3022 131.495 5.23762 131.539 8.90271C131.583 12.5678 128.648 15.5746 124.983 15.6187Z" fill="#1A1A1A"/>
<path d="M125.461 55.436C121.796 55.4801 118.789 52.5447 118.745 48.8796C118.701 45.2145 121.637 42.2077 125.302 42.1636C128.967 42.1195 131.974 45.055 132.018 48.72C132.062 52.3851 129.126 55.392 125.461 55.436Z" fill="#1A1A1A"/>
<path d="M125.94 95.2534C122.275 95.2974 119.268 92.362 119.224 88.6969C119.18 85.0318 122.115 82.025 125.78 81.9809C129.445 81.9369 132.452 84.8723 132.496 88.5374C132.54 92.2025 129.605 95.2093 125.94 95.2534Z" fill="#1A1A1A"/>
<path d="M126.419 135.071C122.753 135.115 119.747 132.179 119.703 128.514C119.658 124.849 122.594 121.842 126.259 121.798C129.924 121.754 132.931 124.69 132.975 128.355C133.019 132.02 130.084 135.027 126.419 135.071Z" fill="#1A1A1A"/>
<path d="M126.897 174.888C123.232 174.932 120.225 171.997 120.181 168.332C120.137 164.667 123.073 161.66 126.738 161.616C130.403 161.572 133.41 164.507 133.454 168.172C133.498 171.837 130.562 174.844 126.897 174.888Z" fill="#1A1A1A"/>
<path d="M127.376 214.705C123.711 214.749 120.704 211.814 120.66 208.149C120.616 204.484 123.551 201.477 127.216 201.433C130.881 201.389 133.888 204.324 133.932 207.989C133.976 211.654 131.041 214.661 127.376 214.705Z" fill="#1A1A1A"/>
<path d="M127.855 254.523C124.189 254.567 121.183 251.631 121.139 247.966C121.094 244.301 124.03 241.294 127.695 241.25C131.36 241.206 134.367 244.142 134.411 247.807C134.455 251.472 131.52 254.479 127.855 254.523Z" fill="#1A1A1A"/>
<path d="M128.333 294.34C124.668 294.384 121.661 291.449 121.617 287.784C121.573 284.118 124.509 281.112 128.174 281.068C131.839 281.023 134.846 283.959 134.89 287.624C134.934 291.289 131.998 294.296 128.333 294.34Z" fill="#1A1A1A"/>
<path d="M128.812 334.157C125.147 334.201 122.14 331.266 122.096 327.601C122.052 323.936 124.987 320.929 128.652 320.885C132.317 320.841 135.324 323.776 135.368 327.441C135.412 331.106 132.477 334.113 128.812 334.157Z" fill="#1A1A1A"/>
<path d="M129.291 373.975C125.625 374.019 122.619 371.083 122.575 367.418C122.53 363.753 125.466 360.746 129.131 360.702C132.796 360.658 135.803 363.594 135.847 367.259C135.891 370.924 132.956 373.931 129.291 373.975Z" fill="#1A1A1A"/>
<path d="M85.6439 55.9147C81.9788 55.9588 78.972 53.0233 78.9279 49.3583C78.8839 45.6932 81.8193 42.6863 85.4844 42.6423C89.1494 42.5982 92.1563 45.5336 92.2003 49.1987C92.2444 52.8638 89.309 55.8706 85.6439 55.9147Z" fill="#1A1A1A"/>
<path d="M86.1226 95.732C82.4575 95.7761 79.4506 92.8407 79.4066 89.1756C79.3625 85.5105 82.2979 82.5037 85.963 82.4596C89.6281 82.4155 92.6349 85.351 92.679 89.016C92.7231 92.6811 89.7876 95.688 86.1226 95.732Z" fill="#1A1A1A"/>
<path d="M86.6012 135.549C82.9361 135.593 79.9293 132.658 79.8852 128.993C79.8412 125.328 82.7766 122.321 86.4417 122.277C90.1067 122.233 93.1136 125.168 93.1577 128.833C93.2017 132.498 90.2663 135.505 86.6012 135.549Z" fill="#1A1A1A"/>
<path d="M87.0799 175.367C83.4148 175.411 80.408 172.475 80.3639 168.81C80.3198 165.145 83.2552 162.138 86.9203 162.094C90.5854 162.05 93.5923 164.986 93.6363 168.651C93.6804 172.316 90.745 175.323 87.0799 175.367Z" fill="#1A1A1A"/>
<path d="M87.5585 215.184C83.8935 215.228 80.8866 212.293 80.8426 208.628C80.7985 204.963 83.7339 201.956 87.399 201.912C91.0641 201.868 94.0709 204.803 94.115 208.468C94.159 212.133 91.2236 215.14 87.5585 215.184Z" fill="#1A1A1A"/>
<path d="M88.0372 255.001C84.3721 255.045 81.3653 252.11 81.3212 248.445C81.2772 244.78 84.2126 241.773 87.8776 241.729C91.5427 241.685 94.5496 244.62 94.5936 248.285C94.6377 251.95 91.7023 254.957 88.0372 255.001Z" fill="#1A1A1A"/>
<path d="M88.5159 294.819C84.8508 294.863 81.8439 291.927 81.7999 288.262C81.7558 284.597 84.6912 281.59 88.3563 281.546C92.0214 281.502 95.0282 284.438 95.0723 288.103C95.1164 291.768 92.1809 294.775 88.5159 294.819Z" fill="#1A1A1A"/>
<path d="M88.9945 334.636C85.3294 334.68 82.3226 331.745 82.2785 328.08C82.2345 324.414 85.1699 321.408 88.835 321.364C92.5 321.319 95.5069 324.255 95.551 327.92C95.595 331.585 92.6596 334.592 88.9945 334.636Z" fill="#1A1A1A"/>
<path d="M46.3052 96.2107C42.6401 96.2548 39.6333 93.3193 39.5892 89.6543C39.5452 85.9892 42.4806 82.9823 46.1457 82.9383C49.8107 82.8942 52.8176 85.8296 52.8617 89.4947C52.9057 93.1598 49.9703 96.1666 46.3052 96.2107Z" fill="#1A1A1A"/>
<path d="M46.7839 136.028C43.1188 136.072 40.112 133.137 40.0679 129.472C40.0238 125.806 42.9592 122.8 46.6243 122.756C50.2894 122.712 53.2963 125.647 53.3403 129.312C53.3844 132.977 50.449 135.984 46.7839 136.028Z" fill="#1A1A1A"/>
<path d="M47.2625 175.845C43.5975 175.889 40.5906 172.954 40.5466 169.289C40.5025 165.624 43.4379 162.617 47.103 162.573C50.7681 162.529 53.7749 165.464 53.819 169.129C53.863 172.794 50.9276 175.801 47.2625 175.845Z" fill="#1A1A1A"/>
<path d="M47.7412 215.663C44.0761 215.707 41.0693 212.771 41.0252 209.106C40.9812 205.441 43.9166 202.434 47.5816 202.39C51.2467 202.346 54.2536 205.282 54.2976 208.947C54.3417 212.612 51.4063 215.619 47.7412 215.663Z" fill="#1A1A1A"/>
<path d="M48.2199 255.48C44.5548 255.524 41.5479 252.589 41.5039 248.924C41.4598 245.258 44.3952 242.252 48.0603 242.208C51.7254 242.163 54.7322 245.099 54.7763 248.764C54.8203 252.429 51.8849 255.436 48.2199 255.48Z" fill="#1A1A1A"/>
<path d="M48.6985 295.297C45.0334 295.341 42.0266 292.406 41.9825 288.741C41.9385 285.076 44.8739 282.069 48.539 282.025C52.204 281.981 55.2109 284.916 55.2549 288.581C55.299 292.246 52.3636 295.253 48.6985 295.297Z" fill="#1A1A1A"/>
<path d="M6.96656 136.507C3.30149 136.551 0.294609 133.615 0.250549 129.95C0.20649 126.285 3.14193 123.278 6.80701 123.234C10.4721 123.19 13.4789 126.126 13.523 129.791C13.5671 133.456 10.6316 136.463 6.96656 136.507Z" fill="#1A1A1A"/>
<path d="M7.44522 176.324C3.78014 176.368 0.773268 173.433 0.729208 169.768C0.685149 166.102 3.62059 163.096 7.28567 163.052C10.9508 163.008 13.9576 165.943 14.0017 169.608C14.0457 173.273 11.1103 176.28 7.44522 176.324Z" fill="#1A1A1A"/>
<path d="M7.92388 216.141C4.2588 216.185 1.25193 213.25 1.20787 209.585C1.16381 205.92 4.09925 202.913 7.76433 202.869C11.4294 202.825 14.4363 205.76 14.4803 209.425C14.5244 213.09 11.589 216.097 7.92388 216.141Z" fill="#1A1A1A"/>
<path d="M8.40254 255.959C4.73746 256.003 1.73059 253.067 1.68653 249.402C1.64247 245.737 4.57791 242.73 8.24299 242.686C11.9081 242.642 14.9149 245.578 14.959 249.243C15.003 252.908 12.0676 255.915 8.40254 255.959Z" fill="#1A1A1A"/>
<path d="M284.262 14.5564C280.597 14.6005 277.59 11.6651 277.546 7.99998C277.502 4.3349 280.438 1.32804 284.103 1.28398C287.768 1.23993 290.775 4.17535 290.819 7.84043C290.863 11.5055 287.927 14.5124 284.262 14.5564Z" fill="#1A1A1A"/>
</g>
</svg>
