<svg width="24" height="24" viewBox="0 0 24 24" fill="none" xmlns="http://www.w3.org/2000/svg">
<path d="M21.3473 4.52798L16.4348 21.9561C16.3528 22.2512 16.182 22.5139 15.9455 22.7085C15.709 22.9031 15.4183 23.0201 15.1129 23.0436H14.9816C14.6991 23.043 14.4225 22.9626 14.1837 22.8116C13.9448 22.6607 13.7535 22.4454 13.6316 22.1905L10.2848 15.1217C10.2519 15.0508 10.2415 14.9714 10.2549 14.8944C10.2683 14.8173 10.3049 14.7462 10.3598 14.6905L15.1691 9.8811C15.2444 9.81288 15.3051 9.73008 15.3474 9.63771C15.3897 9.54535 15.4128 9.44534 15.4153 9.34378C15.4178 9.24221 15.3997 9.14119 15.3619 9.04685C15.3242 8.95252 15.2677 8.86683 15.1959 8.79499C15.124 8.72314 15.0384 8.66665 14.944 8.62893C14.8497 8.5912 14.7487 8.57304 14.6471 8.57554C14.5455 8.57804 14.4455 8.60115 14.3532 8.64347C14.2608 8.68579 14.178 8.74644 14.1098 8.82173L9.3004 13.6405C9.24468 13.6954 9.17355 13.732 9.09649 13.7454C9.01943 13.7588 8.94012 13.7483 8.86915 13.7155L1.8379 10.3874C1.5627 10.2574 1.33166 10.0495 1.17336 9.78961C1.01506 9.52966 0.936455 9.22901 0.947273 8.92485C0.963867 8.61169 1.07881 8.31173 1.27574 8.06767C1.47267 7.82361 1.74156 7.64788 2.04415 7.56548L19.5098 2.6436C19.8153 2.55636 20.1405 2.56836 20.4388 2.67788C20.737 2.7874 20.9927 2.98877 21.1691 3.25298C21.2875 3.44073 21.3646 3.6515 21.3953 3.87132C21.426 4.09114 21.4097 4.31497 21.3473 4.52798Z" fill="white"/>
</svg>
