<svg width="24" height="25" viewBox="0 0 24 25" fill="none" xmlns="http://www.w3.org/2000/svg">
<path fill-rule="evenodd" clip-rule="evenodd" d="M14.0303 5.21967C13.7374 4.92678 13.2626 4.92678 12.9697 5.21967C12.6768 5.51256 12.6768 5.98744 12.9697 6.28033L18.4393 11.75H3.75C3.33579 11.75 3 12.0858 3 12.5C3 12.9142 3.33579 13.25 3.75 13.25H18.4393L12.9697 18.7197C12.6768 19.0126 12.6768 19.4874 12.9697 19.7803C13.2626 20.0732 13.7374 20.0732 14.0303 19.7803L20.7803 13.0303C20.9268 12.8839 21 12.6919 21 12.5C21 12.3983 20.9798 12.3013 20.9431 12.2129C20.9065 12.1245 20.8522 12.0416 20.7803 11.9697L14.0303 5.21967Z" fill="#F26440"/>
</svg>
