<svg width="32" height="32" viewBox="0 0 32 32" fill="none" xmlns="http://www.w3.org/2000/svg">
<g opacity="0.4">
<path fill-rule="evenodd" clip-rule="evenodd" d="M13.2929 25.7071C13.6834 26.0976 14.3166 26.0976 14.7071 25.7071C15.0976 25.3166 15.0976 24.6834 14.7071 24.2929L7.41421 17H27C27.5523 17 28 16.5523 28 16C28 15.4477 27.5523 15 27 15L7.41421 15L14.7071 7.70711C15.0976 7.31658 15.0976 6.68342 14.7071 6.29289C14.3166 5.90237 13.6834 5.90237 13.2929 6.29289L4.29289 15.2929C4.10983 15.476 4.01258 15.7123 4.00114 15.952C4.00038 15.968 4 15.984 4 16M4.00004 16.0092C4.00236 16.2621 4.09998 16.5142 4.29289 16.7071L13.2929 25.7071" fill="#0F3141"/>
</g>
</svg>
