<svg width="395" height="156" viewBox="0 0 395 156" fill="none" xmlns="http://www.w3.org/2000/svg">
<path d="M10.2128 0L7.31915 16.2297H11.4043V32H0V16.2297L4.25532 0H10.2128ZM30.8085 0L27.9149 16.2297H32V32H20.5957V16.2297L24.8511 0H30.8085Z" fill="#F26440"/>
<path d="M11.928 70.808H5.256L4.152 74H0.624L6.648 57.224H10.56L16.584 74H13.032L11.928 70.808ZM11.016 68.12L8.592 61.112L6.168 68.12H11.016ZM23.2037 74.216C22.1157 74.216 21.1397 74.024 20.2757 73.64C19.4117 73.24 18.7237 72.704 18.2117 72.032C17.7157 71.36 17.4437 70.616 17.3957 69.8H20.7797C20.8437 70.312 21.0917 70.736 21.5237 71.072C21.9717 71.408 22.5237 71.576 23.1797 71.576C23.8197 71.576 24.3157 71.448 24.6677 71.192C25.0357 70.936 25.2197 70.608 25.2197 70.208C25.2197 69.776 24.9957 69.456 24.5477 69.248C24.1157 69.024 23.4197 68.784 22.4597 68.528C21.4677 68.288 20.6517 68.04 20.0117 67.784C19.3877 67.528 18.8437 67.136 18.3797 66.608C17.9317 66.08 17.7077 65.368 17.7077 64.472C17.7077 63.736 17.9157 63.064 18.3317 62.456C18.7637 61.848 19.3717 61.368 20.1557 61.016C20.9557 60.664 21.8917 60.488 22.9637 60.488C24.5477 60.488 25.8117 60.888 26.7557 61.688C27.6997 62.472 28.2197 63.536 28.3157 64.88H25.0997C25.0517 64.352 24.8277 63.936 24.4277 63.632C24.0437 63.312 23.5237 63.152 22.8677 63.152C22.2597 63.152 21.7877 63.264 21.4517 63.488C21.1317 63.712 20.9717 64.024 20.9717 64.424C20.9717 64.872 21.1957 65.216 21.6437 65.456C22.0917 65.68 22.7877 65.912 23.7317 66.152C24.6917 66.392 25.4837 66.64 26.1077 66.896C26.7317 67.152 27.2677 67.552 27.7157 68.096C28.1797 68.624 28.4197 69.328 28.4357 70.208C28.4357 70.976 28.2197 71.664 27.7877 72.272C27.3717 72.88 26.7637 73.36 25.9637 73.712C25.1797 74.048 24.2597 74.216 23.2037 74.216ZM47.8326 67.064C47.8326 67.544 47.8006 67.976 47.7366 68.36H38.0166C38.0966 69.32 38.4326 70.072 39.0246 70.616C39.6166 71.16 40.3446 71.432 41.2086 71.432C42.4566 71.432 43.3446 70.896 43.8726 69.824H47.4966C47.1126 71.104 46.3766 72.16 45.2886 72.992C44.2006 73.808 42.8646 74.216 41.2806 74.216C40.0006 74.216 38.8486 73.936 37.8246 73.376C36.8166 72.8 36.0246 71.992 35.4486 70.952C34.8886 69.912 34.6086 68.712 34.6086 67.352C34.6086 65.976 34.8886 64.768 35.4486 63.728C36.0086 62.688 36.7926 61.888 37.8006 61.328C38.8086 60.768 39.9686 60.488 41.2806 60.488C42.5446 60.488 43.6726 60.76 44.6646 61.304C45.6726 61.848 46.4486 62.624 46.9926 63.632C47.5526 64.624 47.8326 65.768 47.8326 67.064ZM44.3526 66.104C44.3366 65.24 44.0246 64.552 43.4166 64.04C42.8086 63.512 42.0646 63.248 41.1846 63.248C40.3526 63.248 39.6486 63.504 39.0726 64.016C38.5126 64.512 38.1686 65.208 38.0406 66.104H44.3526ZM56.9091 74L54.1731 69.872L51.7491 74H48.1491L52.4931 67.328L48.1011 60.704H51.8931L54.6051 64.808L57.0531 60.704H60.6531L56.2851 67.328L60.7011 74H56.9091ZM65.166 62.624C65.598 62.016 66.19 61.512 66.942 61.112C67.71 60.696 68.582 60.488 69.558 60.488C70.694 60.488 71.718 60.768 72.63 61.328C73.558 61.888 74.286 62.688 74.814 63.728C75.358 64.752 75.63 65.944 75.63 67.304C75.63 68.664 75.358 69.872 74.814 70.928C74.286 71.968 73.558 72.776 72.63 73.352C71.718 73.928 70.694 74.216 69.558 74.216C68.582 74.216 67.718 74.016 66.966 73.616C66.23 73.216 65.63 72.712 65.166 72.104V80.336H61.806V60.704H65.166V62.624ZM72.198 67.304C72.198 66.504 72.03 65.816 71.694 65.24C71.374 64.648 70.942 64.2 70.398 63.896C69.87 63.592 69.294 63.44 68.67 63.44C68.062 63.44 67.486 63.6 66.942 63.92C66.414 64.224 65.982 64.672 65.646 65.264C65.326 65.856 65.166 66.552 65.166 67.352C65.166 68.152 65.326 68.848 65.646 69.44C65.982 70.032 66.414 70.488 66.942 70.808C67.486 71.112 68.062 71.264 68.67 71.264C69.294 71.264 69.87 71.104 70.398 70.784C70.942 70.464 71.374 70.008 71.694 69.416C72.03 68.824 72.198 68.12 72.198 67.304ZM89.7116 67.064C89.7116 67.544 89.6796 67.976 89.6156 68.36H79.8956C79.9756 69.32 80.3116 70.072 80.9036 70.616C81.4956 71.16 82.2236 71.432 83.0876 71.432C84.3356 71.432 85.2236 70.896 85.7516 69.824H89.3756C88.9916 71.104 88.2556 72.16 87.1676 72.992C86.0796 73.808 84.7436 74.216 83.1596 74.216C81.8796 74.216 80.7276 73.936 79.7036 73.376C78.6956 72.8 77.9036 71.992 77.3276 70.952C76.7676 69.912 76.4876 68.712 76.4876 67.352C76.4876 65.976 76.7676 64.768 77.3276 63.728C77.8876 62.688 78.6716 61.888 79.6796 61.328C80.6876 60.768 81.8476 60.488 83.1596 60.488C84.4236 60.488 85.5516 60.76 86.5436 61.304C87.5516 61.848 88.3276 62.624 88.8716 63.632C89.4316 64.624 89.7116 65.768 89.7116 67.064ZM86.2316 66.104C86.2156 65.24 85.9036 64.552 85.2956 64.04C84.6876 63.512 83.9436 63.248 83.0636 63.248C82.2316 63.248 81.5276 63.504 80.9516 64.016C80.3916 64.512 80.0476 65.208 79.9196 66.104H86.2316ZM90.5801 67.352C90.5801 65.976 90.8601 64.776 91.4201 63.752C91.9801 62.712 92.7561 61.912 93.7481 61.352C94.7401 60.776 95.8761 60.488 97.1561 60.488C98.8041 60.488 100.164 60.904 101.236 61.736C102.324 62.552 103.052 63.704 103.42 65.192H99.7961C99.6041 64.616 99.2761 64.168 98.8121 63.848C98.3641 63.512 97.8041 63.344 97.1321 63.344C96.1721 63.344 95.4121 63.696 94.8521 64.4C94.2921 65.088 94.0121 66.072 94.0121 67.352C94.0121 68.616 94.2921 69.6 94.8521 70.304C95.4121 70.992 96.1721 71.336 97.1321 71.336C98.4921 71.336 99.3801 70.728 99.7961 69.512H103.42C103.052 70.952 102.324 72.096 101.236 72.944C100.148 73.792 98.7881 74.216 97.1561 74.216C95.8761 74.216 94.7401 73.936 93.7481 73.376C92.7561 72.8 91.9801 72 91.4201 70.976C90.8601 69.936 90.5801 68.728 90.5801 67.352ZM109.074 63.464V69.896C109.074 70.344 109.178 70.672 109.386 70.88C109.61 71.072 109.978 71.168 110.49 71.168H112.05V74H109.938C107.106 74 105.69 72.624 105.69 69.872V63.464H104.106V60.704H105.69V57.416H109.074V60.704H112.05V63.464H109.074ZM126.106 67.064C126.106 67.544 126.074 67.976 126.01 68.36H116.29C116.37 69.32 116.706 70.072 117.298 70.616C117.89 71.16 118.618 71.432 119.482 71.432C120.73 71.432 121.618 70.896 122.146 69.824H125.77C125.386 71.104 124.65 72.16 123.562 72.992C122.474 73.808 121.138 74.216 119.554 74.216C118.274 74.216 117.122 73.936 116.098 73.376C115.09 72.8 114.298 71.992 113.722 70.952C113.162 69.912 112.882 68.712 112.882 67.352C112.882 65.976 113.162 64.768 113.722 63.728C114.282 62.688 115.066 61.888 116.074 61.328C117.082 60.768 118.242 60.488 119.554 60.488C120.818 60.488 121.946 60.76 122.938 61.304C123.946 61.848 124.722 62.624 125.266 63.632C125.826 64.624 126.106 65.768 126.106 67.064ZM122.626 66.104C122.61 65.24 122.298 64.552 121.69 64.04C121.082 63.512 120.338 63.248 119.458 63.248C118.626 63.248 117.922 63.504 117.346 64.016C116.786 64.512 116.442 65.208 116.314 66.104H122.626ZM126.975 67.304C126.975 65.96 127.239 64.768 127.767 63.728C128.311 62.688 129.047 61.888 129.975 61.328C130.903 60.768 131.935 60.488 133.071 60.488C133.935 60.488 134.759 60.68 135.543 61.064C136.327 61.432 136.951 61.928 137.415 62.552V56.24H140.823V74H137.415V72.032C136.999 72.688 136.415 73.216 135.663 73.616C134.911 74.016 134.039 74.216 133.047 74.216C131.927 74.216 130.903 73.928 129.975 73.352C129.047 72.776 128.311 71.968 127.767 70.928C127.239 69.872 126.975 68.664 126.975 67.304ZM137.439 67.352C137.439 66.536 137.279 65.84 136.959 65.264C136.639 64.672 136.207 64.224 135.663 63.92C135.119 63.6 134.535 63.44 133.911 63.44C133.287 63.44 132.711 63.592 132.183 63.896C131.655 64.2 131.223 64.648 130.887 65.24C130.567 65.816 130.407 66.504 130.407 67.304C130.407 68.104 130.567 68.808 130.887 69.416C131.223 70.008 131.655 70.464 132.183 70.784C132.727 71.104 133.303 71.264 133.911 71.264C134.535 71.264 135.119 71.112 135.663 70.808C136.207 70.488 136.639 70.04 136.959 69.464C137.279 68.872 137.439 68.168 137.439 67.352ZM147.056 70.472L144.248 77.216H142.088L143.648 70.472H147.056ZM152.965 59.6V56.504H158.749V74H155.293V59.6H152.965ZM161.348 65.024C161.348 62.256 161.844 60.088 162.836 58.52C163.844 56.952 165.508 56.168 167.828 56.168C170.148 56.168 171.804 56.952 172.796 58.52C173.804 60.088 174.308 62.256 174.308 65.024C174.308 67.808 173.804 69.992 172.796 71.576C171.804 73.16 170.148 73.952 167.828 73.952C165.508 73.952 163.844 73.16 162.836 71.576C161.844 69.992 161.348 67.808 161.348 65.024ZM170.996 65.024C170.996 63.84 170.916 62.848 170.756 62.048C170.612 61.232 170.308 60.568 169.844 60.056C169.396 59.544 168.724 59.288 167.828 59.288C166.932 59.288 166.252 59.544 165.788 60.056C165.34 60.568 165.036 61.232 164.876 62.048C164.732 62.848 164.66 63.84 164.66 65.024C164.66 66.24 164.732 67.264 164.876 68.096C165.02 68.912 165.324 69.576 165.788 70.088C166.252 70.584 166.932 70.832 167.828 70.832C168.724 70.832 169.404 70.584 169.868 70.088C170.332 69.576 170.636 68.912 170.78 68.096C170.924 67.264 170.996 66.24 170.996 65.024ZM194.247 60.704L186.015 80.288H182.439L185.319 73.664L179.991 60.704H183.759L187.191 69.992L190.671 60.704H194.247ZM207.698 67.064C207.698 67.544 207.666 67.976 207.602 68.36H197.882C197.962 69.32 198.298 70.072 198.89 70.616C199.482 71.16 200.21 71.432 201.074 71.432C202.322 71.432 203.21 70.896 203.738 69.824H207.362C206.978 71.104 206.242 72.16 205.154 72.992C204.066 73.808 202.73 74.216 201.146 74.216C199.866 74.216 198.714 73.936 197.69 73.376C196.682 72.8 195.89 71.992 195.314 70.952C194.754 69.912 194.474 68.712 194.474 67.352C194.474 65.976 194.754 64.768 195.314 63.728C195.874 62.688 196.658 61.888 197.666 61.328C198.674 60.768 199.834 60.488 201.146 60.488C202.41 60.488 203.538 60.76 204.53 61.304C205.538 61.848 206.314 62.624 206.858 63.632C207.418 64.624 207.698 65.768 207.698 67.064ZM204.218 66.104C204.202 65.24 203.89 64.552 203.282 64.04C202.674 63.512 201.93 63.248 201.05 63.248C200.218 63.248 199.514 63.504 198.938 64.016C198.378 64.512 198.034 65.208 197.906 66.104H204.218ZM208.566 67.304C208.566 65.96 208.83 64.768 209.358 63.728C209.902 62.688 210.63 61.888 211.542 61.328C212.47 60.768 213.502 60.488 214.638 60.488C215.63 60.488 216.494 60.688 217.23 61.088C217.982 61.488 218.582 61.992 219.03 62.6V60.704H222.414V74H219.03V72.056C218.598 72.68 217.998 73.2 217.23 73.616C216.478 74.016 215.606 74.216 214.614 74.216C213.494 74.216 212.47 73.928 211.542 73.352C210.63 72.776 209.902 71.968 209.358 70.928C208.83 69.872 208.566 68.664 208.566 67.304ZM219.03 67.352C219.03 66.536 218.87 65.84 218.55 65.264C218.23 64.672 217.798 64.224 217.254 63.92C216.71 63.6 216.126 63.44 215.502 63.44C214.878 63.44 214.302 63.592 213.774 63.896C213.246 64.2 212.814 64.648 212.478 65.24C212.158 65.816 211.998 66.504 211.998 67.304C211.998 68.104 212.158 68.808 212.478 69.416C212.814 70.008 213.246 70.464 213.774 70.784C214.318 71.104 214.894 71.264 215.502 71.264C216.126 71.264 216.71 71.112 217.254 70.808C217.798 70.488 218.23 70.04 218.55 69.464C218.87 68.872 219.03 68.168 219.03 67.352ZM228.336 62.768C228.768 62.064 229.328 61.512 230.016 61.112C230.72 60.712 231.52 60.512 232.416 60.512V64.04H231.528C230.472 64.04 229.672 64.288 229.128 64.784C228.6 65.28 228.336 66.144 228.336 67.376V74H224.976V60.704H228.336V62.768ZM239.047 74.216C237.959 74.216 236.983 74.024 236.119 73.64C235.255 73.24 234.567 72.704 234.055 72.032C233.559 71.36 233.287 70.616 233.239 69.8H236.623C236.687 70.312 236.935 70.736 237.367 71.072C237.815 71.408 238.367 71.576 239.023 71.576C239.663 71.576 240.159 71.448 240.511 71.192C240.879 70.936 241.063 70.608 241.063 70.208C241.063 69.776 240.839 69.456 240.391 69.248C239.959 69.024 239.263 68.784 238.303 68.528C237.311 68.288 236.495 68.04 235.855 67.784C235.231 67.528 234.687 67.136 234.223 66.608C233.775 66.08 233.551 65.368 233.551 64.472C233.551 63.736 233.759 63.064 234.175 62.456C234.607 61.848 235.215 61.368 235.999 61.016C236.799 60.664 237.735 60.488 238.807 60.488C240.391 60.488 241.655 60.888 242.599 61.688C243.543 62.472 244.063 63.536 244.159 64.88H240.943C240.895 64.352 240.671 63.936 240.271 63.632C239.887 63.312 239.367 63.152 238.711 63.152C238.103 63.152 237.631 63.264 237.295 63.488C236.975 63.712 236.815 64.024 236.815 64.424C236.815 64.872 237.039 65.216 237.487 65.456C237.935 65.68 238.631 65.912 239.575 66.152C240.535 66.392 241.327 66.64 241.951 66.896C242.575 67.152 243.111 67.552 243.559 68.096C244.023 68.624 244.263 69.328 244.279 70.208C244.279 70.976 244.063 71.664 243.631 72.272C243.215 72.88 242.607 73.36 241.807 73.712C241.023 74.048 240.103 74.216 239.047 74.216ZM263.676 67.064C263.676 67.544 263.644 67.976 263.58 68.36H253.86C253.94 69.32 254.276 70.072 254.868 70.616C255.46 71.16 256.188 71.432 257.052 71.432C258.3 71.432 259.188 70.896 259.716 69.824H263.34C262.956 71.104 262.22 72.16 261.132 72.992C260.044 73.808 258.708 74.216 257.124 74.216C255.844 74.216 254.692 73.936 253.668 73.376C252.66 72.8 251.868 71.992 251.292 70.952C250.732 69.912 250.452 68.712 250.452 67.352C250.452 65.976 250.732 64.768 251.292 63.728C251.852 62.688 252.636 61.888 253.644 61.328C254.652 60.768 255.812 60.488 257.124 60.488C258.388 60.488 259.516 60.76 260.508 61.304C261.516 61.848 262.292 62.624 262.836 63.632C263.396 64.624 263.676 65.768 263.676 67.064ZM260.196 66.104C260.18 65.24 259.868 64.552 259.26 64.04C258.652 63.512 257.908 63.248 257.028 63.248C256.196 63.248 255.492 63.504 254.916 64.016C254.356 64.512 254.012 65.208 253.884 66.104H260.196ZM272.753 74L270.017 69.872L267.593 74H263.993L268.337 67.328L263.945 60.704H267.737L270.449 64.808L272.897 60.704H276.497L272.129 67.328L276.545 74H272.753ZM281.009 62.624C281.441 62.016 282.033 61.512 282.785 61.112C283.553 60.696 284.425 60.488 285.401 60.488C286.537 60.488 287.561 60.768 288.473 61.328C289.401 61.888 290.129 62.688 290.657 63.728C291.201 64.752 291.473 65.944 291.473 67.304C291.473 68.664 291.201 69.872 290.657 70.928C290.129 71.968 289.401 72.776 288.473 73.352C287.561 73.928 286.537 74.216 285.401 74.216C284.425 74.216 283.561 74.016 282.809 73.616C282.073 73.216 281.473 72.712 281.009 72.104V80.336H277.649V60.704H281.009V62.624ZM288.041 67.304C288.041 66.504 287.873 65.816 287.537 65.24C287.217 64.648 286.785 64.2 286.241 63.896C285.713 63.592 285.137 63.44 284.513 63.44C283.905 63.44 283.329 63.6 282.785 63.92C282.257 64.224 281.825 64.672 281.489 65.264C281.169 65.856 281.009 66.552 281.009 67.352C281.009 68.152 281.169 68.848 281.489 69.44C281.825 70.032 282.257 70.488 282.785 70.808C283.329 71.112 283.905 71.264 284.513 71.264C285.137 71.264 285.713 71.104 286.241 70.784C286.785 70.464 287.217 70.008 287.537 69.416C287.873 68.824 288.041 68.12 288.041 67.304ZM305.555 67.064C305.555 67.544 305.523 67.976 305.459 68.36H295.739C295.819 69.32 296.155 70.072 296.747 70.616C297.339 71.16 298.067 71.432 298.931 71.432C300.179 71.432 301.067 70.896 301.595 69.824H305.219C304.835 71.104 304.099 72.16 303.011 72.992C301.923 73.808 300.587 74.216 299.003 74.216C297.723 74.216 296.571 73.936 295.547 73.376C294.539 72.8 293.747 71.992 293.171 70.952C292.611 69.912 292.331 68.712 292.331 67.352C292.331 65.976 292.611 64.768 293.171 63.728C293.731 62.688 294.515 61.888 295.523 61.328C296.531 60.768 297.691 60.488 299.003 60.488C300.267 60.488 301.395 60.76 302.387 61.304C303.395 61.848 304.171 62.624 304.715 63.632C305.275 64.624 305.555 65.768 305.555 67.064ZM302.075 66.104C302.059 65.24 301.747 64.552 301.139 64.04C300.531 63.512 299.787 63.248 298.907 63.248C298.075 63.248 297.371 63.504 296.795 64.016C296.235 64.512 295.891 65.208 295.763 66.104H302.075ZM310.648 62.768C311.08 62.064 311.64 61.512 312.328 61.112C313.032 60.712 313.832 60.512 314.728 60.512V64.04H313.84C312.784 64.04 311.984 64.288 311.44 64.784C310.912 65.28 310.648 66.144 310.648 67.376V74H307.288V60.704H310.648V62.768ZM317.975 59.12C317.383 59.12 316.887 58.936 316.487 58.568C316.103 58.184 315.911 57.712 315.911 57.152C315.911 56.592 316.103 56.128 316.487 55.76C316.887 55.376 317.383 55.184 317.975 55.184C318.567 55.184 319.055 55.376 319.439 55.76C319.839 56.128 320.039 56.592 320.039 57.152C320.039 57.712 319.839 58.184 319.439 58.568C319.055 58.936 318.567 59.12 317.975 59.12ZM319.631 60.704V74H316.271V60.704H319.631ZM334.59 67.064C334.59 67.544 334.558 67.976 334.494 68.36H324.774C324.854 69.32 325.19 70.072 325.782 70.616C326.374 71.16 327.102 71.432 327.966 71.432C329.214 71.432 330.102 70.896 330.63 69.824H334.254C333.87 71.104 333.134 72.16 332.046 72.992C330.958 73.808 329.622 74.216 328.038 74.216C326.758 74.216 325.606 73.936 324.582 73.376C323.574 72.8 322.782 71.992 322.206 70.952C321.646 69.912 321.366 68.712 321.366 67.352C321.366 65.976 321.646 64.768 322.206 63.728C322.766 62.688 323.55 61.888 324.558 61.328C325.566 60.768 326.726 60.488 328.038 60.488C329.302 60.488 330.43 60.76 331.422 61.304C332.43 61.848 333.206 62.624 333.75 63.632C334.31 64.624 334.59 65.768 334.59 67.064ZM331.11 66.104C331.094 65.24 330.782 64.552 330.174 64.04C329.566 63.512 328.822 63.248 327.942 63.248C327.11 63.248 326.406 63.504 325.83 64.016C325.27 64.512 324.926 65.208 324.798 66.104H331.11ZM343.691 60.512C345.275 60.512 346.555 61.016 347.531 62.024C348.507 63.016 348.995 64.408 348.995 66.2V74H345.635V66.656C345.635 65.6 345.371 64.792 344.843 64.232C344.315 63.656 343.595 63.368 342.683 63.368C341.755 63.368 341.019 63.656 340.475 64.232C339.947 64.792 339.683 65.6 339.683 66.656V74H336.323V60.704H339.683V62.36C340.131 61.784 340.699 61.336 341.387 61.016C342.091 60.68 342.859 60.512 343.691 60.512ZM350.606 67.352C350.606 65.976 350.886 64.776 351.446 63.752C352.006 62.712 352.782 61.912 353.774 61.352C354.766 60.776 355.902 60.488 357.182 60.488C358.83 60.488 360.19 60.904 361.262 61.736C362.35 62.552 363.078 63.704 363.446 65.192H359.822C359.63 64.616 359.302 64.168 358.838 63.848C358.39 63.512 357.83 63.344 357.158 63.344C356.198 63.344 355.438 63.696 354.878 64.4C354.318 65.088 354.038 66.072 354.038 67.352C354.038 68.616 354.318 69.6 354.878 70.304C355.438 70.992 356.198 71.336 357.158 71.336C358.518 71.336 359.406 70.728 359.822 69.512H363.446C363.078 70.952 362.35 72.096 361.262 72.944C360.174 73.792 358.814 74.216 357.182 74.216C355.902 74.216 354.766 73.936 353.774 73.376C352.782 72.8 352.006 72 351.446 70.976C350.886 69.936 350.606 68.728 350.606 67.352ZM377.548 67.064C377.548 67.544 377.516 67.976 377.452 68.36H367.732C367.812 69.32 368.148 70.072 368.74 70.616C369.332 71.16 370.06 71.432 370.924 71.432C372.172 71.432 373.06 70.896 373.588 69.824H377.212C376.828 71.104 376.092 72.16 375.004 72.992C373.916 73.808 372.58 74.216 370.996 74.216C369.716 74.216 368.564 73.936 367.54 73.376C366.532 72.8 365.74 71.992 365.164 70.952C364.604 69.912 364.324 68.712 364.324 67.352C364.324 65.976 364.604 64.768 365.164 63.728C365.724 62.688 366.508 61.888 367.516 61.328C368.524 60.768 369.684 60.488 370.996 60.488C372.26 60.488 373.388 60.76 374.38 61.304C375.388 61.848 376.164 62.624 376.708 63.632C377.268 64.624 377.548 65.768 377.548 67.064ZM374.068 66.104C374.052 65.24 373.74 64.552 373.132 64.04C372.524 63.512 371.78 63.248 370.9 63.248C370.068 63.248 369.364 63.504 368.788 64.016C368.228 64.512 367.884 65.208 367.756 66.104H374.068ZM7.56 110.216C6.28 110.216 5.128 109.936 4.104 109.376C3.08 108.8 2.272 107.992 1.68 106.952C1.104 105.912 0.816 104.712 0.816 103.352C0.816 101.992 1.112 100.792 1.704 99.752C2.312 98.712 3.136 97.912 4.176 97.352C5.216 96.776 6.376 96.488 7.656 96.488C8.936 96.488 10.096 96.776 11.136 97.352C12.176 97.912 12.992 98.712 13.584 99.752C14.192 100.792 14.496 101.992 14.496 103.352C14.496 104.712 14.184 105.912 13.56 106.952C12.952 107.992 12.12 108.8 11.064 109.376C10.024 109.936 8.856 110.216 7.56 110.216ZM7.56 107.288C8.168 107.288 8.736 107.144 9.264 106.856C9.808 106.552 10.24 106.104 10.56 105.512C10.88 104.92 11.04 104.2 11.04 103.352C11.04 102.088 10.704 101.12 10.032 100.448C9.376 99.76 8.568 99.416 7.608 99.416C6.648 99.416 5.84 99.76 5.184 100.448C4.544 101.12 4.224 102.088 4.224 103.352C4.224 104.616 4.536 105.592 5.16 106.28C5.8 106.952 6.6 107.288 7.56 107.288ZM23.6087 96.512C25.1927 96.512 26.4727 97.016 27.4487 98.024C28.4247 99.016 28.9127 100.408 28.9127 102.2V110H25.5527V102.656C25.5527 101.6 25.2887 100.792 24.7607 100.232C24.2327 99.656 23.5127 99.368 22.6007 99.368C21.6727 99.368 20.9367 99.656 20.3927 100.232C19.8647 100.792 19.6007 101.6 19.6007 102.656V110H16.2407V96.704H19.6007V98.36C20.0487 97.784 20.6167 97.336 21.3047 97.016C22.0087 96.68 22.7767 96.512 23.6087 96.512ZM42.4826 99.464H40.1546V110H36.7466V99.464H35.2346V96.704H36.7466V96.032C36.7466 94.4 37.2106 93.2 38.1386 92.432C39.0666 91.664 40.4666 91.304 42.3386 91.352V94.184C41.5226 94.168 40.9546 94.304 40.6346 94.592C40.3146 94.88 40.1546 95.4 40.1546 96.152V96.704H42.4826V99.464ZM56.4921 96.704V110H53.1081V108.32C52.6761 108.896 52.1081 109.352 51.4041 109.688C50.7161 110.008 49.9641 110.168 49.1481 110.168C48.1081 110.168 47.1881 109.952 46.3881 109.52C45.5881 109.072 44.9561 108.424 44.4921 107.576C44.0441 106.712 43.8201 105.688 43.8201 104.504V96.704H47.1801V104.024C47.1801 105.08 47.4441 105.896 47.9721 106.472C48.5001 107.032 49.2201 107.312 50.1321 107.312C51.0601 107.312 51.7881 107.032 52.3161 106.472C52.8441 105.896 53.1081 105.08 53.1081 104.024V96.704H56.4921ZM62.4473 98.768C62.8793 98.064 63.4393 97.512 64.1273 97.112C64.8313 96.712 65.6313 96.512 66.5273 96.512V100.04H65.6393C64.5833 100.04 63.7833 100.288 63.2393 100.784C62.7113 101.28 62.4473 102.144 62.4473 103.376V110H59.0873V96.704H62.4473V98.768ZM75.4384 96.512C77.0224 96.512 78.3024 97.016 79.2784 98.024C80.2544 99.016 80.7424 100.408 80.7424 102.2V110H77.3824V102.656C77.3824 101.6 77.1184 100.792 76.5904 100.232C76.0624 99.656 75.3424 99.368 74.4304 99.368C73.5024 99.368 72.7664 99.656 72.2224 100.232C71.6944 100.792 71.4304 101.6 71.4304 102.656V110H68.0704V96.704H71.4304V98.36C71.8784 97.784 72.4464 97.336 73.1344 97.016C73.8384 96.68 74.6064 96.512 75.4384 96.512ZM84.9216 95.12C84.3296 95.12 83.8336 94.936 83.4336 94.568C83.0496 94.184 82.8576 93.712 82.8576 93.152C82.8576 92.592 83.0496 92.128 83.4336 91.76C83.8336 91.376 84.3296 91.184 84.9216 91.184C85.5136 91.184 86.0016 91.376 86.3856 91.76C86.7856 92.128 86.9856 92.592 86.9856 93.152C86.9856 93.712 86.7856 94.184 86.3856 94.568C86.0016 94.936 85.5136 95.12 84.9216 95.12ZM86.5776 96.704V110H83.2176V96.704H86.5776ZM93.0892 99.464V105.896C93.0892 106.344 93.1932 106.672 93.4012 106.88C93.6252 107.072 93.9932 107.168 94.5052 107.168H96.0652V110H93.9532C91.1212 110 89.7052 108.624 89.7052 105.872V99.464H88.1212V96.704H89.7052V93.416H93.0892V96.704H96.0652V99.464H93.0892ZM110.314 96.704V110H106.93V108.32C106.498 108.896 105.93 109.352 105.226 109.688C104.538 110.008 103.786 110.168 102.97 110.168C101.93 110.168 101.01 109.952 100.21 109.52C99.4099 109.072 98.7779 108.424 98.3139 107.576C97.8659 106.712 97.6419 105.688 97.6419 104.504V96.704H101.002V104.024C101.002 105.08 101.266 105.896 101.794 106.472C102.322 107.032 103.042 107.312 103.954 107.312C104.882 107.312 105.61 107.032 106.138 106.472C106.666 105.896 106.93 105.08 106.93 104.024V96.704H110.314ZM116.269 98.768C116.701 98.064 117.261 97.512 117.949 97.112C118.653 96.712 119.453 96.512 120.349 96.512V100.04H119.461C118.405 100.04 117.605 100.288 117.061 100.784C116.533 101.28 116.269 102.144 116.269 103.376V110H112.909V96.704H116.269V98.768ZM134.252 103.064C134.252 103.544 134.22 103.976 134.156 104.36H124.436C124.516 105.32 124.852 106.072 125.444 106.616C126.036 107.16 126.764 107.432 127.628 107.432C128.876 107.432 129.764 106.896 130.292 105.824H133.916C133.532 107.104 132.796 108.16 131.708 108.992C130.62 109.808 129.284 110.216 127.7 110.216C126.42 110.216 125.268 109.936 124.244 109.376C123.236 108.8 122.444 107.992 121.868 106.952C121.308 105.912 121.028 104.712 121.028 103.352C121.028 101.976 121.308 100.768 121.868 99.728C122.428 98.688 123.212 97.888 124.22 97.328C125.228 96.768 126.388 96.488 127.7 96.488C128.964 96.488 130.092 96.76 131.084 97.304C132.092 97.848 132.868 98.624 133.412 99.632C133.972 100.624 134.252 101.768 134.252 103.064ZM130.772 102.104C130.756 101.24 130.444 100.552 129.836 100.04C129.228 99.512 128.484 99.248 127.604 99.248C126.772 99.248 126.068 99.504 125.492 100.016C124.932 100.512 124.588 101.208 124.46 102.104H130.772ZM144.343 98.648C144.775 98.008 145.367 97.488 146.119 97.088C146.888 96.688 147.76 96.488 148.735 96.488C149.872 96.488 150.896 96.768 151.808 97.328C152.735 97.888 153.463 98.688 153.991 99.728C154.536 100.752 154.808 101.944 154.808 103.304C154.808 104.664 154.536 105.872 153.991 106.928C153.463 107.968 152.735 108.776 151.808 109.352C150.896 109.928 149.872 110.216 148.735 110.216C147.743 110.216 146.871 110.024 146.119 109.64C145.383 109.24 144.791 108.728 144.343 108.104V110H140.983V92.24H144.343V98.648ZM151.376 103.304C151.376 102.504 151.208 101.816 150.872 101.24C150.552 100.648 150.119 100.2 149.575 99.896C149.047 99.592 148.471 99.44 147.847 99.44C147.239 99.44 146.663 99.6 146.119 99.92C145.591 100.224 145.159 100.672 144.823 101.264C144.503 101.856 144.343 102.552 144.343 103.352C144.343 104.152 144.503 104.848 144.823 105.44C145.159 106.032 145.591 106.488 146.119 106.808C146.663 107.112 147.239 107.264 147.847 107.264C148.471 107.264 149.047 107.104 149.575 106.784C150.119 106.464 150.552 106.008 150.872 105.416C151.208 104.824 151.376 104.12 151.376 103.304ZM169.081 96.704V110H165.697V108.32C165.265 108.896 164.697 109.352 163.993 109.688C163.305 110.008 162.553 110.168 161.737 110.168C160.697 110.168 159.777 109.952 158.977 109.52C158.177 109.072 157.545 108.424 157.081 107.576C156.633 106.712 156.409 105.688 156.409 104.504V96.704H159.769V104.024C159.769 105.08 160.033 105.896 160.561 106.472C161.089 107.032 161.809 107.312 162.721 107.312C163.649 107.312 164.377 107.032 164.905 106.472C165.433 105.896 165.697 105.08 165.697 104.024V96.704H169.081ZM176.764 110.216C175.676 110.216 174.7 110.024 173.836 109.64C172.972 109.24 172.284 108.704 171.772 108.032C171.276 107.36 171.004 106.616 170.956 105.8H174.34C174.404 106.312 174.652 106.736 175.084 107.072C175.532 107.408 176.084 107.576 176.74 107.576C177.38 107.576 177.876 107.448 178.228 107.192C178.596 106.936 178.78 106.608 178.78 106.208C178.78 105.776 178.556 105.456 178.108 105.248C177.676 105.024 176.98 104.784 176.02 104.528C175.028 104.288 174.212 104.04 173.572 103.784C172.948 103.528 172.404 103.136 171.94 102.608C171.492 102.08 171.268 101.368 171.268 100.472C171.268 99.736 171.476 99.064 171.892 98.456C172.324 97.848 172.932 97.368 173.716 97.016C174.516 96.664 175.452 96.488 176.524 96.488C178.108 96.488 179.372 96.888 180.316 97.688C181.26 98.472 181.78 99.536 181.876 100.88H178.66C178.612 100.352 178.388 99.936 177.988 99.632C177.604 99.312 177.084 99.152 176.428 99.152C175.82 99.152 175.348 99.264 175.012 99.488C174.692 99.712 174.532 100.024 174.532 100.424C174.532 100.872 174.756 101.216 175.204 101.456C175.652 101.68 176.348 101.912 177.292 102.152C178.252 102.392 179.044 102.64 179.668 102.896C180.292 103.152 180.828 103.552 181.276 104.096C181.74 104.624 181.98 105.328 181.996 106.208C181.996 106.976 181.78 107.664 181.348 108.272C180.932 108.88 180.324 109.36 179.524 109.712C178.74 110.048 177.82 110.216 176.764 110.216ZM185.738 95.12C185.146 95.12 184.65 94.936 184.25 94.568C183.866 94.184 183.674 93.712 183.674 93.152C183.674 92.592 183.866 92.128 184.25 91.76C184.65 91.376 185.146 91.184 185.738 91.184C186.33 91.184 186.818 91.376 187.202 91.76C187.602 92.128 187.802 92.592 187.802 93.152C187.802 93.712 187.602 94.184 187.202 94.568C186.818 94.936 186.33 95.12 185.738 95.12ZM187.394 96.704V110H184.034V96.704H187.394ZM197.362 96.512C198.946 96.512 200.226 97.016 201.202 98.024C202.178 99.016 202.666 100.408 202.666 102.2V110H199.306V102.656C199.306 101.6 199.042 100.792 198.514 100.232C197.986 99.656 197.266 99.368 196.354 99.368C195.426 99.368 194.69 99.656 194.146 100.232C193.618 100.792 193.354 101.6 193.354 102.656V110H189.994V96.704H193.354V98.36C193.802 97.784 194.37 97.336 195.058 97.016C195.762 96.68 196.53 96.512 197.362 96.512ZM217.501 103.064C217.501 103.544 217.469 103.976 217.405 104.36H207.685C207.765 105.32 208.101 106.072 208.693 106.616C209.285 107.16 210.013 107.432 210.877 107.432C212.125 107.432 213.013 106.896 213.541 105.824H217.165C216.781 107.104 216.045 108.16 214.957 108.992C213.869 109.808 212.533 110.216 210.949 110.216C209.669 110.216 208.517 109.936 207.493 109.376C206.485 108.8 205.693 107.992 205.117 106.952C204.557 105.912 204.277 104.712 204.277 103.352C204.277 101.976 204.557 100.768 205.117 99.728C205.677 98.688 206.461 97.888 207.469 97.328C208.477 96.768 209.637 96.488 210.949 96.488C212.213 96.488 213.341 96.76 214.333 97.304C215.341 97.848 216.117 98.624 216.661 99.632C217.221 100.624 217.501 101.768 217.501 103.064ZM214.021 102.104C214.005 101.24 213.693 100.552 213.085 100.04C212.477 99.512 211.733 99.248 210.853 99.248C210.021 99.248 209.317 99.504 208.741 100.016C208.181 100.512 207.837 101.208 207.709 102.104H214.021ZM224.322 110.216C223.234 110.216 222.258 110.024 221.394 109.64C220.53 109.24 219.842 108.704 219.33 108.032C218.834 107.36 218.562 106.616 218.514 105.8H221.898C221.962 106.312 222.21 106.736 222.642 107.072C223.09 107.408 223.642 107.576 224.298 107.576C224.938 107.576 225.434 107.448 225.786 107.192C226.154 106.936 226.338 106.608 226.338 106.208C226.338 105.776 226.114 105.456 225.666 105.248C225.234 105.024 224.538 104.784 223.578 104.528C222.586 104.288 221.77 104.04 221.13 103.784C220.506 103.528 219.962 103.136 219.498 102.608C219.05 102.08 218.826 101.368 218.826 100.472C218.826 99.736 219.034 99.064 219.45 98.456C219.882 97.848 220.49 97.368 221.274 97.016C222.074 96.664 223.01 96.488 224.082 96.488C225.666 96.488 226.93 96.888 227.874 97.688C228.818 98.472 229.338 99.536 229.434 100.88H226.218C226.17 100.352 225.946 99.936 225.546 99.632C225.162 99.312 224.642 99.152 223.986 99.152C223.378 99.152 222.906 99.264 222.57 99.488C222.25 99.712 222.09 100.024 222.09 100.424C222.09 100.872 222.314 101.216 222.762 101.456C223.21 101.68 223.906 101.912 224.85 102.152C225.81 102.392 226.602 102.64 227.226 102.896C227.85 103.152 228.386 103.552 228.834 104.096C229.298 104.624 229.538 105.328 229.554 106.208C229.554 106.976 229.338 107.664 228.906 108.272C228.49 108.88 227.882 109.36 227.082 109.712C226.298 110.048 225.378 110.216 224.322 110.216ZM236.68 110.216C235.592 110.216 234.616 110.024 233.752 109.64C232.888 109.24 232.2 108.704 231.688 108.032C231.192 107.36 230.92 106.616 230.872 105.8H234.256C234.32 106.312 234.568 106.736 235 107.072C235.448 107.408 236 107.576 236.656 107.576C237.296 107.576 237.792 107.448 238.144 107.192C238.512 106.936 238.696 106.608 238.696 106.208C238.696 105.776 238.472 105.456 238.024 105.248C237.592 105.024 236.896 104.784 235.936 104.528C234.944 104.288 234.128 104.04 233.488 103.784C232.864 103.528 232.32 103.136 231.856 102.608C231.408 102.08 231.184 101.368 231.184 100.472C231.184 99.736 231.392 99.064 231.808 98.456C232.24 97.848 232.848 97.368 233.632 97.016C234.432 96.664 235.368 96.488 236.44 96.488C238.024 96.488 239.288 96.888 240.232 97.688C241.176 98.472 241.696 99.536 241.792 100.88H238.576C238.528 100.352 238.304 99.936 237.904 99.632C237.52 99.312 237 99.152 236.344 99.152C235.736 99.152 235.264 99.264 234.928 99.488C234.608 99.712 234.448 100.024 234.448 100.424C234.448 100.872 234.672 101.216 235.12 101.456C235.568 101.68 236.264 101.912 237.208 102.152C238.168 102.392 238.96 102.64 239.584 102.896C240.208 103.152 240.744 103.552 241.192 104.096C241.656 104.624 241.896 105.328 241.912 106.208C241.912 106.976 241.696 107.664 241.264 108.272C240.848 108.88 240.24 109.36 239.44 109.712C238.656 110.048 237.736 110.216 236.68 110.216ZM267.381 96.704L263.493 110H259.869L257.445 100.712L255.021 110H251.373L247.461 96.704H250.869L253.221 106.832L255.765 96.704H259.317L261.813 106.808L264.165 96.704H267.381ZM270.183 95.12C269.591 95.12 269.095 94.936 268.695 94.568C268.311 94.184 268.119 93.712 268.119 93.152C268.119 92.592 268.311 92.128 268.695 91.76C269.095 91.376 269.591 91.184 270.183 91.184C270.775 91.184 271.263 91.376 271.647 91.76C272.047 92.128 272.247 92.592 272.247 93.152C272.247 93.712 272.047 94.184 271.647 94.568C271.263 94.936 270.775 95.12 270.183 95.12ZM271.839 96.704V110H268.479V96.704H271.839ZM277.799 92.24V110H274.439V92.24H277.799ZM283.758 92.24V110H280.398V92.24H283.758ZM298.725 96.512C300.309 96.512 301.589 97.016 302.565 98.024C303.541 99.016 304.029 100.408 304.029 102.2V110H300.669V102.656C300.669 101.6 300.405 100.792 299.877 100.232C299.349 99.656 298.629 99.368 297.717 99.368C296.789 99.368 296.053 99.656 295.509 100.232C294.981 100.792 294.717 101.6 294.717 102.656V110H291.357V96.704H294.717V98.36C295.165 97.784 295.733 97.336 296.421 97.016C297.125 96.68 297.893 96.512 298.725 96.512ZM312.408 110.216C311.128 110.216 309.976 109.936 308.952 109.376C307.928 108.8 307.12 107.992 306.528 106.952C305.952 105.912 305.664 104.712 305.664 103.352C305.664 101.992 305.96 100.792 306.552 99.752C307.16 98.712 307.984 97.912 309.024 97.352C310.064 96.776 311.224 96.488 312.504 96.488C313.784 96.488 314.944 96.776 315.984 97.352C317.024 97.912 317.84 98.712 318.432 99.752C319.04 100.792 319.344 101.992 319.344 103.352C319.344 104.712 319.032 105.912 318.408 106.952C317.8 107.992 316.968 108.8 315.912 109.376C314.872 109.936 313.704 110.216 312.408 110.216ZM312.408 107.288C313.016 107.288 313.584 107.144 314.112 106.856C314.656 106.552 315.088 106.104 315.408 105.512C315.728 104.92 315.888 104.2 315.888 103.352C315.888 102.088 315.552 101.12 314.88 100.448C314.224 99.76 313.416 99.416 312.456 99.416C311.496 99.416 310.688 99.76 310.032 100.448C309.392 101.12 309.072 102.088 309.072 103.352C309.072 104.616 309.384 105.592 310.008 106.28C310.648 106.952 311.448 107.288 312.408 107.288ZM325 99.464V105.896C325 106.344 325.104 106.672 325.312 106.88C325.536 107.072 325.904 107.168 326.416 107.168H327.976V110H325.864C323.032 110 321.616 108.624 321.616 105.872V99.464H320.032V96.704H321.616V93.416H325V96.704H327.976V99.464H325ZM0.792 139.304C0.792 137.96 1.056 136.768 1.584 135.728C2.128 134.688 2.864 133.888 3.792 133.328C4.72 132.768 5.752 132.488 6.888 132.488C7.752 132.488 8.576 132.68 9.36 133.064C10.144 133.432 10.768 133.928 11.232 134.552V128.24H14.64V146H11.232V144.032C10.816 144.688 10.232 145.216 9.48 145.616C8.728 146.016 7.856 146.216 6.864 146.216C5.744 146.216 4.72 145.928 3.792 145.352C2.864 144.776 2.128 143.968 1.584 142.928C1.056 141.872 0.792 140.664 0.792 139.304ZM11.256 139.352C11.256 138.536 11.096 137.84 10.776 137.264C10.456 136.672 10.024 136.224 9.48 135.92C8.936 135.6 8.352 135.44 7.728 135.44C7.104 135.44 6.528 135.592 6 135.896C5.472 136.2 5.04 136.648 4.704 137.24C4.384 137.816 4.224 138.504 4.224 139.304C4.224 140.104 4.384 140.808 4.704 141.416C5.04 142.008 5.472 142.464 6 142.784C6.544 143.104 7.12 143.264 7.728 143.264C8.352 143.264 8.936 143.112 9.48 142.808C10.024 142.488 10.456 142.04 10.776 141.464C11.096 140.872 11.256 140.168 11.256 139.352ZM18.9056 131.12C18.3136 131.12 17.8176 130.936 17.4176 130.568C17.0336 130.184 16.8416 129.712 16.8416 129.152C16.8416 128.592 17.0336 128.128 17.4176 127.76C17.8176 127.376 18.3136 127.184 18.9056 127.184C19.4976 127.184 19.9856 127.376 20.3696 127.76C20.7696 128.128 20.9696 128.592 20.9696 129.152C20.9696 129.712 20.7696 130.184 20.3696 130.568C19.9856 130.936 19.4976 131.12 18.9056 131.12ZM20.5616 132.704V146H17.2016V132.704H20.5616ZM28.2493 146.216C27.1613 146.216 26.1853 146.024 25.3213 145.64C24.4573 145.24 23.7693 144.704 23.2573 144.032C22.7613 143.36 22.4893 142.616 22.4413 141.8H25.8253C25.8893 142.312 26.1373 142.736 26.5693 143.072C27.0173 143.408 27.5693 143.576 28.2253 143.576C28.8653 143.576 29.3613 143.448 29.7133 143.192C30.0813 142.936 30.2653 142.608 30.2653 142.208C30.2653 141.776 30.0413 141.456 29.5933 141.248C29.1613 141.024 28.4653 140.784 27.5053 140.528C26.5133 140.288 25.6973 140.04 25.0573 139.784C24.4333 139.528 23.8893 139.136 23.4253 138.608C22.9773 138.08 22.7533 137.368 22.7533 136.472C22.7533 135.736 22.9613 135.064 23.3773 134.456C23.8093 133.848 24.4173 133.368 25.2013 133.016C26.0013 132.664 26.9373 132.488 28.0093 132.488C29.5933 132.488 30.8573 132.888 31.8013 133.688C32.7453 134.472 33.2653 135.536 33.3613 136.88H30.1453C30.0973 136.352 29.8733 135.936 29.4733 135.632C29.0893 135.312 28.5693 135.152 27.9133 135.152C27.3053 135.152 26.8333 135.264 26.4973 135.488C26.1773 135.712 26.0173 136.024 26.0173 136.424C26.0173 136.872 26.2413 137.216 26.6893 137.456C27.1373 137.68 27.8333 137.912 28.7773 138.152C29.7373 138.392 30.5293 138.64 31.1533 138.896C31.7773 139.152 32.3133 139.552 32.7613 140.096C33.2253 140.624 33.4653 141.328 33.4813 142.208C33.4813 142.976 33.2653 143.664 32.8333 144.272C32.4173 144.88 31.8093 145.36 31.0093 145.712C30.2253 146.048 29.3053 146.216 28.2493 146.216ZM34.6554 139.304C34.6554 137.96 34.9194 136.768 35.4474 135.728C35.9914 134.688 36.7194 133.888 37.6314 133.328C38.5594 132.768 39.5914 132.488 40.7274 132.488C41.7194 132.488 42.5834 132.688 43.3194 133.088C44.0714 133.488 44.6714 133.992 45.1194 134.6V132.704H48.5034V146H45.1194V144.056C44.6874 144.68 44.0874 145.2 43.3194 145.616C42.5674 146.016 41.6954 146.216 40.7034 146.216C39.5834 146.216 38.5594 145.928 37.6314 145.352C36.7194 144.776 35.9914 143.968 35.4474 142.928C34.9194 141.872 34.6554 140.664 34.6554 139.304ZM45.1194 139.352C45.1194 138.536 44.9594 137.84 44.6394 137.264C44.3194 136.672 43.8874 136.224 43.3434 135.92C42.7994 135.6 42.2154 135.44 41.5914 135.44C40.9674 135.44 40.3914 135.592 39.8634 135.896C39.3354 136.2 38.9034 136.648 38.5674 137.24C38.2474 137.816 38.0874 138.504 38.0874 139.304C38.0874 140.104 38.2474 140.808 38.5674 141.416C38.9034 142.008 39.3354 142.464 39.8634 142.784C40.4074 143.104 40.9834 143.264 41.5914 143.264C42.2154 143.264 42.7994 143.112 43.3434 142.808C43.8874 142.488 44.3194 142.04 44.6394 141.464C44.9594 140.872 45.1194 140.168 45.1194 139.352ZM54.4251 134.624C54.8571 134.016 55.4491 133.512 56.2011 133.112C56.9691 132.696 57.8411 132.488 58.8171 132.488C59.9531 132.488 60.9771 132.768 61.8891 133.328C62.8171 133.888 63.5451 134.688 64.0731 135.728C64.6171 136.752 64.8891 137.944 64.8891 139.304C64.8891 140.664 64.6171 141.872 64.0731 142.928C63.5451 143.968 62.8171 144.776 61.8891 145.352C60.9771 145.928 59.9531 146.216 58.8171 146.216C57.8411 146.216 56.9771 146.016 56.2251 145.616C55.4891 145.216 54.8891 144.712 54.4251 144.104V152.336H51.0651V132.704H54.4251V134.624ZM61.4571 139.304C61.4571 138.504 61.2891 137.816 60.9531 137.24C60.6331 136.648 60.2011 136.2 59.6571 135.896C59.1291 135.592 58.5531 135.44 57.9291 135.44C57.3211 135.44 56.7451 135.6 56.2011 135.92C55.6731 136.224 55.2411 136.672 54.9051 137.264C54.5851 137.856 54.4251 138.552 54.4251 139.352C54.4251 140.152 54.5851 140.848 54.9051 141.44C55.2411 142.032 55.6731 142.488 56.2011 142.808C56.7451 143.112 57.3211 143.264 57.9291 143.264C58.5531 143.264 59.1291 143.104 59.6571 142.784C60.2011 142.464 60.6331 142.008 60.9531 141.416C61.2891 140.824 61.4571 140.12 61.4571 139.304ZM69.9707 134.624C70.4027 134.016 70.9947 133.512 71.7467 133.112C72.5147 132.696 73.3867 132.488 74.3627 132.488C75.4987 132.488 76.5227 132.768 77.4347 133.328C78.3627 133.888 79.0907 134.688 79.6187 135.728C80.1627 136.752 80.4347 137.944 80.4347 139.304C80.4347 140.664 80.1627 141.872 79.6187 142.928C79.0907 143.968 78.3627 144.776 77.4347 145.352C76.5227 145.928 75.4987 146.216 74.3627 146.216C73.3867 146.216 72.5227 146.016 71.7707 145.616C71.0347 145.216 70.4347 144.712 69.9707 144.104V152.336H66.6107V132.704H69.9707V134.624ZM77.0027 139.304C77.0027 138.504 76.8347 137.816 76.4987 137.24C76.1787 136.648 75.7467 136.2 75.2027 135.896C74.6747 135.592 74.0987 135.44 73.4747 135.44C72.8667 135.44 72.2907 135.6 71.7467 135.92C71.2187 136.224 70.7867 136.672 70.4507 137.264C70.1307 137.856 69.9707 138.552 69.9707 139.352C69.9707 140.152 70.1307 140.848 70.4507 141.44C70.7867 142.032 71.2187 142.488 71.7467 142.808C72.2907 143.112 72.8667 143.264 73.4747 143.264C74.0987 143.264 74.6747 143.104 75.2027 142.784C75.7467 142.464 76.1787 142.008 76.4987 141.416C76.8347 140.824 77.0027 140.12 77.0027 139.304ZM88.0603 146.216C86.7803 146.216 85.6283 145.936 84.6043 145.376C83.5803 144.8 82.7723 143.992 82.1803 142.952C81.6043 141.912 81.3163 140.712 81.3163 139.352C81.3163 137.992 81.6123 136.792 82.2043 135.752C82.8123 134.712 83.6363 133.912 84.6763 133.352C85.7163 132.776 86.8763 132.488 88.1563 132.488C89.4363 132.488 90.5963 132.776 91.6363 133.352C92.6763 133.912 93.4923 134.712 94.0843 135.752C94.6923 136.792 94.9963 137.992 94.9963 139.352C94.9963 140.712 94.6843 141.912 94.0603 142.952C93.4523 143.992 92.6203 144.8 91.5643 145.376C90.5243 145.936 89.3563 146.216 88.0603 146.216ZM88.0603 143.288C88.6683 143.288 89.2363 143.144 89.7643 142.856C90.3083 142.552 90.7403 142.104 91.0603 141.512C91.3803 140.92 91.5403 140.2 91.5403 139.352C91.5403 138.088 91.2043 137.12 90.5323 136.448C89.8763 135.76 89.0683 135.416 88.1083 135.416C87.1483 135.416 86.3403 135.76 85.6843 136.448C85.0443 137.12 84.7243 138.088 84.7243 139.352C84.7243 140.616 85.0363 141.592 85.6603 142.28C86.3003 142.952 87.1003 143.288 88.0603 143.288ZM98.445 131.12C97.853 131.12 97.357 130.936 96.957 130.568C96.573 130.184 96.381 129.712 96.381 129.152C96.381 128.592 96.573 128.128 96.957 127.76C97.357 127.376 97.853 127.184 98.445 127.184C99.037 127.184 99.525 127.376 99.909 127.76C100.309 128.128 100.509 128.592 100.509 129.152C100.509 129.712 100.309 130.184 99.909 130.568C99.525 130.936 99.037 131.12 98.445 131.12ZM100.101 132.704V146H96.741V132.704H100.101ZM110.069 132.512C111.653 132.512 112.933 133.016 113.909 134.024C114.885 135.016 115.373 136.408 115.373 138.2V146H112.013V138.656C112.013 137.6 111.749 136.792 111.221 136.232C110.693 135.656 109.973 135.368 109.061 135.368C108.133 135.368 107.397 135.656 106.853 136.232C106.325 136.792 106.061 137.6 106.061 138.656V146H102.701V132.704H106.061V134.36C106.509 133.784 107.077 133.336 107.765 133.016C108.469 132.68 109.237 132.512 110.069 132.512ZM121.76 135.464V141.896C121.76 142.344 121.864 142.672 122.072 142.88C122.296 143.072 122.664 143.168 123.176 143.168H124.736V146H122.624C119.792 146 118.376 144.624 118.376 141.872V135.464H116.792V132.704H118.376V129.416H121.76V132.704H124.736V135.464H121.76ZM128.137 131.12C127.545 131.12 127.049 130.936 126.649 130.568C126.265 130.184 126.073 129.712 126.073 129.152C126.073 128.592 126.265 128.128 126.649 127.76C127.049 127.376 127.545 127.184 128.137 127.184C128.729 127.184 129.217 127.376 129.601 127.76C130.001 128.128 130.201 128.592 130.201 129.152C130.201 129.712 130.001 130.184 129.601 130.568C129.217 130.936 128.729 131.12 128.137 131.12ZM129.793 132.704V146H126.433V132.704H129.793ZM139.76 132.512C141.344 132.512 142.624 133.016 143.6 134.024C144.576 135.016 145.064 136.408 145.064 138.2V146H141.704V138.656C141.704 137.6 141.44 136.792 140.912 136.232C140.384 135.656 139.664 135.368 138.752 135.368C137.824 135.368 137.088 135.656 136.544 136.232C136.016 136.792 135.752 137.6 135.752 138.656V146H132.392V132.704H135.752V134.36C136.2 133.784 136.768 133.336 137.456 133.016C138.16 132.68 138.928 132.512 139.76 132.512ZM152.747 132.488C153.739 132.488 154.611 132.688 155.363 133.088C156.115 133.472 156.707 133.976 157.139 134.6V132.704H160.523V146.096C160.523 147.328 160.275 148.424 159.779 149.384C159.283 150.36 158.539 151.128 157.547 151.688C156.555 152.264 155.355 152.552 153.947 152.552C152.059 152.552 150.507 152.112 149.291 151.232C148.091 150.352 147.411 149.152 147.251 147.632H150.587C150.763 148.24 151.139 148.72 151.715 149.072C152.307 149.44 153.019 149.624 153.851 149.624C154.827 149.624 155.619 149.328 156.227 148.736C156.835 148.16 157.139 147.28 157.139 146.096V144.032C156.707 144.656 156.107 145.176 155.339 145.592C154.587 146.008 153.723 146.216 152.747 146.216C151.627 146.216 150.603 145.928 149.675 145.352C148.747 144.776 148.011 143.968 147.467 142.928C146.939 141.872 146.675 140.664 146.675 139.304C146.675 137.96 146.939 136.768 147.467 135.728C148.011 134.688 148.739 133.888 149.651 133.328C150.579 132.768 151.611 132.488 152.747 132.488ZM157.139 139.352C157.139 138.536 156.979 137.84 156.659 137.264C156.339 136.672 155.907 136.224 155.363 135.92C154.819 135.6 154.235 135.44 153.611 135.44C152.987 135.44 152.411 135.592 151.883 135.896C151.355 136.2 150.923 136.648 150.587 137.24C150.267 137.816 150.107 138.504 150.107 139.304C150.107 140.104 150.267 140.808 150.587 141.416C150.923 142.008 151.355 142.464 151.883 142.784C152.427 143.104 153.003 143.264 153.611 143.264C154.235 143.264 154.819 143.112 155.363 142.808C155.907 142.488 156.339 142.04 156.659 141.464C156.979 140.872 157.139 140.168 157.139 139.352ZM167.22 139.304C167.22 137.96 167.484 136.768 168.012 135.728C168.556 134.688 169.284 133.888 170.196 133.328C171.124 132.768 172.156 132.488 173.292 132.488C174.284 132.488 175.148 132.688 175.884 133.088C176.636 133.488 177.236 133.992 177.684 134.6V132.704H181.068V146H177.684V144.056C177.252 144.68 176.652 145.2 175.884 145.616C175.132 146.016 174.26 146.216 173.268 146.216C172.148 146.216 171.124 145.928 170.196 145.352C169.284 144.776 168.556 143.968 168.012 142.928C167.484 141.872 167.22 140.664 167.22 139.304ZM177.684 139.352C177.684 138.536 177.524 137.84 177.204 137.264C176.884 136.672 176.452 136.224 175.908 135.92C175.364 135.6 174.78 135.44 174.156 135.44C173.532 135.44 172.956 135.592 172.428 135.896C171.9 136.2 171.468 136.648 171.132 137.24C170.812 137.816 170.652 138.504 170.652 139.304C170.652 140.104 170.812 140.808 171.132 141.416C171.468 142.008 171.9 142.464 172.428 142.784C172.972 143.104 173.548 143.264 174.156 143.264C174.78 143.264 175.364 143.112 175.908 142.808C176.452 142.488 176.884 142.04 177.204 141.464C177.524 140.872 177.684 140.168 177.684 139.352ZM187.541 135.464V141.896C187.541 142.344 187.645 142.672 187.853 142.88C188.077 143.072 188.445 143.168 188.957 143.168H190.517V146H188.405C185.573 146 184.157 144.624 184.157 141.872V135.464H182.573V132.704H184.157V129.416H187.541V132.704H190.517V135.464H187.541ZM196.349 139.304C196.349 137.96 196.613 136.768 197.141 135.728C197.685 134.688 198.413 133.888 199.325 133.328C200.253 132.768 201.285 132.488 202.421 132.488C203.413 132.488 204.277 132.688 205.013 133.088C205.765 133.488 206.365 133.992 206.813 134.6V132.704H210.197V146H206.813V144.056C206.381 144.68 205.781 145.2 205.013 145.616C204.261 146.016 203.389 146.216 202.397 146.216C201.277 146.216 200.253 145.928 199.325 145.352C198.413 144.776 197.685 143.968 197.141 142.928C196.613 141.872 196.349 140.664 196.349 139.304ZM206.813 139.352C206.813 138.536 206.653 137.84 206.333 137.264C206.013 136.672 205.581 136.224 205.037 135.92C204.493 135.6 203.909 135.44 203.285 135.44C202.661 135.44 202.085 135.592 201.557 135.896C201.029 136.2 200.597 136.648 200.261 137.24C199.941 137.816 199.781 138.504 199.781 139.304C199.781 140.104 199.941 140.808 200.261 141.416C200.597 142.008 201.029 142.464 201.557 142.784C202.101 143.104 202.677 143.264 203.285 143.264C203.909 143.264 204.493 143.112 205.037 142.808C205.581 142.488 206.013 142.04 206.333 141.464C206.653 140.872 206.813 140.168 206.813 139.352ZM216.118 128.24V146H212.758V128.24H216.118ZM222.078 128.24V146H218.718V128.24H222.078Z" fill="#0F3141"/>
</svg>
