<svg width="160" height="61" viewBox="0 0 160 61" fill="none" xmlns="http://www.w3.org/2000/svg">
<path d="M5.418 4.22H6.786L12.006 17H10.278L8.766 13.256H3.402L1.908 17H0.18L5.418 4.22ZM8.406 11.996L6.102 6.092L3.726 11.996H8.406ZM15.742 17L12.052 7.604H13.708L16.66 15.488L19.612 7.604H21.16L17.47 17H15.742ZM21.9586 14.282C21.9586 13.682 22.1266 13.166 22.4626 12.734C22.8106 12.29 23.2846 11.948 23.8846 11.708C24.4846 11.468 25.1806 11.348 25.9726 11.348C26.3926 11.348 26.8366 11.384 27.3046 11.456C27.7726 11.516 28.1866 11.612 28.5466 11.744V11.06C28.5466 10.34 28.3306 9.776 27.8986 9.368C27.4666 8.948 26.8546 8.738 26.0626 8.738C25.5466 8.738 25.0486 8.834 24.5686 9.026C24.1006 9.206 23.6026 9.47 23.0746 9.818L22.4986 8.702C23.1106 8.282 23.7226 7.97 24.3346 7.766C24.9466 7.55 25.5826 7.442 26.2426 7.442C27.4426 7.442 28.3906 7.778 29.0866 8.45C29.7826 9.11 30.1306 10.034 30.1306 11.222V15.2C30.1306 15.392 30.1666 15.536 30.2386 15.632C30.3226 15.716 30.4546 15.764 30.6346 15.776V17C30.4786 17.024 30.3406 17.042 30.2206 17.054C30.1126 17.066 30.0226 17.072 29.9506 17.072C29.5786 17.072 29.2966 16.97 29.1046 16.766C28.9246 16.562 28.8226 16.346 28.7986 16.118L28.7626 15.524C28.3546 16.052 27.8206 16.46 27.1606 16.748C26.5006 17.036 25.8466 17.18 25.1986 17.18C24.5746 17.18 24.0166 17.054 23.5246 16.802C23.0326 16.538 22.6486 16.19 22.3726 15.758C22.0966 15.314 21.9586 14.822 21.9586 14.282ZM28.0786 14.948C28.2226 14.78 28.3366 14.612 28.4206 14.444C28.5046 14.264 28.5466 14.114 28.5466 13.994V12.824C28.1746 12.68 27.7846 12.572 27.3766 12.5C26.9686 12.416 26.5666 12.374 26.1706 12.374C25.3666 12.374 24.7126 12.536 24.2086 12.86C23.7166 13.172 23.4706 13.604 23.4706 14.156C23.4706 14.456 23.5486 14.75 23.7046 15.038C23.8726 15.314 24.1126 15.542 24.4246 15.722C24.7486 15.902 25.1446 15.992 25.6126 15.992C26.1046 15.992 26.5726 15.896 27.0166 15.704C27.4606 15.5 27.8146 15.248 28.0786 14.948ZM32.8794 3.86H34.4634V14.57C34.4634 15.086 34.5354 15.404 34.6794 15.524C34.8234 15.644 34.9974 15.704 35.2014 15.704C35.4534 15.704 35.6934 15.68 35.9214 15.632C36.1494 15.572 36.3414 15.512 36.4974 15.452L36.7494 16.748C36.4854 16.856 36.1734 16.946 35.8134 17.018C35.4534 17.09 35.1354 17.126 34.8594 17.126C34.2474 17.126 33.7614 16.952 33.4014 16.604C33.0534 16.256 32.8794 15.77 32.8794 15.146V3.86ZM38.1738 17V7.604H39.7578V17H38.1738ZM38.1738 5.84V3.86H39.7578V5.84H38.1738ZM41.7642 14.282C41.7642 13.682 41.9322 13.166 42.2682 12.734C42.6162 12.29 43.0902 11.948 43.6902 11.708C44.2902 11.468 44.9862 11.348 45.7782 11.348C46.1982 11.348 46.6422 11.384 47.1102 11.456C47.5782 11.516 47.9922 11.612 48.3522 11.744V11.06C48.3522 10.34 48.1362 9.776 47.7042 9.368C47.2722 8.948 46.6602 8.738 45.8682 8.738C45.3522 8.738 44.8542 8.834 44.3742 9.026C43.9062 9.206 43.4082 9.47 42.8802 9.818L42.3042 8.702C42.9162 8.282 43.5282 7.97 44.1402 7.766C44.7522 7.55 45.3882 7.442 46.0482 7.442C47.2482 7.442 48.1962 7.778 48.8922 8.45C49.5882 9.11 49.9362 10.034 49.9362 11.222V15.2C49.9362 15.392 49.9722 15.536 50.0442 15.632C50.1282 15.716 50.2602 15.764 50.4402 15.776V17C50.2842 17.024 50.1462 17.042 50.0262 17.054C49.9182 17.066 49.8282 17.072 49.7562 17.072C49.3842 17.072 49.1022 16.97 48.9102 16.766C48.7302 16.562 48.6282 16.346 48.6042 16.118L48.5682 15.524C48.1602 16.052 47.6262 16.46 46.9662 16.748C46.3062 17.036 45.6522 17.18 45.0042 17.18C44.3802 17.18 43.8222 17.054 43.3302 16.802C42.8382 16.538 42.4542 16.19 42.1782 15.758C41.9022 15.314 41.7642 14.822 41.7642 14.282ZM47.8842 14.948C48.0282 14.78 48.1422 14.612 48.2262 14.444C48.3102 14.264 48.3522 14.114 48.3522 13.994V12.824C47.9802 12.68 47.5902 12.572 47.1822 12.5C46.7742 12.416 46.3722 12.374 45.9762 12.374C45.1722 12.374 44.5182 12.536 44.0142 12.86C43.5222 13.172 43.2762 13.604 43.2762 14.156C43.2762 14.456 43.3542 14.75 43.5102 15.038C43.6782 15.314 43.9182 15.542 44.2302 15.722C44.5542 15.902 44.9502 15.992 45.4182 15.992C45.9102 15.992 46.3782 15.896 46.8222 15.704C47.2662 15.5 47.6202 15.248 47.8842 14.948ZM57.473 17.18C56.741 17.18 56.075 17 55.475 16.64C54.875 16.28 54.401 15.812 54.053 15.236V17H52.649V3.86H54.233V9.476C54.629 8.864 55.115 8.372 55.691 8C56.267 7.628 56.939 7.442 57.707 7.442C58.355 7.442 58.937 7.58 59.453 7.856C59.969 8.12 60.407 8.486 60.767 8.954C61.139 9.41 61.421 9.932 61.613 10.52C61.817 11.096 61.919 11.702 61.919 12.338C61.919 12.998 61.805 13.622 61.577 14.21C61.361 14.786 61.049 15.302 60.641 15.758C60.233 16.202 59.759 16.55 59.219 16.802C58.691 17.054 58.109 17.18 57.473 17.18ZM57.077 15.812C57.545 15.812 57.977 15.716 58.373 15.524C58.769 15.332 59.111 15.074 59.399 14.75C59.687 14.426 59.909 14.054 60.065 13.634C60.221 13.214 60.299 12.782 60.299 12.338C60.299 11.726 60.167 11.15 59.903 10.61C59.651 10.07 59.291 9.638 58.823 9.314C58.367 8.978 57.833 8.81 57.221 8.81C56.777 8.81 56.363 8.912 55.979 9.116C55.595 9.32 55.253 9.59 54.953 9.926C54.665 10.25 54.425 10.61 54.233 11.006V13.724C54.293 14.024 54.419 14.3 54.611 14.552C54.803 14.804 55.037 15.026 55.313 15.218C55.589 15.398 55.877 15.542 56.177 15.65C56.489 15.758 56.789 15.812 57.077 15.812ZM64.0799 3.86H65.6639V14.57C65.6639 15.086 65.7359 15.404 65.8799 15.524C66.0239 15.644 66.1979 15.704 66.4019 15.704C66.6539 15.704 66.8939 15.68 67.1219 15.632C67.3499 15.572 67.5419 15.512 67.6979 15.452L67.9499 16.748C67.6859 16.856 67.3739 16.946 67.0139 17.018C66.6539 17.09 66.3359 17.126 66.0599 17.126C65.4479 17.126 64.9619 16.952 64.6019 16.604C64.2539 16.256 64.0799 15.77 64.0799 15.146V3.86ZM73.5323 17.18C72.8243 17.18 72.1763 17.054 71.5883 16.802C71.0123 16.538 70.5083 16.184 70.0763 15.74C69.6563 15.284 69.3263 14.762 69.0863 14.174C68.8583 13.586 68.7443 12.962 68.7443 12.302C68.7443 11.414 68.9483 10.604 69.3563 9.872C69.7643 9.14 70.3283 8.552 71.0483 8.108C71.7803 7.664 72.6143 7.442 73.5503 7.442C74.4983 7.442 75.3203 7.67 76.0163 8.126C76.7243 8.57 77.2703 9.158 77.6543 9.89C78.0503 10.61 78.2483 11.39 78.2483 12.23C78.2483 12.35 78.2423 12.47 78.2303 12.59C78.2303 12.698 78.2243 12.782 78.2123 12.842H70.4183C70.4663 13.454 70.6343 14 70.9223 14.48C71.2223 14.948 71.6063 15.32 72.0743 15.596C72.5423 15.86 73.0463 15.992 73.5863 15.992C74.1623 15.992 74.7023 15.848 75.2063 15.56C75.7223 15.272 76.0763 14.894 76.2683 14.426L77.6363 14.804C77.4323 15.26 77.1263 15.668 76.7183 16.028C76.3223 16.388 75.8483 16.67 75.2963 16.874C74.7563 17.078 74.1683 17.18 73.5323 17.18ZM70.3643 11.744H76.7723C76.7243 11.132 76.5503 10.592 76.2503 10.124C75.9503 9.656 75.5663 9.29 75.0983 9.026C74.6303 8.762 74.1143 8.63 73.5503 8.63C72.9983 8.63 72.4883 8.762 72.0203 9.026C71.5523 9.29 71.1683 9.656 70.8683 10.124C70.5803 10.592 70.4123 11.132 70.3643 11.744ZM84.3458 10.52C84.3458 9.74 84.4778 8.978 84.7418 8.234C85.0178 7.478 85.4138 6.794 85.9298 6.182C86.4578 5.558 87.0998 5.066 87.8558 4.706C88.6118 4.334 89.4698 4.148 90.4298 4.148C91.5698 4.148 92.5478 4.412 93.3638 4.94C94.1798 5.456 94.7858 6.122 95.1818 6.938L93.9038 7.766C93.6518 7.226 93.3278 6.8 92.9318 6.488C92.5478 6.164 92.1278 5.936 91.6718 5.804C91.2278 5.672 90.7898 5.606 90.3578 5.606C89.6498 5.606 89.0198 5.75 88.4678 6.038C87.9278 6.326 87.4718 6.71 87.0998 7.19C86.7278 7.67 86.4458 8.21 86.2538 8.81C86.0738 9.398 85.9838 9.992 85.9838 10.592C85.9838 11.252 86.0918 11.888 86.3078 12.5C86.5358 13.112 86.8478 13.652 87.2438 14.12C87.6398 14.588 88.1078 14.96 88.6478 15.236C89.1878 15.512 89.7758 15.65 90.4118 15.65C90.8558 15.65 91.3118 15.572 91.7798 15.416C92.2478 15.26 92.6858 15.02 93.0938 14.696C93.5018 14.36 93.8258 13.928 94.0658 13.4L95.4158 14.138C95.1518 14.774 94.7438 15.314 94.1918 15.758C93.6398 16.202 93.0218 16.538 92.3378 16.766C91.6658 16.994 90.9998 17.108 90.3398 17.108C89.4638 17.108 88.6598 16.922 87.9278 16.55C87.1958 16.166 86.5598 15.662 86.0198 15.038C85.4918 14.402 85.0778 13.694 84.7778 12.914C84.4898 12.122 84.3458 11.324 84.3458 10.52ZM101.475 17.18C100.767 17.18 100.125 17.054 99.5493 16.802C98.9733 16.538 98.4753 16.184 98.0553 15.74C97.6353 15.284 97.3113 14.762 97.0833 14.174C96.8553 13.586 96.7413 12.968 96.7413 12.32C96.7413 11.66 96.8553 11.036 97.0833 10.448C97.3113 9.86 97.6353 9.344 98.0553 8.9C98.4753 8.444 98.9733 8.09 99.5493 7.838C100.137 7.574 100.779 7.442 101.475 7.442C102.183 7.442 102.825 7.574 103.401 7.838C103.977 8.09 104.475 8.444 104.895 8.9C105.327 9.344 105.657 9.86 105.885 10.448C106.113 11.036 106.227 11.66 106.227 12.32C106.227 12.968 106.113 13.586 105.885 14.174C105.657 14.762 105.333 15.284 104.913 15.74C104.493 16.184 103.989 16.538 103.401 16.802C102.825 17.054 102.183 17.18 101.475 17.18ZM98.3613 12.338C98.3613 12.986 98.4993 13.574 98.7753 14.102C99.0633 14.63 99.4413 15.05 99.9093 15.362C100.377 15.662 100.899 15.812 101.475 15.812C102.051 15.812 102.573 15.656 103.041 15.344C103.521 15.032 103.899 14.612 104.175 14.084C104.463 13.544 104.607 12.95 104.607 12.302C104.607 11.654 104.463 11.066 104.175 10.538C103.899 10.01 103.521 9.59 103.041 9.278C102.573 8.966 102.051 8.81 101.475 8.81C100.899 8.81 100.377 8.972 99.9093 9.296C99.4413 9.608 99.0633 10.028 98.7753 10.556C98.4993 11.084 98.3613 11.678 98.3613 12.338ZM108.363 3.86H109.947V14.57C109.947 15.086 110.019 15.404 110.163 15.524C110.307 15.644 110.481 15.704 110.685 15.704C110.937 15.704 111.177 15.68 111.405 15.632C111.633 15.572 111.825 15.512 111.981 15.452L112.233 16.748C111.969 16.856 111.657 16.946 111.297 17.018C110.937 17.09 110.619 17.126 110.343 17.126C109.731 17.126 109.245 16.952 108.885 16.604C108.537 16.256 108.363 15.77 108.363 15.146V3.86ZM117.761 17.18C117.053 17.18 116.411 17.054 115.835 16.802C115.259 16.538 114.761 16.184 114.341 15.74C113.921 15.284 113.597 14.762 113.369 14.174C113.141 13.586 113.027 12.968 113.027 12.32C113.027 11.66 113.141 11.036 113.369 10.448C113.597 9.86 113.921 9.344 114.341 8.9C114.761 8.444 115.259 8.09 115.835 7.838C116.423 7.574 117.065 7.442 117.761 7.442C118.469 7.442 119.111 7.574 119.687 7.838C120.263 8.09 120.761 8.444 121.181 8.9C121.613 9.344 121.943 9.86 122.171 10.448C122.399 11.036 122.513 11.66 122.513 12.32C122.513 12.968 122.399 13.586 122.171 14.174C121.943 14.762 121.619 15.284 121.199 15.74C120.779 16.184 120.275 16.538 119.687 16.802C119.111 17.054 118.469 17.18 117.761 17.18ZM114.647 12.338C114.647 12.986 114.785 13.574 115.061 14.102C115.349 14.63 115.727 15.05 116.195 15.362C116.663 15.662 117.185 15.812 117.761 15.812C118.337 15.812 118.859 15.656 119.327 15.344C119.807 15.032 120.185 14.612 120.461 14.084C120.749 13.544 120.893 12.95 120.893 12.302C120.893 11.654 120.749 11.066 120.461 10.538C120.185 10.01 119.807 9.59 119.327 9.278C118.859 8.966 118.337 8.81 117.761 8.81C117.185 8.81 116.663 8.972 116.195 9.296C115.727 9.608 115.349 10.028 115.061 10.556C114.785 11.084 114.647 11.678 114.647 12.338ZM129.58 8.99C128.788 9.002 128.086 9.206 127.474 9.602C126.874 9.986 126.448 10.52 126.196 11.204V17H124.612V7.604H126.088V9.782C126.412 9.134 126.838 8.612 127.366 8.216C127.906 7.808 128.47 7.58 129.058 7.532C129.178 7.532 129.28 7.532 129.364 7.532C129.448 7.532 129.52 7.538 129.58 7.55V8.99ZM134.554 17.18C133.774 17.18 133.042 17.054 132.358 16.802C131.674 16.538 131.086 16.148 130.594 15.632L131.206 14.516C131.746 15.02 132.286 15.38 132.826 15.596C133.366 15.812 133.918 15.92 134.482 15.92C135.13 15.92 135.658 15.8 136.066 15.56C136.474 15.308 136.678 14.942 136.678 14.462C136.678 14.114 136.57 13.856 136.354 13.688C136.15 13.52 135.856 13.382 135.472 13.274C135.088 13.154 134.632 13.022 134.104 12.878C133.456 12.686 132.91 12.482 132.466 12.266C132.022 12.05 131.686 11.78 131.458 11.456C131.23 11.132 131.116 10.724 131.116 10.232C131.116 9.632 131.272 9.128 131.584 8.72C131.896 8.3 132.322 7.982 132.862 7.766C133.414 7.55 134.038 7.442 134.734 7.442C135.43 7.442 136.06 7.55 136.624 7.766C137.188 7.982 137.674 8.3 138.082 8.72L137.362 9.818C136.99 9.434 136.582 9.152 136.138 8.972C135.694 8.78 135.196 8.684 134.644 8.684C134.32 8.684 134.002 8.726 133.69 8.81C133.378 8.882 133.12 9.02 132.916 9.224C132.712 9.416 132.61 9.692 132.61 10.052C132.61 10.352 132.688 10.592 132.844 10.772C133.012 10.94 133.252 11.084 133.564 11.204C133.888 11.324 134.278 11.456 134.734 11.6C135.442 11.804 136.054 12.008 136.57 12.212C137.098 12.416 137.506 12.68 137.794 13.004C138.082 13.328 138.226 13.778 138.226 14.354C138.226 15.242 137.89 15.938 137.218 16.442C136.546 16.934 135.658 17.18 134.554 17.18Z" fill="black"/>
<circle cx="12" cy="49" r="12" fill="#355655"/>
<g clip-path="url(#clip0_2_10980)">
<path d="M10.6665 51.1145L16.7945 44.9858L17.7378 45.9285L10.6665 52.9998L6.42383 48.7572L7.36649 47.8145L10.6665 51.1145Z" fill="white"/>
</g>
<circle cx="46" cy="49" r="12" fill="#F26947"/>
<circle cx="80" cy="49" r="12" fill="#CA8152"/>
<circle cx="114" cy="49" r="12" fill="#EBC5AD"/>
<circle cx="148" cy="49" r="12" fill="#292928"/>
<defs>
<clipPath id="clip0_2_10980">
<rect width="16" height="16" fill="white" transform="translate(4 41)"/>
</clipPath>
</defs>
</svg>
