<svg width="72" height="32" viewBox="0 0 72 32" fill="none" xmlns="http://www.w3.org/2000/svg">
<g opacity="0.4">
<path fill-rule="evenodd" clip-rule="evenodd" d="M13.2929 25.7071C13.6834 26.0976 14.3166 26.0976 14.7071 25.7071C15.0976 25.3166 15.0976 24.6834 14.7071 24.2929L7.41421 17H27C27.5523 17 28 16.5523 28 16C28 15.4477 27.5523 15 27 15L7.41421 15L14.7071 7.70711C15.0976 7.31658 15.0976 6.68342 14.7071 6.29289C14.3166 5.90237 13.6834 5.90237 13.2929 6.29289L4.29289 15.2929C4.10983 15.476 4.01258 15.7123 4.00114 15.952C4.00038 15.968 4 15.984 4 16M4.00004 16.0092C4.00236 16.2621 4.09998 16.5142 4.29289 16.7071L13.2929 25.7071" fill="#0F3141"/>
</g>
<path fill-rule="evenodd" clip-rule="evenodd" d="M58.7071 6.29289C58.3166 5.90237 57.6834 5.90237 57.2929 6.29289C56.9024 6.68342 56.9024 7.31658 57.2929 7.70711L64.5858 15H45C44.4477 15 44 15.4477 44 16C44 16.5523 44.4477 17 45 17H64.5858L57.2929 24.2929C56.9024 24.6834 56.9024 25.3166 57.2929 25.7071C57.6834 26.0976 58.3166 26.0976 58.7071 25.7071L67.7071 16.7071C67.8902 16.524 67.9874 16.2877 67.9989 16.048C67.9996 16.032 68 16.016 68 16M68 15.9908C67.9976 15.7379 67.9 15.4858 67.7071 15.2929L58.7071 6.29289" fill="#286F6C"/>
</svg>
