<svg width="42" height="43" viewBox="0 0 42 43" fill="none" xmlns="http://www.w3.org/2000/svg">
<circle cx="21" cy="21.5" r="21" fill="#F16F4F"/>
<path d="M27.4483 26.4412L32 28.741C30.8906 30.1831 29.4794 31.3368 27.7664 32.2021C26.0697 33.0674 24.2262 33.5 22.2358 33.5C19.9844 33.5 17.9288 32.9611 16.069 31.8833C14.2254 30.8055 12.749 29.3634 11.6396 27.5569C10.5465 25.7353 10 23.7239 10 21.5228C10 19.8529 10.3181 18.297 10.9544 16.8548C11.5907 15.3975 12.4635 14.1224 13.5729 13.0294C14.6986 11.9213 16.0037 11.056 17.4883 10.4336C18.9729 9.8112 20.5554 9.5 22.2358 9.5C24.2262 9.5 26.0697 9.93264 27.7664 10.7979C29.4794 11.6632 30.8906 12.8245 32 14.2818L27.4483 16.5816C26.7631 15.8226 25.9637 15.2457 25.0501 14.851C24.1364 14.4412 23.1984 14.2362 22.2358 14.2362C20.898 14.2362 19.6826 14.5778 18.5895 15.2609C17.5128 15.9288 16.6563 16.8169 16.02 17.925C15.4001 19.018 15.0901 20.2173 15.0901 21.5228C15.0901 22.8131 15.4082 24.0123 16.0445 25.1205C16.6808 26.2135 17.5373 27.0939 18.614 27.7619C19.7071 28.4298 20.9143 28.7638 22.2358 28.7638C23.2473 28.7638 24.2099 28.5512 25.1235 28.1262C26.0371 27.7011 26.812 27.1395 27.4483 26.4412Z" fill="white"/>
</svg>
