<svg width="47" height="47" viewBox="0 0 47 47" fill="none" xmlns="http://www.w3.org/2000/svg">
<path d="M13.7087 43.0837H7.83366C6.79489 43.0837 5.79867 42.671 5.06416 41.9365C4.32964 41.202 3.91699 40.2058 3.91699 39.167V25.4587C3.91699 24.4199 4.32964 23.4237 5.06416 22.6892C5.79867 21.9546 6.79489 21.542 7.83366 21.542H13.7087M27.417 17.6253V9.79199C27.417 8.23385 26.798 6.73952 25.6962 5.63774C24.5945 4.53596 23.1001 3.91699 21.542 3.91699L13.7087 21.542V43.0837H35.7987C36.7432 43.0943 37.6598 42.7633 38.3796 42.1515C39.0993 41.5397 39.5737 40.6884 39.7153 39.7545L42.4178 22.1295C42.503 21.5681 42.4652 20.995 42.3069 20.4497C42.1486 19.9045 41.8736 19.4002 41.501 18.9717C41.1285 18.5433 40.6672 18.2009 40.1492 17.9685C39.6312 17.736 39.0689 17.6189 38.5012 17.6253H27.417Z" stroke="#F26440" stroke-width="3" stroke-linecap="round" stroke-linejoin="round"/>
</svg>
