<svg width="63" height="44" viewBox="0 0 63 44" fill="none" xmlns="http://www.w3.org/2000/svg">
<path d="M9.10001 44C7.70001 44 6.30001 43.2 5.10001 42.5C3.20001 41.5 2 40.9 1 41.5L0 40C2 38.7 4.09999 39.9 5.89999 40.9C7.79999 41.9 9 42.5 10 41.9C11 41.2 11 39.9 10.7 37.8C10.5 35.7 10.3 33.3 12.2 32C14.2 30.7 16.3 31.9 18.1 32.9C20 33.9 21.2 34.5 22.2 33.9C23.2 33.2 23.2 31.9 22.9 29.8C22.7 27.7 22.5 25.3 24.4 24C26.4 22.7 28.5 23.9 30.3 24.9C32.2 25.9 33.4 26.5 34.4 25.9C35.4 25.2 35.4 23.9 35.1 21.8C34.9 19.7 34.7 17.3 36.6 16C38.6 14.7 40.7 15.9 42.5 16.9C44.4 17.9 45.6 18.5 46.6 17.9C47.6 17.2 47.6 15.9 47.3 13.8C47.1 11.7 46.9 9.3 48.8 8C50.8 6.7 52.9 7.89999 54.7 8.89999C56.6 9.89999 57.8 10.5 58.8 9.89999C59.8 9.19999 59.8 7.90002 59.6 5.80002C59.4 3.70002 59.2 1.3 61.1 0L62.1 1.5C61.1 2.2 61.1 3.50001 61.3 5.60001C61.5 7.70001 61.7 10.1 59.8 11.4C57.8 12.7 55.7 11.5 53.9 10.5C52 9.5 50.8 8.9 49.8 9.5C48.8 10.2 48.8 11.5 49.1 13.6C49.3 15.7 49.5 18.1 47.6 19.4C45.6 20.7 43.5 19.5 41.7 18.5C39.8 17.5 38.6 16.9 37.6 17.5C36.6 18.2 36.6 19.5 36.9 21.6C37.1 23.7 37.3 26.1 35.4 27.4C33.4 28.7 31.3 27.5 29.5 26.5C27.6 25.5 26.4 24.9 25.4 25.5C24.4 26.2 24.4 27.5 24.7 29.6C24.9 31.7 25.1 34.1 23.2 35.4C21.2 36.7 19.1 35.5 17.3 34.5C15.4 33.5 14.2 32.9 13.2 33.5C12.2 34.2 12.2 35.5 12.5 37.6C12.7 39.7 12.9 42.1 11 43.4C10.3 43.8 9.70001 44 9.10001 44Z" fill="white"/>
</svg>
