<svg width="250" height="176" viewBox="0 0 250 176" fill="none" xmlns="http://www.w3.org/2000/svg">
<g filter="url(#filter0_d_2_6349)">
<rect x="40" y="10" width="170" height="96" rx="16" fill="white"/>
</g>
<g clip-path="url(#clip0_2_6349)">
<path fill-rule="evenodd" clip-rule="evenodd" d="M137.899 67.0247C131.914 71.573 123.238 73.9997 115.768 73.9997C105.295 73.9997 95.8661 70.006 88.7328 63.3638C88.1724 62.8415 88.6745 62.1297 89.3471 62.5364C97.0453 67.1541 106.564 69.9321 116.396 69.9321C123.027 69.9321 130.322 68.5176 137.029 65.5825C138.043 65.1388 138.89 66.2666 137.899 67.0247Z" fill="#FF9900"/>
<path fill-rule="evenodd" clip-rule="evenodd" d="M140.388 64.09C139.626 63.0824 135.33 63.6139 133.403 63.8497C132.815 63.9236 132.725 63.3967 133.255 63.0177C136.675 60.5355 142.289 61.2519 142.943 62.084C143.598 62.9206 142.773 68.7215 139.558 71.4903C139.065 71.9155 138.594 71.689 138.814 71.1251C139.536 69.267 141.154 65.1023 140.388 64.09Z" fill="#FF9900"/>
<path fill-rule="evenodd" clip-rule="evenodd" d="M133.537 45.4946V43.0818C133.537 42.7167 133.806 42.4717 134.129 42.4717H144.607C144.943 42.4717 145.212 42.7213 145.212 43.0818V45.148C145.207 45.4946 144.925 45.9476 144.423 46.6641L138.993 54.656C141.011 54.6051 143.141 54.9148 144.97 55.978C145.382 56.2183 145.494 56.5696 145.526 56.9163V59.4909C145.526 59.8422 145.149 60.2536 144.755 60.0409C141.531 58.2983 137.249 58.1088 133.685 60.0594C133.322 60.2628 132.941 59.856 132.941 59.5047V57.0596C132.941 56.6667 132.945 55.9964 133.326 55.4002L139.617 46.1002H134.142C133.806 46.1002 133.537 45.8552 133.537 45.4946Z" fill="#101010"/>
<path fill-rule="evenodd" clip-rule="evenodd" d="M95.3147 60.5495H92.1269C91.822 60.5264 91.5799 60.2906 91.5575 59.9902V43.1235C91.5575 42.7861 91.831 42.518 92.1717 42.518H95.1443C95.4537 42.5319 95.7003 42.7769 95.7227 43.0819V45.2868H95.781C96.5566 43.1559 98.0138 42.1621 99.9776 42.1621C101.973 42.1621 103.219 43.1559 104.116 45.2868C104.887 43.1559 106.64 42.1621 108.519 42.1621C109.855 42.1621 111.316 42.7306 112.209 44.0064C113.217 45.4254 113.011 47.487 113.011 49.2943L113.007 59.9394C113.007 60.2768 112.733 60.5495 112.392 60.5495H109.209C108.891 60.5264 108.635 60.2629 108.635 59.9394V50.9999C108.635 50.2881 108.698 48.5131 108.546 47.8383C108.308 46.7058 107.595 46.3869 106.671 46.3869C105.9 46.3869 105.093 46.9184 104.766 47.7689C104.439 48.6194 104.47 50.0431 104.47 50.9999V59.9394C104.47 60.2768 104.197 60.5495 103.856 60.5495H100.673C100.35 60.5264 100.099 60.2629 100.099 59.9394L100.094 50.9999C100.094 49.1186 100.395 46.3499 98.1303 46.3499C95.8393 46.3499 95.9289 49.0493 95.9289 50.9999V59.9394C95.9289 60.2768 95.6554 60.5495 95.3147 60.5495" fill="#101010"/>
<path fill-rule="evenodd" clip-rule="evenodd" d="M154.233 42.1621C158.963 42.1621 161.523 46.3499 161.523 51.6747C161.523 56.8193 158.694 60.9008 154.233 60.9008C149.588 60.9008 147.059 56.713 147.059 51.4945C147.059 46.2436 149.619 42.1621 154.233 42.1621ZM154.259 45.6057C151.91 45.6057 151.762 48.906 151.762 50.9629C151.762 53.0244 151.731 57.4248 154.233 57.4248C156.703 57.4248 156.82 53.8749 156.82 51.7117C156.82 50.2881 156.761 48.5871 156.344 47.2374C155.986 46.0633 155.273 45.6057 154.259 45.6057Z" fill="#101010"/>
<path fill-rule="evenodd" clip-rule="evenodd" d="M167.656 60.5495H164.482C164.164 60.5264 163.908 60.2629 163.908 59.9394L163.904 43.0681C163.931 42.7584 164.195 42.518 164.518 42.518H167.473C167.751 42.5319 167.979 42.726 168.042 42.9895V45.5687H168.1C168.992 43.2622 170.243 42.1621 172.445 42.1621C173.875 42.1621 175.269 42.6937 176.166 44.1497C177 45.4994 177 47.7689 177 49.4006V60.0179C176.964 60.3138 176.7 60.5495 176.386 60.5495H173.189C172.898 60.5264 172.655 60.3045 172.624 60.0179V50.8566C172.624 49.0123 172.83 46.3129 170.629 46.3129C169.853 46.3129 169.14 46.8491 168.786 47.6626C168.338 48.6934 168.28 49.7195 168.28 50.8566V59.9394C168.275 60.2768 167.997 60.5495 167.656 60.5495" fill="#101010"/>
<path fill-rule="evenodd" clip-rule="evenodd" d="M125.184 52.4926C125.184 53.7729 125.215 54.8407 124.588 55.9777C124.081 56.9022 123.274 57.4707 122.382 57.4707C121.158 57.4707 120.44 56.5093 120.44 55.0903C120.44 52.2892 122.875 51.7807 125.184 51.7807V52.4926ZM128.399 60.5029C128.188 60.6971 127.883 60.7109 127.645 60.5815C126.587 59.6756 126.395 59.2549 125.816 58.3906C124.068 60.2302 122.826 60.7803 120.561 60.7803C117.876 60.7803 115.791 59.0747 115.791 55.6588C115.791 52.9918 117.19 51.1752 119.19 50.2877C120.92 49.5019 123.337 49.3633 125.184 49.146V48.7208C125.184 47.9396 125.242 47.0152 124.794 46.3403C124.408 45.7348 123.664 45.4852 123.005 45.4852C121.79 45.4852 120.709 46.1277 120.445 47.4589C120.391 47.7547 120.18 48.0459 119.889 48.0598L116.8 47.7177C116.54 47.6577 116.248 47.4404 116.325 47.029C117.033 43.1648 120.423 42 123.453 42C125.005 42 127.031 42.4252 128.255 43.6363C129.807 45.1293 129.659 47.1215 129.659 49.2893V54.4108C129.659 55.95 130.277 56.6249 130.86 57.4569C131.062 57.7527 131.107 58.1086 130.847 58.3305C130.197 58.8898 129.04 59.9298 128.403 60.5122L128.399 60.5029" fill="#101010"/>
<path fill-rule="evenodd" clip-rule="evenodd" d="M83.393 52.4926C83.393 53.7729 83.4244 54.8407 82.7967 55.9777C82.29 56.9022 81.4875 57.4707 80.5908 57.4707C79.3668 57.4707 78.6539 56.5093 78.6539 55.0903C78.6539 52.2892 81.0884 51.7807 83.393 51.7807V52.4926ZM86.6077 60.5029C86.3969 60.6971 86.0921 60.7109 85.8544 60.5815C84.7963 59.6756 84.608 59.2549 84.0252 58.3906C82.2766 60.2302 81.0391 60.7803 78.7705 60.7803C76.0893 60.7803 74 59.0747 74 55.6588C74 52.9918 75.4033 51.1752 77.3985 50.2877C79.1291 49.5019 81.5458 49.3633 83.393 49.146V48.7208C83.393 47.9396 83.4513 47.0152 83.0074 46.3403C82.6173 45.7348 81.8731 45.4852 81.2185 45.4852C80.0034 45.4852 78.9184 46.1277 78.6539 47.4589C78.6001 47.7547 78.3894 48.0459 78.1024 48.0598L75.0088 47.7177C74.7487 47.6577 74.4618 47.4404 74.5335 47.029C75.2464 43.1648 78.6315 42 81.6623 42C83.2136 42 85.2402 42.4252 86.4642 43.6363C88.0155 45.1293 87.8675 47.1215 87.8675 49.2893V54.4108C87.8675 55.95 88.4863 56.6249 89.0691 57.4569C89.2754 57.7527 89.3202 58.1086 89.0602 58.3305C88.41 58.8898 87.2533 59.9298 86.6166 60.5122L86.6077 60.5029" fill="#101010"/>
</g>
<defs>
<filter id="filter0_d_2_6349" x="0" y="0" width="250" height="176" filterUnits="userSpaceOnUse" color-interpolation-filters="sRGB">
<feFlood flood-opacity="0" result="BackgroundImageFix"/>
<feColorMatrix in="SourceAlpha" type="matrix" values="0 0 0 0 0 0 0 0 0 0 0 0 0 0 0 0 0 0 127 0" result="hardAlpha"/>
<feOffset dy="30"/>
<feGaussianBlur stdDeviation="20"/>
<feColorMatrix type="matrix" values="0 0 0 0 0.831373 0 0 0 0 0.85098 0 0 0 0 0.909804 0 0 0 0.2 0"/>
<feBlend mode="normal" in2="BackgroundImageFix" result="effect1_dropShadow_2_6349"/>
<feBlend mode="normal" in="SourceGraphic" in2="effect1_dropShadow_2_6349" result="shape"/>
</filter>
<clipPath id="clip0_2_6349">
<rect width="103" height="32" fill="white" transform="translate(74 42)"/>
</clipPath>
</defs>
</svg>
