<svg width="347" height="351" viewBox="0 0 347 351" fill="none" xmlns="http://www.w3.org/2000/svg">
<g filter="url(#filter0_d_2_6287)">
<rect x="60" y="40" width="187" height="208" rx="8" fill="white"/>
<path d="M87.8686 62.6328H85.6911C85.6513 62.3511 85.5701 62.1009 85.4474 61.8821C85.3248 61.66 85.1674 61.4711 84.9751 61.3153C84.7829 61.1596 84.5608 61.0402 84.3089 60.9574C84.0604 60.8745 83.7902 60.8331 83.4986 60.8331C82.9716 60.8331 82.5125 60.964 82.1214 61.2259C81.7304 61.4844 81.4271 61.8622 81.2116 62.3594C80.9962 62.8532 80.8885 63.4531 80.8885 64.1591C80.8885 64.8849 80.9962 65.4948 81.2116 65.9886C81.4304 66.4825 81.7353 66.8554 82.1264 67.1072C82.5175 67.3591 82.9699 67.4851 83.4837 67.4851C83.772 67.4851 84.0388 67.447 84.2841 67.3707C84.5327 67.2945 84.7531 67.1835 84.9453 67.0376C85.1375 66.8885 85.2966 66.7079 85.4226 66.4957C85.5518 66.2836 85.6413 66.0417 85.6911 65.7699L87.8686 65.7798C87.8123 66.2472 87.6714 66.6979 87.446 67.1321C87.224 67.563 86.924 67.9491 86.5462 68.2905C86.1716 68.6286 85.7242 68.897 85.2038 69.0959C84.6868 69.2914 84.1018 69.3892 83.4489 69.3892C82.5407 69.3892 81.7287 69.1837 81.0128 68.7727C80.3002 68.3617 79.7367 67.7668 79.3224 66.9879C78.9115 66.209 78.706 65.2661 78.706 64.1591C78.706 63.0488 78.9148 62.1042 79.3324 61.3253C79.75 60.5464 80.3168 59.9531 81.0327 59.5455C81.7486 59.1345 82.554 58.929 83.4489 58.929C84.0388 58.929 84.5857 59.0118 85.0895 59.1776C85.5966 59.3433 86.0457 59.5852 86.4368 59.9034C86.8279 60.2183 87.1461 60.6044 87.3913 61.0618C87.6399 61.5192 87.799 62.0429 87.8686 62.6328ZM94.2695 65.9986V61.6136H96.3874V69.25H94.354V67.8629H94.2745C94.1022 68.3104 93.8155 68.67 93.4144 68.9418C93.0167 69.2135 92.5311 69.3494 91.9577 69.3494C91.4473 69.3494 90.9982 69.2334 90.6104 69.0014C90.2227 68.7694 89.9194 68.4396 89.7006 68.0121C89.4852 67.5845 89.3758 67.0724 89.3725 66.4759V61.6136H91.4904V66.098C91.4937 66.5488 91.6147 66.9051 91.8533 67.1669C92.092 67.4287 92.4118 67.5597 92.8129 67.5597C93.0681 67.5597 93.3067 67.5017 93.5288 67.3857C93.7508 67.2663 93.9298 67.0907 94.0657 66.8587C94.2049 66.6267 94.2728 66.34 94.2695 65.9986ZM104.435 63.7912L102.496 63.9105C102.463 63.7448 102.392 63.5956 102.282 63.4631C102.173 63.3272 102.029 63.2195 101.85 63.1399C101.674 63.0571 101.464 63.0156 101.219 63.0156C100.89 63.0156 100.614 63.0852 100.388 63.2244C100.163 63.3603 100.05 63.5426 100.05 63.7713C100.05 63.9536 100.123 64.1077 100.269 64.2337C100.415 64.3596 100.665 64.4607 101.02 64.5369L102.402 64.8153C103.144 64.9678 103.698 65.2131 104.062 65.5511C104.427 65.8892 104.609 66.3333 104.609 66.8835C104.609 67.384 104.462 67.8232 104.167 68.201C103.875 68.5788 103.474 68.8738 102.964 69.0859C102.456 69.2947 101.872 69.3991 101.209 69.3991C100.198 69.3991 99.3923 69.1887 98.7924 68.7678C98.1958 68.3435 97.8462 67.7668 97.7434 67.0376L99.8265 66.9283C99.8895 67.2365 100.042 67.4718 100.284 67.6342C100.526 67.7933 100.836 67.8729 101.214 67.8729C101.585 67.8729 101.883 67.8016 102.108 67.6591C102.337 67.5133 102.453 67.326 102.456 67.0973C102.453 66.9051 102.372 66.7476 102.213 66.625C102.054 66.4991 101.809 66.4029 101.477 66.3366L100.155 66.0732C99.4089 65.924 98.8538 65.6655 98.4892 65.2976C98.1279 64.9297 97.9473 64.4607 97.9473 63.8906C97.9473 63.4001 98.0798 62.9775 98.345 62.6229C98.6135 62.2682 98.9896 61.9948 99.4735 61.8026C99.9608 61.6103 100.531 61.5142 101.184 61.5142C102.148 61.5142 102.907 61.718 103.461 62.1257C104.018 62.5334 104.342 63.0885 104.435 63.7912ZM110.005 61.6136V63.2045H105.406V61.6136H110.005ZM106.45 59.7841H108.568V66.9034C108.568 67.099 108.598 67.2514 108.657 67.3608C108.717 67.4669 108.8 67.5414 108.906 67.5845C109.015 67.6276 109.141 67.6491 109.284 67.6491C109.383 67.6491 109.483 67.6409 109.582 67.6243C109.681 67.6044 109.758 67.5895 109.811 67.5795L110.144 69.1555C110.038 69.1887 109.889 69.2268 109.696 69.2699C109.504 69.3163 109.27 69.3445 108.995 69.3544C108.485 69.3743 108.038 69.3063 107.653 69.1506C107.272 68.9948 106.975 68.7528 106.763 68.4247C106.551 68.0966 106.447 67.6823 106.45 67.1818V59.7841ZM114.752 69.3991C113.98 69.3991 113.312 69.2351 112.749 68.907C112.189 68.5755 111.756 68.1148 111.451 67.5249C111.146 66.9316 110.994 66.2438 110.994 65.4616C110.994 64.6728 111.146 63.9834 111.451 63.3935C111.756 62.8002 112.189 62.3395 112.749 62.0114C113.312 61.6799 113.98 61.5142 114.752 61.5142C115.525 61.5142 116.191 61.6799 116.751 62.0114C117.315 62.3395 117.749 62.8002 118.054 63.3935C118.359 63.9834 118.511 64.6728 118.511 65.4616C118.511 66.2438 118.359 66.9316 118.054 67.5249C117.749 68.1148 117.315 68.5755 116.751 68.907C116.191 69.2351 115.525 69.3991 114.752 69.3991ZM114.762 67.7585C115.114 67.7585 115.407 67.6591 115.642 67.4602C115.878 67.258 116.055 66.983 116.174 66.6349C116.297 66.2869 116.358 65.8909 116.358 65.4467C116.358 65.0026 116.297 64.6065 116.174 64.2585C116.055 63.9105 115.878 63.6354 115.642 63.4332C115.407 63.2311 115.114 63.13 114.762 63.13C114.408 63.13 114.109 63.2311 113.868 63.4332C113.629 63.6354 113.448 63.9105 113.326 64.2585C113.206 64.6065 113.147 65.0026 113.147 65.4467C113.147 65.8909 113.206 66.2869 113.326 66.6349C113.448 66.983 113.629 67.258 113.868 67.4602C114.109 67.6591 114.408 67.7585 114.762 67.7585ZM119.888 69.25V61.6136H121.907V62.9609H121.996C122.155 62.5135 122.42 62.1605 122.792 61.902C123.163 61.6435 123.607 61.5142 124.124 61.5142C124.648 61.5142 125.093 61.6451 125.461 61.907C125.829 62.1655 126.074 62.5168 126.197 62.9609H126.277C126.432 62.5234 126.714 62.1738 127.122 61.9119C127.533 61.6468 128.018 61.5142 128.578 61.5142C129.291 61.5142 129.869 61.7412 130.314 62.1953C130.761 62.6461 130.985 63.2857 130.985 64.1143V69.25H128.872V64.532C128.872 64.1077 128.759 63.7895 128.534 63.5774C128.308 63.3653 128.027 63.2592 127.689 63.2592C127.304 63.2592 127.004 63.3819 126.789 63.6271C126.573 63.8691 126.466 64.1889 126.466 64.5866V69.25H124.412V64.4872C124.412 64.1127 124.305 63.8144 124.089 63.5923C123.877 63.3703 123.597 63.2592 123.249 63.2592C123.014 63.2592 122.801 63.3189 122.613 63.4382C122.427 63.5542 122.279 63.7183 122.17 63.9304C122.061 64.1392 122.006 64.3845 122.006 64.6662V69.25H119.888ZM136.138 69.3991C135.352 69.3991 134.676 69.2401 134.109 68.9219C133.546 68.6004 133.112 68.1463 132.807 67.5597C132.502 66.9697 132.349 66.272 132.349 65.4666C132.349 64.6811 132.502 63.9917 132.807 63.3984C133.112 62.8052 133.541 62.3428 134.094 62.0114C134.651 61.6799 135.304 61.5142 136.053 61.5142C136.557 61.5142 137.026 61.5954 137.46 61.7578C137.898 61.9169 138.279 62.1572 138.604 62.4787C138.932 62.8002 139.187 63.2045 139.369 63.6918C139.552 64.1757 139.643 64.7424 139.643 65.392V65.9737H133.195V64.6612H137.649C137.649 64.3563 137.583 64.0862 137.45 63.8509C137.318 63.6155 137.134 63.4316 136.898 63.299C136.666 63.1631 136.396 63.0952 136.088 63.0952C135.767 63.0952 135.482 63.1697 135.233 63.3189C134.988 63.4647 134.795 63.6619 134.656 63.9105C134.517 64.1558 134.446 64.4292 134.442 64.7308V65.9787C134.442 66.3565 134.512 66.683 134.651 66.9581C134.794 67.2332 134.994 67.4453 135.253 67.5945C135.511 67.7436 135.818 67.8182 136.173 67.8182C136.408 67.8182 136.623 67.785 136.819 67.7188C137.014 67.6525 137.182 67.553 137.321 67.4205C137.46 67.2879 137.566 67.1255 137.639 66.9332L139.598 67.0625C139.499 67.5331 139.295 67.9441 138.987 68.2955C138.682 68.6435 138.287 68.9152 137.803 69.1108C137.323 69.303 136.768 69.3991 136.138 69.3991ZM141.025 69.25V61.6136H143.078V62.946H143.158C143.297 62.4721 143.531 62.1141 143.859 61.8722C144.187 61.6269 144.565 61.5043 144.992 61.5043C145.098 61.5043 145.213 61.5109 145.335 61.5241C145.458 61.5374 145.566 61.5556 145.658 61.5788V63.4581C145.559 63.4283 145.421 63.4018 145.246 63.3786C145.07 63.3554 144.909 63.3438 144.763 63.3438C144.452 63.3438 144.174 63.4117 143.928 63.5476C143.686 63.6802 143.494 63.8658 143.352 64.1044C143.212 64.343 143.143 64.6181 143.143 64.9297V69.25H141.025ZM156.785 62.3594C156.715 62.1174 156.617 61.9036 156.491 61.718C156.366 61.5291 156.211 61.37 156.029 61.2408C155.85 61.1082 155.645 61.0071 155.413 60.9375C155.184 60.8679 154.93 60.8331 154.652 60.8331C154.132 60.8331 153.674 60.9624 153.28 61.2209C152.889 61.4794 152.584 61.8556 152.365 62.3494C152.146 62.84 152.037 63.4399 152.037 64.1491C152.037 64.8584 152.145 65.4616 152.36 65.9588C152.576 66.456 152.88 66.8355 153.275 67.0973C153.669 67.3558 154.135 67.4851 154.672 67.4851C155.159 67.4851 155.575 67.3989 155.92 67.2266C156.268 67.0509 156.533 66.804 156.715 66.4858C156.901 66.1676 156.994 65.7914 156.994 65.3572L157.431 65.4219H154.806V63.8011H159.067V65.0838C159.067 65.9787 158.878 66.7476 158.5 67.3906C158.122 68.0303 157.602 68.5241 156.939 68.8722C156.276 69.2169 155.517 69.3892 154.662 69.3892C153.707 69.3892 152.869 69.1787 152.146 68.7578C151.424 68.3336 150.86 67.732 150.456 66.9531C150.055 66.1709 149.854 65.2429 149.854 64.169C149.854 63.3437 149.974 62.608 150.212 61.9616C150.454 61.312 150.792 60.7618 151.227 60.3111C151.661 59.8603 152.166 59.5173 152.743 59.282C153.32 59.0466 153.944 58.929 154.617 58.929C155.194 58.929 155.731 59.0135 156.228 59.1825C156.725 59.3482 157.166 59.5836 157.55 59.8885C157.938 60.1934 158.255 60.5563 158.5 60.9773C158.745 61.3949 158.903 61.8556 158.972 62.3594H156.785ZM160.644 69.25V61.6136H162.697V62.946H162.777C162.916 62.4721 163.15 62.1141 163.478 61.8722C163.806 61.6269 164.184 61.5043 164.611 61.5043C164.717 61.5043 164.832 61.5109 164.954 61.5241C165.077 61.5374 165.185 61.5556 165.278 61.5788V63.4581C165.178 63.4283 165.041 63.4018 164.865 63.3786C164.689 63.3554 164.528 63.3438 164.383 63.3438C164.071 63.3438 163.793 63.4117 163.547 63.5476C163.305 63.6802 163.113 63.8658 162.971 64.1044C162.831 64.343 162.762 64.6181 162.762 64.9297V69.25H160.644ZM169.467 69.3991C168.695 69.3991 168.027 69.2351 167.464 68.907C166.904 68.5755 166.471 68.1148 166.166 67.5249C165.861 66.9316 165.709 66.2438 165.709 65.4616C165.709 64.6728 165.861 63.9834 166.166 63.3935C166.471 62.8002 166.904 62.3395 167.464 62.0114C168.027 61.6799 168.695 61.5142 169.467 61.5142C170.24 61.5142 170.906 61.6799 171.466 62.0114C172.029 62.3395 172.464 62.8002 172.768 63.3935C173.073 63.9834 173.226 64.6728 173.226 65.4616C173.226 66.2438 173.073 66.9316 172.768 67.5249C172.464 68.1148 172.029 68.5755 171.466 68.907C170.906 69.2351 170.24 69.3991 169.467 69.3991ZM169.477 67.7585C169.829 67.7585 170.122 67.6591 170.357 67.4602C170.593 67.258 170.77 66.983 170.889 66.6349C171.012 66.2869 171.073 65.8909 171.073 65.4467C171.073 65.0026 171.012 64.6065 170.889 64.2585C170.77 63.9105 170.593 63.6354 170.357 63.4332C170.122 63.2311 169.829 63.13 169.477 63.13C169.123 63.13 168.824 63.2311 168.582 63.4332C168.344 63.6354 168.163 63.9105 168.04 64.2585C167.921 64.6065 167.862 65.0026 167.862 65.4467C167.862 65.8909 167.921 66.2869 168.04 66.6349C168.163 66.983 168.344 67.258 168.582 67.4602C168.824 67.6591 169.123 67.7585 169.477 67.7585ZM175.918 69.25L173.84 61.6136H175.983L177.166 66.7443H177.235L178.468 61.6136H180.571L181.824 66.7145H181.889L183.052 61.6136H185.19L183.117 69.25H180.875L179.562 64.4474H179.468L178.155 69.25H175.918ZM190.382 61.6136V63.2045H185.783V61.6136H190.382ZM186.827 59.7841H188.945V66.9034C188.945 67.099 188.975 67.2514 189.034 67.3608C189.094 67.4669 189.177 67.5414 189.283 67.5845C189.392 67.6276 189.518 67.6491 189.661 67.6491C189.76 67.6491 189.86 67.6409 189.959 67.6243C190.058 67.6044 190.135 67.5895 190.188 67.5795L190.521 69.1555C190.415 69.1887 190.266 69.2268 190.073 69.2699C189.881 69.3163 189.647 69.3445 189.372 69.3544C188.862 69.3743 188.414 69.3063 188.03 69.1506C187.649 68.9948 187.352 68.7528 187.14 68.4247C186.928 68.0966 186.824 67.6823 186.827 67.1818V59.7841ZM194.043 64.8352V69.25H191.925V59.0682H193.983V62.9609H194.073C194.245 62.5102 194.524 62.1572 194.908 61.902C195.293 61.6435 195.775 61.5142 196.355 61.5142C196.885 61.5142 197.348 61.6302 197.742 61.8622C198.14 62.0909 198.448 62.4207 198.667 62.8516C198.889 63.2791 198.998 63.7912 198.995 64.3878V69.25H196.877V64.7656C196.88 64.295 196.761 63.9287 196.519 63.6669C196.28 63.4051 195.946 63.2741 195.515 63.2741C195.226 63.2741 194.971 63.3355 194.749 63.4581C194.53 63.5807 194.358 63.7597 194.232 63.995C194.109 64.227 194.046 64.5071 194.043 64.8352Z" fill="#1D1E25"/>
<line x1="106.25" y1="98.75" x2="217.75" y2="98.75" stroke="#E6E9ED" stroke-dasharray="2 2"/>
<line x1="106.25" y1="150.75" x2="217.75" y2="150.75" stroke="#E6E9ED" stroke-dasharray="2 2"/>
<line x1="106.25" y1="206.014" x2="217.75" y2="206.014" stroke="#E6E9ED" stroke-dasharray="2 2"/>
<path d="M118.25 220.672H119.307V226.911C119.307 227.468 119.205 227.941 119 228.33C118.796 228.719 118.508 229.014 118.135 229.216C117.763 229.418 117.324 229.519 116.819 229.519C116.341 229.519 115.917 229.432 115.544 229.259C115.172 229.083 114.88 228.833 114.667 228.509C114.454 228.185 114.347 227.8 114.347 227.354H115.387C115.387 227.601 115.448 227.817 115.57 228.002C115.695 228.184 115.866 228.326 116.081 228.428C116.297 228.53 116.543 228.581 116.819 228.581C117.123 228.581 117.381 228.517 117.594 228.389C117.807 228.262 117.969 228.074 118.08 227.827C118.194 227.577 118.25 227.272 118.25 226.911V220.672ZM123.215 229.553C122.8 229.553 122.424 229.475 122.086 229.318C121.748 229.159 121.479 228.931 121.28 228.632C121.081 228.331 120.982 227.968 120.982 227.541C120.982 227.166 121.056 226.862 121.204 226.63C121.351 226.394 121.549 226.209 121.796 226.076C122.043 225.942 122.316 225.843 122.614 225.777C122.915 225.709 123.218 225.655 123.522 225.615C123.919 225.564 124.242 225.526 124.489 225.5C124.739 225.472 124.921 225.425 125.035 225.36C125.151 225.294 125.209 225.181 125.209 225.019V224.985C125.209 224.564 125.094 224.237 124.864 224.005C124.637 223.772 124.292 223.655 123.829 223.655C123.348 223.655 122.972 223.76 122.699 223.97C122.427 224.181 122.235 224.405 122.124 224.644L121.169 224.303C121.34 223.905 121.567 223.595 121.851 223.374C122.138 223.149 122.451 222.993 122.789 222.905C123.13 222.814 123.465 222.769 123.794 222.769C124.005 222.769 124.246 222.794 124.519 222.845C124.794 222.894 125.06 222.995 125.316 223.148C125.574 223.301 125.789 223.533 125.959 223.843C126.13 224.152 126.215 224.567 126.215 225.087V229.399H125.209V228.513H125.158C125.09 228.655 124.976 228.807 124.817 228.969C124.658 229.131 124.446 229.269 124.182 229.382C123.918 229.496 123.596 229.553 123.215 229.553ZM123.368 228.649C123.766 228.649 124.101 228.571 124.374 228.415C124.65 228.259 124.857 228.057 124.996 227.81C125.138 227.563 125.209 227.303 125.209 227.03V226.11C125.167 226.161 125.073 226.208 124.928 226.25C124.786 226.29 124.621 226.326 124.434 226.357C124.249 226.385 124.069 226.411 123.893 226.434C123.719 226.453 123.579 226.47 123.471 226.485C123.209 226.519 122.965 226.574 122.738 226.651C122.513 226.725 122.331 226.837 122.192 226.987C122.056 227.135 121.988 227.337 121.988 227.593C121.988 227.942 122.117 228.206 122.375 228.385C122.637 228.561 122.968 228.649 123.368 228.649ZM129.056 225.462V229.399H128.051V222.854H129.022V223.877H129.107C129.261 223.544 129.494 223.277 129.806 223.076C130.119 222.871 130.522 222.769 131.016 222.769C131.46 222.769 131.847 222.86 132.18 223.041C132.512 223.22 132.771 223.493 132.955 223.86C133.14 224.223 133.232 224.684 133.232 225.24V229.399H132.227V225.309C132.227 224.794 132.093 224.394 131.826 224.107C131.559 223.817 131.193 223.672 130.727 223.672C130.406 223.672 130.119 223.742 129.866 223.881C129.616 224.02 129.418 224.223 129.274 224.49C129.129 224.757 129.056 225.081 129.056 225.462Z" fill="#808D9E"/>
<path opacity="0.7" d="M78.7303 94V92.96H80.8103V100.25H79.6603V94H78.7303ZM82.3764 96.51C82.3764 95.3567 82.5697 94.4567 82.9564 93.81C83.3497 93.1567 84.023 92.83 84.9764 92.83C85.9297 92.83 86.5997 93.1567 86.9864 93.81C87.3797 94.4567 87.5764 95.3567 87.5764 96.51C87.5764 97.6767 87.3797 98.59 86.9864 99.25C86.5997 99.9033 85.9297 100.23 84.9764 100.23C84.023 100.23 83.3497 99.9033 82.9564 99.25C82.5697 98.59 82.3764 97.6767 82.3764 96.51ZM86.4564 96.51C86.4564 95.97 86.4197 95.5133 86.3464 95.14C86.2797 94.7667 86.1397 94.4633 85.9264 94.23C85.713 93.99 85.3964 93.87 84.9764 93.87C84.5564 93.87 84.2397 93.99 84.0264 94.23C83.813 94.4633 83.6697 94.7667 83.5964 95.14C83.5297 95.5133 83.4964 95.97 83.4964 96.51C83.4964 97.07 83.5297 97.54 83.5964 97.92C83.663 98.3 83.803 98.6067 84.0164 98.84C84.2364 99.0733 84.5564 99.19 84.9764 99.19C85.3964 99.19 85.713 99.0733 85.9264 98.84C86.1464 98.6067 86.2897 98.3 86.3564 97.92C86.423 97.54 86.4564 97.07 86.4564 96.51ZM91.1126 97.5L93.6526 100.25H92.1126L90.0726 97.88V100.25H88.9326V92.85H90.0726V97.15L92.0726 94.74H93.6526L91.1126 97.5Z" fill="#1D1E25"/>
<path opacity="0.7" d="M85.3381 147.94H81.9881V149.93C82.1281 149.743 82.3348 149.587 82.6081 149.46C82.8881 149.333 83.1848 149.27 83.4981 149.27C84.0581 149.27 84.5114 149.39 84.8581 149.63C85.2114 149.87 85.4614 150.173 85.6081 150.54C85.7614 150.907 85.8381 151.293 85.8381 151.7C85.8381 152.193 85.7414 152.633 85.5481 153.02C85.3614 153.4 85.0781 153.7 84.6981 153.92C84.3248 154.14 83.8648 154.25 83.3181 154.25C82.5914 154.25 82.0081 154.07 81.5681 153.71C81.1281 153.35 80.8648 152.873 80.7781 152.28H81.8881C81.9614 152.593 82.1248 152.843 82.3781 153.03C82.6314 153.21 82.9481 153.3 83.3281 153.3C83.8014 153.3 84.1548 153.157 84.3881 152.87C84.6281 152.583 84.7481 152.203 84.7481 151.73C84.7481 151.25 84.6281 150.883 84.3881 150.63C84.1481 150.37 83.7948 150.24 83.3281 150.24C83.0014 150.24 82.7248 150.323 82.4981 150.49C82.2781 150.65 82.1181 150.87 82.0181 151.15H80.9381V146.94H85.3381V147.94ZM89.3548 151.5L91.8948 154.25H90.3548L88.3148 151.88V154.25H87.1748V146.85H88.3148V151.15L90.3148 148.74H91.8948L89.3548 151.5Z" fill="#1D1E25"/>
<path opacity="0.7" d="M83.3969 204.51C83.3969 203.357 83.5902 202.457 83.9769 201.81C84.3702 201.157 85.0435 200.83 85.9969 200.83C86.9502 200.83 87.6202 201.157 88.0069 201.81C88.4002 202.457 88.5969 203.357 88.5969 204.51C88.5969 205.677 88.4002 206.59 88.0069 207.25C87.6202 207.903 86.9502 208.23 85.9969 208.23C85.0435 208.23 84.3702 207.903 83.9769 207.25C83.5902 206.59 83.3969 205.677 83.3969 204.51ZM87.4769 204.51C87.4769 203.97 87.4402 203.513 87.3669 203.14C87.3002 202.767 87.1602 202.463 86.9469 202.23C86.7335 201.99 86.4169 201.87 85.9969 201.87C85.5769 201.87 85.2602 201.99 85.0469 202.23C84.8335 202.463 84.6902 202.767 84.6169 203.14C84.5502 203.513 84.5169 203.97 84.5169 204.51C84.5169 205.07 84.5502 205.54 84.6169 205.92C84.6835 206.3 84.8235 206.607 85.0369 206.84C85.2569 207.073 85.5769 207.19 85.9969 207.19C86.4169 207.19 86.7335 207.073 86.9469 206.84C87.1669 206.607 87.3102 206.3 87.3769 205.92C87.4435 205.54 87.4769 205.07 87.4769 204.51Z" fill="#1D1E25"/>
<path d="M193.619 220.672H194.88L197.846 227.916H197.948L200.914 220.672H202.175V229.399H201.187V222.769H201.102L198.374 229.399H197.42L194.692 222.769H194.607V229.399H193.619V220.672ZM206.084 229.553C205.669 229.553 205.293 229.475 204.955 229.318C204.617 229.159 204.348 228.931 204.149 228.632C203.951 228.331 203.851 227.968 203.851 227.541C203.851 227.166 203.925 226.862 204.073 226.63C204.22 226.394 204.418 226.209 204.665 226.076C204.912 225.942 205.185 225.843 205.483 225.777C205.784 225.709 206.087 225.655 206.391 225.615C206.789 225.564 207.111 225.526 207.358 225.5C207.608 225.472 207.79 225.425 207.904 225.36C208.02 225.294 208.078 225.181 208.078 225.019V224.985C208.078 224.564 207.963 224.237 207.733 224.005C207.506 223.772 207.161 223.655 206.698 223.655C206.218 223.655 205.841 223.76 205.568 223.97C205.296 224.181 205.104 224.405 204.993 224.644L204.039 224.303C204.209 223.905 204.436 223.595 204.72 223.374C205.007 223.149 205.32 222.993 205.658 222.905C205.999 222.814 206.334 222.769 206.664 222.769C206.874 222.769 207.115 222.794 207.388 222.845C207.664 222.894 207.929 222.995 208.185 223.148C208.443 223.301 208.658 223.533 208.828 223.843C208.999 224.152 209.084 224.567 209.084 225.087V229.399H208.078V228.513H208.027C207.959 228.655 207.845 228.807 207.686 228.969C207.527 229.131 207.316 229.269 207.051 229.382C206.787 229.496 206.465 229.553 206.084 229.553ZM206.238 228.649C206.635 228.649 206.97 228.571 207.243 228.415C207.519 228.259 207.726 228.057 207.865 227.81C208.007 227.563 208.078 227.303 208.078 227.03V226.11C208.036 226.161 207.942 226.208 207.797 226.25C207.655 226.29 207.49 226.326 207.303 226.357C207.118 226.385 206.938 226.411 206.762 226.434C206.588 226.453 206.448 226.47 206.34 226.485C206.078 226.519 205.834 226.574 205.607 226.651C205.382 226.725 205.201 226.837 205.061 226.987C204.925 227.135 204.857 227.337 204.857 227.593C204.857 227.942 204.986 228.206 205.245 228.385C205.506 228.561 205.837 228.649 206.238 228.649ZM210.92 229.399V222.854H211.891V223.843H211.959C212.079 223.519 212.295 223.256 212.607 223.054C212.92 222.853 213.272 222.752 213.664 222.752C213.738 222.752 213.83 222.753 213.941 222.756C214.052 222.759 214.136 222.763 214.192 222.769V223.791C214.158 223.783 214.08 223.77 213.958 223.753C213.839 223.733 213.712 223.723 213.579 223.723C213.261 223.723 212.977 223.79 212.727 223.924C212.479 224.054 212.283 224.236 212.138 224.469C211.996 224.699 211.925 224.962 211.925 225.257V229.399H210.92Z" fill="#808D9E"/>
<path d="M154.619 229.399V220.672H159.852V221.61H155.676V224.559H159.46V225.496H155.676V229.399H154.619ZM163.79 229.536C163.159 229.536 162.615 229.397 162.157 229.118C161.703 228.837 161.352 228.445 161.105 227.942C160.861 227.436 160.738 226.848 160.738 226.178C160.738 225.507 160.861 224.916 161.105 224.405C161.352 223.891 161.696 223.49 162.136 223.203C162.579 222.914 163.096 222.769 163.687 222.769C164.028 222.769 164.365 222.826 164.697 222.939C165.03 223.053 165.332 223.237 165.605 223.493C165.878 223.746 166.095 224.081 166.257 224.499C166.419 224.916 166.5 225.431 166.5 226.041V226.468H161.454V225.598H165.477C165.477 225.229 165.403 224.899 165.255 224.61C165.111 224.32 164.903 224.091 164.633 223.924C164.366 223.756 164.051 223.672 163.687 223.672C163.287 223.672 162.94 223.772 162.648 223.97C162.358 224.166 162.135 224.422 161.978 224.737C161.822 225.053 161.744 225.391 161.744 225.752V226.331C161.744 226.826 161.829 227.245 162 227.588C162.173 227.929 162.413 228.189 162.72 228.368C163.027 228.544 163.383 228.632 163.79 228.632C164.054 228.632 164.292 228.595 164.505 228.522C164.721 228.445 164.907 228.331 165.064 228.181C165.22 228.027 165.341 227.837 165.426 227.61L166.398 227.882C166.295 228.212 166.123 228.502 165.882 228.752C165.64 228.999 165.342 229.192 164.987 229.331C164.632 229.468 164.233 229.536 163.79 229.536ZM168.166 229.399V220.672H169.172V223.894H169.257C169.331 223.78 169.433 223.635 169.564 223.459C169.697 223.28 169.888 223.121 170.135 222.982C170.385 222.84 170.723 222.769 171.149 222.769C171.7 222.769 172.186 222.907 172.606 223.182C173.027 223.458 173.355 223.848 173.591 224.354C173.827 224.86 173.944 225.456 173.944 226.144C173.944 226.837 173.827 227.438 173.591 227.946C173.355 228.452 173.028 228.844 172.611 229.122C172.193 229.398 171.711 229.536 171.166 229.536C170.746 229.536 170.409 229.466 170.156 229.327C169.903 229.185 169.709 229.024 169.572 228.845C169.436 228.664 169.331 228.513 169.257 228.394H169.138V229.399H168.166ZM169.155 226.127C169.155 226.621 169.227 227.057 169.372 227.435C169.517 227.81 169.728 228.104 170.007 228.317C170.285 228.527 170.626 228.632 171.03 228.632C171.45 228.632 171.801 228.522 172.082 228.3C172.366 228.076 172.579 227.774 172.721 227.397C172.866 227.016 172.939 226.593 172.939 226.127C172.939 225.666 172.868 225.252 172.726 224.882C172.586 224.51 172.375 224.216 172.091 224C171.809 223.782 171.456 223.672 171.03 223.672C170.621 223.672 170.277 223.776 169.998 223.983C169.72 224.188 169.51 224.475 169.368 224.844C169.226 225.21 169.155 225.638 169.155 226.127Z" fill="#808D9E"/>
<rect x="110.75" y="103.75" width="15" height="52.5351" rx="7.5" fill="#EB6E46" stroke="white" stroke-width="3"/>
<rect x="110.75" y="118.546" width="15" height="52.5351" rx="7.5" fill="#20BFF7" stroke="white" stroke-width="3"/>
<rect x="110.75" y="155.858" width="15" height="52.5351" rx="7.5" fill="#2280FF" stroke="white" stroke-width="3"/>
<rect x="150.75" y="137.846" width="15" height="35.2918" rx="7.5" fill="#EB6E46" stroke="white" stroke-width="3"/>
<rect x="150.75" y="162.292" width="15" height="35.2918" rx="7.5" fill="#20BFF7" stroke="white" stroke-width="3"/>
<rect x="150.75" y="188.024" width="15" height="20.3694" rx="7.5" fill="#2280FF" stroke="white" stroke-width="3"/>
<rect x="190.75" y="142.349" width="15" height="33.7243" rx="7.5" fill="#EB6E46" stroke="white" stroke-width="3"/>
<rect x="190.75" y="151.526" width="15" height="33.7243" rx="7.5" fill="#20BFF7" stroke="white" stroke-width="3"/>
<rect x="190.75" y="174.67" width="15" height="33.7243" rx="7.5" fill="#2280FF" stroke="white" stroke-width="3"/>
</g>
<defs>
<filter id="filter0_d_2_6287" x="0" y="0" width="347" height="368" filterUnits="userSpaceOnUse" color-interpolation-filters="sRGB">
<feFlood flood-opacity="0" result="BackgroundImageFix"/>
<feColorMatrix in="SourceAlpha" type="matrix" values="0 0 0 0 0 0 0 0 0 0 0 0 0 0 0 0 0 0 127 0" result="hardAlpha"/>
<feOffset dx="20" dy="40"/>
<feGaussianBlur stdDeviation="40"/>
<feComposite in2="hardAlpha" operator="out"/>
<feColorMatrix type="matrix" values="0 0 0 0 0.178125 0 0 0 0 0.200292 0 0 0 0 0.316667 0 0 0 0.12 0"/>
<feBlend mode="multiply" in2="BackgroundImageFix" result="effect1_dropShadow_2_6287"/>
<feBlend mode="normal" in="SourceGraphic" in2="effect1_dropShadow_2_6287" result="shape"/>
</filter>
</defs>
</svg>
