<svg width="250" height="176" viewBox="0 0 250 176" fill="none" xmlns="http://www.w3.org/2000/svg">
<g filter="url(#filter0_d_2_6348)">
<rect x="40" y="10" width="170" height="96" rx="16" fill="white"/>
</g>
<g clip-path="url(#clip0_2_6348)">
<path d="M149.364 72.1024L157.703 62.8658L149.364 53.6279H158.163L162.293 58.1151L166.271 53.6279H174.763L166.463 62.8276L174.877 72.1024H166.042L161.949 67.5784L157.894 72.1024H149.364Z" fill="#FF6600"/>
<path d="M149.364 49.4864H139.919V53.6277H149.364V59.869H139.919V65.5977H149.364V72.1021H132.976V43H149.364V49.4864Z" fill="#FF6600"/>
<path d="M126.063 43V54.91H125.987C124.457 53.176 122.545 52.5734 120.326 52.5734C115.781 52.5734 112.358 55.6189 111.156 59.6453C109.786 55.2087 106.251 52.4903 101.01 52.4903C96.7543 52.4903 93.3935 54.3734 91.6396 57.442V53.6281H82.8422V49.4873H92.4426V43H75V72.1026H82.8422V59.869H90.6587C90.4257 60.7677 90.3013 61.7299 90.3013 62.7451C90.3013 68.8159 95.0061 73.0754 101.01 73.0754C106.06 73.0754 109.387 70.7389 111.147 66.4789H104.427C103.517 67.7586 102.828 68.1387 101.01 68.1387C98.903 68.1387 97.0861 66.3263 97.0861 64.1779H110.77C111.364 68.9997 115.174 73.1581 120.403 73.1581C122.659 73.1581 124.724 72.0644 125.987 70.2177H126.063V72.1017H132.977V43H126.063ZM97.3043 59.956C97.7404 58.1076 99.1948 56.8994 101.01 56.8994C103.009 56.8994 104.39 58.0703 104.753 59.956C104.906 59.956 97.3043 59.956 97.3043 59.956ZM121.868 67.6711C119.32 67.6711 117.737 65.3307 117.737 62.887C117.737 60.2749 119.114 57.763 121.868 57.763C124.724 57.763 125.862 60.2749 125.862 62.887C125.862 65.3641 124.656 67.6711 121.868 67.6711Z" fill="#652C8F"/>
</g>
<defs>
<filter id="filter0_d_2_6348" x="0" y="0" width="250" height="176" filterUnits="userSpaceOnUse" color-interpolation-filters="sRGB">
<feFlood flood-opacity="0" result="BackgroundImageFix"/>
<feColorMatrix in="SourceAlpha" type="matrix" values="0 0 0 0 0 0 0 0 0 0 0 0 0 0 0 0 0 0 127 0" result="hardAlpha"/>
<feOffset dy="30"/>
<feGaussianBlur stdDeviation="20"/>
<feColorMatrix type="matrix" values="0 0 0 0 0.831373 0 0 0 0 0.85098 0 0 0 0 0.909804 0 0 0 0.2 0"/>
<feBlend mode="normal" in2="BackgroundImageFix" result="effect1_dropShadow_2_6348"/>
<feBlend mode="normal" in="SourceGraphic" in2="effect1_dropShadow_2_6348" result="shape"/>
</filter>
<clipPath id="clip0_2_6348">
<rect width="100" height="30" fill="white" transform="translate(75 43)"/>
</clipPath>
</defs>
</svg>
