<svg width="250" height="176" viewBox="0 0 250 176" fill="none" xmlns="http://www.w3.org/2000/svg">
<g filter="url(#filter0_d_2_6345)">
<rect x="40" y="10" width="170" height="96" rx="16" fill="white"/>
</g>
<g clip-path="url(#clip0_2_6345)">
<path d="M118.427 58.4101C118.427 62.8518 114.938 66.1249 110.656 66.1249C106.374 66.1249 102.885 62.8518 102.885 58.4101C102.885 53.9371 106.374 50.6953 110.656 50.6953C114.938 50.6953 118.427 53.9371 118.427 58.4101ZM115.026 58.4101C115.026 55.6344 113.003 53.7353 110.656 53.7353C108.309 53.7353 106.287 55.6344 106.287 58.4101C106.287 61.1579 108.309 63.0849 110.656 63.0849C113.003 63.0849 115.026 61.1544 115.026 58.4101Z" fill="#EA4335"/>
<path d="M135.192 58.4101C135.192 62.8518 131.703 66.1249 127.421 66.1249C123.139 66.1249 119.65 62.8518 119.65 58.4101C119.65 53.9405 123.139 50.6953 127.421 50.6953C131.703 50.6953 135.192 53.9371 135.192 58.4101ZM131.79 58.4101C131.79 55.6344 129.768 53.7353 127.421 53.7353C125.074 53.7353 123.052 55.6344 123.052 58.4101C123.052 61.1579 125.074 63.0849 127.421 63.0849C129.768 63.0849 131.79 61.1544 131.79 58.4101Z" fill="#FBBC05"/>
<path d="M151.258 51.1614V65.0118C151.258 70.7092 147.884 73.0362 143.896 73.0362C140.141 73.0362 137.881 70.5353 137.029 68.4901L139.991 67.2623C140.518 68.5179 141.811 69.9997 143.892 69.9997C146.445 69.9997 148.028 68.431 148.028 65.4779V64.3684H147.909C147.147 65.304 145.68 66.1214 143.829 66.1214C139.956 66.1214 136.407 62.7614 136.407 58.4379C136.407 54.0831 139.956 50.6953 143.829 50.6953C145.677 50.6953 147.144 51.5127 147.909 52.4205H148.028V51.1649H151.258V51.1614ZM148.269 58.4379C148.269 55.7214 146.449 53.7353 144.133 53.7353C141.786 53.7353 139.82 55.7214 139.82 58.4379C139.82 61.1266 141.786 63.0849 144.133 63.0849C146.449 63.0849 148.269 61.1266 148.269 58.4379Z" fill="#4285F4"/>
<path d="M156.585 43.0439V65.6526H153.267V43.0439H156.585Z" fill="#34A853"/>
<path d="M169.514 60.9498L172.155 62.7028C171.303 63.9585 169.249 66.1219 165.701 66.1219C161.3 66.1219 158.013 62.7341 158.013 58.4072C158.013 53.8193 161.328 50.6924 165.32 50.6924C169.34 50.6924 171.306 53.8785 171.949 55.6002L172.302 56.4767L161.946 60.748C162.739 62.2959 163.972 63.0854 165.701 63.0854C167.433 63.0854 168.634 62.2367 169.514 60.9498ZM161.387 58.1741L168.31 55.3115C167.929 54.348 166.783 53.6767 165.435 53.6767C163.706 53.6767 161.3 55.1967 161.387 58.1741Z" fill="#EA4335"/>
<path d="M90.3257 56.4031V53.13H101.401C101.509 53.7005 101.565 54.3753 101.565 55.1057C101.565 57.5613 100.891 60.5979 98.7185 62.7613C96.6054 64.9527 93.9056 66.1213 90.3292 66.1213C83.7001 66.1213 78.1259 60.744 78.1259 54.1422C78.1259 47.5405 83.7001 42.1631 90.3292 42.1631C93.9964 42.1631 96.6089 43.5961 98.5718 45.464L96.2527 47.7735C94.8452 46.4587 92.9382 45.4361 90.3257 45.4361C85.4849 45.4361 81.6988 49.3213 81.6988 54.1422C81.6988 58.9631 85.4849 62.8483 90.3257 62.8483C93.4656 62.8483 95.2538 61.5927 96.3994 60.4518C97.3284 59.5266 97.9396 58.2048 98.1806 56.3996L90.3257 56.4031Z" fill="#4285F4"/>
</g>
<defs>
<filter id="filter0_d_2_6345" x="0" y="0" width="250" height="176" filterUnits="userSpaceOnUse" color-interpolation-filters="sRGB">
<feFlood flood-opacity="0" result="BackgroundImageFix"/>
<feColorMatrix in="SourceAlpha" type="matrix" values="0 0 0 0 0 0 0 0 0 0 0 0 0 0 0 0 0 0 127 0" result="hardAlpha"/>
<feOffset dy="30"/>
<feGaussianBlur stdDeviation="20"/>
<feColorMatrix type="matrix" values="0 0 0 0 0.831373 0 0 0 0 0.85098 0 0 0 0 0.909804 0 0 0 0.2 0"/>
<feBlend mode="normal" in2="BackgroundImageFix" result="effect1_dropShadow_2_6345"/>
<feBlend mode="normal" in="SourceGraphic" in2="effect1_dropShadow_2_6345" result="shape"/>
</filter>
<clipPath id="clip0_2_6345">
<rect width="95" height="32" fill="white" transform="translate(78 42)"/>
</clipPath>
</defs>
</svg>
