<svg width="40" height="40" viewBox="0 0 40 40" fill="none" xmlns="http://www.w3.org/2000/svg">
<path fill-rule="evenodd" clip-rule="evenodd" d="M6 6C4.89543 6 4 6.89543 4 8C4 9.10457 4.89543 10 6 10V26C6 28.2091 7.79086 30 10 30H15.1716L12.5858 32.5858C11.8047 33.3668 11.8047 34.6332 12.5858 35.4142C13.3668 36.1953 14.6332 36.1953 15.4142 35.4142L20 30.8284L24.5858 35.4142C25.3668 36.1953 26.6332 36.1953 27.4142 35.4142C28.1953 34.6332 28.1953 33.3668 27.4142 32.5858L24.8284 30H30C32.2091 30 34 28.2091 34 26V10C35.1046 10 36 9.10457 36 8C36 6.89543 35.1046 6 34 6H6ZM29.4142 15.4142C30.1953 14.6332 30.1953 13.3668 29.4142 12.5858C28.6332 11.8047 27.3668 11.8047 26.5858 12.5858L20 19.1716L17.4142 16.5858C16.6332 15.8047 15.3668 15.8047 14.5858 16.5858L10.5858 20.5858C9.80474 21.3668 9.80474 22.6332 10.5858 23.4142C11.3668 24.1953 12.6332 24.1953 13.4142 23.4142L16 20.8284L18.5858 23.4142C19.3668 24.1953 20.6332 24.1953 21.4142 23.4142L29.4142 15.4142Z" fill="white"/>
</svg>
