<svg width="250" height="176" viewBox="0 0 250 176" fill="none" xmlns="http://www.w3.org/2000/svg">
<g filter="url(#filter0_d_2_6346)">
<rect x="40" y="10" width="170" height="96" rx="16" fill="white"/>
</g>
<g clip-path="url(#clip0_2_6346)">
<path d="M107.064 59.9748L106.336 62.0306H106.276C106.155 61.5671 105.932 60.8616 105.569 60.0151L101.671 50.2399H97.853V65.8198H100.378V56.2058C100.378 55.6012 100.378 54.9159 100.358 54.0694C100.337 53.6461 100.297 53.3236 100.277 53.0818H100.337C100.459 53.6864 100.6 54.1299 100.701 54.412L105.387 65.7795H107.165L111.81 54.3112C111.911 54.0492 112.012 53.5252 112.113 53.0818H112.174C112.113 54.2306 112.073 55.2585 112.053 55.8833V65.7593H114.739V50.1996H111.063L107.064 59.9748ZM117.284 54.5934H119.91V65.7593H117.284V54.5934ZM118.617 49.8771C118.173 49.8771 117.809 50.0384 117.506 50.3205C117.203 50.6027 117.042 50.9655 117.042 51.4089C117.042 51.8322 117.203 52.195 117.506 52.4771C117.809 52.7593 118.173 52.9004 118.617 52.9004C119.062 52.9004 119.445 52.7392 119.728 52.4771C120.031 52.195 120.193 51.8322 120.193 51.4089C120.193 50.9857 120.031 50.6229 119.728 50.3205C119.466 50.0384 119.082 49.8771 118.617 49.8771ZM129.222 54.4926C128.737 54.3919 128.232 54.3314 127.747 54.3314C126.555 54.3314 125.465 54.5934 124.556 55.1174C123.647 55.6415 122.92 56.3671 122.455 57.274C121.97 58.2012 121.728 59.2694 121.728 60.4988C121.728 61.5671 121.97 62.5143 122.435 63.381C122.899 64.2275 123.546 64.9128 124.414 65.3764C125.242 65.8399 126.212 66.0818 127.303 66.0818C128.555 66.0818 129.625 65.8198 130.474 65.3361L130.494 65.3159V62.8973L130.393 62.9779C130.009 63.2601 129.565 63.5019 129.121 63.643C128.656 63.8043 128.232 63.8849 127.868 63.8849C126.818 63.8849 125.99 63.5826 125.404 62.9174C124.798 62.2725 124.495 61.3857 124.495 60.2771C124.495 59.1283 124.798 58.2213 125.424 57.5562C126.05 56.8911 126.878 56.5485 127.888 56.5485C128.737 56.5485 129.605 56.8306 130.393 57.395L130.494 57.4756V54.9159L130.474 54.8957C130.13 54.7547 129.747 54.5934 129.222 54.4926ZM137.887 54.412C137.24 54.412 136.634 54.6136 136.109 55.0368C135.665 55.3996 135.362 55.9236 135.099 56.5485H135.079V54.5934H132.453V65.7593H135.079V60.0554C135.079 59.088 135.281 58.2818 135.725 57.6973C136.17 57.0926 136.735 56.7903 137.422 56.7903C137.665 56.7903 137.907 56.8508 138.21 56.8911C138.493 56.9717 138.695 57.0523 138.836 57.1531L138.937 57.2337V54.6136L138.876 54.5934C138.695 54.4725 138.331 54.412 137.887 54.412ZM145.037 54.3516C143.199 54.3516 141.724 54.8957 140.694 55.964C139.644 57.0322 139.139 58.5035 139.139 60.3578C139.139 62.0911 139.664 63.5019 140.674 64.5299C141.684 65.5376 143.058 66.0616 144.774 66.0616C146.572 66.0616 148.006 65.5174 149.036 64.4291C150.087 63.3407 150.592 61.8895 150.592 60.0957C150.592 58.3221 150.107 56.9112 149.117 55.8833C148.168 54.8554 146.774 54.3516 145.037 54.3516ZM147.138 62.9376C146.653 63.5624 145.885 63.8647 144.936 63.8647C143.987 63.8647 143.219 63.5624 142.674 62.8973C142.128 62.2725 141.866 61.3655 141.866 60.2167C141.866 59.0275 142.149 58.1205 142.674 57.4756C143.219 56.8306 143.967 56.5081 144.916 56.5081C145.845 56.5081 146.572 56.8105 147.097 57.4353C147.622 58.0601 147.905 58.9671 147.905 60.1562C147.865 61.3655 147.643 62.3128 147.138 62.9376ZM156.449 59.2291C155.621 58.8864 155.096 58.6244 154.854 58.4027C154.652 58.2012 154.551 57.919 154.551 57.5562C154.551 57.2539 154.672 56.9516 154.975 56.75C155.278 56.5485 155.621 56.4477 156.126 56.4477C156.571 56.4477 157.035 56.5283 157.479 56.6492C157.924 56.7702 158.328 56.9516 158.651 57.1934L158.752 57.274V54.8151L158.691 54.795C158.388 54.674 157.984 54.5531 157.5 54.4523C157.015 54.3717 156.571 54.3314 156.207 54.3314C154.955 54.3314 153.924 54.6337 153.117 55.2988C152.309 55.9236 151.925 56.7702 151.925 57.7578C151.925 58.2818 152.006 58.7454 152.187 59.1283C152.369 59.5112 152.632 59.874 152.995 60.1764C153.359 60.4585 153.884 60.781 154.611 61.0833C155.217 61.3454 155.682 61.5469 155.965 61.7081C156.247 61.8694 156.429 62.0508 156.571 62.1919C156.671 62.3531 156.732 62.5547 156.732 62.8167C156.732 63.5624 156.167 63.9252 155.015 63.9252C154.571 63.9252 154.106 63.8446 153.561 63.6632C153.016 63.4818 152.511 63.2198 152.086 62.9174L151.985 62.8368V65.3965L152.046 65.4167C152.43 65.5981 152.894 65.719 153.46 65.8601C154.025 65.9609 154.53 66.0415 154.975 66.0415C156.328 66.0415 157.439 65.7392 158.227 65.074C159.035 64.4291 159.459 63.6027 159.459 62.5345C159.459 61.7888 159.257 61.1237 158.813 60.6198C158.227 60.1361 157.5 59.6322 156.449 59.2291ZM166.387 54.3516C164.549 54.3516 163.074 54.8957 162.044 55.964C161.014 57.0322 160.489 58.5035 160.489 60.3578C160.489 62.0911 161.014 63.5019 162.024 64.5299C163.034 65.5376 164.408 66.0616 166.124 66.0616C167.922 66.0616 169.356 65.5174 170.386 64.4291C171.437 63.3407 171.942 61.8895 171.942 60.0957C171.942 58.3221 171.457 56.9112 170.467 55.8833C169.518 54.8554 168.124 54.3516 166.387 54.3516ZM168.468 62.9376C167.983 63.5624 167.215 63.8647 166.266 63.8647C165.296 63.8647 164.549 63.5624 164.004 62.8973C163.458 62.2725 163.196 61.3655 163.196 60.2167C163.196 59.0275 163.478 58.1205 164.004 57.4756C164.549 56.8306 165.296 56.5081 166.246 56.5081C167.155 56.5081 167.902 56.8105 168.427 57.4353C168.952 58.0601 169.235 58.9671 169.235 60.1562C169.235 61.3655 168.972 62.3128 168.468 62.9376ZM185.98 56.75V54.5934H183.334V51.288L183.253 51.3081L180.748 52.0539L180.688 52.074V54.5934H176.729V53.1826C176.729 52.5376 176.89 52.0337 177.173 51.7112C177.456 51.3888 177.88 51.2275 178.405 51.2275C178.769 51.2275 179.153 51.3081 179.577 51.4895L179.678 51.55V49.2725L179.617 49.2523C179.254 49.1314 178.769 49.0508 178.143 49.0508C177.355 49.0508 176.668 49.2322 176.042 49.5345C175.416 49.8771 174.951 50.3407 174.608 50.9655C174.265 51.5702 174.083 52.2554 174.083 53.0415V54.5934H172.245V56.7299H174.083V65.7593H176.729V56.75H180.688V62.4942C180.688 64.8523 181.799 66.0415 184.021 66.0415C184.384 66.0415 184.768 65.981 185.131 65.9205C185.515 65.8399 185.798 65.7392 185.96 65.6585L185.98 65.6384V63.4818L185.879 63.5624C185.717 63.6632 185.576 63.7438 185.333 63.8043C185.131 63.8647 184.95 63.8849 184.808 63.8849C184.283 63.8849 183.92 63.764 183.657 63.4616C183.415 63.1795 183.293 62.7159 183.293 62.0306V56.75H185.98Z" fill="#737373"/>
<path d="M64 45H76.3818V57.355H64V45Z" fill="#F25022"/>
<path d="M77.6744 45H90.0562V57.355H77.6744V45Z" fill="#7FBA00"/>
<path d="M64 58.6445H76.3818V70.9996H64V58.6445Z" fill="#00A4EF"/>
<path d="M77.6744 58.6445H90.0562V70.9996H77.6744V58.6445Z" fill="#FFB900"/>
</g>
<defs>
<filter id="filter0_d_2_6346" x="0" y="0" width="250" height="176" filterUnits="userSpaceOnUse" color-interpolation-filters="sRGB">
<feFlood flood-opacity="0" result="BackgroundImageFix"/>
<feColorMatrix in="SourceAlpha" type="matrix" values="0 0 0 0 0 0 0 0 0 0 0 0 0 0 0 0 0 0 127 0" result="hardAlpha"/>
<feOffset dy="30"/>
<feGaussianBlur stdDeviation="20"/>
<feColorMatrix type="matrix" values="0 0 0 0 0.831373 0 0 0 0 0.85098 0 0 0 0 0.909804 0 0 0 0.2 0"/>
<feBlend mode="normal" in2="BackgroundImageFix" result="effect1_dropShadow_2_6346"/>
<feBlend mode="normal" in="SourceGraphic" in2="effect1_dropShadow_2_6346" result="shape"/>
</filter>
<clipPath id="clip0_2_6346">
<rect width="122" height="26" fill="white" transform="translate(64 45)"/>
</clipPath>
</defs>
</svg>
