<svg width="388" height="343" viewBox="0 0 388 343" fill="none" xmlns="http://www.w3.org/2000/svg">
<g filter="url(#filter0_d_2_6313)">
<rect x="60" y="40" width="291" height="183" rx="8" fill="white"/>
<path d="M86.2415 66.9091C86.2415 68.0194 86.031 68.964 85.6101 69.7429C85.1925 70.5218 84.6224 71.1167 83.8999 71.5277C83.1806 71.9354 82.3719 72.1392 81.4737 72.1392C80.5689 72.1392 79.7569 71.9337 79.0376 71.5227C78.3184 71.1117 77.75 70.5168 77.3324 69.7379C76.9148 68.959 76.706 68.0161 76.706 66.9091C76.706 65.7988 76.9148 64.8542 77.3324 64.0753C77.75 63.2964 78.3184 62.7031 79.0376 62.2955C79.7569 61.8845 80.5689 61.679 81.4737 61.679C82.3719 61.679 83.1806 61.8845 83.8999 62.2955C84.6224 62.7031 85.1925 63.2964 85.6101 64.0753C86.031 64.8542 86.2415 65.7988 86.2415 66.9091ZM84.0589 66.9091C84.0589 66.1899 83.9512 65.5833 83.7358 65.0895C83.5237 64.5956 83.2237 64.2211 82.8359 63.9659C82.4482 63.7107 81.9941 63.5831 81.4737 63.5831C80.9534 63.5831 80.4993 63.7107 80.1115 63.9659C79.7237 64.2211 79.4221 64.5956 79.2067 65.0895C78.9946 65.5833 78.8885 66.1899 78.8885 66.9091C78.8885 67.6283 78.9946 68.2348 79.2067 68.7287C79.4221 69.2225 79.7237 69.5971 80.1115 69.8523C80.4993 70.1075 80.9534 70.2351 81.4737 70.2351C81.9941 70.2351 82.4482 70.1075 82.8359 69.8523C83.2237 69.5971 83.5237 69.2225 83.7358 68.7287C83.9512 68.2348 84.0589 67.6283 84.0589 66.9091ZM94.9157 64.3636L92.2459 72H89.8596L87.1898 64.3636H89.427L91.013 69.8274H91.0925L92.6735 64.3636H94.9157ZM99.2335 72.1491C98.448 72.1491 97.7718 71.9901 97.2051 71.6719C96.6416 71.3504 96.2074 70.8963 95.9025 70.3097C95.5976 69.7197 95.4451 69.022 95.4451 68.2166C95.4451 67.4311 95.5976 66.7417 95.9025 66.1484C96.2074 65.5552 96.6367 65.0928 97.1902 64.7614C97.747 64.4299 98.3999 64.2642 99.149 64.2642C99.6528 64.2642 100.122 64.3454 100.556 64.5078C100.993 64.6669 101.375 64.9072 101.699 65.2287C102.028 65.5502 102.283 65.9545 102.465 66.4418C102.647 66.9257 102.738 67.4924 102.738 68.142V68.7237H96.2903V67.4112H100.745C100.745 67.1063 100.679 66.8362 100.546 66.6009C100.413 66.3655 100.229 66.1816 99.9941 66.049C99.7621 65.9131 99.492 65.8452 99.1838 65.8452C98.8623 65.8452 98.5772 65.9197 98.3287 66.0689C98.0834 66.2147 97.8912 66.4119 97.752 66.6605C97.6127 66.9058 97.5415 67.1792 97.5382 67.4808V68.7287C97.5382 69.1065 97.6078 69.433 97.747 69.7081C97.8895 69.9832 98.09 70.1953 98.3485 70.3445C98.6071 70.4936 98.9136 70.5682 99.2683 70.5682C99.5036 70.5682 99.719 70.535 99.9146 70.4688C100.11 70.4025 100.278 70.303 100.417 70.1705C100.556 70.0379 100.662 69.8755 100.735 69.6832L102.694 69.8125C102.594 70.2831 102.39 70.6941 102.082 71.0455C101.777 71.3935 101.383 71.6652 100.899 71.8608C100.418 72.053 99.8632 72.1491 99.2335 72.1491ZM104.121 72V64.3636H106.174V65.696H106.253C106.393 65.2221 106.626 64.8641 106.954 64.6222C107.282 64.3769 107.66 64.2543 108.088 64.2543C108.194 64.2543 108.308 64.2609 108.431 64.2741C108.554 64.2874 108.661 64.3056 108.754 64.3288V66.2081C108.655 66.1783 108.517 66.1518 108.341 66.1286C108.166 66.1054 108.005 66.0938 107.859 66.0938C107.548 66.0938 107.269 66.1617 107.024 66.2976C106.782 66.4302 106.59 66.6158 106.447 66.8544C106.308 67.093 106.238 67.3681 106.238 67.6797V72H104.121ZM117.201 64.3636L114.531 72H112.145L109.475 64.3636H111.712L113.298 69.8274H113.378L114.959 64.3636H117.201ZM118.285 72V64.3636H120.403V72H118.285ZM119.349 63.3793C119.034 63.3793 118.764 63.2749 118.538 63.0661C118.316 62.8539 118.205 62.6004 118.205 62.3054C118.205 62.0137 118.316 61.7635 118.538 61.5547C118.764 61.3426 119.034 61.2365 119.349 61.2365C119.663 61.2365 119.932 61.3426 120.154 61.5547C120.379 61.7635 120.492 62.0137 120.492 62.3054C120.492 62.6004 120.379 62.8539 120.154 63.0661C119.932 63.2749 119.663 63.3793 119.349 63.3793ZM125.579 72.1491C124.794 72.1491 124.118 71.9901 123.551 71.6719C122.987 71.3504 122.553 70.8963 122.248 70.3097C121.943 69.7197 121.791 69.022 121.791 68.2166C121.791 67.4311 121.943 66.7417 122.248 66.1484C122.553 65.5552 122.982 65.0928 123.536 64.7614C124.093 64.4299 124.746 64.2642 125.495 64.2642C125.998 64.2642 126.467 64.3454 126.902 64.5078C127.339 64.6669 127.72 64.9072 128.045 65.2287C128.373 65.5502 128.628 65.9545 128.811 66.4418C128.993 66.9257 129.084 67.4924 129.084 68.142V68.7237H122.636V67.4112H127.091C127.091 67.1063 127.024 66.8362 126.892 66.6009C126.759 66.3655 126.575 66.1816 126.34 66.049C126.108 65.9131 125.838 65.8452 125.529 65.8452C125.208 65.8452 124.923 65.9197 124.674 66.0689C124.429 66.2147 124.237 66.4119 124.098 66.6605C123.958 66.9058 123.887 67.1792 123.884 67.4808V68.7287C123.884 69.1065 123.953 69.433 124.093 69.7081C124.235 69.9832 124.436 70.1953 124.694 70.3445C124.953 70.4936 125.259 70.5682 125.614 70.5682C125.849 70.5682 126.065 70.535 126.26 70.4688C126.456 70.4025 126.623 70.303 126.762 70.1705C126.902 70.0379 127.008 69.8755 127.081 69.6832L129.039 69.8125C128.94 70.2831 128.736 70.6941 128.428 71.0455C128.123 71.3935 127.729 71.6652 127.245 71.8608C126.764 72.053 126.209 72.1491 125.579 72.1491ZM131.918 72L129.84 64.3636H131.983L133.166 69.4943H133.235L134.468 64.3636H136.571L137.824 69.4645H137.889L139.052 64.3636H141.19L139.117 72H136.875L135.562 67.1974H135.468L134.155 72H131.918Z" fill="#1D1E25"/>
<line x1="92.0046" y1="184" x2="92.0046" y2="91" stroke="#E6E9ED" stroke-dasharray="2 2"/>
<line x1="129.966" y1="184" x2="129.966" y2="91" stroke="#E6E9ED" stroke-dasharray="2 2"/>
<line x1="167.926" y1="184" x2="167.926" y2="91" stroke="#E6E9ED" stroke-dasharray="2 2"/>
<line x1="205.887" y1="184" x2="205.887" y2="91" stroke="#E6E9ED" stroke-dasharray="2 2"/>
<line x1="243.848" y1="184" x2="243.848" y2="91" stroke="#E6E9ED" stroke-dasharray="2 2"/>
<line x1="281.809" y1="184" x2="281.809" y2="91" stroke="#E6E9ED" stroke-dasharray="2 2"/>
<line x1="319.77" y1="184" x2="319.77" y2="91" stroke="#E6E9ED" stroke-dasharray="2 2"/>
<path d="M111.156 154.255L95.2972 164.286C93.5586 165.386 92.5046 167.3 92.5046 169.357V177C92.5046 180.314 95.1909 183 98.5046 183H312.62C315.933 183 318.62 180.314 318.62 177V117.632H300.13C297.475 117.632 295.136 119.376 294.379 121.921L287.703 144.364C286.034 149.977 278.137 150.119 276.267 144.57L269.844 125.512C268.074 120.261 260.74 120.01 258.616 125.129L247.544 151.814C245.681 156.306 239.528 156.831 236.93 152.72L230.293 142.216C229.194 140.476 227.279 139.421 225.221 139.421H223.31C220.644 139.421 218.297 137.662 217.55 135.102L210.52 111.013C208.832 105.232 200.632 105.262 198.988 111.056L193.455 130.554C192.78 132.935 190.605 134.579 188.129 134.579C185.857 134.579 183.815 135.967 182.98 138.081L172.613 164.316C170.695 169.171 163.92 169.43 161.637 164.735L155.637 152.395C153.76 148.534 148.555 147.836 145.727 151.066L134.972 163.348C132.591 166.068 128.364 166.08 125.967 163.375L118.854 155.347C116.903 153.144 113.643 152.682 111.156 154.255Z" fill="url(#paint0_linear_2_6313)" fill-opacity="0.5"/>
<path d="M92.5046 166.053L111.156 154.255C113.643 152.682 116.903 153.144 118.854 155.347L125.967 163.375C128.364 166.08 132.591 166.068 134.972 163.348L145.753 151.035C148.574 147.814 153.764 148.499 155.653 152.342L161.932 165.121C164.244 169.828 171.057 169.512 172.924 164.611L183 138.158C183.821 136.003 185.888 134.579 188.194 134.579V134.579C190.641 134.579 192.8 132.979 193.511 130.638L199.518 110.88C201.268 105.124 209.458 105.238 211.046 111.042L217.603 135.005C218.316 137.613 220.686 139.421 223.39 139.421H225.195C227.267 139.421 229.193 140.49 230.288 142.249L237.021 153.061C239.664 157.303 246.032 156.644 247.749 151.95L257.221 126.065C259.149 120.795 266.612 120.82 268.504 126.104L275.744 146.319C277.696 151.771 285.476 151.567 287.14 146.02L294.372 121.908C295.133 119.37 297.469 117.632 300.119 117.632H318.62" stroke="#EB6E46" stroke-width="3" stroke-linecap="round"/>
<path d="M87.7685 193.273H88.8253V199.511C88.8253 200.068 88.723 200.541 88.5185 200.93C88.3139 201.32 88.0256 201.615 87.6534 201.817C87.2812 202.018 86.8423 202.119 86.3366 202.119C85.8594 202.119 85.4346 202.033 85.0625 201.859C84.6903 201.683 84.3977 201.433 84.1846 201.109C83.9716 200.786 83.865 200.401 83.865 199.955H84.9048C84.9048 200.202 84.9659 200.418 85.0881 200.602C85.2131 200.784 85.3835 200.926 85.5994 201.028C85.8153 201.131 86.0611 201.182 86.3366 201.182C86.6406 201.182 86.8991 201.118 87.1122 200.99C87.3253 200.862 87.4872 200.675 87.598 200.428C87.7116 200.178 87.7685 199.872 87.7685 199.511V193.273ZM94.4318 199.324V195.455H95.4375V202H94.4318V200.892H94.3636C94.2102 201.224 93.9716 201.507 93.6477 201.74C93.3239 201.97 92.9148 202.085 92.4204 202.085C92.0114 202.085 91.6477 201.996 91.3295 201.817C91.0114 201.635 90.7614 201.362 90.5795 200.999C90.3977 200.632 90.3068 200.17 90.3068 199.614V195.455H91.3125V199.545C91.3125 200.023 91.446 200.403 91.7131 200.688C91.9829 200.972 92.3267 201.114 92.7443 201.114C92.9943 201.114 93.2486 201.05 93.5071 200.922C93.7685 200.794 93.9872 200.598 94.1633 200.334C94.3423 200.07 94.4318 199.733 94.4318 199.324ZM97.7851 198.062V202H96.7795V195.455H97.7511V196.477H97.8363C97.9897 196.145 98.2226 195.878 98.5351 195.676C98.8476 195.472 99.2511 195.369 99.7454 195.369C100.189 195.369 100.576 195.46 100.909 195.642C101.241 195.821 101.5 196.094 101.684 196.46C101.869 196.824 101.961 197.284 101.961 197.841V202H100.956V197.909C100.956 197.395 100.822 196.994 100.555 196.707C100.288 196.418 99.9215 196.273 99.4556 196.273C99.1346 196.273 98.8476 196.342 98.5948 196.482C98.3448 196.621 98.1474 196.824 98.0025 197.091C97.8576 197.358 97.7851 197.682 97.7851 198.062Z" fill="#808D9E"/>
<path d="M200.038 195.455C199.987 195.023 199.779 194.688 199.416 194.449C199.052 194.21 198.606 194.091 198.077 194.091C197.691 194.091 197.353 194.153 197.063 194.278C196.776 194.403 196.552 194.575 196.39 194.794C196.231 195.013 196.151 195.261 196.151 195.54C196.151 195.773 196.207 195.973 196.317 196.141C196.431 196.305 196.576 196.443 196.752 196.554C196.928 196.662 197.113 196.751 197.306 196.822C197.499 196.891 197.677 196.946 197.839 196.989L198.725 197.227C198.952 197.287 199.205 197.369 199.484 197.474C199.765 197.58 200.033 197.723 200.289 197.905C200.548 198.084 200.761 198.314 200.928 198.595C201.096 198.876 201.18 199.222 201.18 199.631C201.18 200.102 201.056 200.528 200.809 200.909C200.565 201.29 200.207 201.592 199.735 201.817C199.266 202.041 198.697 202.153 198.026 202.153C197.401 202.153 196.86 202.053 196.403 201.851C195.948 201.649 195.59 201.368 195.329 201.007C195.07 200.646 194.924 200.227 194.89 199.75H195.981C196.009 200.08 196.12 200.352 196.313 200.568C196.509 200.781 196.756 200.94 197.055 201.045C197.356 201.148 197.68 201.199 198.026 201.199C198.43 201.199 198.792 201.134 199.113 201.003C199.434 200.869 199.688 200.685 199.876 200.449C200.063 200.21 200.157 199.932 200.157 199.614C200.157 199.324 200.076 199.088 199.914 198.906C199.752 198.724 199.539 198.577 199.275 198.463C199.011 198.349 198.725 198.25 198.418 198.165L197.344 197.858C196.663 197.662 196.123 197.382 195.725 197.018C195.327 196.655 195.129 196.179 195.129 195.591C195.129 195.102 195.261 194.676 195.525 194.312C195.792 193.946 196.15 193.662 196.599 193.46C197.05 193.256 197.555 193.153 198.112 193.153C198.674 193.153 199.174 193.254 199.612 193.456C200.049 193.655 200.396 193.928 200.651 194.274C200.91 194.621 201.046 195.014 201.06 195.455H200.038ZM205.025 202.136C204.395 202.136 203.851 201.997 203.393 201.719C202.939 201.438 202.588 201.045 202.341 200.543C202.096 200.037 201.974 199.449 201.974 198.778C201.974 198.108 202.096 197.517 202.341 197.006C202.588 196.491 202.931 196.091 203.372 195.804C203.815 195.514 204.332 195.369 204.923 195.369C205.264 195.369 205.601 195.426 205.933 195.54C206.265 195.653 206.568 195.838 206.841 196.094C207.113 196.347 207.331 196.682 207.493 197.099C207.655 197.517 207.735 198.031 207.735 198.642V199.068H202.69V198.199H206.713C206.713 197.83 206.639 197.5 206.491 197.21C206.346 196.92 206.139 196.692 205.869 196.524C205.602 196.357 205.287 196.273 204.923 196.273C204.522 196.273 204.176 196.372 203.883 196.571C203.593 196.767 203.37 197.023 203.214 197.338C203.058 197.653 202.98 197.991 202.98 198.352V198.932C202.98 199.426 203.065 199.845 203.235 200.189C203.409 200.53 203.649 200.79 203.956 200.969C204.262 201.145 204.619 201.233 205.025 201.233C205.289 201.233 205.528 201.196 205.741 201.122C205.957 201.045 206.143 200.932 206.299 200.781C206.456 200.628 206.576 200.437 206.662 200.21L207.633 200.483C207.531 200.812 207.359 201.102 207.118 201.352C206.876 201.599 206.578 201.793 206.223 201.932C205.868 202.068 205.468 202.136 205.025 202.136ZM208.765 204.455V195.455H209.737V196.494H209.856C209.93 196.381 210.032 196.236 210.163 196.06C210.297 195.881 210.487 195.722 210.734 195.582C210.984 195.44 211.322 195.369 211.748 195.369C212.299 195.369 212.785 195.507 213.206 195.783C213.626 196.058 213.954 196.449 214.19 196.955C214.426 197.46 214.544 198.057 214.544 198.744C214.544 199.438 214.426 200.038 214.19 200.547C213.954 201.053 213.628 201.445 213.21 201.723C212.792 201.999 212.311 202.136 211.765 202.136C211.345 202.136 211.008 202.067 210.755 201.928C210.503 201.786 210.308 201.625 210.172 201.446C210.035 201.264 209.93 201.114 209.856 200.994H209.771V204.455H208.765ZM209.754 198.727C209.754 199.222 209.826 199.658 209.971 200.036C210.116 200.411 210.328 200.705 210.606 200.918C210.885 201.128 211.226 201.233 211.629 201.233C212.049 201.233 212.4 201.122 212.681 200.901C212.966 200.676 213.179 200.375 213.321 199.997C213.466 199.616 213.538 199.193 213.538 198.727C213.538 198.267 213.467 197.852 213.325 197.483C213.186 197.111 212.974 196.817 212.69 196.601C212.409 196.382 212.055 196.273 211.629 196.273C211.22 196.273 210.876 196.376 210.598 196.584C210.319 196.788 210.109 197.075 209.967 197.445C209.825 197.811 209.754 198.239 209.754 198.727Z" fill="#808D9E"/>
<path d="M240.688 197.636C240.688 198.557 240.522 199.352 240.189 200.023C239.857 200.693 239.401 201.21 238.821 201.574C238.242 201.938 237.58 202.119 236.836 202.119C236.091 202.119 235.429 201.938 234.85 201.574C234.27 201.21 233.814 200.693 233.482 200.023C233.149 199.352 232.983 198.557 232.983 197.636C232.983 196.716 233.149 195.92 233.482 195.25C233.814 194.58 234.27 194.062 234.85 193.699C235.429 193.335 236.091 193.153 236.836 193.153C237.58 193.153 238.242 193.335 238.821 193.699C239.401 194.062 239.857 194.58 240.189 195.25C240.522 195.92 240.688 196.716 240.688 197.636ZM239.665 197.636C239.665 196.881 239.539 196.243 239.286 195.723C239.036 195.203 238.696 194.81 238.267 194.543C237.841 194.276 237.364 194.142 236.836 194.142C236.307 194.142 235.828 194.276 235.399 194.543C234.973 194.81 234.634 195.203 234.381 195.723C234.131 196.243 234.006 196.881 234.006 197.636C234.006 198.392 234.131 199.03 234.381 199.55C234.634 200.07 234.973 200.463 235.399 200.73C235.828 200.997 236.307 201.131 236.836 201.131C237.364 201.131 237.841 200.997 238.267 200.73C238.696 200.463 239.036 200.07 239.286 199.55C239.539 199.03 239.665 198.392 239.665 197.636ZM244.487 202.136C243.874 202.136 243.345 201.991 242.902 201.702C242.459 201.412 242.118 201.013 241.88 200.504C241.641 199.996 241.522 199.415 241.522 198.761C241.522 198.097 241.644 197.51 241.888 197.001C242.135 196.49 242.479 196.091 242.919 195.804C243.362 195.514 243.88 195.369 244.47 195.369C244.931 195.369 245.345 195.455 245.715 195.625C246.084 195.795 246.387 196.034 246.622 196.341C246.858 196.648 247.005 197.006 247.061 197.415H246.056C245.979 197.116 245.809 196.852 245.544 196.622C245.283 196.389 244.931 196.273 244.487 196.273C244.095 196.273 243.752 196.375 243.456 196.58C243.164 196.781 242.935 197.067 242.77 197.436C242.608 197.803 242.527 198.233 242.527 198.727C242.527 199.233 242.607 199.673 242.766 200.048C242.928 200.423 243.155 200.714 243.448 200.922C243.743 201.129 244.09 201.233 244.487 201.233C244.749 201.233 244.986 201.188 245.199 201.097C245.412 201.006 245.593 200.875 245.74 200.705C245.888 200.534 245.993 200.33 246.056 200.091H247.061C247.005 200.477 246.864 200.825 246.639 201.135C246.418 201.442 246.124 201.686 245.757 201.868C245.394 202.047 244.97 202.136 244.487 202.136ZM250.878 195.455V196.307H247.486V195.455H250.878ZM248.475 193.886H249.48V200.125C249.48 200.409 249.522 200.622 249.604 200.764C249.689 200.903 249.797 200.997 249.928 201.045C250.061 201.091 250.202 201.114 250.35 201.114C250.461 201.114 250.551 201.108 250.622 201.097C250.693 201.082 250.75 201.071 250.793 201.062L250.997 201.966C250.929 201.991 250.834 202.017 250.712 202.043C250.59 202.071 250.435 202.085 250.247 202.085C249.963 202.085 249.685 202.024 249.412 201.902C249.142 201.78 248.918 201.594 248.739 201.344C248.563 201.094 248.475 200.778 248.475 200.398V193.886Z" fill="#808D9E"/>
<path d="M276.212 193.273V202H275.189L270.433 195.148H270.348V202H269.291V193.273H270.314L275.087 200.142H275.172V193.273H276.212ZM280.349 202.136C279.758 202.136 279.24 201.996 278.794 201.714C278.351 201.433 278.004 201.04 277.754 200.534C277.507 200.028 277.383 199.437 277.383 198.761C277.383 198.08 277.507 197.484 277.754 196.976C278.004 196.467 278.351 196.072 278.794 195.791C279.24 195.51 279.758 195.369 280.349 195.369C280.94 195.369 281.457 195.51 281.9 195.791C282.346 196.072 282.693 196.467 282.94 196.976C283.19 197.484 283.315 198.08 283.315 198.761C283.315 199.437 283.19 200.028 282.94 200.534C282.693 201.04 282.346 201.433 281.9 201.714C281.457 201.996 280.94 202.136 280.349 202.136ZM280.349 201.233C280.798 201.233 281.167 201.118 281.457 200.888C281.747 200.658 281.961 200.355 282.101 199.98C282.24 199.605 282.309 199.199 282.309 198.761C282.309 198.324 282.24 197.916 282.101 197.538C281.961 197.161 281.747 196.855 281.457 196.622C281.167 196.389 280.798 196.273 280.349 196.273C279.9 196.273 279.531 196.389 279.241 196.622C278.951 196.855 278.737 197.161 278.598 197.538C278.459 197.916 278.389 198.324 278.389 198.761C278.389 199.199 278.459 199.605 278.598 199.98C278.737 200.355 278.951 200.658 279.241 200.888C279.531 201.118 279.9 201.233 280.349 201.233ZM289.468 195.455L287.048 202H286.025L283.605 195.455H284.695L286.502 200.67H286.57L288.377 195.455H289.468Z" fill="#808D9E"/>
<path d="M313.193 202H310.5V193.273H313.313C314.159 193.273 314.884 193.447 315.486 193.797C316.088 194.143 316.55 194.642 316.871 195.293C317.192 195.94 317.352 196.716 317.352 197.619C317.352 198.528 317.191 199.311 316.867 199.967C316.543 200.621 316.071 201.124 315.452 201.476C314.833 201.825 314.08 202 313.193 202ZM311.557 201.062H313.125C313.847 201.062 314.445 200.923 314.919 200.645C315.394 200.366 315.747 199.97 315.98 199.456C316.213 198.942 316.33 198.33 316.33 197.619C316.33 196.915 316.215 196.308 315.985 195.8C315.754 195.288 315.411 194.896 314.953 194.624C314.496 194.348 313.926 194.21 313.244 194.21H311.557V201.062ZM321.233 202.136C320.602 202.136 320.058 201.997 319.601 201.719C319.146 201.438 318.796 201.045 318.548 200.543C318.304 200.037 318.182 199.449 318.182 198.778C318.182 198.108 318.304 197.517 318.548 197.006C318.796 196.491 319.139 196.091 319.58 195.804C320.023 195.514 320.54 195.369 321.131 195.369C321.472 195.369 321.808 195.426 322.141 195.54C322.473 195.653 322.776 195.838 323.048 196.094C323.321 196.347 323.539 196.682 323.7 197.099C323.862 197.517 323.943 198.031 323.943 198.642V199.068H318.898V198.199H322.921C322.921 197.83 322.847 197.5 322.699 197.21C322.554 196.92 322.347 196.692 322.077 196.524C321.81 196.357 321.494 196.273 321.131 196.273C320.73 196.273 320.384 196.372 320.091 196.571C319.801 196.767 319.578 197.023 319.422 197.338C319.266 197.653 319.188 197.991 319.188 198.352V198.932C319.188 199.426 319.273 199.845 319.443 200.189C319.617 200.53 319.857 200.79 320.164 200.969C320.47 201.145 320.827 201.233 321.233 201.233C321.497 201.233 321.736 201.196 321.949 201.122C322.165 201.045 322.351 200.932 322.507 200.781C322.664 200.628 322.784 200.437 322.869 200.21L323.841 200.483C323.739 200.812 323.567 201.102 323.325 201.352C323.084 201.599 322.786 201.793 322.431 201.932C322.075 202.068 321.676 202.136 321.233 202.136ZM329.61 196.92L328.706 197.176C328.649 197.026 328.566 196.879 328.455 196.737C328.347 196.592 328.199 196.473 328.012 196.379C327.824 196.286 327.584 196.239 327.291 196.239C326.891 196.239 326.557 196.331 326.29 196.516C326.026 196.697 325.894 196.929 325.894 197.21C325.894 197.46 325.985 197.658 326.166 197.803C326.348 197.947 326.632 198.068 327.019 198.165L327.99 198.403C328.575 198.545 329.012 198.763 329.298 199.055C329.585 199.345 329.729 199.719 329.729 200.176C329.729 200.551 329.621 200.886 329.405 201.182C329.192 201.477 328.894 201.71 328.51 201.881C328.127 202.051 327.681 202.136 327.172 202.136C326.504 202.136 325.952 201.991 325.514 201.702C325.077 201.412 324.8 200.989 324.683 200.432L325.638 200.193C325.729 200.545 325.901 200.81 326.154 200.986C326.409 201.162 326.743 201.25 327.155 201.25C327.624 201.25 327.996 201.151 328.271 200.952C328.55 200.75 328.689 200.509 328.689 200.227C328.689 200 328.61 199.81 328.45 199.656C328.291 199.5 328.047 199.384 327.718 199.307L326.627 199.051C326.027 198.909 325.587 198.689 325.306 198.391C325.027 198.089 324.888 197.713 324.888 197.261C324.888 196.892 324.992 196.565 325.199 196.281C325.409 195.997 325.695 195.774 326.056 195.612C326.419 195.45 326.831 195.369 327.291 195.369C327.939 195.369 328.448 195.511 328.817 195.795C329.189 196.08 329.453 196.455 329.61 196.92Z" fill="#808D9E"/>
<path d="M157.711 202H156.603L159.807 193.273H160.898L164.103 202H162.995L160.387 194.653H160.318L157.711 202ZM158.12 198.591H162.586V199.528H158.12V198.591ZM168.951 199.324V195.455H169.956V202H168.951V200.892H168.882C168.729 201.224 168.49 201.507 168.167 201.74C167.843 201.97 167.434 202.085 166.939 202.085C166.53 202.085 166.167 201.996 165.848 201.817C165.53 201.635 165.28 201.362 165.098 200.999C164.917 200.632 164.826 200.17 164.826 199.614V195.455H165.831V199.545C165.831 200.023 165.965 200.403 166.232 200.688C166.502 200.972 166.845 201.114 167.263 201.114C167.513 201.114 167.767 201.05 168.026 200.922C168.287 200.794 168.506 200.598 168.682 200.334C168.861 200.07 168.951 199.733 168.951 199.324ZM173.94 204.591C173.455 204.591 173.037 204.528 172.687 204.403C172.338 204.281 172.047 204.119 171.814 203.918C171.584 203.719 171.401 203.506 171.264 203.278L172.065 202.716C172.156 202.835 172.271 202.972 172.41 203.125C172.55 203.281 172.74 203.416 172.981 203.53C173.226 203.646 173.545 203.705 173.94 203.705C174.469 203.705 174.905 203.577 175.249 203.321C175.592 203.065 175.764 202.665 175.764 202.119V200.79H175.679C175.605 200.909 175.5 201.057 175.364 201.233C175.23 201.406 175.037 201.561 174.784 201.697C174.534 201.831 174.196 201.898 173.77 201.898C173.241 201.898 172.767 201.773 172.347 201.523C171.929 201.273 171.598 200.909 171.354 200.432C171.112 199.955 170.991 199.375 170.991 198.693C170.991 198.023 171.109 197.439 171.345 196.942C171.581 196.442 171.909 196.055 172.33 195.783C172.75 195.507 173.236 195.369 173.787 195.369C174.213 195.369 174.551 195.44 174.801 195.582C175.054 195.722 175.247 195.881 175.381 196.06C175.517 196.236 175.622 196.381 175.696 196.494H175.798V195.455H176.77V202.188C176.77 202.75 176.642 203.207 176.386 203.56C176.133 203.915 175.793 204.175 175.364 204.339C174.937 204.507 174.463 204.591 173.94 204.591ZM173.906 200.994C174.31 200.994 174.651 200.902 174.929 200.717C175.207 200.533 175.419 200.267 175.564 199.92C175.709 199.574 175.781 199.159 175.781 198.676C175.781 198.205 175.71 197.788 175.568 197.428C175.426 197.067 175.216 196.784 174.937 196.58C174.659 196.375 174.315 196.273 173.906 196.273C173.48 196.273 173.125 196.381 172.841 196.597C172.56 196.812 172.348 197.102 172.206 197.466C172.067 197.83 171.997 198.233 171.997 198.676C171.997 199.131 172.068 199.533 172.21 199.882C172.355 200.229 172.568 200.501 172.849 200.7C173.133 200.896 173.486 200.994 173.906 200.994Z" fill="#808D9E"/>
<path d="M125.801 193.273H126.857V199.511C126.857 200.068 126.755 200.541 126.551 200.93C126.346 201.32 126.058 201.615 125.686 201.817C125.313 202.018 124.875 202.119 124.369 202.119C123.892 202.119 123.467 202.033 123.095 201.859C122.723 201.683 122.43 201.433 122.217 201.109C122.004 200.786 121.897 200.401 121.897 199.955H122.937C122.937 200.202 122.998 200.418 123.12 200.602C123.245 200.784 123.416 200.926 123.632 201.028C123.848 201.131 124.093 201.182 124.369 201.182C124.673 201.182 124.931 201.118 125.144 200.99C125.357 200.862 125.519 200.675 125.63 200.428C125.744 200.178 125.801 199.872 125.801 199.511V193.273ZM132.464 199.324V195.455H133.47V202H132.464V200.892H132.396C132.242 201.224 132.004 201.507 131.68 201.74C131.356 201.97 130.947 202.085 130.453 202.085C130.044 202.085 129.68 201.996 129.362 201.817C129.044 201.635 128.794 201.362 128.612 200.999C128.43 200.632 128.339 200.17 128.339 199.614V195.455H129.345V199.545C129.345 200.023 129.478 200.403 129.745 200.688C130.015 200.972 130.359 201.114 130.776 201.114C131.026 201.114 131.281 201.05 131.539 200.922C131.801 200.794 132.019 200.598 132.196 200.334C132.375 200.07 132.464 199.733 132.464 199.324ZM135.817 193.273V202H134.812V193.273H135.817Z" fill="#808D9E"/>
</g>
<defs>
<filter id="filter0_d_2_6313" x="0" y="0" width="451" height="343" filterUnits="userSpaceOnUse" color-interpolation-filters="sRGB">
<feFlood flood-opacity="0" result="BackgroundImageFix"/>
<feColorMatrix in="SourceAlpha" type="matrix" values="0 0 0 0 0 0 0 0 0 0 0 0 0 0 0 0 0 0 127 0" result="hardAlpha"/>
<feOffset dx="20" dy="40"/>
<feGaussianBlur stdDeviation="40"/>
<feComposite in2="hardAlpha" operator="out"/>
<feColorMatrix type="matrix" values="0 0 0 0 0.178125 0 0 0 0 0.200292 0 0 0 0 0.316667 0 0 0 0.12 0"/>
<feBlend mode="multiply" in2="BackgroundImageFix" result="effect1_dropShadow_2_6313"/>
<feBlend mode="normal" in="SourceGraphic" in2="effect1_dropShadow_2_6313" result="shape"/>
</filter>
<linearGradient id="paint0_linear_2_6313" x1="205.562" y1="91" x2="205.562" y2="183" gradientUnits="userSpaceOnUse">
<stop stop-color="#FF7222"/>
<stop offset="1" stop-color="white" stop-opacity="0"/>
</linearGradient>
</defs>
</svg>
