<svg width="7" height="9" viewBox="0 0 7 9" fill="none" xmlns="http://www.w3.org/2000/svg">
<path d="M1.476 7.14C2.244 6.476 2.848 5.932 3.288 5.508C3.736 5.076 4.108 4.628 4.404 4.164C4.7 3.7 4.848 3.236 4.848 2.772C4.848 2.292 4.732 1.916 4.5 1.644C4.276 1.372 3.92 1.236 3.432 1.236C2.96 1.236 2.592 1.388 2.328 1.692C2.072 1.988 1.936 2.388 1.92 2.892H0.6C0.624 1.98 0.896 1.284 1.416 0.804C1.944 0.316 2.612 0.0719998 3.42 0.0719998C4.292 0.0719998 4.972 0.312 5.46 0.792C5.956 1.272 6.204 1.912 6.204 2.712C6.204 3.288 6.056 3.844 5.76 4.38C5.472 4.908 5.124 5.384 4.716 5.808C4.316 6.224 3.804 6.708 3.18 7.26L2.64 7.74H6.444V8.88H0.612V7.884L1.476 7.14Z" fill="white"/>
</svg>
