<svg width="50" height="50" viewBox="0 0 50 50" fill="none" xmlns="http://www.w3.org/2000/svg">
<g clip-path="url(#clip0_2_740)">
<path d="M24.9976 0C38.8046 0 49.9952 11.1968 49.9952 25C49.9952 38.8032 38.8046 50 24.9976 50C11.1906 50 0 38.8032 0 25C0 11.1968 11.1906 0 24.9976 0Z" fill="#F95555"/>
<path d="M36.9973 10.4255C37.878 10.4255 38.3184 10.8777 38.3184 11.7819V16.8351C38.3184 17.2606 38.2148 17.6064 37.9816 17.8457C37.7744 18.0851 37.4376 18.1915 36.9973 18.1915H25.4958C25.0813 18.1915 24.7445 18.2979 24.5114 18.5372C24.2783 18.75 24.1746 19.0957 24.1746 19.5479V40.6649C24.1746 41.0904 24.071 41.4362 23.8379 41.6755C23.6307 41.9149 23.2939 42.0213 22.8535 42.0213H17.6727C17.2582 42.0213 16.9215 41.9149 16.6883 41.6755C16.4552 41.4362 16.3516 41.117 16.3516 40.6649V11.7819C16.3516 11.3298 16.4811 10.984 16.6883 10.7713C16.9215 10.5585 17.2323 10.4255 17.6727 10.4255H36.9973Z" fill="white"/>
<path d="M27.1777 27.6064C23.8879 27.3404 7.90496 30 6.68747 27.101C4.69284 22.2606 21.5047 25 23.7584 25.0532C24.8982 25.0798 26.297 25.3191 27.1 25.0798C27.6699 24.9202 28.0585 23.9627 28.6802 23.5904C30.1049 22.7393 32.3845 23.2181 34.3532 23.3776C35.7002 23.484 36.9954 23.6436 38.3943 23.7234C36.3996 24.0159 34.2496 24.3085 32.1254 24.5744C31.8664 24.601 31.4778 24.5213 31.3224 24.7872C33.4725 25.133 35.8816 25.2127 38.2388 25.3989C35.9593 25.7447 33.3688 25.8244 31.1152 26.2766C31.2706 26.5425 31.6592 26.4627 31.9182 26.4893C33.9387 26.6489 36.1406 26.8085 38.2388 26.9415C36.037 27.3138 33.4984 27.367 31.3483 27.8191C31.4001 28.1649 31.8923 28.0585 32.0995 28.0851C34.0942 28.3244 36.3478 28.617 38.4202 28.8032C36.1406 28.9893 33.317 29.5213 30.9338 29.6808C29.1465 29.8138 28.0844 28.7234 27.1777 27.6064Z" fill="white"/>
<path d="M21.5057 27.8723C24.0443 27.6596 26.1943 27.4734 27.2046 27.5532H27.2305C27.6709 28.1117 28.1631 28.6702 28.7589 29.0691C29.3547 29.4681 30.08 29.7074 30.9866 29.6542C32.2818 29.5745 33.7325 29.3883 35.1313 29.1755C36.1416 29.0425 37.1259 28.9096 38.0585 28.8032C37.1518 28.7234 36.2193 28.617 35.2867 28.5106C34.1988 28.3776 33.1367 28.2447 32.1523 28.1383H31.9969C31.7638 28.1383 31.427 28.1383 31.3752 27.8457V27.8191H31.4011C32.6186 27.5798 33.9397 27.4468 35.2608 27.3138C36.1675 27.234 37.0741 27.1276 37.929 27.0213C36.3488 26.9149 34.6909 26.8085 33.1367 26.6755L31.971 26.5957H31.7897C31.5565 26.5957 31.2716 26.5957 31.1421 26.3564L31.1162 26.3032H31.168C32.4373 26.0372 33.8102 25.9042 35.1831 25.7979C36.1157 25.7181 37.0482 25.6117 37.929 25.5053L36.5301 25.4255C34.7687 25.3191 32.9813 25.2128 31.3752 24.9468H31.3234L31.3493 24.8936C31.4788 24.6542 31.7379 24.6542 31.971 24.6542H32.1782L33.8879 24.4149C35.3126 24.2287 36.7374 24.0425 38.0844 23.8298C37.2814 23.7766 36.4783 23.6968 35.6753 23.617C35.2608 23.5904 34.8464 23.5372 34.406 23.5106C34.0692 23.484 33.7066 23.4308 33.3439 23.4042C31.6601 23.2181 29.8987 23.0319 28.7589 23.7234C28.4739 23.883 28.2408 24.1755 28.0076 24.4681C27.7486 24.8138 27.4896 25.133 27.1528 25.2128C26.5829 25.3723 25.754 25.3191 24.8991 25.2394C24.5106 25.2128 24.1479 25.1862 23.7853 25.1862C23.3967 25.1862 22.5937 25.0798 21.5057 24.9734C17.6718 24.5745 10.5223 23.8032 7.72461 25.0266C6.74025 25.4521 6.32578 26.117 6.74025 27.1542C7.56919 29.0691 15.6254 28.3776 21.5057 27.8723ZM27.1787 27.633C26.1943 27.5532 24.0443 27.7393 21.5057 27.9521C15.5995 28.4574 7.51738 29.1489 6.66254 27.1011C6.22216 26.0372 6.66254 25.3191 7.6728 24.867C10.4964 23.617 17.6459 24.3883 21.4798 24.7872C22.5418 24.8936 23.3449 25 23.7334 25C24.0961 25 24.4588 25.0266 24.8473 25.0532C25.6763 25.1064 26.5311 25.1862 27.0751 25.0266C27.36 24.9468 27.6191 24.6276 27.8781 24.3085C28.1113 24.0159 28.3444 23.7234 28.6553 23.5372C29.8209 22.8191 31.5824 23.0319 33.2921 23.2181C33.6548 23.2713 34.0174 23.2979 34.3542 23.3245C34.7687 23.3511 35.1831 23.4042 35.6235 23.4308C36.5301 23.5106 37.4368 23.617 38.3953 23.6702L38.7579 23.6968L38.3953 23.75C36.9446 23.9628 35.3904 24.1755 33.8361 24.3883L32.1264 24.6276H31.9192C31.7379 24.6276 31.5306 24.6276 31.4011 24.7872C32.9813 25.0266 34.7428 25.1596 36.4783 25.2659C37.0741 25.2925 37.6699 25.3457 38.2398 25.3723L38.5766 25.3989L38.2398 25.4521C37.2555 25.6117 36.1934 25.7181 35.1313 25.7979C33.7843 25.9308 32.4373 26.0638 31.168 26.3032C31.2975 26.4362 31.5306 26.4362 31.7379 26.4362H31.9192L33.0849 26.5159C34.7687 26.6489 36.5301 26.7819 38.2398 26.8617L38.6025 26.8883L38.2398 26.9415C37.2814 27.1011 36.2452 27.2074 35.209 27.3138C33.9138 27.4468 32.5927 27.5798 31.4011 27.8191C31.4529 28.0319 31.7379 28.0053 31.9192 28.0053H32.1005C33.1108 28.1383 34.1729 28.2713 35.2349 28.3776C36.297 28.5106 37.385 28.617 38.4212 28.7234V28.8032C37.385 28.883 36.2452 29.0425 35.0795 29.2021C33.6807 29.3883 32.23 29.6011 30.9348 29.6808C30.0023 29.734 29.277 29.4947 28.6812 29.0957C28.1113 28.75 27.6191 28.1915 27.1787 27.633Z" fill="white"/>
</g>
<defs>
<clipPath id="clip0_2_740">
<rect width="50" height="50" fill="white"/>
</clipPath>
</defs>
</svg>
