<svg width="162" height="116" viewBox="0 0 162 116" fill="none" xmlns="http://www.w3.org/2000/svg">
<path d="M37 65L32.9669 60.9669M32.9669 60.9669C34.5013 59.4326 35.3633 57.3515 35.3633 55.1816C35.3633 53.0117 34.5013 50.9307 32.9669 49.3963C31.4326 47.862 29.3515 47 27.1816 47C25.0117 47 22.9307 47.862 21.3963 49.3963C19.862 50.9307 19 53.0117 19 55.1816C19 57.3515 19.862 59.4326 21.3963 60.9669C22.9307 62.5013 25.0117 63.3633 27.1816 63.3633C29.3515 63.3633 31.4326 62.5013 32.9669 60.9669Z" stroke="#2B2B2B" stroke-width="2" stroke-linecap="round" stroke-linejoin="round"/>
<g filter="url(#filter0_d_2_752)">
<rect x="76" y="28" width="56" height="56" rx="28" fill="white"/>
<path d="M107.751 54.5V50C107.751 49.0054 107.356 48.0516 106.653 47.3483C105.95 46.6451 104.996 46.25 104.001 46.25C103.007 46.25 102.053 46.6451 101.35 47.3483C100.646 48.0516 100.251 49.0054 100.251 50V54.5M111.607 52.507L112.87 64.507C112.94 65.172 112.42 65.75 111.751 65.75H96.2512C96.0934 65.7502 95.9374 65.7171 95.7932 65.6531C95.649 65.589 95.5199 65.4953 95.4142 65.3781C95.3086 65.2608 95.2288 65.1227 95.1801 64.9726C95.1313 64.8226 95.1147 64.6639 95.1312 64.507L96.3952 52.507C96.4244 52.2306 96.5548 51.9747 96.7615 51.7888C96.9681 51.6028 97.2362 51.4999 97.5142 51.5H110.488C111.064 51.5 111.547 51.935 111.607 52.507ZM100.626 54.5C100.626 54.5995 100.587 54.6948 100.516 54.7652C100.446 54.8355 100.351 54.875 100.251 54.875C100.152 54.875 100.056 54.8355 99.986 54.7652C99.9157 54.6948 99.8762 54.5995 99.8762 54.5C99.8762 54.4005 99.9157 54.3052 99.986 54.2348C100.056 54.1645 100.152 54.125 100.251 54.125C100.351 54.125 100.446 54.1645 100.516 54.2348C100.587 54.3052 100.626 54.4005 100.626 54.5V54.5ZM108.126 54.5C108.126 54.5995 108.087 54.6948 108.016 54.7652C107.946 54.8355 107.851 54.875 107.751 54.875C107.652 54.875 107.556 54.8355 107.486 54.7652C107.416 54.6948 107.376 54.5995 107.376 54.5C107.376 54.4005 107.416 54.3052 107.486 54.2348C107.556 54.1645 107.652 54.125 107.751 54.125C107.851 54.125 107.946 54.1645 108.016 54.2348C108.087 54.3052 108.126 54.4005 108.126 54.5V54.5Z" stroke="#2B2B2B" stroke-width="2" stroke-linecap="round" stroke-linejoin="round"/>
</g>
<defs>
<filter id="filter0_d_2_752" x="46" y="0" width="116" height="116" filterUnits="userSpaceOnUse" color-interpolation-filters="sRGB">
<feFlood flood-opacity="0" result="BackgroundImageFix"/>
<feColorMatrix in="SourceAlpha" type="matrix" values="0 0 0 0 0 0 0 0 0 0 0 0 0 0 0 0 0 0 127 0" result="hardAlpha"/>
<feOffset dy="2"/>
<feGaussianBlur stdDeviation="15"/>
<feComposite in2="hardAlpha" operator="out"/>
<feColorMatrix type="matrix" values="0 0 0 0 0.976471 0 0 0 0 0.333333 0 0 0 0 0.333333 0 0 0 0.3 0"/>
<feBlend mode="normal" in2="BackgroundImageFix" result="effect1_dropShadow_2_752"/>
<feBlend mode="normal" in="SourceGraphic" in2="effect1_dropShadow_2_752" result="shape"/>
</filter>
</defs>
</svg>
